<?xml version="1.0" encoding="utf-8"?>
<!-- Generator: Adobe Illustrator 16.0.0, SVG Export Plug-In . SVG Version: 6.00 Build 0)  -->
<!DOCTYPE svg PUBLIC "-//W3C//DTD SVG 1.1//EN" "http://www.w3.org/Graphics/SVG/1.1/DTD/svg11.dtd">
<svg version="1.1" id="Layer_1" xmlns="http://www.w3.org/2000/svg" xmlns:xlink="http://www.w3.org/1999/xlink" x="0px" y="0px"
	 width="189px" height="189px" viewBox="0 0 189 189" enable-background="new 0 0 189 189" xml:space="preserve">
<ellipse fill="#FAFAFA" cx="94.148" cy="94.223" rx="94.148" ry="94.223"/>
<path opacity="0.6" fill="#C4D78B" enable-background="new    " d="M123.125,138.602c-0.888,1.525-1.857,2.955-4.01,2.582
	c-0.625-0.113-1.299-0.309-1.791-0.666c-1.266-0.926-2.68-1.396-4.208-1.527c-1.759-0.162-2.268-0.926-1.741-2.566
	c0.41-1.268,0.427-2.469-0.197-3.768c-0.691-1.398-1.168-2.926-1.578-4.436c-0.723-2.615-0.049-5.035,1.381-7.277
	c0.147-0.227,0.328-0.439,0.477-0.65c0.114-0.178,0.229-0.357,0.41-0.633c-0.707-0.602-1.396-1.17-2.202-1.852
	c-0.197,0.342-0.395,0.584-0.477,0.861c-0.214,0.746-0.706,1.234-1.413,1.461c-1.249,0.406-2.005,1.301-2.482,2.438
	c-0.673,1.623-1.676,3.021-2.76,4.402c-0.674,0.844-1.2,1.803-1.66,2.777c-0.346,0.746-0.214,1.445,0.641,1.916
	c1.135,0.617,2.252,1.301,3.336,2.014c0.279,0.18,0.608,0.602,0.559,0.861c-0.032,0.26-0.477,0.635-0.771,0.666
	c-1.118,0.162-2.269,0.244-3.402,0.293c-1.084,0.033-2.17-0.016-3.254-0.033c-0.328,0-0.657,0.066-0.986,0.066
	c-1.808,0-2.826-1.283-2.399-3.021c0.033-0.164,0.083-0.326,0.181-0.455c1.677-2.275,1.693-5.02,1.809-7.604
	c0.131-2.939,1.462-4.953,3.895-6.318c1.299-0.73,1.396-1.607,1.299-2.924c-0.148-2.193-0.642-4.012-2.252-5.75
	c-1.627-1.754-1.841-4.223-1.332-6.611c0.197-0.926,0.346-1.818-0.492-2.551c-0.164-0.146-0.328-0.422-0.493-0.406
	c-1.118,0.049-1.545-1.006-2.399-1.348c0.92-1.738,2.284-1.965,5.078-0.828c0.066-0.373,0.164-0.699,0.164-1.039
	c0.033-1.398-0.033-2.811,0.1-4.208c0.147-1.592,0.525-3.135,2.268-3.931c-0.346-1.625,0.46-2.843,1.479-3.947
	c1.249-1.349,2.055-2.875,2.744-4.565c1.036-2.501,2.301-4.905,3.518-7.326c0.543-1.056,0.46-1.641-0.493-2.453
	c-0.674-0.568-1.085-1.689-2.498-0.698c0.214-1.186-0.197-1.576-1.101-1.56c-0.296,0-0.74-0.13-0.871-0.357
	c-0.97-1.576-2.63-2.696-3.041-4.678c-0.213-1.04-0.854-2.014-0.953-3.103c-0.033-0.406-0.082-0.877,0.066-1.251
	c0.492-1.234,1.068-2.437,1.627-3.687c-0.361-0.325-0.625-0.536-0.953-0.829c0.542-0.357,0.969-0.65,1.495-0.991
	c-0.329-0.438-0.608-0.813-0.937-1.267c0.428-0.146,0.821-0.292,1.166-0.406c0.083-0.747,0.165-1.462,0.247-2.177
	c0.099-0.016,0.197-0.032,0.296-0.032c0.313,0.503,0.607,0.991,0.937,1.527c1.167-1.007,2.153-1.933,3.698-1.543
	c0.23,0.048,0.559-0.082,0.771-0.228c1.266-0.975,2.729-1.072,4.258-1.3c1.889-0.292,3.73-0.455,5.637-0.227
	c0.295,0.032,0.624-0.114,0.92-0.26c2.941-1.397,5.686-0.114,6.359,3.054c0.215,0.991,0.148,2.046,0.182,3.07
	c0.033,0.731,0,1.479,0,2.339c0.641-0.082,1.019-0.13,1.726-0.228c-0.526,0.894-0.921,1.56-1.331,2.258
	c0.098,1.348,0.213,2.794,0.279,4.24c0.016,0.585,0.246,0.894,0.805,1.056c0.329,0.098,0.921,0.341,0.904,0.487
	c-0.099,1.56,0.607,3.2-0.428,4.679c-0.164,0.244-0.263,0.568-0.313,0.877c-0.229,1.56-0.838,2.209-2.432,2.648
	c-1.266,0.341-2.547,0.649-3.747,1.153c-2.235,0.942-2.498,1.884-1.216,3.882c1.66,2.599,2.514,5.376,2.152,8.479
	c-0.098,0.796,0.05,1.625,0.033,2.42c-0.033,1.283,0,2.599-0.181,3.866c-0.28,1.949-1.348,3.443-2.794,4.825
	c-1.709,1.641-3.287,3.412-3.879,5.832c-0.197,0.795-0.821,1.494-1.331,2.371c2.202,2.486,2.466,5.832,3.255,9
	c0.344,1.363,0.706,2.711,1.199,4.027c0.51,1.332,0.575,2.502-0.575,3.559c-1.068,0.975-1.068,2.355-1.15,3.621
	c-0.115,1.689-0.345,3.314-1.068,4.873c-0.624,1.381-0.46,2.875-0.296,4.322c0.033,0.34,0.411,0.715,0.723,0.941
	c0.691,0.52,1.43,0.99,2.17,1.43c0.657,0.373,1.331,0.715,2.021,1.023C122.123,137.578,122.829,137.756,123.125,138.602z"/>
</svg>
