<?xml version="1.0" encoding="utf-8"?>
<!-- Generator: Adobe Illustrator 16.0.0, SVG Export Plug-In . SVG Version: 6.00 Build 0)  -->
<!DOCTYPE svg PUBLIC "-//W3C//DTD SVG 1.1//EN" "http://www.w3.org/Graphics/SVG/1.1/DTD/svg11.dtd">
<svg version="1.1" id="Layer_1" xmlns="http://www.w3.org/2000/svg" xmlns:xlink="http://www.w3.org/1999/xlink" x="0px" y="0px"
	 width="189px" height="189px" viewBox="0 0 189 189" enable-background="new 0 0 189 189" xml:space="preserve">
<ellipse fill="#FAFAFA" cx="94.148" cy="94.223" rx="94.148" ry="94.223"/>
<path opacity="0.6" fill="#C4D78B" enable-background="new    " d="M88.874,89.053c-0.287,0.236-0.776,0.576-0.997,0.475
	c-1.385-0.661-2.939-0.254-4.375-1c-1.317-0.694-2.635-1.321-3.902-2.135c-0.912-0.575-1.368-1.27-1.521-2.252
	c-0.354-2.202-1.537-3.642-3.784-4.167c-0.321-0.085-0.845-0.711-0.794-0.83c0.423-0.847,0.085-2.101,1.301-2.558
	c0.22-0.085,0.389-0.407,0.489-0.644c0.355-0.762,0.643-1.559,1.014-2.321c0.389-0.796,0.592-1.524,0.085-2.388
	c-0.22-0.39-0.253-1.05-0.085-1.457c0.474-1.101,0.355-2.202,0.322-3.32c-0.018-0.779-0.085-1.66,0.219-2.337
	c0.558-1.253-0.033-2.049-0.76-2.862c-0.372-0.424-1.014-0.763-1.098-1.22c-0.355-1.745-1.504-2.066-2.991-1.965
	c-1.03,0.068-1.993,0-2.854-0.711c-0.355-0.288-0.997-0.525-1.42-0.423c-1.841,0.44-3.648,0.965-5.439,1.575
	c-0.405,0.135-0.743,0.626-1.03,1.016c-0.355,0.474-0.575,1.05-0.963,1.507c-1.622,1.999-2.467,4.133-1.487,6.708
	c0.236,0.626,0.27,1.321,0.372,1.948c-0.372,0.458-1.064,0.965-0.997,1.304c0.287,1.406,0.253,3.1,1.47,3.98
	c1.115,0.796,1.132,1.728,1.334,2.947c-1.571,0.271-3.041,0.593-4.527,0.746c-1.335,0.135-2.534,0.254-3.21,1.677
	c-0.22,0.458-0.811,0.762-1.284,1.033c-1.064,0.593-2.162,1.135-3.108,1.609c-0.76-0.661-1.419-1.321-2.179-1.863
	c-1.841-1.355-2.247-2.66-1.402-4.76c0.203-0.525,0.355-1.067,0.541-1.609c-0.119-0.085-0.253-0.187-0.372-0.271
	c-0.557,0.39-1.098,0.762-1.757,1.22c-0.456-0.678-0.878-1.321-1.419-2.117c-0.473,0.813-1.233,0.661-1.909,0.661
	c0.135,0.745,0.253,1.355,0.355,1.948c-0.98,0.271-1.318-0.949-2.23-0.508c0.236,0.525,0.439,0.982,0.642,1.457
	c-0.608,0.22-1.115-0.762-1.622,0.237c0.439,0.237,0.828,0.61,1.267,0.695c1.183,0.22,1.402,0.915,1.521,2.032
	c0.253,2.676,0.692,5.353,2.821,7.317c0.912,0.848,1.74,1.779,2.737,2.508c1.148,0.83,2.399,1.371,3.936,0.779
	c1.216-0.475,2.534-0.645,3.818-0.966c-0.051,1.22-0.119,2.388-0.169,3.54c-0.135,2.693,0.541,5.42-0.794,8.08
	c-0.49,0.982-0.794,2.032-1.622,2.828c-3.75,3.574-5.862,8.147-7.805,12.84c1.166,1.423,2.788,1.931,4.308,2.608
	c-0.101,0.457-0.169,0.83-0.287,1.372c0.896,0.221,1.757,0.39,2.602,0.627c1.132,0.305,2.281,0.592,3.345,1.033
	c0.338,0.135,0.659,0.779,0.676,1.202c0.084,1.288,0.135,2.608,0,3.896c-0.304,2.896,0.372,5.675,0.743,8.504
	c0.287,2.168,1.233,4.488-0.271,6.64c-0.473,0.677-0.878,1.405-1.352,2.185c0.237,0.221,0.439,0.594,0.71,0.645
	c1.199,0.236,2.416,0.457,3.632,0.524c1.081,0.067,1.436-0.22,1.588-1.321c0.168-1.168,0.541-2.15,1.351-3.015
	c0.254-0.255,0.422-0.694,0.439-1.05c0.051-1.424,0.709-2.846,0.102-4.303c-0.119-0.288,0-0.678,0.034-1
	c0.338-3.285,0.845-6.572,0.811-9.892c0-0.56,0.253-1.101,0.354-1.456c2.365,0.474,4.494,0.914,6.656,1.338
	c0.422,0.609,0.98,1.253,1.368,1.981c0.474,0.881,0.862,1.829,1.166,2.778c0.354,1.117,0.474,2.303,0.878,3.387
	c0.946,2.559,2.146,5.064,2.23,7.826c0.067,1.762,0.996,2.558,2.314,3.371c0.777,0.474,1.368,1.287,1.926,2.032
	c0.744,0.999,1.555,1.829,2.923,1.593c0.71-0.119,1.437-0.289,2.095-0.56c0.608-0.254,1.25-0.61,1.284-1.423
	c0.034-0.678-0.456-0.965-0.964-1.254c-0.388-0.22-0.76-0.49-1.098-0.779c-1.132-1.049-2.044-2.168-2.061-3.861
	c-0.051-3.15-0.236-6.318-0.389-9.469c-0.018-0.44,0-0.932-0.169-1.321c-1.014-2.422-1.419-4.946-1.487-7.622
	c0.221-0.135,0.49-0.322,0.777-0.475c1.977-1.084,2.062-1.439,1.402-3.625c-0.777-2.557-1.959-4.895-3.311-7.164
	c-0.305-0.525-0.575-1.084-0.828-1.644c-0.372-0.813-0.592-1.728-1.082-2.438c-1.25-1.779-1.57-3.777-1.182-5.776
	c0.32-1.745,0.371-3.473,0.389-5.218c0.017-0.982,0.017-1.981,0.033-3.031c0.389,0.067,0.574,0.033,0.709,0.118
	c1.437,0.864,2.957,1.321,4.646,1.271c1.284-0.033,2.585-0.084,3.869,0c1.52,0.085,2.889-0.119,3.953-1.355
	c0.168-0.203,0.456-0.389,0.709-0.439c1.773-0.373,3.43-1.033,4.934-2.066c0.304-0.203,0.54-0.475,0.811-0.729
	C92.49,87.41,91.02,87.273,88.874,89.053z"/>
<path opacity="0.6" fill="#C4D78B" enable-background="new    " d="M111.649,88.29c-0.38,0.049-0.76,0.084-1.128,0.145
	c-0.834,0.131-1.152-0.096-0.943-0.85c0.184-0.646-0.037-1.125-0.258-1.699c-0.943-2.501-1.385-5.025-0.576-7.693
	c0.503-1.663,0.711-3.422,1.018-5.133c0.098-0.538-0.024-0.993-0.613-1.28c-2.279-1.101-3.443-3.099-4.229-5.325
	c-0.453-1.268-0.87-2.561-0.87-3.948c0-0.491-0.355-1.017-0.662-1.472c-0.245-0.371-0.539-0.622-0.343-1.161
	c0.294-0.79-0.368-2.178-1.066-2.644c-0.564-0.371-1.066-0.826-1.569-1.269c-0.122-0.107-0.099-0.359-0.135-0.526
	c0.49-0.347,0.772-0.132,1.091,0.191c0.331,0.347,0.711,0.67,1.128,0.897c0.184,0.107,0.563,0.06,0.76-0.06
	c0.122-0.072,0.159-0.442,0.099-0.634c-0.099-0.288-0.295-0.551-0.479-0.814c-0.466-0.718-0.76-1.472-0.43-2.453
	c1.238,0.443,0.846,2.034,2.097,2.524c0.417-1.28-0.503-2.596,0.099-3.888c1.225,0.311,0.857,1.448,1.396,2.177
	c0.086-0.514,0.209-1.029,0.27-1.555c0.049-0.502,0.27-0.718,0.871-0.598c0.27,0.957,0.122,1.95,0.122,2.931
	c-0.013,0.933,0.073,1.819,0.552,2.656c0.037,0.072,0.024,0.167,0.073,0.227c1.68,2.118,2.488,4.738,4.082,6.904
	c0.208,0.287,0.355,0.634,0.944,0.527c-0.099-0.275-0.16-0.515-0.282-0.742c-0.527-1.029-1.104-2.046-1.581-3.099
	c-0.552-1.245-0.625-2.501-0.025-3.805c0.233-0.503,0.221-1.173,0.147-1.735c-0.159-1.232-0.404-2.453-0.073-3.673
	c0.172-0.61,0.344-1.232,0.649-1.783c1.925-3.505,5.124-4.881,9.021-5.157c2.305-0.155,4.217,0.55,5.908,2.046
	c1.741,1.532,2.488,3.47,2.696,5.671c0.086,0.91,0.724,1.675,1.655,1.915c1.054,0.275,1.422,0.383,1.422,1.567
	c0,0.574,0.331,1.232,0.687,1.723c1.643,2.297,2.022,4.714,0.993,7.346c-0.454,1.161-0.883,2.297-1.692,3.291
	c-0.648,0.79-1.336,1.507-2.255,1.962c-0.44,0.216-0.674,0.503-0.797,0.969c-0.221,0.85-0.453,1.687-0.772,2.501
	c-0.526,1.34-0.686,2.668-0.232,4.08c0.502,1.543,0.527,3.146,0.38,4.726c-0.11,1.196-0.724,2.177-2.146,2.728
	c0.332,0.347,0.564,0.658,0.858,0.885c1.581,1.256,3.224,2.441,4.769,3.745c1.753,1.483,3.42,3.063,5.123,4.606
	c0.441,0.406,0.896,0.802,1.361,1.171c0.943,0.779,0.98,1.389,0.109,2.238c-0.343,0.336-0.697,0.67-1.041,1.018
	c-0.479,0.479-0.797,0.969-0.466,1.699c0.294,0.67-0.271,0.992-0.772,1.291c-1.568,0.934-3.138,1.867-4.695,2.801
	c-0.208,0.119-0.392,0.275-0.575,0.406c0,0.67,0.196,1.184,0.625,1.676c1.091,1.244,1.74,2.656,1.716,4.354
	c-0.024,1.316,0.086,2.633,0.196,3.938c0.049,0.539,0.245,1.064,0.404,1.58c0.491,1.602,0.907,3.23,0.735,4.916
	c-0.049,0.516-0.429,1.018-0.735,1.473c-0.944,1.412-2.243,2.309-3.996,2.441c-0.968,0.07-1.961,0.035-2.941,0
	c-0.405-0.014-0.821-0.096-1.188-0.24c-0.675-0.252-0.969-0.826-0.65-1.436c0.232-0.479,0.588-1.029,1.042-1.244
	c0.896-0.443,1.201-1.113,1.287-1.998c0.024-0.24,0.013-0.49,0.11-0.707c0.393-0.908,0.453-1.807,0.061-2.727
	c-0.061-0.145-0.135-0.348-0.072-0.467c0.526-0.945-0.135-1.736-0.319-2.598c-0.441-2.045-1.569-3.709-2.93-5.264
	c-0.294-0.322-0.503-0.719-0.772-1.125c-1.482,0.061-2.99,0.168-4.486,0.156c-1.716-0.012-3.42-0.096-5.123-0.217
	c-0.552-0.035-1.104-0.262-1.643-0.43c-0.809-0.24-1.361,0.047-1.483,0.873c-0.086,0.551-0.086,1.113-0.147,1.664
	c-0.184,1.891-1.25,3.422-2.12,5.037c-0.135,0.25-0.282,0.479-0.405,0.729c-0.612,1.27-0.612,1.27-0.207,2.514
	c-0.589,0.264-0.736,0.754-0.822,1.4c-0.146,1.172-0.502,2.309-1.127,3.373c-0.319,0.539-0.688,0.766-1.264,0.742
	c-0.318-0.012-0.648-0.072-0.955-0.156c-2.244-0.563-4.486-1.137-6.742-1.699c-1.029-0.25-1.826-0.873-2.562-1.566
	c-0.172-0.168-0.245-0.49-0.282-0.742c-0.049-0.43-0.012-0.873-0.012-1.447c0.563-0.023,1.078-0.072,1.581-0.072
	c1.349-0.023,2.672-0.072,3.897-0.789c0.453-0.264,1.092-0.24,1.631-0.348c0.662-1.352,0.919-2.775,1.029-4.236
	c0.024-0.273,0.098-0.549,0.159-0.813c0.54-2.082,1.104-4.152,1.606-6.234c0.221-0.896,0.648-1.746,0.514-2.764
	c-0.072-0.609,0.332-1.291,0.564-1.926c0.993-2.729,1.937-5.48,3.04-8.184c0.343-0.85,1.079-1.579,1.704-2.31
	c0.441-0.514,0.992-0.945,1.482-1.399C111.698,88.481,111.674,88.385,111.649,88.29z"/>
</svg>
