<?xml version="1.0" encoding="utf-8"?>
<!-- Generator: Adobe Illustrator 16.0.0, SVG Export Plug-In . SVG Version: 6.00 Build 0)  -->
<!DOCTYPE svg PUBLIC "-//W3C//DTD SVG 1.1//EN" "http://www.w3.org/Graphics/SVG/1.1/DTD/svg11.dtd">
<svg version="1.1" id="Layer_1" xmlns="http://www.w3.org/2000/svg" xmlns:xlink="http://www.w3.org/1999/xlink" x="0px" y="0px"
	 width="189px" height="189px" viewBox="0 0 189 189" enable-background="new 0 0 189 189" xml:space="preserve">
<ellipse fill="#FAFAFA" cx="94.148" cy="94.223" rx="94.148" ry="94.223"/>
<path opacity="0.6" fill="#C4D78B" enable-background="new    " d="M79.948,114.98c-0.64,0.627-1.2,1.176-1.839,1.803
	c-0.56,0.627-1.12,1.254-1.759,1.803c-0.08,0.078-0.24,0.314-0.24,0.393c0.4,0.627,0.48,1.41,1.2,1.725
	c0.4,0.234,0.88,0.469,1.28,0.627c1.279,0.627,1.119,2.979,0.24,3.527c-0.24,0.156-0.48,0.234-0.8,0.234
	c-1.919,0.078-3.679-0.393-5.438-1.176c-0.4-0.156-0.72-0.627-1.12-0.941c-0.959-0.939-1.919-1.803-2.799-2.742
	c-0.88-0.863-0.8-1.725,0.08-2.586c0.479-0.471,1.04-0.785,1.439-1.256c0.479-0.469,0.879-1.018,1.279-1.566
	c0.48-0.785,0.88-1.568,1.28-2.352c0.4-0.785,0.8-1.568,1.359-2.195c1.2-1.646,2.479-3.291,4.158-4.467
	c0.32-0.236,0.72-0.393,1.04-0.549c0.64-0.314,1.119-0.785,1.359-1.412c0.16-0.391,0.08-0.861,0-1.332
	c-0.08-0.549-0.24-1.02-0.24-1.568c-0.08-0.547-0.56-0.547-0.879-0.705c-0.64-0.156-1.28-0.313-1.919-0.391
	c-1.359-0.158-2.719-0.236-4.078-0.393c0-0.078,0-0.314,0-0.471c0.16-0.783,0.399-1.566,0.56-2.352c0.16-0.939,0.24-1.881,0.4-2.822
	c0.24-1.489,0.48-2.979,0.8-4.468c0.24-1.254,0.56-2.586,0.959-3.841c0.32-1.019,0.72-1.96,1.12-2.979
	c0.08-0.313,0.16-0.627,0.24-0.94c0.08-0.156,0.08-0.393,0.24-0.549c0.479-0.627,0.72-1.41,0.879-2.194
	c0.32-1.254,0.32-2.587,0.24-3.919c-0.08-1.333-0.4-2.586-0.64-3.841c-0.16-0.94-0.56-1.881-0.8-2.822
	c-0.24-1.097-0.479-2.273-0.56-3.37c-0.16-1.646,0.48-3.057,1.52-4.311c0.32-0.392,0.56-0.941,0.8-1.411
	c-2.799,1.254-4.398,4.154-2.879,7.917c-0.48-0.079-0.8-0.157-1.28-0.314c-0.16,3.136,0.72,6.036,1.839,9.014
	c-1.6-0.235-2.639-1.097-3.599-2.038c-1.04-1.097-1.2-2.43-1.2-3.84c-0.16,0.392-0.32,0.784-0.56,1.254
	c-0.8,1.803-1.839,2.43-3.839,2.586c0,0,0,0,0-0.078c0.32-0.235,0.64-0.47,0.96-0.706c0.72-0.627,1.04-1.489,1.199-2.43
	c0.24-1.411-0.16-3.057-0.56-4.703c-0.48-1.959-1.28-3.762-2.159-5.565c-0.72-1.489-1.12-3.135-1.12-4.782
	c0-1.567,0.32-3.057,1.04-4.389c0.08-0.157,0.08-0.47,0-0.627c-0.56-1.411-0.879-2.822-0.879-4.311
	c0.08-1.176,0.399-2.273,0.959-3.292c0.48-0.941,1.12-1.881,1.999-2.587c0.32-0.235,0.72-0.47,1.04-0.706
	c0.24-0.157,0.56-0.313,0.72-0.548c1.04-1.568,2.399-2.822,3.999-3.763c1.359-0.784,2.799-1.254,4.398-1.411
	c1.52-0.157,3.039-0.157,4.479,0.157c1.839,0.313,3.599,1.019,5.038,2.273c1.12,0.941,2.239,1.803,3.279,2.744
	c0.96,0.784,1.52,1.803,1.759,3.057c0.16,0.784,0.24,1.489,0,2.195c-0.08,0.235-0.16,0.47-0.4,0.706
	c-0.24-0.784-0.24-1.646-0.799-2.273c0,0.627,0,1.254-0.08,1.803c-0.08,0.313-0.24,0.627-0.4,0.862c-0.4,0.47-0.4,1.019-0.32,1.567
	c0.16,1.333,1.04,2.195,1.839,3.135c0.32,0.392,0.32,0.706,0,1.019s-0.48,0.706-0.16,1.176c0.32,0.549-0.16,0.784-0.4,0.94
	c0,0.392,0,0.627-0.08,0.862c-0.08,0.549-0.32,1.097-0.4,1.646c0,0.784-0.56,1.411-1.36,1.411c-0.799,0-1.679,0.157-2.479,0.313
	c-0.959,0.157-1.919,1.254-1.919,2.194c0,0.627-0.08,1.254,0,1.881c0,0.313,0.24,0.706,0.48,0.94
	c0.96,1.098,1.919,2.117,2.879,3.214c1.2,1.333,1.919,2.822,2.08,4.546c0.08,0.94,0.32,1.881,0.56,2.822
	c0.16,0.94,0.4,1.803,0.64,2.743c0.08,0.157,0.24,0.392,0.4,0.47c1.28,0.862,2.479,1.725,3.758,2.587
	c0.88,0.627,1.76,1.333,2.64,1.96c0.72,0.47,1.519,0.548,2.399,0.627c0.08,0,0.239-0.079,0.239-0.157
	c0.479-0.862,0.96-1.803,1.359-2.665c0.32-0.784,0.479-1.646,0.72-2.508c0.561-1.724,1.119-3.371,1.68-5.095
	c0.4-1.333,0.959-2.586,1.84-3.762c0.879-1.254,1.998-2.352,3.278-3.292c1.999-1.489,4.078-2.978,6.157-4.468
	c0.88-0.627,1.84-1.175,2.64-1.881c0.72-0.627,1.279-1.411,1.759-2.195c0.32-0.392,0-0.94-0.399-1.333
	c-0.64-0.549-1.439-0.627-2.239-0.94c-1.199-0.392-2.398-1.019-3.359-1.881c-0.799-0.706-1.439-1.489-1.918-2.43
	c-0.24-0.47-0.32-1.019-0.48-1.489c-0.32-1.019-0.64-2.038-0.88-3.057c-0.399-1.724-0.479-3.449-0.159-5.173
	c0.399-2.038,1.679-3.37,3.278-4.546c1.759-1.254,3.599-2.195,5.678-2.9c1.439-0.47,2.959-0.784,4.558-0.549
	c0.801,0.157,1.6,0.471,2.32,0.706c0.399,0.079,0.719,0.313,1.119,0.313c1.84,0.235,3.438,1.019,4.799,2.195
	c0.479,0.47,0.959,0.862,1.279,1.568c0.319,0.705,0.479,1.489,0.479,2.194c-0.08,1.333-0.24,2.587-1.2,3.606
	c-0.08,0.078-0.08,0.157-0.08,0.313c0.16,1.489,0.721,2.743,1.92,3.762c0.48,0.392,0.48,0.706,0,1.176
	c-0.32,0.392-0.4,0.784-0.16,1.097c0.24,0.314,0.16,0.549-0.08,0.784c-0.239,0.157-0.399,0.313-0.239,0.627
	c0.079,0.078,0,0.235,0,0.313c-0.16,0.784-0.4,1.567-0.56,2.43c-0.08,0.471-0.641,0.862-1.439,0.862
	c-0.88,0.079-1.76,0.079-2.64,0.313c-0.8,0.235-1.359,0.862-1.52,1.725c-0.079,0.47-0.159,0.94-0.159,1.411
	c1.359-0.157,2.559-0.235,3.758-0.313c0.96-0.078,2-0.235,2.959-0.157c0.72,0.079,1.199-0.313,1.76-0.706
	c0.56-0.392,1.119-0.94,1.76-1.333c1.119-0.705,2.238-1.411,3.357-2.116c0.961-0.627,1.92-1.254,2.64-2.038
	c0.56-0.627,0.8-1.411,1.04-2.195c0.08-0.157,0.08-0.392,0.16-0.549c0.319-0.47,0.479-0.47,0.799,0
	c0.08,0.078,0.08,0.157,0.24,0.235c0.4-0.471,0.8-1.019,1.199-1.411c0.48-0.47,0.96-0.94,1.439-1.411
	c0.08-0.079,0.4-0.157,0.4-0.079c0.08,0.157,0.24,0.313,0.16,0.47c-0.08,0.313-0.24,0.706-0.48,1.176
	c0.4-0.235,0.721-0.47,1.04-0.627s0.72-0.313,1.04-0.392c0.079,0,0.079,0,0.159,0c0.479,0.392,0.96,0.706,1.439,1.176
	c0.08,0.079-0.159,0.471-0.319,0.627c-0.48,0.549-1.04,1.098-1.52,1.646c-0.08,0.078-0.08,0.157-0.16,0.392
	c0.4-0.157,0.72-0.313,1.039-0.47c0.4-0.157,0.721-0.392,1.12-0.549c0.159-0.078,0.479-0.078,0.56,0
	c0.08,0.157,0.16,0.549,0.08,0.627c-0.4,0.392-0.8,0.862-1.279,1.097c-1.119,0.549-2,1.411-2.959,2.195
	c-0.72,0.548-1.439,1.097-2.079,1.646c-0.72,0.627-1.439,1.333-2.159,2.038c-1.68,1.646-3.359,3.214-5.038,4.86
	c-1.04,1.019-2.239,1.725-3.679,2.116c-0.4,0.079-0.641,0.314-0.561,0.784c0.08,0.548-0.239,0.627-0.719,0.705
	c-0.801,0.079-1.6,0.079-2.399,0.157c0.079,0.235,0.239,0.47,0.239,0.705c0.16,1.176,0.24,2.352,0.4,3.527
	c0.16,1.019,0.4,2.038,0.479,3.057c0.16,1.019,0.32,1.959,0.32,2.979c0,3.449-0.08,6.818-0.08,10.268c0,0.549-0.16,0.784-0.72,0.705
	c-0.32,0-0.561,0-0.88,0.079c-0.159,0.94-0.319,1.882-0.399,2.743c-0.16,1.254-0.32,2.587-0.4,3.841
	c-0.08,1.098-0.08,2.194-0.08,3.292c0,0.627-0.08,1.332-0.239,1.959c-0.08,0.549-0.24,1.02-0.4,1.568
	c-0.319,1.176-0.56,2.352-1.04,3.449c-1.039,2.586-1.519,5.172-1.199,7.916c0.16,1.488,0.16,3.057,0.16,4.547
	c0,0.783,0,0.783-0.8,0.861c-0.64,0-1.279,0.156-1.999,0.236c0.72,0.313,1.199,0.627,1.76,0.861c0.56,0.234,1.199,0.549,1.839,0.705
	c0.56,0.236,1.2,0.393,1.839,0.471c1.68,0.234,2,1.176,2,2.508c0,1.176-0.721,1.49-1.76,1.568c-1.199,0.156-2.398,0.156-3.679,0.078
	c-1.679-0.078-3.278-0.314-4.878-0.471c-0.88-0.078-1.68-0.313-2.559-0.471c-0.561-0.156-0.881-0.627-0.96-1.176
	c-0.08-0.627,0-1.254,0.079-1.881c0.08-0.549,0.24-1.098,0.4-1.646c-0.08-0.078-0.08-0.078-0.16-0.078c-0.719,0-0.64,0-0.799-0.783
	c-0.24-1.02-0.32-2.037-0.16-3.057c0.08-0.314,0.16-0.549,0.16-0.863c0.08-1.332,0.239-2.586,0.319-4.074
	c-0.16,0.156-0.319,0.234-0.399,0.313c-1.52,2.195-2.959,4.389-4.479,6.584c-0.16,0.236-0.32,0.471-0.72,0.156
	c-0.16-0.156-0.479-0.234-0.72-0.313c-0.641-0.314-0.721-0.236-1.119,0.313c0,0.08-0.08,0.158-0.08,0.158
	c0.399,0.627,0.639,1.332,1.119,1.803c0.399,0.391,0.959,0.627,1.52,0.939c1.52,0.941,1.439,2.352,0.56,3.527
	c-0.399,0.627-1.12,0.627-1.839,0.471c-1.12-0.314-2.16-0.705-3.279-1.02c-1.279-0.391-2.319-1.254-3.279-2.115
	c-0.879-0.863-1.679-1.725-2.479-2.588c-0.561-0.549-0.561-1.176-0.08-1.803c0.4-0.549,0.96-1.018,1.439-1.488
	c0.48-0.471,0.96-0.941,1.52-1.49c-0.16-0.156-0.24-0.234-0.4-0.391c1.28-2.117,2.56-4.313,3.999-6.35
	c0.88-1.176,2.079-2.195,3.198-3.135c1.28-1.098,2.32-2.352,3.199-3.842c0.561-0.939,1.119-1.881,1.6-2.821
	c0.32-0.549,0.56-1.176,0.32-1.882c-0.4-1.333-0.721-2.821-1.12-4.154c-0.239-0.94-0.56-1.803-0.8-2.665
	c-0.24-1.098-0.479-2.195-0.64-3.371c-0.08-0.47,0.08-0.939,0-1.332c0-0.156-0.159-0.313-0.239-0.471
	c-0.08-0.156-0.16-0.391-0.16-0.47c0.56-1.646,1.119-3.292,1.679-4.86c0.72-2.273,1.28-4.546,1.12-6.897c0-0.157,0-0.313-0.08-0.549
	c-0.48,0.314-0.88,0.627-1.279,0.862c-0.641,0.47-1.279,0.862-1.84,1.333c-0.32,0.235-0.64,0.157-0.879-0.078
	c-0.4-0.471-0.801-0.314-1.28,0c-0.479,0.313-0.96,0.627-1.519,0.862c-0.561,0.235-0.881,0.706-1.12,1.176
	c-1.04,2.43-2.479,4.625-3.839,6.898c-0.56,0.862-0.72,1.881-0.64,2.979c0.08,0.784,0.239,1.646-0.08,2.352
	c-0.399,0.784,0,1.411,0,2.038c0,0.47,0.08,1.019,0.08,1.488c0,0.079,0,0.157-0.08,0.236c-0.56,0.548-1.12,1.097-1.759,1.646
	c-0.08,0.078-0.32,0.157-0.48,0.078c-1.039-0.157-1.999-0.392-2.879-1.019c-0.32-0.235-0.72-0.549-0.959-0.941
	c-0.561-0.783-1.439-1.176-2.24-1.646c-0.799-0.47-1.52-1.019-2.398-1.411c-1.039-0.549-2.159-0.94-3.279-1.488
	c0.16,0.861,0.32,1.646,0.4,2.351c0.16,0.862,0.24,1.725,0.32,2.587c0.079,0.471,0.399,1.02,0.879,1.176
	c0.641,0.156,1.199,0.392,1.84,0.627c0.239,0.078,0.56,0.313,0.879,0.471c-0.239,0.234-0.399,0.47-0.64,0.705
	c0.56,0.471,1.12,0.94,1.68,1.489c0.399,0.392,0.8,0.784,1.2,1.254c0.079,0.079,0.159,0.313,0.079,0.392
	c0.16,0.471,0,0.549-0.159,0.549c-0.24,0-0.561-0.078-0.801-0.156c-0.159-0.078-0.319-0.156-0.639-0.235
	c0.319,0.549,0.639,0.863,0.879,1.253c0.24,0.393,0.4,0.785,0.16,1.256c-0.08,0.078-0.08,0.156-0.16,0.234
	c-0.24,0.234-0.56,0.471-0.72,0.783c-0.159,0.236-0.319,0.314-0.56,0.158c-0.32-0.236-0.56-0.549-0.88-0.785
	c-0.399-0.313-0.72-0.705-1.12-1.018c-0.079-0.08-0.239-0.08-0.559-0.158c0.399,0.785,0.799,1.412,1.039,2.039
	c0.08,0.234,0.16,0.627,0.08,0.705c-0.24,0.313-0.64,0.156-0.88-0.078c-0.159-0.158-0.319-0.314-0.479-0.471
	c0,0.549,0,1.176,0,1.646c0,0.234-0.16,0.471-0.32,0.549c-1.519,0.705-3.039,1.332-4.638,1.566c-0.24,0.078-0.56,0.158-0.8,0.236
	c-0.08,0-0.16,0.156-0.24,0.234c-0.4,1.41-0.8,2.822-1.279,4.154c-0.32,0.861-0.8,1.725-1.12,2.586
	c-0.32,0.785-0.56,1.646-0.72,2.43c-0.48,2.432-0.72,4.861-0.88,7.369c0,0.313,0.08,0.549,0.4,0.627
	c1.359,0.549,2.719,1.02,4.158,1.568c0.4,0.156,0.88,0.234,1.36,0.313c0.959,0.156,1.2,0.863,1.359,1.646
	c0.24,1.41-0.16,2.037-1.839,2.195c-1.04,0.078-2.079,0.313-3.119,0.234c-1.839-0.078-3.759-0.314-5.598-0.549
	c-0.64-0.078-1.359-0.234-1.999-0.313c-0.48-0.08-0.88-0.471-0.96-0.941c-0.32-0.863-0.16-1.725,0.08-2.508
	c0.32-1.02,0.16-2.039,0-2.979C80.348,117.332,80.108,116.234,79.948,114.98z M135.367,41.614c0.08,0,0.08,0,0.16,0
	c0.08-0.392,0.08-0.862,0.16-1.333C135.048,40.674,135.287,41.144,135.367,41.614z"/>
</svg>
