<?xml version="1.0" encoding="utf-8"?>
<!-- Generator: Adobe Illustrator 16.0.0, SVG Export Plug-In . SVG Version: 6.00 Build 0)  -->
<!DOCTYPE svg PUBLIC "-//W3C//DTD SVG 1.1//EN" "http://www.w3.org/Graphics/SVG/1.1/DTD/svg11.dtd">
<svg version="1.1" id="Layer_1" xmlns="http://www.w3.org/2000/svg" xmlns:xlink="http://www.w3.org/1999/xlink" x="0px" y="0px"
	 width="189px" height="189px" viewBox="0 0 189 189" enable-background="new 0 0 189 189" xml:space="preserve">
<ellipse fill="#FAFAFA" cx="94.148" cy="94.223" rx="94.148" ry="94.223"/>
<g opacity="0.2">
	<path fill="#EB5757" d="M126.275,75.873c-0.418-0.067-0.768-0.134-1.115-0.269c-0.628-0.201-0.907-0.738-1.046-1.275
		c-0.279-1.007-0.488-2.014-0.767-3.021c-0.141-0.537-0.279-1.006-0.35-1.543c-0.07-0.738-0.209-1.544-0.209-2.282
		c-0.07-0.873,0.348-1.678,0.837-2.417c0.14-0.201,0.278-0.335,0.349-0.537c0.349-0.537,0.349-0.537-0.14-1.007
		c-0.209-0.268-0.349-0.537-0.487-0.805c-0.42-0.671-0.838-1.342-1.256-2.014c-0.628-1.007-0.977-2.081-1.046-3.289
		c0-0.604-0.14-1.275-0.14-1.879c0-0.805,0.14-1.611,0.209-2.416c0.07-0.94,0.349-1.813,0.906-2.618
		c0.488-0.671,1.256-1.141,1.883-1.678c0.279-0.269,0.628-0.47,0.977-0.671c0.279-0.134,0.557-0.335,0.906-0.403
		c0.628-0.268,1.324-0.537,1.952-0.671c0.487-0.134,1.046-0.067,1.534,0c1.186,0.201,2.371,0.47,3.207,1.342
		c0.977,0.939,1.744,2.014,2.162,3.289c0.487,1.275,0.976,2.483,1.463,3.759c0.07,0.201,0.07,0.403,0.141,0.537
		c0.07,0.335,0.139,0.604,0.488,0.873c0.209,0.134,0.279,0.537,0.279,0.805c0,0.604-0.141,1.208-0.279,1.879
		c-0.07,0.201-0.07,0.335,0.139,0.47c0.35,0.134,0.697,0.336,1.046,0.47c0.767,0.269,1.465,0.604,2.162,1.074
		c0.696,0.47,1.464,0.806,2.231,1.141c0.349,0.134,0.767,0.067,1.115,0.201c0.906,0.403,1.534,1.007,1.952,1.813
		c0.488,1.007,1.116,1.812,1.884,2.618c0.767,0.806,1.185,1.812,1.812,2.685c0.278,0.335,0.698,0.738,0.767,1.141
		c0.141,1.275,0.907,2.349,1.534,3.423c0.698,1.074,1.396,2.081,2.231,3.021c1.465,1.611,2.511,3.49,3.695,5.303
		c1.116,1.745,2.301,3.423,3.417,5.101c0.349,0.47,0.697,0.671,1.255,0.738c1.115,0.202,2.161,0.47,3.277,0.671
		c0.348,0.067,0.697,0.067,0.977,0.201c0.349,0.067,0.558,0.269,0.487,0.671c-0.069,0.403-0.349,0.604-0.767,0.537
		c-0.418-0.067-0.768-0.134-1.186-0.134c-0.14,0-0.349,0-0.488,0.067c0.768,0.269,1.395,0.604,1.953,1.141
		c0.349,0.269,0.487,0.604,0.349,1.007c-0.07,0.202-0.07,0.335-0.07,0.537c0.279,0.134,0.558,0.201,0.697,0.335
		c0.209,0.134,0.349,0.335,0.418,0.537c0.14,0.201,0.21,0.403,0.278,0.671c0.07,0.269,0.141,0.537,0.07,0.806
		c-0.07,0.134-0.418,0.269-0.558,0.201c-0.697-0.134-1.394-0.335-2.091-0.604c-0.559-0.201-1.116-0.537-1.744-0.738
		c-0.209-0.067-0.488-0.067-0.836-0.134c0.209,0.47,0.348,0.806,0.488,1.142c0.068,0.268,0.209,0.604,0.139,0.872
		c-0.07,0.403-0.418,0.604-0.768,0.336c-0.487-0.336-0.836-0.739-1.254-1.142c-0.628-0.537-1.256-1.141-1.883-1.678
		c-0.14-0.134-0.279-0.269-0.419-0.47c-0.418-0.94-0.836-1.879-1.325-2.819c-0.557-1.208-1.255-2.416-2.091-3.423
		c-0.628-0.805-1.187-1.678-1.883-2.416c-1.325-1.41-2.72-2.685-4.114-4.027c-1.046-1.007-2.021-2.014-2.648-3.289
		c-0.35-0.671-0.629-1.477-1.047-2.215c-0.069,0.134-0.14,0.269-0.14,0.403c0,0.873,0.07,1.745,0,2.618
		c-0.069,0.939-0.209,1.879-0.278,2.886c-0.069,0.738,0.069,1.543,0.069,2.282c0,0.47-0.139,1.007-0.139,1.477
		c0,0.335,0,0.738,0.209,1.007c0.278,0.604,0.069,1.074-0.209,1.611c-0.349,0.671-0.419,1.342-0.279,2.081
		c0.07,0.403,0.07,0.873,0,1.342c-0.069,0.47-0.14,1.007-0.349,1.477c-0.348,0.939-0.768,1.812-1.186,2.752
		c-0.209,0.537-0.558,1.007-0.767,1.544c-0.418,0.872-1.116,1.477-1.743,2.147c-0.907,1.007-2.021,1.544-3.277,1.947
		c-1.115,0.335-2.231,0.738-3.347,0.939c-0.558,0.134-1.046,0.268-1.464,0.671c-0.21,0.201-0.628,0.269-0.977,0.269
		c-0.627,0-0.836,0.066-0.977,0.671c-0.07,0.269-0.279,0.537-0.418,0.738c-0.697,0.94-1.325,1.88-2.092,2.685
		c-0.627,0.672-0.977,1.478-1.325,2.283c-0.209,0.402-0.558,0.805-0.836,1.141c-0.07,0.066-0.14,0.201-0.14,0.336
		c-0.07,0.469-0.14,1.006-0.279,1.477c-0.488,1.879-0.559,3.758-0.627,5.638c0,0.336-0.141,0.671-0.279,1.007
		c-0.279,0.537-0.209,1.007-0.07,1.477c0.141,0.604,0.279,1.142,0.35,1.746c0.068,1.073,0,2.147,0,3.288
		c0,0.739,0.139,1.544,0.279,2.282c0,0.269,0.068,0.537,0.068,0.738c-0.068,0.402-0.068,0.806,0.279,1.141
		c0.07,0.068,0.14,0.135,0.07,0.202c-0.14,0.47-0.14,0.939-0.418,1.343c-0.488,0.738-0.629,1.543-0.42,2.416
		c0.141,0.738,0.279,1.477,0.42,2.147c0.139,0.94,0.348,1.88,0.487,2.819c0.14,0.604,0.279,1.208,0.488,1.813
		c0,0.134,0.069,0.269,0.069,0.336c0,0.604-0.069,0.738-0.627,0.939c-0.906,0.336-1.883,0.537-2.859,0.47
		c-1.115-0.067-2.301-0.202-3.416-0.403c-1.674-0.268-3.348-0.604-5.021-0.872c-1.395-0.201-2.58-0.671-3.417-1.813
		c-0.627-0.872-0.558-1.61-0.069-2.416c0.419-0.671,1.395-1.142,2.231-0.94c0.278,0.067,0.627,0,0.906,0
		c0.07,0,0.139-0.066,0.209-0.066c1.255,0.134,2.021-0.672,2.929-1.275c0.349-0.201,0.697-0.402,0.976-0.604
		c-0.069-0.672,0-1.275-0.209-1.88c-0.139-0.47-0.488-0.872-0.767-1.275c-0.628-0.738-0.419-1.477,0.487-1.679
		c0,0,0.07,0,0.07-0.066c-0.07-0.067-0.14-0.201-0.209-0.269c-0.697-0.604-0.768-1.343-0.488-2.147
		c0.209-0.604,0.14-1.209-0.07-1.88c-0.766,0.47-1.533,0.939-2.301,1.343c-1.395,0.738-2.858,1.208-4.393,1.409
		c-0.697,0.067-1.395,0.201-2.092,0.269c-0.906,0-1.186-0.135-1.395-0.939c-0.209-0.806-0.348-1.746,0.35-2.484
		c0.348-0.402,0.627-0.805,0.976-1.141c0.487-0.537,0.976-1.074,1.464-1.611c0.697-0.805,1.395-1.61,2.092-2.482
		c0.209-0.201,0.279-0.471,0.418-0.738c0.279-0.403,0.559-0.807,0.907-1.074c0.697-0.604,0.906-1.343,0.837-2.215
		c-0.07-0.336-0.07-0.604,0.139-0.873c0.35-0.402,0.141-0.806-0.069-1.141c-0.488-0.939-0.628-1.88-0.488-2.887
		c0.279-1.544,0.628-3.088,0.628-4.698c0-0.873,0.279-1.813,0.418-2.685c0.209-1.008,0.35-1.947,0.559-2.953
		c0.069-0.403,0.348-0.807,0.487-1.209c0.279-0.604,0.419-1.275,0.767-1.813c0.838-1.208,1.325-2.55,2.441-3.557
		c0.767-0.671,1.673-1.007,2.579-1.41c0.907-0.335,1.813-0.738,2.72-1.074c0.278-0.134,0.349-0.269,0.418-0.537
		c0.14-0.604,0.697-1.275,1.534-1.208c0.07,0,0.07,0,0.14,0c0.209-0.067,0.418-0.134,0.697-0.202
		c-0.07-0.201-0.14-0.402-0.209-0.604c-0.07-0.269-0.07-0.537-0.07-0.805c0-0.738,0.07-1.477-0.069-2.148
		c-0.14-0.94-0.558-1.813-0.767-2.685c-0.14-0.47-0.209-1.007-0.209-1.477c0-0.537,0-1.074,0-1.678c0-0.402-0.209-0.738-0.209-1.141
		c0-0.604,0.139-1.208,0.209-1.812C126.275,76.007,126.275,75.939,126.275,75.873z"/>
	<path fill="#EB5757" d="M101.498,103c2.934,0.07,5.322,1.258,7.165,3.355c0.546,0.629,0.955,1.258,1.296,2.026
		c0.205,0.489,0.342,1.048,0.547,1.538c0.409,1.258,0.546,2.516,0.478,3.773s-0.341,2.446-0.888,3.564
		c-0.682,1.538-1.637,2.796-3.002,3.844c-1.365,1.049-2.866,1.748-4.641,1.818c-0.818,0.069-1.706,0.139-2.525,0
		c-0.818-0.141-1.705-0.42-2.456-0.84c-2.048-0.979-3.548-2.655-4.572-4.752c-0.546-1.258-0.887-2.516-0.887-3.914
		c-0.068-1.537,0.136-3.075,0.75-4.473c0.819-1.818,1.979-3.355,3.617-4.474c1.023-0.699,2.115-1.118,3.275-1.397
		C100.338,103.07,101.02,103.07,101.498,103z"/>
	<path fill="#EB5757" d="M85.012,66.729c-1.013,0.728-1.933,1.364-3.13,2.183c0.184,0.364,0.46,1,0.736,1.546
		c0.553,1,1.197,2,1.565,3.001c0.184,0.546,0.184,1.182,0.092,1.819c-0.46,3.183-1.749,6.002-3.774,8.549
		c-1.289,1.546-1.749,3.274-1.104,5.366c0.368,1.273,0.276,2.637,0.276,4.001c0,1.728,0.092,3.365,0,5.093
		c0,1.273,0.368,2.364,1.104,3.455c1.473,2.092,0.46,5.094-1.933,6.003c-0.552,0.272-1.197,0.546-1.841,0.637
		c-0.276,0-1.013-0.546-0.921-0.637c0.553-1.273-0.552-2.273-0.736-3.365c-0.276-1.183-0.644-2.273-0.368-3.546
		c0.184-0.637-0.092-1.365-0.276-2.092c-1.381-4.002-1.841-8.186-1.657-12.369c0.092-1.183,0.46-2.274,0.736-3.456
		c-0.092-0.091-0.184-0.091-0.368-0.182c-1.104,1.728-2.301,3.365-3.406,5.093c-0.368,0.728-0.645,1.637-0.645,2.364
		c0,0.91,0.184,2.001,0.645,2.819c1.565,3.002,2.301,6.275,2.485,9.641c0.092,1.455,0.276,2.819,0.184,4.184
		c-0.092,1.092-0.552,2.183-0.921,3.183c-0.828,2.092-1.564,4.093-2.485,6.094c-0.829,1.819-1.749,3.547-2.854,5.274
		c-1.289,2.001-0.829,4.729,0.92,6.457c0.736,0.729,1.289,1.547,2.025,2.184c0.92,0.909,0.92,2.092,0.46,2.91
		c-0.552,1-1.657,1.182-2.854,1c-2.025-0.363-3.682-1.364-5.154-2.819c-0.46-0.454-0.92-1.001-1.565-1.183
		c-2.669-1-2.301-1.728-1.565-3.91c1.197-3.184,2.578-6.275,2.485-9.822c-0.092-2.092,0.92-3.91,2.209-5.548
		c1.197-1.455,1.565-2.819,0.46-4.548c-0.736-1.182-1.381-2.455-2.117-3.637c-0.092-0.092-0.184-0.273-0.276-0.273
		c-1.381,0.092-1.289-1.092-1.565-1.818c-0.644-1.637-2.209-2.365-3.866-1.819c-1.381,0.454-2.669,0.909-3.498,2.274
		c-0.276,0.454-0.46,0.908-0.552,1.455c-0.276,0.908-0.828,1.363-1.657,1.818c-0.736,0.363-1.104,1.273-1.564,2.092
		c-1.013,1.818-1.657,3.91-3.682,5.002c-0.368,0.182-0.736,0.455-1.196,0.545c-1.749,0.273-3.59,0.364-5.339,0.729
		c-1.197,0.182-2.301,0.637-3.406,1c-0.092,0-0.184,0.092-0.276,0.092c-2.117-0.092-3.038,1.455-3.866,2.91
		c-0.276,0.454-0.829,0.727-1.289,1.182c-0.46,0.455-0.92,1-1.289,1.547c-1.012,1.272-1.933,2.728-3.129,3.91
		c-1.197,1.182-2.854,0.363-3.406-1c-0.736-1.729-1.38-3.639-0.276-5.549c0.368-0.637,0.92-1.182,1.38-1.818
		c0.92-1.546,1.657-3.184,2.762-4.639c0.644-0.909,1.749-1.546,2.761-2.183c0.276-0.182,0.828,0,1.196,0.183
		c0.921,0.454,1.749,0.545,2.669-0.273c1.657-1.546,3.682-2.455,6.075-2.364c2.025,0.091,2.761-0.728,2.945-2.819
		c0.184-2.183,0.552-4.457,0.92-6.639c0-0.183,0.276-0.364,0.368-0.547c0.276-0.818,0.552-1.545,0.829-2.364
		c0.368-1.091,0.828-2.091,1.196-3.183c0.092-0.091,0.092-0.273,0.184-0.455c0.276-1.637,0.368-3.456,1.013-5.002
		c0.552-1.546,1.473-3.001,2.577-4.274c1.933-2.365,4.05-4.457,6.075-6.73c0.46-0.546,1.012-1,1.473-1.364
		c-0.92-0.818-1.749-1.728-2.762-2.273c-0.828-0.455-1.933-0.455-2.945-0.455c-1.104,0-2.117,0.455-3.222,0.546
		c-1.657,0.182-3.313,0.455-5.063,0.455c-1.38,0-2.025,0.637-2.761,1.637c-0.644,0.818-1.38,1.637-2.117,2.365
		c-0.368,0.272-1.104,0.728-1.565-0.091c0.184-0.364,0.276-0.728,0.46-1.091c-1.841-0.091-1.841-0.545-1.657-2.364
		c0.184-1.546,1.104-2.547,1.841-3.729c0.276-0.455,1.197-0.91,1.749-0.818c1.197,0.182,2.117-0.364,3.222-0.637
		C43.684,65,46.261,64.455,48.838,64c2.209-0.364,4.603-0.182,6.812-0.818c3.037-0.91,5.799-0.455,8.744,0
		c1.104,0.182,2.301,0,3.406-0.182c1.564-0.272,3.038-0.728,4.51-1.091c0.644-0.182,0.92-0.728,0.552-1.455
		c-0.828-1.637-0.736-3.274-0.092-4.911c0-0.091,0-0.272,0.092-0.272c1.749-0.273,1.197-2.092,2.025-3.001
		c1.012-1.091,1.933-2.273,3.129-3.183c0.92-0.728,2.025-1.364,3.129-1.819c1.657-0.637,3.314,0,4.878,0.545
		c2.393,0.91,4.326,2.456,5.431,4.82c0.829,1.728,0.645,3.456-0.092,5.184c-0.645,1.546-1.013,3.183-2.393,4.365
		c-0.092,0.091-0.092,0.182-0.092,0.273c0.552,1.546-0.829,1.728-1.565,2.456c-0.368,0.364-0.736,0.637-1.012,1
		C86.208,66.91,85.656,67.183,85.012,66.729z"/>
</g>
</svg>
