<?xml version="1.0" encoding="utf-8"?>
<!-- Generator: Adobe Illustrator 16.0.0, SVG Export Plug-In . SVG Version: 6.00 Build 0)  -->
<!DOCTYPE svg PUBLIC "-//W3C//DTD SVG 1.1//EN" "http://www.w3.org/Graphics/SVG/1.1/DTD/svg11.dtd">
<svg version="1.1" id="Layer_1" xmlns="http://www.w3.org/2000/svg" xmlns:xlink="http://www.w3.org/1999/xlink" x="0px" y="0px"
	 width="189px" height="189px" viewBox="0 0 189 189" enable-background="new 0 0 189 189" xml:space="preserve">
<ellipse fill="#FAFAFA" cx="94.148" cy="94.223" rx="94.148" ry="94.223"/>
<path opacity="0.2" fill="#EB5757" enable-background="new    " d="M113.318,109.569c-0.216,0.421-0.433,0.913-0.577,1.405
	c-0.434,0.984-0.867,1.968-1.156,2.951c-0.217,0.773-0.072,1.547,0.145,2.25c0.072,0.211,0.145,0.421,0.145,0.632
	c0.145,0.913,0.361,1.897,0.506,2.882c0.145,0.843,0.217,1.756,0.289,2.6c0.072,0.984,0.217,1.969,0.145,2.952
	c-0.072,1.476-0.289,2.951-1.156,4.286c-0.289,0.422-0.505,0.984-0.577,1.477c-0.072,0.422-0.072,0.844,0,1.265
	c0.144,0.563,0.288,1.124,0.649,1.616c0.434,0.563,0.434,1.195,0,1.758c-0.361,0.562-0.289,1.194-0.217,1.826
	c0.145,0.703,0.434,1.336,0.506,2.038c0.072,0.562,0,1.125-0.072,1.757c0,0.492-0.145,0.914-0.145,1.406c0,0.773,0,1.546,0,2.319
	c-0.072,0.632-0.145,1.335-0.289,1.968c-0.072,0.281-0.433,0.632-0.722,0.773c-0.795,0.351-1.662,0.562-2.602,0.631
	c-0.867,0.07-1.734,0.142-2.601,0.281c-0.217,0-0.434,0.142-0.65,0.281c-0.506,0.422-1.083,0.492-1.733,0.492
	c-0.867,0.07-1.734,0.07-2.602,0c-1.518-0.07-2.89-0.492-4.189-1.335c-0.361-0.211-0.361-0.562-0.217-0.914
	c0.434-0.983,1.011-1.827,2.167-2.178c0.938-0.281,1.733-0.843,2.528-1.335c0.723-0.422,1.373-0.914,2.023-1.406
	c0.289-0.211,0.434-0.492,0.434-0.914c0-0.352,0.145-0.702,0.217-1.124c0-0.142,0-0.351-0.072-0.351
	c-0.578-0.142-0.578-0.563-0.506-0.984c0.072-0.352,0.145-0.633,0.217-0.984c0.289,0.07,0.434,0.07,0.578,0.141
	c0,0,0-0.07,0.072-0.07c-0.217-0.141-0.434-0.352-0.723-0.422c-0.578-0.21-1.012-0.421-1.012-1.124c0-0.632-0.217-1.335-0.217-1.968
	s0.217-1.125,0.795-1.476c0.506-0.352,0.506-0.913,0-1.335c-0.217-0.211-0.434-0.352-0.723-0.492
	c-0.506-0.281-0.723-0.773-0.867-1.336c-0.072-0.211-0.145-0.492-0.145-0.702c-0.072-0.773,0.289-1.405,0.578-2.038
	c0.506-1.125,0.65-1.757-0.506-2.601c-0.65-0.491-1.012-1.054-1.012-1.897c0-0.703-0.217-1.405-0.145-2.038
	c0.072-1.194,0.289-2.39,0.434-3.584c0.072-0.562,0.145-1.194,0.289-1.757c0.072-0.633-0.217-1.195-0.361-1.757
	c0-0.07-0.072-0.141-0.072-0.211c-0.072-1.054-0.217-2.108-0.289-3.233c0-0.632,0.145-1.264,0.145-1.826
	c0-0.703-0.217-1.406-0.217-2.109c-0.072-0.702-0.072-1.404,0-2.107c0.145-1.055,0.361-2.108,0.578-3.162
	c0-0.211,0.072-0.352,0.145-0.492c0.361-0.633,0.434-1.406,0.578-2.109c0.217-0.632,0.217-1.404,0.506-1.967
	c0.289-0.633,0.145-1.055-0.217-1.546c-0.217-0.351-0.217-0.773-0.289-1.195c-0.072-0.703-0.145-1.405-0.217-2.108
	c0-0.352-0.289-0.563-0.506-0.633c-0.434-0.141-0.867-0.211-1.372-0.281c-0.65-0.07-1.012-0.281-1.084-0.843
	c-0.072-0.421-0.289-0.773-0.65-1.124c-0.36-0.281-0.722-0.633-0.794-0.984c-0.217-0.843-0.795-1.476-1.301-2.108
	c-0.072-0.07-0.145-0.352-0.072-0.422c0.434-0.632-0.072-1.054-0.434-1.476c-0.217-0.281-0.361-0.563-0.289-0.914
	c0.072-0.422,0-0.844-0.361-1.125c-0.505-0.422-0.578-0.914-0.505-1.546c0.072-0.632,0-1.265,0-1.897
	c0-0.281,0.144-0.562,0.289-0.703c0.506-0.351,0.65-0.843,0.723-1.406c0.145-1.405,0.795-2.67,1.445-3.935
	c0.434-0.773,0.723-1.617,1.156-2.39c0.433-0.703,0.577-1.476,0.866-2.249c0.217-0.703,0.65-1.265,1.012-1.897
	c0.433-0.773,0.794-1.476,1.3-2.178c0.506-0.773,1.301-1.335,2.096-1.828c1.084-0.562,2.095-1.194,3.251-1.687
	c1.011-0.421,2.022-0.773,3.034-1.125c0.434-0.14,0.506-0.492,0.578-0.773c0.145-0.632,0.361-1.265,0.434-1.897
	c0-0.211-0.072-0.422-0.145-0.632c-0.217-0.563-0.506-1.125-0.723-1.687c-0.072-0.211-0.145-0.281-0.361-0.281
	s-0.361-0.141-0.506-0.281c-0.434-0.421-0.65-0.984-0.795-1.546c-0.145-0.633-0.434-1.335-0.65-1.968
	c-0.145-0.352-0.288-0.773-0.217-1.125c0.072-0.773,0.289-0.843,0.939-0.422c-0.072-0.421,0-0.773-0.145-1.124
	c-0.289-0.984-0.145-2.038,0-3.022c0.072-0.563,0.145-1.125,0.145-1.617c0-0.773,0.361-1.476,0.795-2.038
	c0.289-0.421,0.65-0.914,1.012-1.335c0.434-0.492,0.795-0.914,1.301-1.265c0.795-0.562,1.661-0.914,2.673-0.914
	c0.866,0,1.733,0,2.601,0c1.229,0,2.385,0.281,3.468,0.632c0.217,0.07,0.434,0.281,0.65,0.492c0.217,0.141,0.361,0.421,0.578,0.562
	c0.577,0.281,0.938,0.773,1.3,1.265c0.289,0.492,0.578,1.054,0.795,1.546c0.723,1.687,0.578,3.514,0.361,5.271
	c-0.072,0.562-0.145,1.125-0.217,1.616c0.289,0,0.578-0.07,0.795,0c0.434,0.141,0.506,0.703,0.361,1.195
	c-0.289,0.632-0.578,1.195-0.795,1.827c-0.145,0.422-0.289,0.843-0.361,1.265c-0.145,0.773-1.156,1.476-1.951,1.335
	c-0.145,0.633-0.361,1.335-0.505,2.038c-0.072,0.211,0.072,0.492,0.144,0.703c0.073,0.352,0.217,0.633,0.217,0.984
	c0,0.562,0.289,0.843,0.65,1.054c1.301,0.703,2.674,1.405,4.047,2.108c0.794,0.422,1.517,0.843,2.311,1.265
	c0.723,0.352,1.229,0.984,1.662,1.616c1.229,1.546,2.023,3.303,2.963,4.99c0.577,1.125,1.228,2.179,1.733,3.303
	c0.361,0.773,0.65,1.616,0.938,2.459c0.289,0.843,0.65,1.687,0.939,2.601c0.217,0.773,0.434,1.616,0.65,2.389
	c0.361,1.265-0.072,2.459-0.506,3.654c-0.361,1.125-1.012,2.038-1.733,3.022c-0.867,1.195-1.806,2.39-2.745,3.584
	c-0.361,0.421-0.65,0.914-0.939,1.335c-0.361,0.492-0.939,0.703-1.518,0.914c-0.289,0.141-0.578,0.352-0.867,0.563
	c-0.289,0.21-0.505,0.492-0.794,0.562c-0.361,0.07-0.795,0-1.156-0.07c-0.722-0.141-1.3,0.211-1.372,0.984
	c-0.072,0.492,0,0.984,0.361,1.335c0.072,0.07,0.145,0.281,0.145,0.352c-0.145,1.125,0.216,2.179,0.505,3.232
	c0.145,0.492,0,1.055,0,1.617c0,0.211,0.072,0.352,0.145,0.563c0.361,0.772,0.867,1.545,1.156,2.389
	c0.217,0.703,0.361,1.477,0.145,2.319c-0.217,1.124-0.578,2.249-0.506,3.373c0,0.633,0.217,1.265,0.289,1.897
	c0.072,0.352,0.145,0.703,0.145,1.055c0,0.703-0.072,1.405,0,2.107c0.072,1.266,0.217,2.53,0.434,3.795
	c0.144,0.914,0.433,1.828,0.577,2.741c0.145,0.633-0.145,1.124-0.361,1.687c-0.289,0.563-0.072,0.984,0.217,1.336
	c0.795,0.843,0.795,1.757,0.506,2.811c-0.072,0.422-0.072,0.914,0,1.406c0.145,0.913,0.217,1.826,0,2.74
	c-0.145,0.422-0.145,0.914-0.145,1.336c0,0.421,0.361,0.632,0.65,0.702c0.723,0.141,1.084,0.632,1.301,1.265
	c0.145,0.492,0.289,0.984,0.217,1.477c0,0.281-0.072,0.562-0.289,0.843s-0.289,0.632-0.289,0.914c0,0.632,0.145,1.335-0.289,1.897
	c-0.217,0.351-0.434,0.703-0.723,0.984c-0.217,0.211-0.217,0.28,0.072,0.422c0.217,0.14,0.434,0.28,0.723,0.42
	c0.434,0.281,0.506,0.563,0.361,0.984c-0.145,0.492-0.289,0.914,0.072,1.406c0.145,0.281,0.145,0.843,0,1.193
	c-0.217,0.634-0.072,1.125,0.217,1.617c0.723,1.194,1.59,2.25,2.601,3.232c0.506,0.492,0.65,1.195,0.795,1.898
	c0,0.211,0,0.422,0,0.703c0,0.562-0.361,0.842-0.867,1.053c-0.722,0.281-1.444,0.07-2.167,0c-0.578-0.069-1.156,0-1.734-0.141
	c-1.156-0.14-2.239-0.421-3.251-1.123c-0.722-0.563-1.517-0.844-2.384-1.125c-0.361-0.07-0.65-0.211-0.939-0.352
	c-0.361-0.211-0.434-0.492-0.434-0.914c0.072-0.773,0-1.475,0-2.248c0-0.422-0.072-0.773-0.072-1.195
	c-0.072-1.125-0.145-2.248-0.145-3.373c0-0.281,0.145-0.633,0.217-0.914c0-0.351,0-0.632,0-0.983
	c-0.072-0.351-0.145-0.703-0.145-1.054c0.072-0.422-0.217-0.633-0.506-0.773s-0.506-0.352-0.723-0.563
	c-0.072-0.141-0.145-0.422-0.072-0.563c0.289-0.421,0.072-0.563-0.216-0.773c-0.217-0.14-0.506-0.351-0.65-0.562
	c-0.361-0.562-0.434-1.124-0.361-1.757c0.145-0.773,0.217-1.476,0.289-2.249c0.072-0.632,0.072-1.194,0.217-1.827
	s0.289-1.194,0.577-1.757c0.217-0.491-0.071-0.772-0.216-1.124c-0.145-0.281-0.361-0.633-0.506-0.914
	c-0.072-0.141-0.072-0.352-0.072-0.422c0.217-0.563-0.145-1.054-0.506-1.405c-0.723-0.843-1.155-1.827-1.083-2.952
	c0.072-1.404-0.434-2.6-1.012-3.865c-0.434-0.913-0.795-1.826-1.229-2.74c-0.361-0.844-0.795-1.616-1.156-2.46
	C113.969,111.396,113.68,110.482,113.318,109.569z M126.251,83.988c0.795-0.141,1.589-0.914,1.517-1.546
	c0-0.492,0.217-0.843,0.578-1.125c0.361-0.352,0.361-0.562,0.072-0.984c-0.217-0.281-0.361-0.563-0.506-0.843
	c-0.145-0.422-0.36-0.773-0.505-1.195c-0.145-0.421-0.361-0.843-0.506-1.335c-0.072,0.351-0.072,0.703-0.145,0.983
	c-0.289,0.984-0.289,1.897-0.145,2.881c0.072,0.352,0.145,0.773,0,1.125C126.179,82.513,126.54,83.286,126.251,83.988z
	 M103.277,83.426c0.072-0.211,0.217-0.492,0.145-0.703c-0.361-0.914-0.434-1.828-0.434-2.812s0-1.968,0-2.951
	c0-0.07,0-0.211,0-0.352c-0.434,0.352-0.723,0.773-0.65,1.335c0,0.422-0.145,0.844-0.434,1.125
	c-0.361,0.352-0.434,0.843-0.289,1.335c0.145,0.632,0.217,1.195,0.289,1.827c0,0.07,0.072,0.211,0.145,0.281
	C102.338,82.864,102.771,83.145,103.277,83.426z"/>
</svg>
