<?xml version="1.0" encoding="utf-8"?>
<!-- Generator: Adobe Illustrator 16.0.0, SVG Export Plug-In . SVG Version: 6.00 Build 0)  -->
<!DOCTYPE svg PUBLIC "-//W3C//DTD SVG 1.1//EN" "http://www.w3.org/Graphics/SVG/1.1/DTD/svg11.dtd">
<svg version="1.1" id="Layer_1" xmlns="http://www.w3.org/2000/svg" xmlns:xlink="http://www.w3.org/1999/xlink" x="0px" y="0px"
	 width="189px" height="189px" viewBox="0 0 189 189" enable-background="new 0 0 189 189" xml:space="preserve">
<ellipse fill="#FAFAFA" cx="94.148" cy="94.223" rx="94.148" ry="94.223"/>
<path opacity="0.2" fill="#EB5757" enable-background="new    " d="M61.141,82.72c-0.732-0.258-1.416-0.552-2.137-0.724
	c-0.373-0.086-0.808,0.012-1.193,0.123c-1.019,0.331-2.05,0.674-3.031,1.104c-0.684,0.307-1.131,0.11-1.665-0.319
	c-2.87-2.342-5.727-4.708-8.659-6.976c-5.243-4.046-10.548-8.031-15.828-12.04c-0.919-0.699-1.876-1.349-2.795-2.035
	c-0.249-0.184-0.447-0.417-0.833-0.785c0.397-0.049,0.596-0.123,0.758-0.086c0.957,0.171,1.913,0.221,2.895,0.233
	c1.491,0.037,3.044,0.233,4.436,0.981c0.422,0.233,0.944,0.294,1.354,0.527c0.559,0.319,1.106,0.699,1.59,1.116
	c1.665,1.41,3.292,2.845,4.957,4.279c0.335-0.257,0.584-0.588,0.882-0.625c0.261-0.037,0.571,0.245,0.857,0.392
	c0.559,0.27,1.093,0.638,1.677,0.785c1.155,0.294,1.976,0.957,2.634,1.9c2.013,2.881,5.268,3.58,8.398,4.794
	c0.261-0.674,0.472-1.189,0.671-1.704c0.137-0.343,0.224-0.699,0.373-1.03c0.41-0.871,0.671-1.005,1.665-0.858
	c0.41,0.061,0.808,0.159,1.205,0.282c0.348,0.111,0.684,0.27,1.068,0.429c0.808-0.882,1.541-1.741,1.976-2.82
	c0.72-1.778,1.403-3.58,2.236-5.321c0.46-0.981,1.167-1.852,1.839-2.906c-0.013-0.024-0.074-0.221-0.125-0.405
	c-0.385-1.189-0.074-1.925,1.057-2.525c0.671-0.356,1.342-0.724,1.987-1.067c-0.05-0.159-0.05-0.282-0.099-0.307
	c-1.168-0.502-1.789-1.655-2.809-2.329c-0.472-0.319-0.671-0.711-0.571-1.25c0.137-0.687-0.062-1.214-0.521-1.778
	c-0.472-0.576-0.708-1.263-1.404-1.741c-0.559-0.38-0.907-1.116-1.255-1.729c-1.068-1.888-1.428-3.887-0.782-6.008
	c0.919-2.979,2.758-5.333,5.131-7.344c1.007-0.846,2.273-1.361,3.417-1.202c1.416,0.208,2.969,0.221,4.248,1.079
	c0.473,0.319,0.982,0.625,1.516,0.833c2.286,0.944,3.404,2.648,3.641,5.051c0.211,2.097,0.646,4.168,0.882,6.265
	c0.087,0.797-0.013,1.63-0.112,2.428c-0.123,1.005-0.372,2.011-0.484,3.016c-0.062,0.54,0.075,1.091,0.125,1.643
	c0.646-0.073,1.168-0.27,1.565-0.135c0.571,0.196,0.335,0.833,0.422,1.3c0.05,0.257,0.224,0.515,0.397,0.735
	c0.225,0.282,0.497,0.527,0.771,0.821c-0.198,0.258-0.36,0.466-0.521,0.662c0.087,0.11,0.124,0.196,0.187,0.221
	c0.782,0.27,1.578,0.503,2.348,0.785c0.261,0.098,0.559,0.246,0.708,0.466c0.82,1.214,1.728,2.379,2.001,3.899
	c0.472,2.563,0.956,5.125,1.652,7.65c0.273,1.018,0.148,2.195-0.013,3.274c-0.149,1.005-0.994,1.582-1.95,1.875
	c-0.796,0.246-1.317,0.613-1.293,1.521c0,0.319-0.148,0.637-0.248,0.944c-0.634,1.852-1.218,3.728-1.926,5.554
	c-0.348,0.907-0.907,1.729-1.416,2.661c0.932,1.361,0.869,2.979,0.758,4.548c-0.088,1.312,0.261,2.428,0.869,3.494
	c1.491,2.648,1.181,2.464-0.695,4.206c-1.131,1.042-1.615,2.342-2.063,3.702c-0.074,0.221-0.025,0.479-0.013,0.711
	c0,0.197,0.1,0.479,0.013,0.576c-1.006,1.018-0.459,2.318-0.671,3.471c-0.311,1.716,0.112,3.457-0.286,5.197
	c-0.186,0.834,0.025,1.766,0.075,2.648c0.013,0.246,0.149,0.49,0.099,0.724c-0.348,1.815,0.038,3.63,0.498,5.31
	c0.472,1.716,0.608,3.445,0.707,5.161c0.149,2.673,0.199,5.395-0.359,8.055c-0.112,0.515-0.174,1.042-0.286,1.57
	c-0.212,0.919-0.124,1.69,0.521,2.513c0.933,1.189,0.597,2.477-0.683,3.396c-0.907,0.662-1.205,1.643-0.658,2.623
	c0.459,0.81,0.67,1.644,0.695,2.563c0.012,0.516,0.199,1.042,0.322,1.545c0.336,1.373-0.062,2.317-1.366,2.918
	c-1.976,0.932-3.963,1.852-5.988,2.686c-3.379,1.397-6.659,0.857-9.827-0.688c-1.242-0.6-1.49-1.642-0.882-2.869
	c0.447-0.919,1.13-1.58,2.063-2.035c0.546-0.269,1.056-0.637,1.565-0.98c0.137-0.085,0.311-0.196,0.348-0.331
	c0.124-0.466,0.074-0.979,0.634-1.238c0.447-0.196,0.869-0.466,1.304-0.698c0.088-0.43-0.174-0.576-0.546-0.638
	c-0.571-0.086-1.144-0.159-1.715-0.271c-0.409-0.073-0.808-0.184-1.205-0.307c-0.919-0.281-1.491-0.906-1.565-1.851
	c-0.074-0.896,0.436-1.558,1.143-2.047c0.373-0.246,0.809-0.479,1.23-0.552c2.125-0.393,2.597-2.133,3.131-3.765
	c0.236-0.723-0.037-1.532-0.497-2.206c-0.534-0.773-0.944-1.533-0.981-2.563c-0.025-0.711-0.721-1.423-1.143-2.109
	c-0.236-0.38-0.584-0.699-0.795-1.079c-0.635-1.14-1.218-2.305-1.826-3.457c-0.273-0.527-0.41-1.177-1.168-1.3
	c-0.137-0.024-0.311-0.295-0.336-0.466c-0.211-1.263-1.019-2.06-2.037-2.734c-0.125-0.085-0.249-0.233-0.299-0.38
	c-0.422-1.397-1.068-2.734-0.919-4.267c0.423-4.39,0.261-8.815,0.969-13.192c0.174-1.078,0.161-2.182,0.571-3.236
	c0.075-0.209,0.063-0.503-0.037-0.699c-0.359-0.735-0.186-1.422,0.125-2.121c0.57-1.299,0.72-2.624,0.459-4.058
	c-0.36-1.961-0.373-3.972-0.919-5.921c-0.212-0.724-0.087-1.545-0.124-2.317C61.24,83.296,61.19,83.014,61.141,82.72z
	 M71.217,118.422c0.111-0.024,0.235-0.062,0.348-0.086c-0.051-0.367,0.024-0.821-0.174-1.092c-0.672-0.98-0.721-2.035-0.597-3.162
	c0.062-0.516,0.037-1.043-0.447-1.275c-0.236,0.613-0.46,1.189-0.659,1.777c-0.074,0.221-0.148,0.467-0.111,0.688
	C69.787,116.497,70.496,117.465,71.217,118.422z"/>
</svg>
