<?xml version="1.0" encoding="utf-8"?>
<!-- Generator: Adobe Illustrator 16.0.0, SVG Export Plug-In . SVG Version: 6.00 Build 0)  -->
<!DOCTYPE svg PUBLIC "-//W3C//DTD SVG 1.1//EN" "http://www.w3.org/Graphics/SVG/1.1/DTD/svg11.dtd">
<svg version="1.1" id="Layer_1" xmlns="http://www.w3.org/2000/svg" xmlns:xlink="http://www.w3.org/1999/xlink" x="0px" y="0px"
	 width="189px" height="189px" viewBox="0 0 189 189" enable-background="new 0 0 189 189" xml:space="preserve">
<ellipse fill="#FAFAFA" cx="94.148" cy="94.223" rx="94.148" ry="94.223"/>
<path opacity="0.2" fill="#188ADF" enable-background="new    " d="M96.814,76.66c-0.162-0.076-0.32-0.218-0.481-0.294
	c-0.563-0.298-0.629-0.638-0.358-1.096c0.632-1.047,1.26-2.026,1.812-3.144c0.556-1.185,1.028-2.374,1.419-3.568
	c0.48-1.324,1.275-2.362,2.797-3.026c1.859-0.85,3.721-1.7,5.58-2.549c0.422-0.181,1.01-0.354,1.273-0.677
	c0.265-0.323,0.374-0.857,0.232-1.336c-0.189-1.155-0.543-2.319-0.898-3.483c-0.075-0.138-0.309-0.42-0.391-0.424
	c-1.082,0.147-1.374-0.608-1.68-1.096c-0.465-0.63-0.756-1.386-0.633-2.189c0.017-0.336-0.217-0.617-0.283-0.958
	c-0.22-0.55-0.525-1.038-0.663-1.583c-0.275-1.092-1.217-2.083-0.991-3.285c0.213-0.933,0.669-1.786,1.605-2.346
	c0.77-0.5,1.455-1.005,2.221-1.438c1.441-0.736,2.959-1.333,4.676-0.977c1.229,0.197,2.444,0.663,3.488,1.254
	c1.285,0.739,2.737,1.418,3.418,2.666c0.382,0.626,0.764,1.251,0.98,1.869c0.075,0.139-0.186,0.395-0.361,0.588
	c-0.182,0.328-0.445,0.651-0.631,1.046l-0.003,0.067c-0.837,1.845,0.14,3.781,0.127,5.668c0.021,1.214-0.28,2.277-0.832,3.395
	c-0.278,0.593,0.176,1.424,1.147,1.811c1.7,0.692,3.311,1.515,5.097,2.144c1.216,0.466,2.603,0.805,3.911,1.074
	c1.391,0.272,2.177,1.053,2.868,2.099c0.921,1.395,1.509,2.839,1.929,4.343c0.274,1.092,0.802,2.13,0.74,3.34
	c-0.017,0.336,0.292,0.756,0.357,1.097c0.38,2.311,1.345,4.449,2.14,6.713c0.213,0.685,0.846,1.255,1.824,1.507
	c0.175-0.193,0.271-0.458,0.525-0.58c0.254-0.122,0.751-0.165,0.83-0.093c0.389,0.491,0.731,0.239,1.154,0.058
	c0.672-0.236,1.345-0.471,1.936-0.711c0.254-0.122,0.432-0.382,0.689-0.572c0.34-0.185,0.68-0.37,1.095-0.417
	c1.421-0.333,2.847-0.732,3.483-1.914c0.457-0.853,0.896-1.37,1.974-1.451c0.083,0.004,0.175-0.193,0.265-0.323
	c0.191-0.53,0.775-0.635,1.256-0.341c0.24,0.147,0.563,0.298,0.814,0.243c0.168-0.059,0.264-0.324,0.438-0.517
	c0.093-0.197,0.182-0.328,0.274-0.525c0.58-0.038,1.078-0.081,1.123,0.663c0.598-0.375,1.579-0.19,1.462-1.14
	c0.007-0.134,0.437-0.45,0.601-0.441c0.33,0.017,0.563,0.298,0.883,0.517c0.501-0.11,1.088-0.282,1.926-0.51
	c0.072,0.206,0.227,0.416,0.213,0.685c0.056,0.542-0.055,1.076-0.078,1.546c-0.017,0.336,0.299,0.622,0.368,0.895
	c0.072,0.206-0.023,0.47-0.112,0.601c-0.344,0.252-0.684,0.438-1.02,0.555c0.145,0.412,0.292,0.756,0.271,1.16
	c-0.01,0.202-0.274,0.525-0.521,0.513c-0.168,0.059-0.566-0.23-0.643-0.369c-0.154-0.21-0.141-0.479-0.209-0.752
	c-0.756,0.231-1.264,0.475-0.971,1.231c0.078,0.071-0.011,0.202-0.018,0.336c-0.096,0.265,0.124,0.815-0.453,0.786
	c-0.329-0.017-0.557-0.433-0.875-0.651c-0.08-0.071-0.152-0.277-0.145-0.412c-0.508,0.244-0.934,0.492-1.355,0.673
	c0.134,0.614,0.271,1.16,0.323,1.769c-0.91,0.021-0.91,0.021-1.446-0.814c-0.662,0.034-1.246,0.139-1.736,0.047
	c-1.632-0.419-2.974-0.016-4.25,0.729c-0.086,0.063-0.172,0.126-0.258,0.189s-0.254,0.122-0.422,0.181
	c0.299,0.622,0.68,1.248,0.979,1.869c0.079,0.071,0.072,0.206,0.068,0.273c-0.288,0.794-0.417,1.732-0.946,2.378
	c-1.228,1.421-2.247,1.977-4.438,1.191c-0.488-0.159-1.064-0.188-1.557-0.28c-0.984-0.117-2.053-0.239-3.035-0.423
	c-0.734-0.172-1.311-0.201-1.99,0.169c-1.527,0.8-3.213,1.456-4.819,2.184c-0.254,0.122-0.426,0.248-0.68,0.37
	c0.134,0.613,0.269,1.227,0.403,1.84c0.183,1.29,0.369,2.512,0.551,3.803c0.066,0.34-0.281,0.659-0.301,1.063
	c0.07,1.891,0.143,3.715,0.131,5.602c0.034,0.945-0.257,1.807-0.305,2.748c-0.111,2.219-0.138,4.373-0.167,6.596
	c-0.038,0.74,0.176,1.424,0.138,2.164c-0.026,0.537-0.305,1.131-0.331,1.668c-0.124,0.803-0.243,1.539-0.284,2.346
	c-0.003,0.066,0.155,0.209,0.152,0.277c0.072,0.205,0.064,0.34,0.055,0.541c1.186,1.07,0.879,0.584,0.482,1.912
	c-0.008,0.135,0.064,0.34,0.059,0.475l-0.004,0.066c-0.047,0.941,0.32,1.836,0.438,2.785c-0.007,0.135-0.01,0.203,0.065,0.342
	c0.698,0.91,0.235,1.898,0.431,2.92c0.2,0.953,0.4,1.906,0.514,2.924c0.117,0.949-0.016,1.953,0.102,2.902s0.402,1.84,0.52,2.789
	c0.072,0.207,0.059,0.475,0.131,0.682c0.118,0.949,0.232,1.965,0.267,2.91c0.038,0.879-0.088,1.748-0.132,2.623
	c0.041,0.811-0.635,1.113-1.232,1.488c-0.171,0.125-0.422,0.18-0.422,0.18c0.371,0.828,0.911,1.596,1.039,2.344
	c0.123,0.816-0.164,1.609-0.04,2.426c0.196,1.02,0.561,1.982,0.843,2.939c0.207,0.82,0.499,1.576,0.787,2.4
	c0.142,0.479,0.2,0.953,0.262,1.359c0.132,0.682-0.146,1.273-0.582,1.725c-1.039,0.957-2.382,1.361-3.947,1.283
	c-1.236-0.063-2.39-0.121-3.349-0.775c-0.875-0.652-0.986-1.736-0.773-2.668c0.298-0.996,0.102-2.018,0.07-3.029
	c-0.049-0.676-0.262-1.361-0.475-2.047c-0.072-0.205-0.139-0.545-0.382-0.625c-1.134-0.461-1.333-1.416-1.536-2.301
	c-0.128-0.748-0.416-1.572-0.215-2.303c0.213-0.934,0.751-1.783,1.286-2.564c0.446-0.652,0.46-0.92-0.176-1.424
	c-0.872-0.719-1.326-1.551-1.275-2.559c0.003-1.684-0.246-3.314-0.325-5.004c-0.08-1.689,0.004-3.369,0.006-5.055
	c0.027-0.537-0.278-1.025-0.419-1.504c-0.069-0.273-0.217-0.617-0.121-0.881c0.223-1.135-0.475-2.047-1.004-3.018
	c-0.53-0.971-1.06-1.939-1.005-3.016c0.051-1.008,0.273-2.143-0.091-3.105c-0.431-1.301-0.036-2.563-0.305-3.789
	c-0.323-1.77-0.153-3.512-0.893-5.234c-0.145-0.412,0.048-0.941-0.183-1.291c-0.453-0.83-0.41-1.705-0.447-2.582
	c0.006-0.135,0.016-0.336,0.029-0.605c-0.332,0.051-0.583,0.105-0.916,0.156c-0.391,1.193-0.863,2.383-1.09,3.584
	c-0.212,0.934-0.177,1.879-0.225,2.818c-0.044,0.875,0.073,1.824-0.465,2.674c-0.179,0.26-0.202,0.73-0.051,1.008
	c0.443,1.033,0.396,1.975-0.152,3.025c-0.275,0.525,0.021,1.215,0.072,1.824c0.045,0.742,0.008,1.482-0.111,2.217
	c-0.123,0.803-0.075,1.48,0.3,2.24c0.374,0.76,0.581,1.58,0.956,2.34c0.677,1.314,1.437,2.633,2.027,4.012
	c0.372,0.826,0.496,1.643,0.699,2.527c0.131,0.682-0.164,1.609,0.311,2.039c0.789,0.713,0.258,1.428,0.389,2.109
	c0.262,1.359,0.19,2.771,0.284,4.191c-0.014,0.27,0.138,0.547,0.124,0.814c-0.03,0.605-0.467,1.057-1.057,1.295
	c-1.012,0.422-2.018,0.707-3.172,0.65c-0.742-0.039-1.246,0.139-1.448,0.869c-0.212,0.934-1.225,1.354-2.148,1.645
	c-1.091,0.35-2.262,0.627-3.34,0.707c-0.831,0.094-1.645-0.148-2.462-0.324c-0.57-0.164-0.965-0.521-1.017-1.131
	c-0.11-1.084,0.507-1.861,1.282-2.496c1.462-1.141,3.006-2.275,4.547-3.344c0.086-0.063,0.254-0.121,0.258-0.189
	c0.03-0.604,0.143-1.205,0.092-1.814c0.006-0.135-0.152-0.277-0.228-0.416c-0.227-0.416-0.54-0.768-0.684-1.18
	c-0.282-0.957-0.308-2.105-0.843-2.941c-0.839-1.391-0.922-3.012-1.679-4.398c-0.378-0.691-0.759-1.318-1.141-1.943
	c-0.079-0.072-0.072-0.207-0.151-0.277c-0.135-0.613-0.101-1.285-0.822-1.727c-0.24-0.146-0.213-0.686-0.195-1.021
	c0.037-0.738-0.348-1.297-0.732-1.855c-0.155-0.211-0.139-0.547-0.125-0.816c-0.083-1.621-0.166-3.242-0.25-4.865
	c-0.059-0.475-0.196-1.02-0.42-1.504c-0.52-1.172-0.375-2.377-0.235-3.516c0.034-0.672-0.11-1.084-0.828-1.592
	c-1.281-0.807-2.134-1.928-2.813-3.176c-0.3-0.621-0.596-1.311-1.484-1.691c-0.244-0.08-0.307-0.488-0.375-0.762
	c-0.135-0.613-0.183-1.289-0.485-1.844c-0.667-1.517-1.169-3.025-1.009-4.566c0.157-1.476,0.881-2.72,2.174-3.8
	c0.172-0.126,0.275-0.525,0.117-0.669c-1.24-1.612-2.566-3.162-3.719-4.904c-0.687-1.113-1.034-2.412-0.809-3.613
	c0.13-0.937,0.586-1.79,0.799-2.723c0.201-0.731,0.242-1.538,0.362-2.273c0.208-0.865,0.583-1.723,0.792-2.588
	C96.615,77.324,96.715,76.992,96.814,76.66z M104.594,92.756c0.014-0.269,0.023-0.471,0.033-0.672c0.4-1.395,0.72-2.795,0.629-4.282
	c-0.048-0.676-0.172-1.491,0.518-2.063c0.865-0.765,0.905-1.572,0.459-2.538c-0.225-0.483-0.44-1.101-0.414-1.639
	c0.164-1.609-0.674-3-0.926-4.562c0.01-0.202-0.313-0.353-0.467-0.563c-0.182,0.328-0.357,0.521-0.453,0.786
	c-0.093,0.197-0.188,0.462-0.285,0.727c-0.56-0.365-1.146-0.193-1.252,0.274c-0.203,0.731-0.322,1.466-0.607,2.193
	c-0.387,1.126-1.018,2.173-1.401,3.231c-0.284,0.727-0.49,1.525-0.359,2.206c0.278,1.025,0.888,2.067,1.499,3.041
	c0.68,1.248,1.447,2.432,2.131,3.612C104.017,92.727,104.264,92.74,104.594,92.756z M128.71,78.135
	c-0.082-0.004-0.168,0.059-0.251,0.055c-0.01,0.202-0.099,0.332-0.026,0.538c0.439,1.101,0.389,2.109-0.16,3.16
	c-0.086,0.063-0.01,0.202-0.017,0.336c0.595,1.311,0.451,2.517-0.19,3.765c-0.178,0.26-0.116,0.668,0.035,0.945
	c0.221,0.55,0.44,1.1,0.736,1.79c1.184-0.547,2.367-1.094,3.552-1.641C131.804,83.952,129.21,81.328,128.71,78.135z"/>
<g>
	<defs>
		<rect id="SVGID_1_" x="51" y="19" width="46" height="113"/>
	</defs>
	<clipPath id="SVGID_2_">
		<use xlink:href="#SVGID_1_"  overflow="visible"/>
	</clipPath>
	<g opacity="0.2" clip-path="url(#SVGID_2_)">
		<path fill="#188ADF" d="M68.282,93.716c0.199,0.394,0.464,0.786,0.464,1.235c0.066,1.234-0.132,2.47-0.861,3.648
			c-0.199,0.337,0,0.842,0.066,1.291c0,0.281,0.133,0.562,0.133,0.842c-0.066,1.404-0.133,2.807-0.265,4.211
			c-0.132,1.965-0.199,3.984-0.597,5.949c-0.397,2.021-0.132,4.043,0,6.007c0.066,1.46,0.464,2.919-0.265,4.323
			c-0.132,0.168-0.066,0.448-0.066,0.674c0.066,0.449,0.133,0.953,0.133,1.402c0.265,2.245-0.066,2.471-2.055,3.2
			c-0.663,0.28-1.392,0.617-1.988,1.01c-0.398,0.281-0.795,0.675-0.995,1.067c-1.126,1.908-4.242,3.143-6.628,2.525
			c-1.127-0.281-1.591-1.066-1.326-2.076c0.265-1.067,1.126-1.909,1.922-2.695c1.326-1.234,2.188-2.75,3.049-4.266
			c0.132-0.225,0.199-0.674,0.066-0.898c-0.596-0.898-0.331-1.854-0.331-2.751c0-0.673-0.066-1.347-0.066-1.964
			c0-1.235-0.066-2.471,0.066-3.649c0.397-3.2,0.464-6.456,0-9.655c-0.265-2.077-0.066-4.154,0.265-6.23
			c0.132-0.898,0.132-1.909-0.133-2.807c-0.795-2.695-1.392-5.39-1.458-8.141c0-0.898-0.133-1.796-0.265-2.693
			c0-0.169-0.133-0.449-0.332-0.449c-0.729-0.225-0.928-0.73-1.127-1.291c-0.132-0.449-0.331-0.843-0.464-1.348
			c-0.199,0.168-0.464,0.225-0.464,0.336c-0.265,0.787-0.133,1.516,0.332,2.303c0.464,0.729,1.259,1.178,1.657,1.852
			c0.133,0.225,0.066,0.506,0.066,0.786c-0.265,0-0.597,0.112-0.862,0c-0.928-0.449-1.855-0.897-2.784-1.403
			c-0.862-0.506-0.994-1.459-1.326-2.189c-1.061-2.414-0.53-4.939-0.663-7.41c-0.133-2.301,0-4.659,0-7.017
			c-0.066-2.807,0.331-5.501,1.326-8.14c0.397-1.179,0.53-2.47,0.729-3.705c0.199-1.01,0.332-2.021,0.397-3.031
			c0.066-0.393-0.132-0.786-0.199-1.179c0-0.168-0.132-0.28-0.066-0.449c0.199-1.796,0.332-3.593,0.597-5.333
			c0.199-1.123,0.53-2.245,0.862-3.368c0.265-1.123,1.458-1.628,2.452-2.189c1.724-1.011,3.58-1.909,5.369-2.807
			c0.199-0.112,0.397-0.112,0.596-0.168c0.597-0.168,0.995-0.562,0.995-1.067c0-1.965-0.265-3.873-1.657-5.557
			c-0.397-0.449-0.597-1.123-0.729-1.684c-0.332-1.516-0.663-3.031-0.862-4.547c-0.066-0.505,0.265-1.011,0.398-1.516
			c0-0.112,0.132-0.225,0.132-0.281c-0.397-0.674,0.199-0.898,0.663-1.235c0.729-0.449,1.524-0.842,2.253-1.348
			c1.392-0.954,2.85-0.729,4.375-0.336c2.188,0.561,3.778,1.796,5.104,3.368c0.729,0.842,0.397,1.74,0.397,2.639
			c0,0.786,0.133,1.572,0,2.357c-0.132,0.786-0.332,1.684-0.861,2.302c-0.53,0.617-0.796,1.347-0.862,2.021
			c-0.265,2.133,0.199,3.648,2.652,4.659c0.33,0.112,0.729,0.168,1.06,0.336c0.929,0.393,1.724,0.955,2.651,1.235
			c1.988,0.617,3.514,1.796,4.839,3.031c0.729,0.673,1.259,1.684,1.524,2.582c0.53,2.021,0.861,4.098,1.26,6.175
			c0,0.112,0.066,0.281,0,0.393c-0.531,0.842,0,1.628,0.133,2.47c0.065,0.673,0.132,1.347,0.132,2.021
			c-0.132,1.74,0.133,3.368,0.597,5.052c0.397,1.572,0.53,3.2,0.464,4.828c-0.198,2.526-0.663,4.996-0.994,7.466
			c-0.066,0.337-0.066,0.674-0.066,1.011c-0.066,2.133-0.132,4.266-0.198,6.344c-0.066,2.076-0.729,3.984-2.851,5.22
			c-0.464,0.28-0.663,0.562-0.464,1.011c0.133,0.225,0.066,0.505,0.133,0.785c0.198,1.572,0.397,3.145,0.596,4.66
			c0.066,0.336,0.133,0.674,0.066,1.01c-0.265,1.404,0.199,2.695,0.597,4.042c0.133,0.449,0.597,0.843,0.796,1.347
			c0.198,0.449,0.265,0.955,0.397,1.46c0.132,0.394,0.265,0.786,0.397,1.179s0.266,0.842,0.332,1.235
			c0.662,2.47,1.392,4.94,1.988,7.466c0.199,0.842,0.199,1.797,0.331,2.695c0.133,0.673,0.331,1.291,0.464,1.964
			c0.066,0.169,0,0.394,0,0.618c0,0.393-0.199,0.953,0.066,1.178c0.795,0.73,0.928,1.629,1.061,2.583
			c-0.266-0.112-0.53-0.169-0.795-0.28c-0.066,0.111-0.133,0.168-0.199,0.28c0.331,0.224,0.729,0.448,1.061,0.729
			c0.066-0.057,0.133-0.112,0.199-0.168c0.066,0.056,0.132,0.168,0.066,0.225c-0.332,1.796,0.994,3.199,1.59,4.771
			c0.398,1.178,1.657,1.853,2.52,2.75c0.729,0.73,1.458,1.459,1.922,2.358c0.729,1.347,0.133,2.413-1.524,2.919
			c-2.121,0.673-4.044,0.449-5.236-0.898c-1.127-1.291-2.718-1.853-4.375-2.357c-0.464-0.113-0.861-0.281-1.325-0.449
			c-0.398-0.169-0.663-0.449-0.597-0.898c0.132-1.291,0.198-2.639,0.265-3.93c0-0.225-0.066-0.449-0.133-0.674
			c-0.066-0.279-0.066-0.617-0.198-1.01c0.331,0.168,0.53,0.281,0.729,0.393c0.066-0.056,0.133-0.056,0.198-0.111
			c-0.198-0.281-0.331-0.674-0.597-0.899c-0.861-0.954-0.795-1.291,0.531-1.796c-0.133-0.112-0.332-0.393-0.398-0.337
			c-0.861,0.28-0.861-0.28-1.061-0.729c-0.795-1.516-1.524-3.088-2.387-4.604c-0.795-1.348-0.994-2.807-1.259-4.266
			c-0.331-1.572-0.331-3.2-1.325-4.66c-0.133-0.225-0.266-0.505-0.199-0.785c0.133-0.955-0.332-1.628-0.861-2.414
			c-0.663-0.954-1.061-2.133-1.459-3.256c-0.729-2.021-1.392-4.098-2.054-6.119c-0.199-0.674-0.464-1.347-0.729-1.965
			c-0.066-0.168-0.066-0.336-0.066-0.504c0.066-0.057,0.132-0.057,0.199-0.113c0.398,0.338,0.795,0.674,1.193,1.066
			c-0.199-0.561-0.464-1.01-1.126-1.291c-0.265-0.111-0.597-0.336-0.663-0.561c-0.729-1.797-1.326-3.649-2.055-5.445
			c-0.332-0.898-0.795-1.797-1.392-2.695c-0.066,0.563-0.066,1.067-0.132,1.629c-0.265,1.965-0.597,3.93-0.729,5.895
			c-0.066,1.066,0.132,2.188,0.265,3.255c0.066,0.843,0.132,0.843-0.53,1.348c0.994,0.112,0.596,0.673,0.663,1.347L68.282,93.716z
			 M81.273,55.151c-0.066,0-0.199,0-0.266,0.056c-0.066,0.337-0.133,0.674-0.199,0.955c-0.265,1.516-0.795,3.031-0.529,4.603
			c0.198,1.123,0.397,2.245,0.529,3.368c0.066,0.336,0,0.842-0.265,1.066c-0.397,0.393-0.265,0.729-0.066,1.066
			c1.326,2.189,1.458,4.547,0.995,6.905c-0.066,0.393,0.065,0.898,0.198,1.291c0.198,0.562,0.397,1.066,0.597,1.572
			c0,0,0.133-0.112,0.199-0.281c0.729-1.235,0.795-2.582,0.662-3.929c-0.265-3.424-0.53-6.849-0.928-10.273
			C82.068,59.474,81.671,57.34,81.273,55.151z M59.731,54.814c-0.133,0-0.265,0-0.332-0.057c-0.397,1.628-0.795,3.312-1.126,4.996
			c-0.265,1.628-0.265,3.256-0.663,4.884c-0.729,2.863-1.723,5.67-2.585,8.533c-0.53,1.684,0.199,3.537,1.657,4.491
			c0-0.225,0-0.394,0-0.617c0-2.133-0.199-4.267,0-6.344c0.132-1.74,0.663-3.48,1.259-5.164c0.596-1.628,0.994-3.256,0.862-4.996
			c-0.066-0.562,0.132-1.235,0.464-1.74C60.262,57.509,59.864,56.162,59.731,54.814z"/>
	</g>
</g>
</svg>
