<?xml version="1.0" encoding="utf-8"?>
<!-- Generator: Adobe Illustrator 16.0.0, SVG Export Plug-In . SVG Version: 6.00 Build 0)  -->
<!DOCTYPE svg PUBLIC "-//W3C//DTD SVG 1.1//EN" "http://www.w3.org/Graphics/SVG/1.1/DTD/svg11.dtd">
<svg version="1.1" id="Layer_1" xmlns="http://www.w3.org/2000/svg" xmlns:xlink="http://www.w3.org/1999/xlink" x="0px" y="0px"
	 width="189px" height="189px" viewBox="0 0 189 189" enable-background="new 0 0 189 189" xml:space="preserve">
<ellipse fill="#FAFAFA" cx="94.148" cy="94.223" rx="94.148" ry="94.223"/>
<path opacity="0.2" fill="#188ADF" enable-background="new    " d="M93.932,177.314c0.354-0.564,0.485-1.131,0.617-1.697
	c0.221-0.783,0.574-1.566,0.883-2.35c0.045-0.131,0.045-0.305-0.043-0.436c-0.221-0.348-0.133-0.695-0.045-1.087
	c0.221-0.914,0.84-1.523,1.502-2.089c0.441-0.348,0.221-0.74,0.176-1.131c-0.045-0.436-0.176-0.914-0.133-1.35
	c0-0.218,0.266-0.392,0.398-0.565c0.088-0.175,0.221-0.349,0.264-0.522c0.088-0.436,0.221-0.87,0.221-1.305
	c0-0.653-0.176-1.263-0.574-1.828c-0.352-0.479-0.309-1.045-0.176-1.61c0.133-0.739,0.309-1.479,0.396-2.22
	c0.045-0.348-0.088-0.783,0.045-1.131c0.176-0.479,0.486-0.87,0.707-1.305c0.264-0.479,0.529-1.002,0.838-1.48
	c0.133-0.217,0.311-0.348,0.441-0.565c0.133-0.174,0.133-0.349-0.043-0.565c-0.354-0.393-0.662-0.827-0.973-1.262
	c-0.131-0.218-0.131-0.479-0.131-0.74c0-0.436,0-0.87,0-1.393c-0.311-0.131-0.707-0.261-1.105-0.436
	c-0.838-0.305-1.678-0.608-2.471-0.913c-1.016-0.392-2.076-0.739-3.092-1.175c-1.015-0.436-1.986-0.871-2.958-1.393
	c-0.839-0.436-1.678-0.914-2.517-1.436c-0.794-0.479-1.545-0.958-2.296-1.437c-0.839-0.522-1.633-1.001-2.517-1.479
	c-0.221-0.131-0.574-0.131-0.794-0.043c-1.148,0.435-1.722,0-2.428-0.871c-0.309-0.392-0.75-0.652-1.06-1
	c-0.442-0.566-1.104-0.609-1.678-0.914c-0.883-0.479-1.81-0.914-2.693-1.35c-0.265-0.131-0.574-0.217-0.883-0.261
	c-0.574-0.087-1.016-0.435-1.148-0.958c-0.044-0.174-0.132-0.391-0.265-0.479c-0.839-0.435-1.06-1.131-1.236-2.002
	c-0.132-0.826-0.529-1.609-0.794-2.393c-0.132-0.348-0.265-0.696-0.177-1.088c0.044-0.131-0.044-0.348-0.132-0.479
	c-0.265-0.392-0.53-0.827-0.883-1.131c-0.618-0.566-1.281-1.045-1.943-1.567c-0.794-0.608-1.545-1.262-2.384-1.828
	c-0.927-0.695-1.898-1.392-2.87-2.132c-0.397-0.304-0.794-0.608-1.192-0.913c-0.177-0.131-0.177-0.218-0.044-0.393
	c0.663-0.695,1.325-1.436,2.031-2.132c0.662-0.696,1.369-1.393,2.075-2.045c0.618-0.522,1.281-1.001,1.898-1.479
	c0.354-0.305,0.707-0.566,1.06-0.871c0.265,0.305,0.485,0.305,0.75,0.131c0.53-0.391,0.75-0.391,1.28,0.044
	c0.971,0.783,1.898,1.566,2.87,2.35c0.221,0.175,0.441,0.392,0.662,0.609c0.088,0.087,0.088,0.218,0.133,0.305
	c0.176,0.174,0.309,0.304,0.441,0.435c0.132,0.044,0.309,0.044,0.397,0.131c0.839,0.696,1.633,1.393,2.428,2.089
	c1.06,0.913,2.163,1.827,3.223,2.741c0.663,0.566,1.325,1.088,1.987,1.61c0.618,0.521,1.192,1.045,1.81,1.523
	c0.883,0.739,1.767,1.436,2.605,2.132c0.663,0.565,1.369,1.132,2.031,1.74c0.176,0.175,0.265,0.479,0.265,0.739
	c0.044,0.305-0.088,0.566-0.132,0.958c1.06,0,2.119,0,3.223,0c1.236-0.044,2.516-0.087,3.752-0.13
	c0.884-0.044,1.766-0.131,2.693-0.131c0.707,0,1.457,0.087,2.164,0.131c0.441,0.043,0.838-0.175,1.059-0.523
	c0.441-0.695,0.84-1.436,1.104-2.176c0.221-0.608,0.178-1.305,0.266-1.957c0.045-0.393,0.176-0.783,0.266-1.176
	c0.043-0.261,0.221-0.521,0.176-0.739c0-0.436,0.133-0.74,0.354-1.088c0.088-0.087,0-0.305,0.045-0.392
	c0.176-0.436,0.396-0.87,0.572-1.349c0.09-0.175,0.09-0.349,0.133-0.522c0.088-0.565,0.178-1.088,0.221-1.653
	c0.045-0.827-0.043-1.654,0.133-2.438c0.133-0.739,0.221-1.523,0.574-2.263c0.486-0.913,0.838-1.871,1.281-2.828
	c0.309-0.609,0.662-1.219,1.014-1.827c0.221-0.436,0.486-0.871,0.619-1.35c0.088-0.305-0.045-0.696-0.088-1.001
	c-0.045-0.349-0.09-0.652-0.133-1.001c0-0.087,0.133-0.217,0.221-0.261c0.529-0.218,1.059-0.392,1.545-0.609
	c0.619-0.305,1.191-0.696,1.766-1.044c0.178-0.131,0.354-0.262,0.486-0.393c0.221-0.174,0.309-0.348,0.088-0.608
	c-0.617-0.609-1.191-1.219-1.811-1.784c-0.221-0.218-0.529-0.392-0.926-0.174c-0.354,0.174-0.752,0.131-1.105,0.261
	c-0.572,0.218-1.146,0.479-1.721,0.696c-0.971,0.392-2.385,0.174-2.781-1.045c-0.088-0.217-0.133-0.435-0.133-0.652
	c0-0.565-0.441-0.74-0.84-0.87c-0.264-0.087-0.396-0.174-0.441-0.435c0-0.088-0.176-0.219-0.309-0.262
	c-0.484-0.087-0.705-0.392-0.795-0.826c-0.043-0.305-0.176-0.609-0.309-0.871c-0.045-0.087-0.221-0.131-0.354-0.131
	c-0.309,0-0.617,0-0.883,0c-1.016,0-1.457-0.695-1.016-1.609c0.221-0.479,0.486-1.001,0.441-1.566c0-0.131,0.045-0.262,0.133-0.392
	c0.309-0.565,0.266-1.175,0.133-1.697c-0.088-0.349-0.441-0.609-0.662-0.914c-0.574-0.827-1.016-1.74-1.193-2.741
	c-0.043-0.218-0.176-0.392-0.264-0.609c-0.178,0-0.398,0-0.574,0c-0.396,0-0.662-0.13-0.795-0.522
	c-0.044-0.131-0.088-0.261-0.176-0.348c-0.354-0.436-0.133-0.914-0.045-1.35c0-0.043,0.088-0.13,0.088-0.174
	c-0.132-0.87,0.266-1.697,0.354-2.523c0.133-1.088,0.53-2.132,1.104-3.046c0.398-0.653,0.883-1.262,1.281-1.915
	c0.396-0.565,0.705-1.175,1.104-1.74c0.176-0.261,0.441-0.522,0.707-0.696c0.926-0.609,1.809-1.219,2.781-1.784
	c0.662-0.392,1.324-0.74,2.031-1.001c0.484-0.174,1.014-0.217,1.457,0.131c0.264,0.174,0.572,0.261,0.793,0.392
	c0.178-0.174,0.311-0.261,0.441-0.305c0.045,0,0.178,0.174,0.266,0.348c0.529-0.131,1.104-0.348,1.678-0.479
	c0.309-0.043,0.619-0.043,0.928,0c0.441,0.044,0.883,0.087,1.279,0.261c0.707,0.305,1.414,0.609,2.031,1.044
	c0.84,0.609,1.635,1.306,2.297,2.045c0.795,0.914,1.5,1.872,2.162,2.872c0.354,0.522,0.529,1.219,0.883,1.741
	c0.311,0.478,0.441,1.001,0.531,1.566c0.176,0.74,0.396,1.48,0.176,2.264c-0.088,0.261,0,0.565,0.045,0.826
	c0,0.174,0.043,0.393,0.043,0.566c0,0.695,0,1.436,0,2.132c-0.043,0.87-0.088,1.74-0.133,2.567
	c-0.043,1.393,0.266,2.698,1.016,3.917c0.398,0.608,0.752,1.305,1.104,1.957c0.266,0.436,0.664,0.566,1.148,0.609
	c0.574,0.044,0.75,0.262,0.928,0.74c0.176,0.479,0.309,1,0.928,1.131c0.441,0.088,0.396,0.522,0.352,0.74
	c-0.088,0.87,0.486,1.479,0.84,2.132c0.75,1.306,1.678,2.524,2.428,3.873c0.75,1.306,1.457,2.698,1.766,4.222
	c0.133,0.738,0.441,1.436,0.619,2.131c0.176,0.784,0.266,1.567,0.309,2.351c0.088,1.001,0.221,2.045,0.221,3.046
	c0,1.131-0.043,2.263-0.133,3.395c-0.088,1.174-0.176,2.393-0.396,3.524c-0.266,1.305-0.75,2.567-1.061,3.829
	c-0.221,1.044-0.396,2.132-0.176,3.22c0,0.088,0,0.174,0,0.262c0.045,1,0.045,1.958,0.088,2.959c0,0.479-0.043,0.914-0.088,1.393
	c0,1.436,0.045,2.871,0,4.308c-0.045,1.218-0.176,2.394-0.309,3.612c-0.045,0.652-0.09,1.262-0.178,1.914
	c-0.133,1.131-0.133,2.263-0.529,3.307c-0.221,0.653-0.486,1.307-0.662,2.002c-0.176,0.566-0.617,0.696-1.148,0.783
	c-0.309,0.044-0.396,0.088-0.176,0.349c0.176,0.261,0.309,0.522,0.484,0.739c0.045,0.044,0.09,0.131,0.09,0.218
	c0,0.87,0.441,1.566,0.838,2.307c0.529,1.044,1.148,2.045,1.281,3.22c0.043,0.262,0.176,0.566,0.221,0.827
	c0.133,0.565,0.221,1.175,0.309,1.74c0.045,0.739,0.133,1.479,0.088,2.176c-0.043,0.827-0.176,1.653-0.354,2.437
	c-0.176,0.914-0.441,1.828-0.75,2.698c-0.221,0.653,0.369-0.278,0.061,0.331c-0.309,0.652-2.602,3.348-3,4
	c0.398-0.609-0.354,0.652,0,0c-0.043,0.087-0.416,1.5-0.549,1.5c-2.516,0-4.988,0-7.506,0c-7.195,0-14.393,0-21.588,0
	C94.285,177.314,94.152,177.314,93.932,177.314z"/>
</svg>
