<svg width="48" height="51" viewBox="0 0 48 51" fill="none" xmlns="http://www.w3.org/2000/svg">
<path fill-rule="evenodd" clip-rule="evenodd" d="M24.8198 20.599C26.1807 20.599 27.284 19.5019 27.284 18.1486C27.284 16.7953 26.1807 15.6982 24.8198 15.6982C23.4588 15.6982 22.3555 16.7953 22.3555 18.1486C22.3555 19.5019 23.4588 20.599 24.8198 20.599Z" fill="#A1BF46"/>
<path fill-rule="evenodd" clip-rule="evenodd" d="M28.1069 15.6982C29.4678 15.6982 30.5711 14.6012 30.5711 13.2479C30.5711 11.8946 29.4678 10.7975 28.1069 10.7975C26.7459 10.7975 25.6426 11.8946 25.6426 13.2479C25.6426 14.6012 26.7459 15.6982 28.1069 15.6982Z" fill="#A1BF46"/>
<path fill-rule="evenodd" clip-rule="evenodd" d="M33.0346 17.3318C34.3956 17.3318 35.4989 16.2347 35.4989 14.8814C35.4989 13.5282 34.3956 12.4311 33.0346 12.4311C31.6736 12.4311 30.5703 13.5282 30.5703 14.8814C30.5703 16.2347 31.6736 17.3318 33.0346 17.3318Z" fill="#A1BF46"/>
<path fill-rule="evenodd" clip-rule="evenodd" d="M24.8198 46.7363C26.1807 46.7363 27.284 45.6392 27.284 44.2859C27.284 42.9326 26.1807 41.8355 24.8198 41.8355C23.4588 41.8355 22.3555 42.9326 22.3555 44.2859C22.3555 45.6392 23.4588 46.7363 24.8198 46.7363Z" fill="#A1BF46"/>
<path fill-rule="evenodd" clip-rule="evenodd" d="M19.892 17.3318C21.253 17.3318 22.3563 16.2347 22.3563 14.8814C22.3563 13.5282 21.253 12.4311 19.892 12.4311C18.531 12.4311 17.4277 13.5282 17.4277 14.8814C17.4277 16.2347 18.531 17.3318 19.892 17.3318Z" fill="#A1BF46"/>
<mask id="path-6-inside-1" fill="white">
<path fill-rule="evenodd" clip-rule="evenodd" d="M4.91201 0.995941C4.50426 2.56233 4.28711 4.20449 4.28711 5.89673C4.28711 16.7231 13.175 25.4996 24.0014 25.4996C34.8278 25.4996 43.7156 16.7231 43.7156 5.89673C43.7156 4.20449 43.4985 2.56233 43.0907 0.995941H4.91201Z"/>
</mask>
<path d="M4.91201 0.995941V-1.00406H3.36599L2.97652 0.492099L4.91201 0.995941ZM43.0907 0.995941L45.0262 0.4921L44.6368 -1.00406H43.0907V0.995941ZM6.28711 5.89673C6.28711 4.37627 6.48213 2.90337 6.84751 1.49978L2.97652 0.492099C2.52638 2.22129 2.28711 4.03271 2.28711 5.89673H6.28711ZM24.0014 23.4996C14.2648 23.4996 6.28711 15.6038 6.28711 5.89673H2.28711C2.28711 17.8424 12.0852 27.4996 24.0014 27.4996V23.4996ZM41.7156 5.89673C41.7156 15.6038 33.738 23.4996 24.0014 23.4996V27.4996C35.9176 27.4996 45.7156 17.8424 45.7156 5.89673H41.7156ZM41.1552 1.49978C41.5206 2.90337 41.7156 4.37627 41.7156 5.89673H45.7156C45.7156 4.03271 45.4764 2.22129 45.0262 0.4921L41.1552 1.49978ZM43.0907 -1.00406H4.91201V2.99594H43.0907V-1.00406Z" fill="#83859E" mask="url(#path-6-inside-1)"/>
<mask id="path-8-inside-2" fill="white">
<path fill-rule="evenodd" clip-rule="evenodd" d="M5.43164 50.0032C4.69141 47.946 4.28711 45.7304 4.28711 43.4215C4.28711 32.5951 13.1758 23.8186 24.002 23.8186C34.8281 23.8186 43.7148 32.5951 43.7148 43.4215C43.7148 45.7304 43.3105 47.946 42.5703 50.0032H5.43164Z"/>
</mask>
<path d="M5.43164 50.0032L3.54976 50.6804L4.02576 52.0032H5.43164V50.0032ZM42.5703 50.0032V52.0032H43.9762L44.4522 50.6804L42.5703 50.0032ZM2.28711 43.4215C2.28711 45.9655 2.73281 48.41 3.54976 50.6804L7.31352 49.3261C6.65 47.4821 6.28711 45.4953 6.28711 43.4215H2.28711ZM24.002 21.8186C12.0861 21.8186 2.28711 31.4757 2.28711 43.4215H6.28711C6.28711 33.7145 14.2655 25.8186 24.002 25.8186V21.8186ZM45.7148 43.4215C45.7148 31.476 35.9181 21.8186 24.002 21.8186V25.8186C33.7382 25.8186 41.7148 33.7142 41.7148 43.4215H45.7148ZM44.4522 50.6804C45.2691 48.41 45.7148 45.9655 45.7148 43.4215H41.7148C41.7148 45.4953 41.352 47.4821 40.6884 49.3261L44.4522 50.6804ZM5.43164 52.0032H42.5703V48.0032H5.43164V52.0032Z" fill="#83859E" mask="url(#path-8-inside-2)"/>
<path d="M47 49.3664H1" stroke="#83859E" stroke-width="2" stroke-linecap="round" stroke-linejoin="round"/>
<path d="M47 1.63355H1" stroke="#83859E" stroke-width="2" stroke-linecap="round" stroke-linejoin="round"/>
</svg>
