<svg width="21" height="15" viewBox="0 0 21 15" fill="none" xmlns="http://www.w3.org/2000/svg">
<path fill-rule="evenodd" clip-rule="evenodd" d="M20.9495 14.7274C20.9564 14.7131 20.963 14.6984 20.9683 14.6834C20.974 14.6681 20.9784 14.6528 20.9821 14.6372C20.9862 14.6222 20.9897 14.6075 20.9922 14.5922C20.995 14.575 20.9962 14.5577 20.9972 14.5404C20.9978 14.5307 21 14.5212 21 14.5115V0.488546C21 0.482358 20.9984 0.476821 20.9984 0.470633C20.9978 0.460862 20.9962 0.451091 20.9953 0.44132C20.9918 0.402236 20.9843 0.365107 20.9724 0.32928C20.9705 0.324395 20.9709 0.319509 20.9693 0.314624C20.9687 0.31267 20.9671 0.311041 20.9661 0.309087C20.9508 0.268375 20.9295 0.23092 20.9047 0.196396C20.8991 0.188579 20.8931 0.181414 20.8869 0.174248C20.8615 0.142981 20.8333 0.11432 20.801 0.0905439C20.7991 0.0889154 20.7972 0.0869612 20.7953 0.0856585C20.7612 0.0612311 20.7236 0.0433178 20.6837 0.0289871C20.6747 0.0257301 20.6659 0.0227988 20.6565 0.0201932C20.616 0.00846814 20.574 0 20.5299 0H0.470149C0.425955 0 0.383955 0.00846814 0.343522 0.0201932C0.334119 0.0227988 0.325343 0.0257301 0.316254 0.0289871C0.276448 0.0433178 0.238836 0.0612311 0.204672 0.0856585C0.202791 0.0869612 0.20091 0.0889154 0.19903 0.0905439C0.166746 0.11432 0.138537 0.142981 0.113149 0.174248C0.106881 0.181414 0.100925 0.188579 0.0952836 0.196396C0.0705224 0.23092 0.049209 0.268375 0.0338507 0.309087C0.0329104 0.311041 0.0313433 0.31267 0.0307164 0.314624C0.0291493 0.319509 0.0294627 0.324395 0.0275821 0.32928C0.0156716 0.365107 0.00814925 0.402236 0.00470149 0.44132C0.00376119 0.451091 0.00219403 0.460862 0.0018806 0.470633C0.00156716 0.476821 0 0.482358 0 0.488546V14.5115C0 14.7811 0.210313 15 0.470149 15H20.5299C20.5628 15 20.595 14.9961 20.6261 14.9896C20.6317 14.9883 20.637 14.9857 20.6427 14.984C20.6681 14.9775 20.6928 14.97 20.7163 14.9596C20.7264 14.9551 20.7358 14.9485 20.7455 14.943C20.764 14.9332 20.7822 14.9231 20.7991 14.9108C20.8094 14.9036 20.8182 14.8945 20.8279 14.8863C20.8436 14.873 20.8586 14.8593 20.8724 14.844C20.8756 14.8404 20.8796 14.8378 20.8828 14.8342C20.889 14.8267 20.8934 14.8179 20.8994 14.8101C20.9094 14.7964 20.9194 14.7831 20.9282 14.7681C20.9361 14.7548 20.943 14.7414 20.9495 14.7274ZM8.50623 8L10.7441 10.0637C10.835 10.1472 10.9485 10.1891 11.0623 10.1891C11.1762 10.1891 11.2897 10.1472 11.3806 10.0637L13.5158 8.09474L20 14H2L8.50623 8ZM1 13V2L7 7.49985L1 13ZM14 7.53431L20 2V13L14 7.53431ZM20 1L13.2151 7.03112C13.1718 7.0564 13.1304 7.08712 13.0955 7.12679C13.0871 7.13607 13.0817 7.14663 13.074 7.15655L11.0002 9L8.79935 7.04392C8.79679 7.04072 8.79646 7.03688 8.7939 7.034C8.76567 7.00264 8.73328 6.97736 8.69961 6.95496L2 1H20Z" fill="#A1BF46"/>
</svg>
