<svg width="19" height="19" viewBox="0 0 19 19" fill="none" xmlns="http://www.w3.org/2000/svg">
<path fill-rule="evenodd" clip-rule="evenodd" d="M18.515 19H12.1754C11.9074 19 11.6905 18.7827 11.6905 18.515V11.707C11.6905 11.4393 11.9074 11.222 12.1754 11.222H13.8176L14.0174 9.83431H12.1754C11.9074 9.83431 11.6905 9.61736 11.6905 9.34933V7.49576C11.6905 6.85107 11.8014 6.42332 12.0299 6.18795C12.2556 5.95613 12.6452 5.83844 13.1884 5.83844C13.5169 5.83844 13.8709 5.87175 14.2414 5.93738L14.5095 4.38029C12.9559 4.07734 11.7244 4.16302 11.0134 4.63474C10.5812 4.92184 10.2743 5.30239 10.1023 5.7657C9.97786 6.10647 9.91417 6.63898 9.91417 7.34639V9.34933C9.91417 9.61736 9.69722 9.83431 9.42919 9.83431H7.65063V11.222H9.42919C9.69722 11.222 9.91417 11.4393 9.91417 11.707V18.515C9.91417 18.7827 9.69722 19 9.42919 19H0.484974C0.216945 19 0 18.7827 0 18.515V0.484974C0 0.216945 0.216945 0 0.484974 0H18.515C18.7831 0 19 0.216945 19 0.484974V18.515C19 18.7827 18.7831 19 18.515 19ZM12.6493 18H18V1H1V18H8.94618V12.1824H7.17388C6.9068 12.1824 6.69062 11.9663 6.69062 11.6992V9.34986C6.69062 9.08278 6.9068 8.8666 7.17388 8.8666H8.94618V7.35398C8.94618 6.52405 9.02704 5.89967 9.19329 5.44476C9.43814 4.78526 9.86857 4.24819 10.4736 3.84644C11.4089 3.22528 12.86 3.0948 14.6806 3.45048L15.141 3.54037C15.3984 3.59095 15.5689 3.83806 15.5244 4.09677L15.0949 6.593C15.0733 6.71961 15.0018 6.8327 14.8965 6.90647C14.7911 6.98025 14.6606 7.00893 14.534 6.9867L14.0588 6.90196C13.7444 6.84623 13.447 6.81787 13.1754 6.81787C12.9238 6.81787 12.7814 6.85267 12.7234 6.87522C12.6995 6.93837 12.6493 7.11621 12.6493 7.50282V8.8666H14.5595C14.6996 8.8666 14.833 8.92749 14.9248 9.03349C15.0163 9.13948 15.0579 9.27995 15.0379 9.41881L14.6993 11.7681C14.6651 12.0062 14.4612 12.1824 14.2209 12.1824H12.6493V18Z" fill="#A1BF46"/>
</svg>
