<svg width="71" height="63" viewBox="0 0 71 63" fill="none" xmlns="http://www.w3.org/2000/svg">
<path d="M37.4143 42.2999C39.3275 43.5965 41.1159 44.8525 43.0291 46.1491C42.5716 46.5543 42.2389 46.8379 42.0725 47C40.2841 45.6224 38.6204 44.2853 36.832 43.0293C36.4577 42.7862 35.6258 42.7456 35.2931 42.9887C33.5047 44.2043 31.841 45.5819 30.011 47C29.9278 46.9595 29.6367 46.7164 29.0544 46.2707C31.0092 44.8931 32.8392 43.5965 34.7108 42.2189C33.8374 41.8948 33.0888 42.2189 32.3817 42.6241C31.3003 43.2318 30.3437 43.9612 29.2623 44.5689C26.4341 46.1896 22.982 45.825 20.8608 43.8801C22.1502 43.9206 23.7307 44.1232 25.228 43.9206C26.5173 43.7181 27.7234 42.9887 28.9712 42.6241C30.4269 42.2189 31.9658 41.4896 33.3383 41.6922C35.917 42.0974 38.4541 41.0844 40.9496 41.8137C42.2805 42.1784 43.6114 42.6646 44.9008 43.1913C47.1051 44.1637 49.3095 44.2853 51.6386 43.2318C49.3511 45.7845 45.3583 46.1086 42.1141 44.1232C41.3239 43.637 40.5336 43.0698 39.7018 42.5836C39.0364 42.1784 38.2877 41.9758 37.4143 42.2999Z" fill="#333436"/>
<path d="M51.5542 38.4918C54.0913 36.2228 57.9593 35.8987 59.9557 32.7788C59.2486 36.5875 55.4638 39.0996 49.4746 39.991C50.1401 38.4108 50.8887 36.6685 51.679 34.9668C52.3444 33.5487 53.0515 32.1711 53.8417 30.834C54.0497 33.4271 53.0931 36.3444 51.5542 38.4918Z" fill="#333436"/>
<path d="M17.7829 31.0771C20.6111 33.7108 20.32 37.722 22.8571 40.1531C18.0741 39.8695 14.0397 38.3298 12.1265 33.5892C14.2892 36.2229 17.9493 36.547 20.4448 38.735C18.2404 36.6686 18.49 33.8729 17.7829 31.0771Z" fill="#333436"/>
<path d="M55.839 39.2214C53.8842 41.774 51.3055 43.0705 48.0614 42.6653C46.2313 42.4628 44.4013 41.936 42.5713 41.4498C46.065 40.8421 47.5623 37.6412 50.4321 35.8584C49.3091 38.2489 48.5605 40.6395 45.6075 41.2878C49.0596 40.4774 52.8028 41.4093 55.839 39.2214Z" fill="#333436"/>
<path d="M21.4845 36.0605C24.3543 37.8838 25.9764 41.0037 29.678 41.5709C28.5135 41.8546 27.5985 42.1382 26.6834 42.3408C25.7684 42.5434 24.8118 42.7054 23.8552 42.827C20.7359 43.2322 18.2404 42.0977 16.3271 39.6666C19.4465 41.5709 23.1066 40.6796 26.3923 41.5304C22.9818 40.0718 23.3145 39.6261 21.4845 36.0605Z" fill="#333436"/>
<path d="M58.2088 28.6053C57.6681 27.2682 57.0443 26.0122 56.5867 24.7156C56.2124 23.6216 55.9213 22.4466 55.6717 21.3121C55.5886 20.9069 55.6717 20.5018 55.6717 19.9345C56.6283 20.7449 57.377 21.5552 57.7097 22.6087C58.0425 23.6216 58.2088 24.6751 58.5831 25.7285C58.7079 25.2423 58.7911 24.7156 58.9991 24.2294C59.415 23.0949 59.8725 22.0009 60.33 20.9069C60.7875 19.8535 61.2866 18.8405 61.7857 17.7061C61.8689 18.2733 62.0352 18.8405 61.9937 19.3673C61.8273 21.1906 61.4946 22.9733 60.6211 24.594C59.8725 25.9716 59.0407 27.2682 58.2088 28.6053Z" fill="#333436"/>
<path d="M10.1297 17.7466C10.92 19.4483 11.7518 21.1095 12.4589 22.7708C12.7916 23.5001 12.9164 24.3104 13.1243 25.0803C13.1659 25.2829 13.2491 25.4854 13.2907 25.688C13.3739 25.688 13.4155 25.688 13.4987 25.688C13.5818 25.1208 13.7066 24.5941 13.7898 24.0268C14.0394 22.4061 14.8712 21.1095 16.1605 19.894C16.1605 20.6638 16.2437 21.3121 16.1605 21.9604C15.9526 23.419 15.2871 24.7156 14.7464 26.0122C14.4137 26.8225 14.1225 27.6329 13.7898 28.5243C11.4607 25.2829 9.46428 21.9199 10.1297 17.7466Z" fill="#333436"/>
<path d="M56.6291 32.0906C57.0034 31.6449 57.3361 31.1587 57.7104 30.713C58.2927 29.9837 58.9166 29.2949 59.5405 28.6061C59.9564 28.0793 60.4139 27.5526 60.7466 27.0259C61.0794 26.4586 61.3289 25.8509 61.6616 25.2836C62.2023 27.5526 57.8768 33.4276 54.9238 34.9268C54.6743 33.2251 55.0486 31.2802 54.9238 29.538C54.8406 28.0388 55.007 26.5397 55.5893 24.9595C56.5875 27.35 56.7538 29.7 56.4211 32.0906C56.4627 32.0906 56.5459 32.0906 56.6291 32.0906Z" fill="#333436"/>
<path d="M10.2974 25.2016C10.547 25.6878 10.6717 26.093 10.9213 26.4577C11.5452 27.3085 12.169 28.1999 12.8345 29.0103C13.6663 30.0637 14.5398 31.0362 15.4132 32.1301C15.4132 31.6034 15.4548 31.1577 15.4132 30.712C15.2052 28.9698 15.6211 27.3085 16.1202 25.6878C16.2034 25.4853 16.245 25.2827 16.3282 25.0801C16.3698 25.0801 16.4114 25.0801 16.4946 25.0801C16.6193 25.6878 16.7857 26.2956 16.8689 26.9439C16.9521 27.5922 16.9937 28.2404 17.0352 28.8887C17.0352 29.537 16.9937 30.2258 16.9105 30.8741C16.8273 31.5224 16.7025 32.1707 16.6193 32.7784C16.5361 33.4267 16.4946 34.075 16.4114 34.6827C13.4584 33.1431 9.92309 27.7948 10.2974 25.2016Z" fill="#333436"/>
<path d="M17.9494 14.9108C16.9096 17.7065 14.83 19.8134 13.2911 22.4471C12.8752 21.1505 12.4593 19.9755 12.1266 18.8005C11.7938 17.5444 12.1681 16.2884 12.3761 15.0324C12.5841 13.8168 12.8336 12.6013 13.7902 11.5073C13.7902 14.141 13.7902 16.6531 13.7902 19.2057C13.8318 19.2462 13.8734 19.2867 13.915 19.2867C14.9964 17.6255 16.1609 16.0048 17.9494 14.9108Z" fill="#333436"/>
<path d="M58.1256 11.4663C59.1653 12.7629 59.3733 14.181 59.706 15.5991C60.2883 17.9896 59.6228 20.1776 58.5831 22.3655C57.0442 19.8534 55.0062 17.706 53.9248 14.8698C54.3823 15.1939 54.7566 15.4775 55.131 15.8017C55.5053 16.1258 55.9212 16.4905 56.2539 16.8957C56.5867 17.2603 56.8778 17.706 57.1689 18.1112C57.4601 18.5164 57.7512 18.9215 58.1256 19.2862C58.1256 18.0302 58.1256 16.7336 58.1256 15.4775C58.1256 14.181 58.1256 12.8844 58.1256 11.4663Z" fill="#333436"/>
<path d="M57.0037 16.2475C56.3799 15.6802 55.756 15.113 55.0905 14.5863C54.4251 14.0595 53.7596 13.6138 53.0941 13.0871C52.2623 12.4388 51.3889 11.1017 51.0562 10.0888C52.6366 11.2233 54.1755 12.3578 55.7144 13.4518C55.8392 13.0466 54.9658 8.95431 54.4251 7.7793C56.5462 9.4 57.586 12.6009 57.0037 16.2475Z" fill="#333436"/>
<path d="M16.0359 13.6143C17.6995 12.3987 19.28 11.2643 20.8189 10.1298C20.8605 10.1298 20.9021 10.1703 20.9437 10.1703C20.6109 10.7375 20.3198 11.3858 19.9039 11.872C19.4048 12.4798 18.8225 13.047 18.1986 13.5332C17.1172 14.4246 15.9943 15.2755 14.9129 16.0858C14.3306 13.6548 14.9129 9.88666 17.4916 7.61768C16.535 9.60304 16.5766 11.6289 16.0359 13.6143Z" fill="#333436"/>
<path d="M49.8496 6.3208C51.9292 7.17167 53.6344 8.3872 54.2583 10.6562C53.2185 10.5751 51.3053 8.79237 49.8496 6.3208Z" fill="#333436"/>
<path d="M17.6582 10.6967C18.3237 8.38718 20.0289 7.17165 22.1085 6.23975C21.1935 8.06304 19.1971 10.332 17.6582 10.6967Z" fill="#333436"/>
<path d="M36.2485 42.6651C54.0912 34.5211 51.471 15.4778 51.471 15.4778C44.1509 14.4244 43.5686 8.50879 43.5686 8.50879H36.2485H28.9699C28.9699 8.50879 28.3461 14.4244 21.0675 15.4778C21.026 15.4778 18.4473 34.5211 36.2485 42.6651ZM21.8162 16.2071C25.4763 15.5183 27.4311 13.5735 28.4293 12.0743C29.1363 11.0209 29.469 10.0079 29.6354 9.35966H42.8615C43.0279 10.0079 43.3606 11.0209 44.0677 12.0743C45.0659 13.614 47.0207 15.5183 50.6807 16.2071C50.8055 17.6658 50.8887 21.4744 49.6825 25.8908C47.6861 33.1435 43.1527 38.4918 36.2485 41.7737C29.3027 38.4918 24.7692 33.1435 22.7728 25.8503C21.6082 21.4339 21.733 17.6252 21.8162 16.2071Z" fill="#333436"/>
<path d="M36.2501 41.1658C42.9048 37.9649 47.2303 32.7381 49.1851 25.7286C50.2665 21.7579 50.2665 18.2328 50.1833 16.6121C46.5649 15.8018 44.61 13.8569 43.6119 12.3173C42.988 11.3854 42.6552 10.5345 42.4473 9.8457H30.053C29.845 10.5345 29.5123 11.3854 28.8884 12.3173C27.8902 13.8569 25.9354 15.8018 22.317 16.6121C22.2338 18.2328 22.1922 21.7174 23.3152 25.6881C25.2284 32.7381 29.5955 37.9649 36.2501 41.1658Z" fill="#333436"/>
<path d="M34.5044 3.16029C33.7557 3.52495 32.8823 3.40339 32.8823 3.40339C32.8823 3.40339 33.2566 2.67408 34.0053 2.2689C34.7539 1.90424 35.6274 2.0258 35.6274 2.0258C35.6274 2.0258 35.253 2.79563 34.5044 3.16029Z" fill="#333436"/>
<path d="M38.4545 3.16029C39.2032 3.52495 40.0766 3.40339 40.0766 3.40339C40.0766 3.40339 39.7023 2.67408 38.9536 2.2689C38.205 1.90424 37.3315 2.0258 37.3315 2.0258C37.3315 2.0258 37.7059 2.79563 38.4545 3.16029Z" fill="#333436"/>
<path d="M41.9472 1.45863C41.656 1.78277 41.1569 1.78277 41.1569 1.78277C41.4481 2.0664 41.3233 2.35002 41.2817 2.47157C41.1153 3.03882 40.3667 4.619 38.0792 3.32244C35.8748 2.10691 36.9562 0.729316 37.1642 0.567246C37.1642 0.567246 36.7066 0.445693 36.4987 0C36.2907 0.486211 35.7916 0.607764 35.7916 0.607764C35.958 0.769834 37.081 2.14743 34.8766 3.36296C32.5475 4.65952 31.7988 3.03882 31.6741 2.51209C31.6325 2.39054 31.5493 2.14743 31.7988 1.82329C31.7988 1.82329 31.2997 1.82329 31.0086 1.49915C31.0086 1.49915 31.0086 1.98536 30.6343 2.26898C30.6343 2.26898 31.0086 2.35002 31.0918 2.55261C31.9652 4.09228 31.5909 6.28022 31.5909 6.28022H36.4571H41.3233C41.3233 6.28022 40.9906 4.09228 41.8224 2.55261C41.9472 2.35002 42.2799 2.26898 42.2799 2.26898C41.9472 1.98536 41.9472 1.45863 41.9472 1.45863ZM33.1298 5.63194C33.1298 5.63194 32.8802 5.3078 32.8802 4.94315C32.8802 4.57849 33.1298 4.25435 33.1298 4.25435C33.1298 4.25435 33.3793 4.57849 33.3793 4.94315C33.3793 5.3078 33.1298 5.63194 33.1298 5.63194ZM34.6687 5.63194C34.6687 5.63194 34.3775 5.26729 34.3775 4.78107C34.3775 4.33538 34.6687 3.93021 34.6687 3.93021C34.6687 3.93021 34.9598 4.29486 34.9598 4.78107C34.9598 5.26729 34.6687 5.63194 34.6687 5.63194ZM36.4987 5.63194C36.4987 5.63194 36.0828 5.10522 36.0828 4.41642C36.0828 3.76814 36.4987 3.20089 36.4987 3.20089C36.4987 3.20089 36.9146 3.72762 36.9146 4.41642C36.9146 5.10522 36.4987 5.63194 36.4987 5.63194ZM38.2871 5.63194C38.2871 5.63194 37.996 5.26729 37.996 4.78107C37.996 4.33538 38.2871 3.93021 38.2871 3.93021C38.2871 3.93021 38.5783 4.29486 38.5783 4.78107C38.5783 5.26729 38.2871 5.63194 38.2871 5.63194ZM39.826 5.63194C39.826 5.63194 39.5765 5.3078 39.5765 4.94315C39.5765 4.57849 39.826 4.25435 39.826 4.25435C39.826 4.25435 40.0756 4.57849 40.0756 4.94315C40.0756 5.3078 39.826 5.63194 39.826 5.63194Z" fill="#333436"/>
<path d="M41.3236 6.44238H31.6328V6.88808H41.3236V6.44238Z" fill="#333436"/>
<path d="M36.0822 9.56201V23.5406L25.5596 31.9277" fill="#333436"/>
<path d="M36.0822 9.56201V23.5406L25.5596 31.9277" stroke="#FAFAFA" stroke-miterlimit="10"/>
<path d="M36.0825 23.5405L46.73 32.0087" stroke="#FAFAFA" stroke-miterlimit="10"/>
<path d="M29.5935 19.6099C29.5935 19.5694 29.5935 19.5289 29.5935 19.4884C29.5935 19.1642 29.5935 18.8401 29.5935 18.5159C29.5935 18.4349 29.5519 18.3944 29.5103 18.3134C29.3439 18.0703 29.1359 17.8271 29.0112 17.5435C28.6784 16.9358 28.8032 16.3685 29.1359 15.8013C29.2191 15.6797 29.3023 15.5582 29.4271 15.3961C29.4687 15.3556 29.5519 14.9504 29.5519 14.6668C29.5519 14.6263 29.5935 13.8159 29.5935 13.7754C29.5935 13.8159 29.635 13.8159 29.635 13.8564V14.6668C29.635 15.0314 29.6766 15.2745 29.9262 15.5176C30.2173 15.8418 30.3837 16.2064 30.4253 16.6521C30.4669 17.0573 30.3421 17.4625 30.0925 17.7866C29.9678 17.9487 29.843 18.1108 29.7182 18.2728C29.6766 18.3134 29.635 18.3944 29.635 18.4754C29.635 18.7996 29.635 19.1237 29.635 19.4479C29.635 19.4884 29.635 19.5289 29.635 19.5694C29.5935 19.6099 29.5935 19.6099 29.5935 19.6099Z" fill="#FAFAFA"/>
<path d="M27.5134 15.6807C27.5134 15.7212 27.5134 15.7617 27.5134 15.8022C27.5134 16.2884 27.5134 16.8151 27.5134 17.3014C27.5134 17.3824 27.555 17.4229 27.6381 17.4229C27.9709 17.4634 28.262 17.5039 28.5531 17.666C29.0522 17.9091 29.3018 18.3548 29.4266 18.8815C29.4682 19.0841 29.4682 19.3272 29.5098 19.5298C29.385 19.5298 29.2602 19.4893 29.177 19.4893C28.8443 19.4488 28.5531 19.3678 28.3036 19.2057C27.8045 18.9221 27.5549 18.4358 27.4718 17.9091C27.4302 17.7065 27.4302 17.5039 27.4302 17.3014C27.4302 16.7746 27.4302 16.2884 27.4302 15.7617C27.4302 15.7212 27.4302 15.6807 27.4302 15.6401C27.4718 15.6807 27.4718 15.6807 27.5134 15.6807Z" fill="#FAFAFA"/>
<path d="M31.715 15.6797C31.715 15.7202 31.715 15.7607 31.715 15.8012C31.715 16.4495 31.715 17.0573 31.715 17.7056C31.715 18.2323 31.5486 18.7185 31.1327 19.0832C30.8 19.3668 30.4256 19.4883 30.0097 19.5289C29.8849 19.5289 29.7602 19.5694 29.6354 19.5694C29.5938 19.3263 29.6354 19.0832 29.677 18.8401C29.8433 18.0702 30.3424 17.6245 31.1327 17.503C31.2575 17.4625 31.3406 17.4625 31.4654 17.4625C31.5486 17.4625 31.5902 17.4219 31.5902 17.3409C31.5902 16.8547 31.5902 16.328 31.5902 15.8418C31.5902 15.8012 31.5902 15.7607 31.5902 15.7202C31.715 15.6797 31.715 15.6797 31.715 15.6797Z" fill="#FAFAFA"/>
<path d="M29.5098 23.1758C28.7611 23.1352 28.0956 22.9732 27.7213 22.2844C27.5134 21.9197 27.4302 21.5145 27.4302 21.1094C27.4302 21.0688 27.4718 21.0283 27.5134 21.0283C28.0956 21.0688 28.6779 21.1904 29.0938 21.6766C29.4266 22.1223 29.5098 22.6085 29.5098 23.1758Z" fill="#FAFAFA"/>
<path d="M29.6758 21.352C29.6758 20.8253 29.759 20.3391 30.0917 19.8934C30.3828 19.5287 30.8403 19.3667 31.2979 19.2856C31.4226 19.2451 31.5474 19.2451 31.6722 19.2451C31.7138 19.2451 31.7554 19.2856 31.7554 19.3262C31.7554 19.8934 31.6306 20.4606 31.1731 20.8658C30.8403 21.19 30.3828 21.271 29.9253 21.3115C29.8421 21.352 29.759 21.352 29.6758 21.352Z" fill="#FAFAFA"/>
<path d="M29.5098 24.9585C28.2204 24.9585 27.5965 24.3102 27.4718 23.3378C27.4718 23.2162 27.4302 23.0542 27.4302 22.9326C27.4302 22.8921 27.4302 22.8516 27.5134 22.8516C28.1372 22.8921 28.6779 23.0136 29.0938 23.5404C29.4266 23.9455 29.5098 24.4317 29.5098 24.9585Z" fill="#FAFAFA"/>
<path d="M29.5098 21.3525C28.3452 21.3525 27.6381 20.8258 27.4718 19.7723C27.4718 19.6508 27.4302 19.4887 27.4302 19.3672C27.4302 19.3267 27.4718 19.2861 27.5134 19.2861C28.1372 19.3267 28.7195 19.4482 29.0938 19.9749C29.4266 20.3396 29.5098 20.8258 29.5098 21.3525Z" fill="#FAFAFA"/>
<path d="M29.717 24.9985C29.6754 24.0666 30.0497 23.2157 31.1311 22.9726C31.2974 22.9321 31.5054 22.9321 31.6718 22.8916C31.7133 22.8916 31.7549 22.8916 31.7549 22.9726C31.7549 23.5399 31.6302 24.1071 31.1727 24.5123C30.8399 24.7959 30.4656 24.9175 30.0081 24.9985C29.9249 24.958 29.8001 24.958 29.717 24.9985Z" fill="#FAFAFA"/>
<path d="M31.4642 22.3249C31.4642 22.3249 31.4642 22.4059 31.3394 22.5275C30.9235 23.0137 30.3412 23.1352 29.6758 23.1758C29.6758 23.0137 29.6758 22.8516 29.7174 22.6896C29.8006 22.0818 30.0501 21.5956 30.6324 21.312C30.9651 21.1499 31.2979 21.0688 31.6306 21.0688C31.7138 21.0688 31.7554 21.1094 31.7554 21.1904C31.7138 21.474 31.6722 21.7576 31.6306 22.0413C31.589 22.0818 31.5058 22.2033 31.4642 22.3249Z" fill="#FAFAFA"/>
<path d="M29.5932 26.7008C29.5516 26.5793 29.5516 19.1645 29.5932 19.0835C29.6764 19.1645 29.6764 26.5793 29.5932 26.7008Z" fill="#FAFAFA"/>
<path d="M29.6353 13.5322C29.6353 13.7348 29.6353 13.9779 29.6353 14.1805H29.5938C29.5938 13.9779 29.5938 13.7348 29.5938 13.5322C29.5938 13.5322 29.5938 13.5322 29.6353 13.5322Z" fill="#FAFAFA"/>
<path d="M47.4375 17.6656C47.3959 17.5846 47.3128 17.5441 47.2296 17.5035C47.1048 17.463 46.98 17.463 46.8137 17.5035C46.7721 17.5035 46.7305 17.5035 46.7305 17.5035C46.3146 17.6251 46.0234 17.7467 45.8987 17.8277C45.7323 17.9492 45.5243 18.0708 45.358 18.1923C45.2748 18.2329 45.2332 18.2734 45.15 18.3139C45.15 18.2329 45.15 18.1518 45.15 18.0708C45.15 18.0303 45.15 18.0303 45.1916 17.9898C45.2332 17.9492 45.2748 17.9492 45.3164 17.9087C45.6491 17.6656 45.9402 17.382 45.9818 16.9363C46.0234 16.5311 45.8571 16.1665 45.3996 16.0449C45.1916 16.0044 44.9836 16.0044 44.7341 16.0044C43.7359 16.0044 42.7377 16.0044 41.7811 16.0044C41.5315 16.0044 41.3236 16.0044 41.074 16.0044C40.8245 16.0044 40.6165 16.0044 40.367 16.0044C40.2422 16.0044 40.159 16.0044 40.0342 16.0449C39.7847 16.1259 39.5767 16.288 39.5351 16.5311C39.4936 16.7742 39.5351 17.0173 39.6599 17.2199C39.7847 17.5035 40.0342 17.7061 40.2422 17.9087C40.2838 17.9492 40.2838 17.9898 40.2838 18.0303C40.2838 18.5975 40.2838 19.1648 40.2838 19.732C40.2838 19.8536 40.2838 20.0156 40.2838 20.1372C40.2838 20.5424 40.3254 20.9881 40.3254 21.3932C40.3254 21.4338 40.2838 21.4743 40.2838 21.4743C39.9511 21.7174 39.6599 21.92 39.3272 22.1631C39.1192 22.3251 38.5369 22.7708 38.329 22.9329C38.2458 23.0139 38.2458 23.095 38.329 23.1355C38.3706 23.1355 38.8281 22.8924 38.8697 22.8519C39.1608 22.6898 39.4936 22.5277 39.7847 22.3657C39.9511 22.2846 40.1174 22.1631 40.3254 22.082C40.3254 22.2036 40.3254 22.2846 40.3254 22.4062C40.3254 22.4062 40.3254 22.4467 40.2838 22.4467C40.0342 22.6088 39.8679 22.8519 39.7015 23.0545C39.6183 23.2976 39.5351 23.5407 39.5351 23.7838C39.5351 24.0674 39.6599 24.3105 39.9511 24.4321C40.159 24.5131 40.3254 24.5131 40.5333 24.5131C41.1572 24.5131 41.7395 24.5131 42.3634 24.5131C43.32 24.5131 44.2766 24.5131 45.2332 24.5131C45.5243 24.5131 45.7739 24.351 45.8987 24.1079C46.0234 23.8243 45.9818 23.5407 45.8571 23.257C45.6907 22.9734 45.4411 22.7303 45.15 22.5682C45.1084 22.5277 45.0668 22.4872 45.0668 22.4062C45.0668 22.1631 45.0668 21.92 45.1084 21.6769C45.1084 21.0691 45.1084 20.4613 45.1084 19.8536C45.1084 19.813 45.1084 19.7725 45.1916 19.732C45.4827 19.5699 45.8155 19.4079 46.1066 19.2458L46.7721 18.8406C46.8553 18.7596 46.9384 18.7191 47.0216 18.638C47.2296 18.476 47.3959 18.3139 47.5207 18.0708C47.5207 17.9087 47.5207 17.7872 47.4375 17.6656ZM46.1066 18.2734C46.4809 17.9087 46.5641 18.1113 46.5641 18.1113C46.5641 18.2329 45.7739 18.638 46.1066 18.2734ZM40.367 17.6656C40.2838 17.5441 40.2006 17.463 40.1174 17.3415C41.9059 17.382 43.6527 17.382 45.3996 17.3415C45.1916 17.5846 45.0252 17.7872 44.7341 17.7872C44.3182 17.7872 43.9438 17.8277 43.5279 17.8277C42.8625 17.8277 42.197 17.8277 41.5731 17.8277C41.282 17.8277 41.0324 17.8277 40.7413 17.8277C40.6165 17.8277 40.4918 17.7872 40.367 17.6656ZM44.7341 20.907C44.7757 20.907 44.7757 20.9475 44.7757 20.9881C44.7757 21.1501 44.7757 21.2717 44.7757 21.4337L40.6165 18.9622C40.6165 18.8001 40.6165 18.638 40.6165 18.476C40.8245 18.638 41.074 18.8001 41.282 18.9622C41.9059 19.3268 42.5713 19.6915 43.1952 20.0967C43.7359 20.3398 44.235 20.6234 44.7341 20.907ZM44.1102 20.1777C44.3598 20.0562 44.5677 19.9346 44.7757 19.8536C44.7757 20.0967 44.7757 20.3398 44.7757 20.5424C44.5677 20.4613 44.3598 20.3398 44.1102 20.1777ZM44.7341 22.4467C44.3598 22.5277 44.027 22.4872 43.6943 22.2846C42.9041 21.7579 42.0722 21.2717 41.282 20.7855C41.1156 20.6639 40.9077 20.5829 40.6997 20.5018C40.6581 20.5018 40.6581 20.4613 40.6581 20.4208C40.6581 20.2182 40.6581 20.0156 40.6581 19.813L44.7757 22.2846C44.7757 22.3251 44.7757 22.3657 44.7341 22.4467ZM40.6581 21.3122C40.6581 21.1096 40.6581 20.9475 40.6581 20.7855C40.7829 20.8665 40.9493 20.9475 41.074 21.0286C40.9493 21.1096 40.8245 21.2312 40.6581 21.3122ZM41.4068 21.2717C41.282 21.3527 41.1156 21.4338 40.9908 21.4743C41.1988 21.3122 41.3236 21.2312 41.4068 21.2717ZM40.8245 21.9605C40.7829 21.9605 40.7829 21.9605 40.8245 21.9605C41.0324 21.7984 41.282 21.7174 41.4899 21.5553C41.6563 21.4337 41.7811 21.4337 41.9475 21.5553C42.3634 21.8389 42.8209 22.1225 43.2784 22.3657C43.2784 22.3657 43.2784 22.3657 43.32 22.4062C43.1536 22.4062 43.0288 22.4062 42.8625 22.4062C42.4466 22.4062 42.0306 22.4062 41.6147 22.4062C41.5731 22.4062 41.4899 22.4062 41.4484 22.3657C41.282 22.2036 41.0324 22.082 40.8245 21.9605ZM40.9493 22.4062C40.7413 22.4872 40.6581 22.4467 40.6997 22.2441C40.7829 22.2846 40.8661 22.3657 40.9493 22.4062ZM43.0288 19.5699C42.4466 19.2053 41.8643 18.8811 41.282 18.5165C41.074 18.3949 40.9077 18.2734 40.6997 18.1518C40.6581 18.1518 40.6581 18.1113 40.6165 18.1113C41.1156 18.1923 41.6147 18.1518 42.1138 18.1518C42.197 18.1518 42.2386 18.1923 42.3218 18.2329C42.8209 18.557 43.2784 18.8811 43.7775 19.2053C43.7775 19.2053 43.8191 19.2458 43.8607 19.2458C43.6943 19.3674 43.4863 19.4484 43.3616 19.5699C43.1952 19.6915 43.1536 19.651 43.0288 19.5699ZM42.8625 18.2329C42.8209 18.1923 42.7793 18.1923 42.7793 18.1518C43.4448 18.1518 44.1518 18.1518 44.8589 18.1113C44.8589 18.2329 44.8589 18.3949 44.8173 18.557C44.8173 18.5975 44.8173 18.5975 44.7757 18.5975C44.6093 18.7191 44.4014 18.8406 44.235 19.0027C44.1934 19.0432 44.1518 19.0432 44.1102 19.0027C43.6527 18.7596 43.2784 18.5165 42.8625 18.2329ZM45.1084 22.8519C45.3164 23.0139 45.4827 23.176 45.5243 23.3381C43.6943 23.3381 41.8643 23.2976 39.9927 23.2976C40.0758 23.176 40.159 23.0545 40.2838 22.9329C40.367 22.8519 40.4502 22.7708 40.4918 22.6898C40.5333 22.6493 40.5749 22.6493 40.6165 22.6493C40.7829 22.7303 40.9077 22.7303 41.0324 22.7303C41.4484 22.7303 41.8227 22.7708 42.2386 22.7708C42.5297 22.7708 42.8209 22.7708 43.112 22.7708C43.5695 22.7708 43.9854 22.8113 44.4014 22.8113C44.5261 22.8113 44.6509 22.8113 44.7341 22.7708C44.9005 22.7303 44.9836 22.7303 45.1084 22.8519ZM47.1464 17.9492C47.0632 18.0708 46.98 18.1923 46.8553 18.2734C46.6057 18.476 46.3146 18.6786 46.065 18.8406C45.4411 19.1648 44.8173 19.4889 44.235 19.813C44.1102 19.8536 44.027 19.9346 43.9023 19.9751C43.8607 19.9751 43.8191 20.0156 43.8191 19.9751C43.7359 19.9346 43.6111 19.8536 43.5279 19.813C44.3598 19.2458 45.15 18.7191 45.9818 18.1518C45.9818 18.1518 45.8571 18.3139 45.8155 18.4354C45.7739 18.5165 45.7323 18.638 45.8155 18.6786C45.8571 18.7596 46.065 18.7191 46.1482 18.6786C46.3146 18.5975 46.3562 18.557 46.5641 18.4354C46.6473 18.3949 46.7721 18.2734 46.8137 18.2329C46.98 18.0708 46.9384 17.8682 46.7305 17.8277C46.8553 17.8277 46.98 17.7872 47.1048 17.7872C47.188 17.7872 47.2296 17.8682 47.1464 17.9492Z" fill="#FAFAFA"/>
<path d="M34.0431 35.008C33.3776 35.008 32.8785 34.9674 32.421 34.7648C32.2546 34.6838 32.0882 34.6028 31.9635 34.5217C31.6723 34.3192 31.6723 34.0355 31.9635 33.8329C32.213 33.6709 32.4626 33.5493 32.7537 33.5088C33.6271 33.3062 34.5006 33.3062 35.374 33.5898C35.5403 33.6304 35.7067 33.7519 35.8731 33.8329C36.1642 34.0355 36.1226 34.2786 35.8731 34.4812C35.5819 34.6838 35.2492 34.8054 34.9165 34.8864C34.5422 34.9674 34.2094 34.9674 34.0431 35.008Z" fill="#FAFAFA"/>
<path d="M36.1637 29.3758C35.5815 29.3758 35.0408 29.2947 34.5001 29.0516C34.3753 28.9706 34.2505 28.8895 34.1258 28.768C33.9594 28.6059 33.9594 28.4438 34.1258 28.2818C34.2505 28.1602 34.4169 28.0387 34.5833 27.9576C35.2071 27.7145 35.831 27.6335 36.4965 27.674C36.9956 27.7145 37.4531 27.7956 37.869 27.9982C37.9938 28.0792 38.1185 28.1602 38.2017 28.2413C38.3681 28.4033 38.3681 28.5654 38.2017 28.7275C38.077 28.849 37.9522 28.9301 37.7858 29.0111C37.3283 29.3352 36.746 29.3758 36.1637 29.3758Z" fill="#FAFAFA"/>
<path d="M38.7853 33.2651C38.203 33.2651 37.6623 33.1841 37.1632 32.9815C36.9969 32.9004 36.8721 32.8194 36.7473 32.6979C36.581 32.5358 36.581 32.4142 36.7473 32.2522C36.9553 32.0496 37.2048 31.928 37.496 31.847C38.411 31.6039 39.3676 31.6039 40.2826 31.8875C40.4906 31.9685 40.7401 32.0496 40.9065 32.2522C41.0729 32.4548 41.0729 32.6168 40.8649 32.7789C40.6153 32.9815 40.3242 33.103 39.9915 33.1841C39.534 33.1841 39.1596 33.2246 38.7853 33.2651Z" fill="#FAFAFA"/>
<path d="M36.0395 34.7236C36.1227 35.1288 36.0395 35.2909 35.7068 35.4935C35.3741 35.6961 34.9997 35.7771 34.6254 35.8176C34.0431 35.8986 33.4608 35.8986 32.8786 35.7771C32.5874 35.7366 32.2963 35.615 32.0467 35.4935C31.6724 35.2909 31.6724 35.1288 31.714 34.7641C32.3795 35.2098 33.0865 35.2909 33.8768 35.2909C34.6254 35.2909 35.3741 35.1693 36.0395 34.7236Z" fill="#FAFAFA"/>
<path d="M40.9071 34.7236C40.9487 35.1288 40.9487 35.2504 40.616 35.453C40.2833 35.6555 39.9089 35.7366 39.5346 35.8176C38.8276 35.9392 38.1205 35.8986 37.4134 35.6961C37.2471 35.6555 37.0807 35.5745 36.9143 35.453C36.7064 35.3314 36.5816 35.1693 36.6232 34.9262C36.6232 34.8857 36.6232 34.8047 36.6232 34.7236C37.2887 35.1693 38.0373 35.2909 38.786 35.2909C39.5346 35.2909 40.2833 35.1693 40.9071 34.7236Z" fill="#FAFAFA"/>
<path d="M36.6226 33.873C37.288 34.3187 37.9951 34.3998 38.7853 34.3998C39.534 34.3998 40.2826 34.2782 40.9065 33.873C40.9897 34.1567 40.9065 34.3593 40.6985 34.5618C40.3658 34.8049 39.9915 34.886 39.6172 34.967C39.0349 35.0481 38.4942 35.0481 37.9119 34.967C37.6208 34.9265 37.288 34.805 37.0385 34.6834C36.581 34.3998 36.6226 34.2782 36.6226 33.873Z" fill="#FAFAFA"/>
<path d="M36.6232 32.9819C37.5798 33.7112 39.9089 33.7518 40.9071 32.9819C40.9903 33.225 40.9487 33.4681 40.7408 33.6302C40.4496 33.8328 40.1169 33.9544 39.7842 34.0354C38.9939 34.1975 38.2037 34.1975 37.455 33.9544C37.2471 33.9138 37.0807 33.7923 36.9143 33.7112C36.7064 33.5897 36.5816 33.4276 36.6232 33.1845C36.6232 33.1035 36.6232 33.063 36.6232 32.9819Z" fill="#FAFAFA"/>
<path d="M36.039 35.6152C36.039 35.7368 36.039 35.8583 36.039 35.9799C36.039 36.142 35.9143 36.223 35.7895 36.304C35.4984 36.5066 35.1656 36.6282 34.7913 36.6687C34.0011 36.8308 33.2108 36.7902 32.4206 36.5471C32.2542 36.5066 32.0878 36.4256 31.9631 36.304C31.7551 36.1825 31.6719 35.9799 31.7135 35.6152C32.379 36.0609 33.086 36.142 33.8763 36.142C34.6249 36.142 35.3736 36.0609 36.039 35.6152Z" fill="#FAFAFA"/>
<path d="M34.0442 29.1328C34.7097 29.5785 35.4583 29.7001 36.207 29.7001C36.9556 29.7001 37.7043 29.5785 38.3281 29.1733C38.3697 29.5785 38.3697 29.7001 37.9538 29.9432C37.5795 30.1458 37.2052 30.2268 36.7892 30.2673C36.0822 30.3483 35.3751 30.3078 34.7097 30.0647C34.5433 30.0242 34.4185 29.9432 34.2937 29.8621C34.1274 29.7406 34.0026 29.619 34.0442 29.3759C34.0442 29.2544 34.0442 29.2138 34.0442 29.1328Z" fill="#FAFAFA"/>
<path d="M36.6232 35.6152C37.2887 36.0609 38.0373 36.1825 38.786 36.1825C39.5346 36.1825 40.2833 36.0609 40.9071 35.6558C40.9903 35.9394 40.8655 36.223 40.616 36.3445C39.8258 36.7902 38.9939 36.8308 38.1205 36.7497C37.7462 36.7092 37.4134 36.6282 37.0807 36.4661C37.0391 36.4256 36.9975 36.4256 36.9143 36.3851C36.7064 36.2635 36.5816 36.1014 36.6232 35.8178C36.6232 35.7368 36.6232 35.6963 36.6232 35.6152Z" fill="#FAFAFA"/>
<path d="M34.043 29.9834C34.7084 30.4291 35.4571 30.5506 36.2057 30.5506C36.9544 30.5506 37.703 30.4291 38.3269 30.0239C38.4101 30.3075 38.3269 30.5101 38.1189 30.7127C37.8278 30.9153 37.4535 31.0369 37.1207 31.0774C36.4137 31.1989 35.7066 31.1989 34.9996 30.9963C34.7084 30.9153 34.4173 30.8343 34.2093 30.5912C34.0846 30.5101 34.043 30.3886 34.043 30.2265C34.043 30.186 34.043 30.105 34.043 29.9834Z" fill="#FAFAFA"/>
<path d="M34.043 30.875C34.7084 31.3207 35.4571 31.4422 36.2057 31.4422C36.9544 31.4422 37.703 31.3207 38.3685 30.875C38.3685 31.0371 38.3685 31.1586 38.3685 31.3207C38.3685 31.3207 38.3269 31.3612 38.2853 31.3612C37.8278 31.4017 37.3703 31.4828 36.9544 31.7259C36.8296 31.7664 36.7464 31.8474 36.6632 31.9285C36.5801 32.0095 36.4969 32.0095 36.3721 32.0095C35.8314 32.0095 35.2491 31.969 34.75 31.7664C34.5837 31.7259 34.4589 31.6448 34.3341 31.5638C34.1677 31.4422 34.0846 31.3207 34.0846 31.1181C34.043 31.0371 34.043 30.956 34.043 30.875Z" fill="#FAFAFA"/>
<path d="M34.0436 31.7666C34.7506 32.2528 35.5409 32.2933 36.3311 32.3338C36.3311 32.5364 36.3311 32.6985 36.3311 32.9011C36.1647 32.9011 35.9984 32.9011 35.8736 32.9011C35.4161 32.8606 34.9586 32.7795 34.5427 32.577C34.5011 32.577 34.4595 32.5364 34.4179 32.5364C34.0852 32.3338 34.002 32.1718 34.0436 31.7666Z" fill="#FAFAFA"/>
<path d="M36.3305 33.1844C36.3305 33.4681 36.3305 33.7517 36.3305 34.0353C36.0394 33.4681 35.4571 33.306 34.8748 33.1844C34.6253 33.1439 34.3341 33.1034 34.043 33.0629C34.043 32.9413 34.043 32.7793 34.043 32.6172C34.7084 33.1034 35.4987 33.1844 36.3305 33.1844Z" fill="#FAFAFA"/>
<g clip-path="url(#clip0)">
<path d="M3.01212 55.6426L6.02424 51V57.2557H5.20275V53.7541L3.01212 57.1377L0.821487 53.7541V57.2951H0V51L3.01212 55.6426Z" fill="#333436"/>
<path d="M12.3616 57.2557H11.4619L10.9925 56.2328H9.66244H8.37153L7.90211 57.2557H7.0415L9.70156 51L12.3616 57.2557ZM9.70156 55.5639H10.7186C10.5622 55.1705 10.3666 54.7377 10.2101 54.3049C10.0536 53.8721 9.85803 53.4393 9.70156 53.0459C9.54508 53.4393 9.34949 53.8721 9.19302 54.3049C9.03654 54.7377 8.84095 55.1705 8.68448 55.5639H9.70156Z" fill="#333436"/>
<path d="M12.6351 51.0786L13.7695 53.2819L14.0042 53.7147L14.2389 53.2819L15.3734 51.0786H16.3122L14.4736 54.5409L14.4345 54.6589V57.295H13.613V54.6589L13.5739 54.5409L11.7354 51.0786H12.6351Z" fill="#333436"/>
<path d="M21.0067 57.2557H20.107L19.6375 56.2328H18.3075H17.0166L16.5472 57.2557H15.6475L18.3466 51L21.0067 57.2557ZM18.3466 55.5639H19.3637C19.2072 55.1705 19.0116 54.7377 18.8552 54.3049C18.6987 53.8721 18.5031 53.4393 18.3466 53.0459C18.1902 53.4393 17.9946 53.8721 17.8381 54.3049C17.6816 54.7377 17.486 55.1705 17.3296 55.5639H18.3466Z" fill="#333436"/>
<path d="M28.4391 51.0391V51.8653H26.0138H25.7399V52.1407V53.4784V53.7538H26.0138H27.7741V54.58H26.0138H25.7399V54.8555V56.1932V56.4686H26.0138H28.4391V57.2948H26.0138H24.9185V51.0391H28.4391Z" fill="#333436"/>
<path d="M31.1382 51.0786C31.5294 51.118 31.8815 51.1966 32.1944 51.3147C32.5856 51.4721 32.8985 51.7081 33.2115 51.9835C33.5244 52.2589 33.72 52.5737 33.8374 52.9671C33.9547 53.3606 34.033 53.754 34.033 54.1475C34.033 54.5409 33.9547 54.9737 33.8374 55.3278C33.72 55.7212 33.4853 56.036 33.2115 56.3114C32.8985 56.5868 32.5856 56.8229 32.1944 56.9803C31.8032 57.1376 31.412 57.2163 30.9426 57.2163H29.417V51.0786H30.9426H31.1382ZM30.9817 56.4294C31.2947 56.4294 31.6076 56.3901 31.8815 56.2721C32.1553 56.154 32.39 55.9966 32.6247 55.7999C32.8203 55.6032 32.9768 55.3278 33.0941 55.0524C33.2115 54.777 33.2506 54.4622 33.2506 54.1475C33.2506 53.8327 33.2115 53.518 33.0941 53.2425C32.9768 52.9671 32.8203 52.7311 32.6247 52.495C32.4291 52.2983 32.1553 52.1409 31.8815 52.0229C31.6076 51.9048 31.2947 51.8655 30.9817 51.8655H30.5514H30.2776V52.1409V56.1934V56.4688H30.5514H30.9817V56.4294Z" fill="#333436"/>
<path d="M39.94 51.0786V53.518V54.895C39.94 55.2491 39.9009 55.5639 39.7836 55.8393C39.6662 56.1147 39.4706 56.3901 39.2359 56.6262C39.0012 56.8622 38.7274 57.0589 38.4535 57.177C38.1797 57.295 37.8668 57.3737 37.5147 57.3737C37.1626 57.3737 36.8497 57.3344 36.5759 57.2163C36.2629 57.0983 36.0282 56.9016 35.7935 56.6655C35.5588 56.4294 35.3632 56.154 35.2458 55.8786C35.1285 55.6032 35.0894 55.2884 35.0894 54.9344V53.518V51.0786H35.9108V53.518V54.7376V54.895C35.9108 55.1311 35.95 55.3278 36.0282 55.5245C36.1064 55.7212 36.2238 55.8786 36.3803 56.036C36.5367 56.1934 36.6932 56.3114 36.8888 56.3901C37.0844 56.4688 37.28 56.5081 37.5147 56.5081C37.7103 56.5081 37.945 56.4688 38.1406 56.3901C38.3362 56.3114 38.4927 56.1934 38.6491 56.036C38.8056 55.8786 38.923 55.7212 39.0012 55.5245C39.0794 55.3278 39.1186 55.1311 39.1186 54.895V54.7376V53.518V51.0786H39.94Z" fill="#333436"/>
<path d="M44.0865 51.0391C44.2821 51.0391 44.5168 51.0391 44.7124 51.0784C44.908 51.1178 45.1036 51.1964 45.2992 51.2751C45.4948 51.3538 45.6904 51.4718 45.8468 51.5899C45.9642 51.6686 46.0424 51.7079 46.1207 51.7866L45.5339 52.3768C45.3774 52.2194 45.1818 52.1407 44.9862 52.0227C44.7124 51.9046 44.4386 51.8653 44.1256 51.8653C43.8127 51.8653 43.5389 51.9046 43.265 52.0227C42.9912 52.1407 42.7565 52.2981 42.5218 52.5341C42.2871 52.7702 42.1306 53.0063 42.0132 53.2817C41.8959 53.5571 41.8568 53.8325 41.8568 54.1473C41.8568 54.462 41.8959 54.7768 42.0132 55.0522C42.1306 55.3276 42.2871 55.5637 42.5218 55.7997C42.7174 56.0358 42.9912 56.1932 43.265 56.3112C43.5389 56.4292 43.8518 56.4686 44.1256 56.4686C44.3995 56.4686 44.7124 56.4292 45.0254 56.3112C45.2209 56.2325 45.4165 56.1145 45.573 55.9964L46.1598 56.5866C46.0816 56.6653 46.0033 56.744 45.886 56.7833C45.7295 56.9014 45.5339 57.0194 45.3383 57.0981C45.1427 57.1768 44.9471 57.2555 44.7515 57.2948C44.5559 57.3341 44.3603 57.3735 44.1256 57.3735C43.6953 57.3735 43.3041 57.2948 42.913 57.1374C42.5218 56.98 42.2088 56.744 41.8959 56.4292C41.5829 56.1145 41.3482 55.7604 41.1917 55.4063C41.0353 55.0522 40.957 54.6587 40.957 54.1866C40.957 53.7538 41.0353 53.3604 41.1917 52.9669C41.3482 52.6128 41.5829 52.2587 41.8959 51.944C42.2088 51.6292 42.5609 51.3932 42.913 51.2358C43.1868 51.1178 43.4606 51.0391 43.7736 51.0391H44.0865Z" fill="#333436"/>
<path d="M52.1839 57.2557H51.2842L50.8148 56.2328H49.4848H48.1939L47.7244 57.2557H46.8247L49.5239 51L52.1839 57.2557ZM49.5239 55.5639H50.541C50.3845 55.1705 50.1889 54.7377 50.0324 54.3049C49.8759 53.8721 49.6804 53.4393 49.5239 53.0459C49.3674 53.4393 49.1718 53.8721 49.0153 54.3049C48.8589 54.7377 48.6633 55.1705 48.5068 55.5639H49.5239Z" fill="#333436"/>
<path d="M54.6485 51.0786H56.0176V51.9048H54.6485H54.3746V52.1803V57.295H53.5531V52.1803V51.9048H53.2793H51.9102V51.0786H53.2793H54.6485Z" fill="#333436"/>
<path d="M57.0347 51.0786H57.8561V57.295H57.0347V51.0786Z" fill="#333436"/>
<path d="M63.1762 51.2361C63.5283 51.3934 63.8803 51.6295 64.1933 51.9443C64.5062 52.259 64.7409 52.6131 64.8974 52.9672C65.0539 53.3607 65.1321 53.7541 65.1321 54.1869C65.1321 54.6197 65.0539 55.0131 64.8974 55.4066C64.7409 55.7607 64.5062 56.1148 64.1933 56.4295C63.8803 56.7443 63.5674 56.9803 63.1762 57.1377C62.785 57.2951 62.3938 57.3738 61.9635 57.3738C61.5332 57.3738 61.142 57.2951 60.7508 57.1377C60.3597 56.9803 60.0467 56.7443 59.7338 56.4295C59.4208 56.1148 59.1861 55.7607 59.0296 55.4066C58.8732 55.0525 58.7949 54.659 58.7949 54.1869C58.7949 53.7541 58.8732 53.3607 59.0296 52.9672C59.1861 52.6131 59.4208 52.259 59.7338 51.9443C60.0467 51.6295 60.3988 51.3934 60.7508 51.2361C61.1029 51.0787 61.4941 51 61.9635 51C62.4329 51 62.8241 51.0787 63.1762 51.2361ZM61.1029 52.023C60.8291 52.141 60.5944 52.2984 60.3597 52.5344C60.1249 52.7705 59.9685 53.0066 59.8511 53.282C59.7338 53.5574 59.6946 53.8328 59.6946 54.1475C59.6946 54.4623 59.7338 54.777 59.8511 55.0131C59.9685 55.2885 60.1249 55.5246 60.3597 55.7607C60.5553 55.9967 60.8291 56.1541 61.1029 56.2721C61.3767 56.3902 61.6897 56.4295 62.0026 56.4295C62.3156 56.4295 62.5894 56.3902 62.8632 56.2721C63.1371 56.1541 63.3718 55.9967 63.6065 55.7607C63.8412 55.5246 63.9977 55.2885 64.115 55.0131C64.2324 54.7377 64.2715 54.4623 64.2715 54.1475C64.2715 53.8328 64.2324 53.5574 64.115 53.282C63.9977 53.0066 63.8412 52.7705 63.6065 52.5344C63.3718 52.2984 63.1371 52.141 62.8632 52.023C62.5894 51.9049 62.3156 51.8656 62.0026 51.8656C61.6897 51.8656 61.3767 51.9049 61.1029 52.023Z" fill="#333436"/>
<path d="M70.1786 55.2492V54.541V51.0393H71.0001V57.3738L66.9709 53.0459V53.518V57.2951H66.1494V51L70.1786 55.2492Z" fill="#333436"/>
<path d="M14.3564 59.6558H16.3124V59.8918H14.5912V61.1902H16.0385V61.4263H14.6303V62.6853H16.4297V62.9213H14.3564V59.6558Z" fill="#333436"/>
<path d="M18.9724 59.5376V62.9605H18.7377V62.5278C18.5812 62.8032 18.2682 62.9999 17.8771 62.9999C17.2903 62.9999 16.7817 62.5671 16.7817 61.8589C16.7817 61.1901 17.2512 60.6786 17.8771 60.6786C18.2291 60.6786 18.5421 60.836 18.7377 61.1507V59.5376H18.9724ZM18.7377 61.8589C18.7377 61.3474 18.3856 60.9146 17.8771 60.9146C17.4076 60.9146 17.0164 61.2687 17.0164 61.8589C17.0164 62.3704 17.3685 62.7638 17.8771 62.7638C18.3465 62.7638 18.7377 62.4097 18.7377 61.8589Z" fill="#333436"/>
<path d="M21.5539 60.7178V62.9997H21.3192V62.567C21.1236 62.8424 20.8498 62.9997 20.5368 62.9997C20.0283 62.9997 19.7153 62.685 19.7153 62.0555V60.7178H19.95V62.0161C19.95 62.6063 20.1848 62.803 20.5759 62.803C20.9671 62.803 21.3192 62.4489 21.3192 61.8588V60.7571H21.5539V60.7178Z" fill="#333436"/>
<path d="M22.1411 61.8588C22.1411 61.1899 22.6105 60.7178 23.2364 60.7178C23.5494 60.7178 23.9014 60.8358 24.097 61.1112L23.9406 61.2292C23.7841 61.0325 23.5494 60.9145 23.2364 60.9145C22.7279 60.9145 22.3758 61.3079 22.3758 61.8194C22.3758 62.3702 22.7279 62.7243 23.2364 62.7243C23.5103 62.7243 23.7841 62.6063 23.9406 62.4096L24.097 62.567C23.9014 62.7637 23.5885 62.9211 23.1973 62.9211C22.5714 62.9997 22.1411 62.5276 22.1411 61.8588Z" fill="#333436"/>
<path d="M26.718 60.7178V62.9997H26.4833V62.567C26.2877 62.8424 26.0138 63.0391 25.6227 63.0391C25.0359 63.0391 24.5273 62.6063 24.5273 61.8981C24.5273 61.2292 24.9968 60.7178 25.6227 60.7178C25.9747 60.7178 26.2877 60.8752 26.4833 61.1899V60.7571H26.718V60.7178ZM26.4833 61.8588C26.4833 61.3473 26.1312 60.9145 25.6227 60.9145C25.1532 60.9145 24.7621 61.2686 24.7621 61.8588C24.7621 62.3702 25.1141 62.7637 25.6227 62.7637C26.0921 62.7637 26.4833 62.4096 26.4833 61.8588Z" fill="#333436"/>
<path d="M27.5004 62.3312V60.9148H27.1875V60.6788H27.5004V59.8919L27.7352 59.8525V60.6788H28.5566V60.9148H27.7352V62.2525C27.7352 62.5673 27.8134 62.7247 28.0481 62.7247C28.2046 62.7247 28.3611 62.646 28.4784 62.6066L28.5566 62.8427C28.4393 62.9214 28.2828 63.0001 28.0481 63.0001C27.6569 63.0001 27.5004 62.764 27.5004 62.3312Z" fill="#333436"/>
<path d="M29.0649 60.0097C29.0649 59.8917 29.1432 59.813 29.2605 59.813C29.3779 59.813 29.4561 59.8917 29.4561 60.0097C29.4561 60.1277 29.3779 60.2064 29.2605 60.2064C29.1432 60.2458 29.0649 60.1277 29.0649 60.0097ZM29.1432 60.7179H29.3779V62.9999H29.1432V60.7179Z" fill="#333436"/>
<path d="M30.0039 61.8588C30.0039 61.2292 30.4733 60.7178 31.1383 60.7178C31.8034 60.7178 32.2728 61.1899 32.2728 61.8588C32.2728 62.5276 31.7642 62.9997 31.1383 62.9997C30.4733 62.9997 30.0039 62.4883 30.0039 61.8588ZM31.1383 62.7637C31.6469 62.7637 32.0381 62.4096 32.0381 61.8588C32.0381 61.3079 31.6469 60.9145 31.1383 60.9145C30.5907 60.9145 30.2386 61.3473 30.2386 61.8588C30.2777 62.3309 30.6298 62.7637 31.1383 62.7637Z" fill="#333436"/>
<path d="M34.7761 61.623V62.9607H34.5414V61.6623C34.5414 61.0722 34.2676 60.9148 33.9546 60.9148C33.4461 60.9148 33.1331 61.2689 33.1331 61.859V63H32.8984V60.7181H33.1331V61.1508C33.3287 60.8361 33.6417 60.6787 33.9938 60.6787C34.4632 60.6787 34.7761 60.9541 34.7761 61.623Z" fill="#333436"/>
<path d="M36.8497 59.6558H38.8838V59.8918H37.0844V61.2295H38.61V61.4656H37.0844V62.9607H36.8105V59.6558H36.8497Z" fill="#333436"/>
<path d="M39.1187 61.8588C39.1187 61.2292 39.5881 60.7178 40.2531 60.7178C40.9181 60.7178 41.3875 61.1899 41.3875 61.8588C41.3875 62.5276 40.879 62.9997 40.2531 62.9997C39.5881 62.9997 39.1187 62.4883 39.1187 61.8588ZM40.2922 62.7637C40.8007 62.7637 41.1919 62.4096 41.1919 61.8588C41.1919 61.3079 40.8007 60.9145 40.2922 60.9145C39.7445 60.9145 39.3925 61.3473 39.3925 61.8588C39.3925 62.3309 39.7445 62.7637 40.2922 62.7637Z" fill="#333436"/>
<path d="M43.1476 60.6785V60.9539C43.1085 60.9539 43.0303 60.9539 42.9911 60.9539C42.5217 60.9539 42.2479 61.3474 42.2479 61.8588V62.9605H42.0132V60.6785H42.2479V61.1113C42.4044 60.8359 42.6782 60.6392 43.0303 60.6392C43.0694 60.6785 43.1085 60.6785 43.1476 60.6785Z" fill="#333436"/>
<path d="M44.9863 59.6558H46.1208C46.864 59.6558 47.177 60.0885 47.177 60.6394C47.177 61.3476 46.7075 61.623 46.0425 61.623H45.2602V62.9607H44.9863V59.6558ZM46.0034 61.3869C46.6293 61.3869 46.864 61.0722 46.864 60.6394C46.864 60.1672 46.5511 59.8918 46.0816 59.8918H45.221V61.3476H46.0034V61.3869Z" fill="#333436"/>
<path d="M49.6021 61.8981H47.8026C47.8418 62.4096 48.1547 62.7637 48.6632 62.7637C48.9762 62.7637 49.2109 62.6063 49.3674 62.4096L49.5239 62.567C49.3283 62.803 49.0544 62.9997 48.6241 62.9997C47.9982 62.9997 47.5288 62.5276 47.5288 61.8588C47.5288 61.1899 47.9982 60.7178 48.585 60.7178C49.2109 60.7178 49.6021 61.1899 49.6021 61.8194V61.8981ZM47.8026 61.662H49.3674C49.3283 61.2292 49.0544 60.9145 48.6241 60.9145C48.1938 60.9145 47.8809 61.2292 47.8026 61.662Z" fill="#333436"/>
<path d="M52.2624 60.7178V62.9997H52.0277V62.567C51.8321 62.8424 51.5583 63.0391 51.1671 63.0391C50.5803 63.0391 50.0718 62.6063 50.0718 61.8981C50.0718 61.2292 50.5412 60.7178 51.1671 60.7178C51.5192 60.7178 51.8321 60.8752 52.0277 61.1899V60.7571H52.2624V60.7178ZM52.0277 61.8588C52.0277 61.3473 51.6756 60.9145 51.1671 60.9145C50.6977 60.9145 50.3065 61.2686 50.3065 61.8588C50.3065 62.3702 50.6586 62.7637 51.1671 62.7637C51.6365 62.7637 52.0277 62.4096 52.0277 61.8588Z" fill="#333436"/>
<path d="M52.8101 61.8588C52.8101 61.1899 53.2795 60.7178 53.9054 60.7178C54.2183 60.7178 54.5704 60.8358 54.766 61.1112L54.6095 61.2686C54.453 61.0719 54.2183 60.9538 53.9054 60.9538C53.3968 60.9538 53.0448 61.3473 53.0448 61.8588C53.0448 62.4096 53.3968 62.7637 53.9054 62.7637C54.1792 62.7637 54.453 62.6456 54.6095 62.4489L54.766 62.6063C54.5704 62.803 54.2574 62.9604 53.8663 62.9604C53.2795 62.9997 52.8101 62.5276 52.8101 61.8588Z" fill="#333436"/>
<path d="M57.2696 61.8981H55.4701C55.5092 62.4096 55.8222 62.7637 56.3307 62.7637C56.6437 62.7637 56.8784 62.6063 57.0349 62.4096L57.1913 62.567C56.9957 62.803 56.7219 62.9997 56.2916 62.9997C55.6657 62.9997 55.1963 62.5276 55.1963 61.8588C55.1963 61.1899 55.6657 60.7178 56.2525 60.7178C56.8784 60.7178 57.2696 61.1899 57.2696 61.8194C57.3087 61.8194 57.2696 61.8981 57.2696 61.8981ZM55.4701 61.662H57.0349C56.9957 61.2292 56.7219 60.9145 56.2916 60.9145C55.9004 60.9145 55.5484 61.2292 55.4701 61.662Z" fill="#333436"/>
</g>
<defs>
<clipPath id="clip0">
<rect width="71" height="12" fill="white" transform="translate(0 51)"/>
</clipPath>
</defs>
</svg>
