<svg width="29" height="27" viewBox="0 0 29 27" fill="none" xmlns="http://www.w3.org/2000/svg">
<rect x="0.506836" width="28.4936" height="27" rx="2" fill="#E05139"/>
<path fill-rule="evenodd" clip-rule="evenodd" d="M21.418 13.5063V11.1265H19.6888V13.5063H17.1987V15.2061H19.6888V17.6539H21.418V15.2061H23.8389V13.5063H21.418ZM11.0496 12.9321V15.0325C11.0496 15.0325 13.1516 15.0298 14.0074 15.0298C13.544 16.3914 12.8233 17.1329 11.0496 17.1329C9.25464 17.1329 7.85368 15.7223 7.85368 13.9823C7.85368 12.2422 9.25464 10.8316 11.0496 10.8316C11.9986 10.8316 12.6116 11.155 13.1738 11.6057C13.6238 11.1694 13.5862 11.1073 14.7312 10.0591C13.7592 9.20151 12.4674 8.67871 11.0496 8.67871C8.02805 8.67871 5.57861 11.0532 5.57861 13.9823C5.57861 16.9113 8.02805 19.2859 11.0496 19.2859C15.566 19.2859 16.6699 15.4736 16.3039 12.9321H11.0496Z" fill="white"/>
</svg>
