<svg width="77" height="77" viewBox="0 0 77 77" fill="none" xmlns="http://www.w3.org/2000/svg">
<path d="M59.6225 26.0048C59.4337 25.6143 59.0562 25.419 58.6787 25.2238C58.1124 25.0286 57.5461 25.0286 56.791 25.2238C56.6023 25.2238 56.4135 25.2238 56.4135 25.2238C54.5259 25.8095 53.2045 26.3952 52.6382 26.7857C51.8832 27.3714 50.9393 27.9571 50.1843 28.5429C49.8067 28.7381 49.618 28.9333 49.2405 29.1286C49.2405 28.7381 49.2405 28.3476 49.2405 27.9571C49.2405 27.7619 49.2405 27.7619 49.4292 27.5667C49.618 27.3714 49.8067 27.3714 49.9955 27.1762C51.5056 26.0048 52.827 24.6381 53.0157 22.4905C53.2045 20.5381 52.4494 18.7809 50.373 18.1952C49.4292 18 48.4854 18 47.3528 18C42.8225 18 38.2921 18 33.9506 18C32.818 18 31.8742 18 30.7416 18C29.609 18 28.6652 18 27.5326 18C26.9663 18 26.5888 18 26.0225 18.1952C24.8899 18.5857 23.9461 19.3667 23.7573 20.5381C23.5685 21.7095 23.7573 22.881 24.3236 23.8571C24.8899 25.2238 26.0225 26.2 26.9663 27.1762C27.1551 27.3714 27.1551 27.5667 27.1551 27.7619C27.1551 30.4952 27.1551 33.2286 27.1551 35.9619C27.1551 36.5476 27.1551 37.3286 27.1551 37.9143C27.1551 39.8667 27.3438 42.0143 27.3438 43.9667C27.3438 44.1619 27.1551 44.3571 27.1551 44.3571C25.645 45.5286 24.3236 46.5048 22.8135 47.6762C21.8697 48.4571 19.227 50.6048 18.2831 51.3857C17.9056 51.7762 17.9056 52.1667 18.2831 52.3619C18.4719 52.3619 20.5483 51.1905 20.7371 50.9952C22.0584 50.2143 23.5685 49.4333 24.8899 48.6524C25.6449 48.2619 26.4 47.6762 27.3438 47.2857C27.3438 47.8714 27.3438 48.2619 27.3438 48.8476C27.3438 48.8476 27.3438 49.0429 27.1551 49.0429C26.0225 49.8238 25.2674 50.9952 24.5124 51.9714C24.1348 53.1429 23.7573 54.3143 23.7573 55.4857C23.7573 56.8524 24.3236 58.0238 25.6449 58.6095C26.5888 59 27.3438 59 28.2876 59C31.1191 59 33.7618 59 36.5933 59C40.9348 59 45.2764 59 49.618 59C50.9393 59 52.0719 58.219 52.6382 57.0476C53.2045 55.681 53.0157 54.3143 52.4494 52.9476C51.6944 51.5809 50.5618 50.4095 49.2405 49.6286C49.0517 49.4333 48.8629 49.2381 48.8629 48.8476C48.8629 47.6762 48.8629 46.5048 49.0517 45.3333C49.0517 42.4048 49.0517 39.4762 49.0517 36.5476C49.0517 36.3524 49.0517 36.1571 49.4292 35.9619C50.7506 35.1809 52.2607 34.4 53.582 33.619L56.6023 31.6667C56.9798 31.2762 57.3573 31.081 57.7348 30.6905C58.6787 29.9095 59.4337 29.1286 60 27.9571C60 27.1762 60 26.5905 59.6225 26.0048ZM53.582 28.9333C55.2809 27.1762 55.6584 28.1524 55.6584 28.1524C55.6584 28.7381 52.0719 30.6905 53.582 28.9333ZM27.5326 26.0048C27.1551 25.419 26.7775 25.0286 26.4 24.4429C34.5169 24.6381 42.4449 24.6381 50.373 24.4429C49.4292 25.6143 48.6742 26.5905 47.3528 26.5905C45.4652 26.5905 43.7663 26.7857 41.8787 26.7857C38.8584 26.7857 35.8382 26.7857 33.0067 26.7857C31.6854 26.7857 30.5528 26.7857 29.2315 26.7857C28.6652 26.7857 28.0989 26.5905 27.5326 26.0048ZM47.3528 41.6238C47.5416 41.6238 47.5416 41.819 47.5416 42.0143C47.5416 42.7952 47.5416 43.3809 47.5416 44.1619L28.6652 32.2524C28.6652 31.4714 28.6652 30.6905 28.6652 29.9095C29.609 30.6905 30.7416 31.4714 31.6854 32.2524C34.5169 34.0095 37.5371 35.7667 40.3685 37.719C42.8225 38.8905 45.0876 40.2571 47.3528 41.6238ZM44.5214 38.1095C45.6539 37.5238 46.5978 36.9381 47.5416 36.5476C47.5416 37.719 47.5416 38.8905 47.5416 39.8667C46.5978 39.4762 45.6539 38.8905 44.5214 38.1095ZM47.3528 49.0429C45.6539 49.4333 44.1438 49.2381 42.6337 48.2619C39.0472 45.7238 35.2719 43.381 31.6854 41.0381C30.9303 40.4524 29.9865 40.0619 29.0427 39.6714C28.8539 39.6714 28.8539 39.4762 28.8539 39.2809C28.8539 38.3048 28.8539 37.3286 28.8539 36.3524L47.5416 48.2619C47.5416 48.4571 47.5416 48.6524 47.3528 49.0429ZM28.8539 43.5762C28.8539 42.6 28.8539 41.819 28.8539 41.0381C29.4202 41.4286 30.1753 41.819 30.7416 42.2095C30.1753 42.6 29.609 43.1857 28.8539 43.5762ZM32.2517 43.381C31.6854 43.7714 30.9303 44.1619 30.364 44.3571C31.3079 43.5762 31.8742 43.1857 32.2517 43.381ZM29.609 46.7C29.4202 46.7 29.4202 46.7 29.609 46.7C30.5528 45.919 31.6854 45.5286 32.6292 44.7476C33.3843 44.1619 33.9506 44.1619 34.7056 44.7476C36.5933 46.1143 38.6697 47.4809 40.7461 48.6524C40.7461 48.6524 40.7461 48.6524 40.9348 48.8476C40.1798 48.8476 39.6135 48.8476 38.8584 48.8476C36.9708 48.8476 35.0831 48.8476 33.1955 48.8476C33.0067 48.8476 32.6292 48.8476 32.4405 48.6524C31.6854 47.8714 30.5528 47.2857 29.609 46.7ZM30.1753 48.8476C29.2315 49.2381 28.8539 49.0429 29.0427 48.0667C29.4202 48.2619 29.7978 48.6524 30.1753 48.8476ZM39.6135 35.181C36.9708 33.4238 34.3281 31.8619 31.6854 30.1048C30.7416 29.519 29.9865 28.9333 29.0427 28.3476C28.8539 28.3476 28.8539 28.1524 28.6652 28.1524C30.9303 28.5429 33.1955 28.3476 35.4607 28.3476C35.8382 28.3476 36.027 28.5429 36.4045 28.7381C38.6697 30.3 40.7461 31.8619 43.0112 33.4238C43.0112 33.4238 43.2 33.619 43.3888 33.619C42.6337 34.2048 41.6899 34.5952 41.1236 35.181C40.3685 35.7667 40.1798 35.5714 39.6135 35.181ZM38.8584 28.7381C38.6697 28.5429 38.4809 28.5429 38.4809 28.3476C41.5011 28.3476 44.7101 28.3476 47.9191 28.1524C47.9191 28.7381 47.9191 29.519 47.7303 30.3C47.7303 30.4952 47.7303 30.4952 47.5416 30.4952C46.7865 31.0809 45.8427 31.6667 45.0877 32.4476C44.8989 32.6429 44.7101 32.6429 44.5214 32.4476C42.4449 31.2762 40.7461 30.1048 38.8584 28.7381ZM49.0517 50.9952C49.9955 51.7762 50.7506 52.5571 50.9393 53.3381C42.6337 53.3381 34.3281 53.1429 25.8337 53.1429C26.2112 52.5571 26.5888 51.9714 27.1551 51.3857C27.5326 50.9952 27.9101 50.6048 28.0989 50.2143C28.2877 50.019 28.4764 50.019 28.6652 50.019C29.4202 50.4095 29.9865 50.4095 30.5528 50.4095C32.4405 50.4095 34.1393 50.6048 36.027 50.6048C37.3483 50.6048 38.6697 50.6048 39.991 50.6048C42.0674 50.6048 43.9551 50.8 45.8427 50.8C46.409 50.8 46.9753 50.8 47.3528 50.6048C48.1079 50.4095 48.4854 50.4095 49.0517 50.9952ZM58.3011 27.3714C57.9236 27.9571 57.5461 28.5429 56.9798 28.9333C55.8472 29.9095 54.5258 30.8857 53.3933 31.6667C50.5618 33.2286 47.7303 34.7905 45.0877 36.3524C44.5214 36.5476 44.1438 36.9381 43.5775 37.1333C43.3888 37.1333 43.2 37.3286 43.2 37.1333C42.8225 36.9381 42.2562 36.5476 41.8787 36.3524C45.6539 33.619 49.2405 31.081 53.0157 28.3476C53.0157 28.3476 52.4494 29.1286 52.2607 29.7143C52.0719 30.1048 51.8831 30.6905 52.2607 30.8857C52.4494 31.2762 53.3933 31.0809 53.7708 30.8857C54.5259 30.4952 54.7146 30.3 55.6584 29.7143C56.036 29.519 56.6023 28.9333 56.791 28.7381C57.5461 27.9571 57.3573 26.981 56.4135 26.7857C56.9798 26.7857 57.5461 26.5905 58.1124 26.5905C58.4899 26.5905 58.6787 26.981 58.3011 27.3714Z" fill="#A1BF46"/>
<circle cx="38.5" cy="38.5" r="38" stroke="#A1BF46"/>
</svg>
