<svg width="77" height="77" viewBox="0 0 77 77" fill="none" xmlns="http://www.w3.org/2000/svg">
<path d="M38.3665 36C38.3665 35.8194 38.3665 35.6389 38.3665 35.4583C38.3665 34.0139 38.3665 32.5694 38.3665 31.125C38.3665 30.7639 38.1866 30.5833 38.0066 30.2222C37.2867 29.1389 36.3869 28.0556 35.847 26.7917C34.4072 24.0833 34.9471 21.5556 36.3869 19.0278C36.7468 18.4861 37.1068 17.9444 37.6467 17.2222C37.8266 17.0417 38.1866 15.2361 38.1866 13.9722C38.1866 13.7917 38.3665 10.1806 38.3665 10C38.3665 10.1806 38.5465 10.1806 38.5465 10.3611V13.9722C38.5465 15.5972 38.7265 16.6806 39.8063 17.7639C41.0661 19.2083 41.7859 20.8333 41.9659 22.8194C42.1459 24.625 41.606 26.4306 40.5261 27.875C39.9862 28.5972 39.4463 29.3194 38.9064 30.0417C38.7265 30.2222 38.5465 30.5833 38.5465 30.9444C38.5465 32.3889 38.5465 33.8333 38.5465 35.2778C38.5465 35.4583 38.5465 35.6389 38.5465 35.8194C38.3665 36 38.3665 36 38.3665 36Z" fill="#A1BF46"/>
<path d="M29.4 18.1875C29.4 18.375 29.4 18.5625 29.4 18.75C29.4 21 29.4 23.4375 29.4 25.6875C29.4 26.0625 29.6 26.25 30 26.25C31.6 26.4375 33 26.625 34.4 27.375C36.8 28.5 38 30.5625 38.6 33C38.8 33.9375 38.8 35.0625 39 36C38.4 36 37.8 35.8125 37.4 35.8125C35.8 35.625 34.4 35.25 33.2 34.5C30.8 33.1875 29.6 30.9375 29.2 28.5C29 27.5625 29 26.625 29 25.6875C29 23.25 29 21 29 18.5625C29 18.375 29 18.1875 29 18C29.2 18.1875 29.2 18.1875 29.4 18.1875Z" fill="#A1BF46"/>
<path d="M48 18C48 18.1875 48 18.375 48 18.5625C48 21.5625 48 24.375 48 27.375C48 29.8125 47.2859 32.0625 45.5007 33.75C44.0725 35.0625 42.4658 35.625 40.6806 35.8125C40.1451 35.8125 39.6095 36 39.0739 36C38.8954 34.875 39.0739 33.75 39.2525 32.625C39.9665 29.0625 42.1088 27 45.5007 26.4375C46.0363 26.25 46.3933 26.25 46.9289 26.25C47.2859 26.25 47.4644 26.0625 47.4644 25.6875C47.4644 23.4375 47.4644 21 47.4644 18.75C47.4644 18.5625 47.4644 18.375 47.4644 18.1875C48 18 48 18 48 18Z" fill="#A1BF46"/>
<path d="M39 53C35.4 52.8302 32.2 52.1509 30.4 49.2642C29.4 47.7359 29 46.0377 29 44.3396C29 44.1698 29.2 44 29.4 44C32.2 44.1698 35 44.6792 37 46.717C38.6 48.5849 39 50.6226 39 53Z" fill="#A1BF46"/>
<path d="M39 46C39 43.25 39.36 40.7115 40.8 38.3846C42.06 36.4808 44.04 35.6346 46.02 35.2115C46.56 35 47.1 35 47.64 35C47.82 35 48 35.2115 48 35.4231C48 38.3846 47.46 41.3462 45.48 43.4615C44.04 45.1539 42.06 45.5769 40.08 45.7885C39.72 46 39.36 46 39 46Z" fill="#A1BF46"/>
<path d="M39 63C32.8 63 29.8 59.6154 29.2 54.5385C29.2 53.9038 29 53.0577 29 52.4231C29 52.2115 29 52 29.4 52C32.4 52.2115 35 52.8462 37 55.5962C38.6 57.7115 39 60.25 39 63Z" fill="#A1BF46"/>
<path d="M39 46C33.4 46 30 43.1961 29.2 37.5882C29.2 36.9412 29 36.0784 29 35.4314C29 35.2157 29.2 35 29.4 35C32.4 35.2157 35.2 35.8627 37 38.6667C38.6 40.6078 39 43.1961 39 46Z" fill="#A1BF46"/>
<path d="M39.0136 63C38.8302 58.1346 40.4808 53.6923 45.2491 52.4231C45.9826 52.2115 46.8996 52.2115 47.6332 52C47.8166 52 48 52 48 52.4231C48 55.3846 47.4498 58.3462 45.4325 60.4615C43.9653 61.9423 42.3147 62.5769 40.2974 63C39.9306 62.7885 39.3804 62.7885 39.0136 63Z" fill="#A1BF46"/>
<path d="M46.74 49.3654C46.74 49.3654 46.74 49.7115 46.2 50.2308C44.4 52.3077 41.88 52.8269 39 53C39 52.3077 39 51.6154 39.18 50.9231C39.54 48.3269 40.62 46.25 43.14 45.0385C44.58 44.3462 46.02 44 47.46 44C47.82 44 48 44.1731 48 44.5192C47.82 45.7308 47.64 46.9423 47.46 48.1538C47.28 48.3269 46.92 48.8462 46.74 49.3654Z" fill="#A1BF46"/>
<circle cx="38.5" cy="38.5" r="38" stroke="#A1BF46"/>
</svg>
