<svg width="207" height="61" viewBox="0 0 207 61" fill="none" xmlns="http://www.w3.org/2000/svg">
<path d="M35.158 54.9C37.6117 56.5828 39.9053 58.2129 42.3589 59.8957C41.7722 60.4216 41.3454 60.7897 41.1321 61C38.8385 59.2121 36.7049 57.4767 34.4113 55.8465C33.9312 55.531 32.8644 55.4784 32.4377 55.794C30.1441 57.3715 28.0105 59.1595 25.6635 61C25.5568 60.9474 25.1834 60.6319 24.4367 60.0534C26.9437 58.2655 29.2906 56.5828 31.6909 54.7948C30.5708 54.3741 29.6107 54.7948 28.7039 55.3207C27.317 56.1095 26.0902 57.056 24.7034 57.8448C21.0763 59.9483 16.649 59.475 13.9287 56.9509C15.5822 57.0034 17.6092 57.2664 19.5294 57.0034C21.1829 56.7405 22.7298 55.794 24.33 55.3207C26.1969 54.7948 28.1705 53.8483 29.9307 54.1112C33.2378 54.6371 36.4915 53.3224 39.6919 54.269C41.3988 54.7422 43.1057 55.3733 44.7592 56.0569C47.5862 57.319 50.4132 57.4767 53.4003 56.1095C50.4666 59.4224 45.3459 59.8431 41.1854 57.2664C40.172 56.6353 39.1585 55.8991 38.0917 55.2681C37.2383 54.7422 36.2782 54.4793 35.158 54.9Z" fill="#27306C"/>
<path d="M53.293 49.957C56.5467 47.0122 61.5073 46.5915 64.0676 42.5423C63.1609 47.4854 58.3069 50.7458 50.626 51.9027C51.4794 49.8518 52.4395 47.5906 53.453 45.382C54.3064 43.5415 55.2132 41.7535 56.2267 40.0182C56.4934 43.3837 55.2666 47.1699 53.293 49.957Z" fill="#27306C"/>
<path d="M9.9808 40.3336C13.6079 43.7518 13.2345 48.9578 16.4883 52.113C10.3542 51.7449 5.1802 49.7466 2.72656 43.594C5.50024 47.0121 10.1942 47.4328 13.3946 50.2724C10.5675 47.5905 10.8876 43.9621 9.9808 40.3336Z" fill="#27306C"/>
<path d="M58.7869 50.9035C56.2799 54.2164 52.9729 55.8992 48.8124 55.3733C46.4654 55.1104 44.1184 54.4268 41.7715 53.7957C46.252 53.0069 48.1723 48.8526 51.8527 46.5388C50.4126 49.6414 49.4524 52.744 45.6653 53.5854C50.0925 52.5336 54.8931 53.7431 58.7869 50.9035Z" fill="#27306C"/>
<path d="M14.7284 46.8018C18.4089 49.1681 20.4891 53.2173 25.2364 53.9535C23.7429 54.3216 22.5694 54.6897 21.3959 54.9526C20.2224 55.2156 18.9956 55.4259 17.7688 55.5837C13.7683 56.1095 10.5679 54.6371 8.11426 51.4819C12.1148 53.9535 16.8087 52.7966 21.0225 53.9009C16.6487 52.0078 17.0754 51.4293 14.7284 46.8018Z" fill="#27306C"/>
<path d="M61.8256 37.1259C61.1321 35.3905 60.332 33.7604 59.7453 32.0776C59.2652 30.6578 58.8919 29.1328 58.5718 27.6604C58.4651 27.1345 58.5718 26.6086 58.5718 25.8724C59.7986 26.9242 60.7588 27.9759 61.1855 29.3431C61.6122 30.6578 61.8256 32.025 62.3056 33.3923C62.4656 32.7612 62.5723 32.0776 62.839 31.4466C63.3724 29.9742 63.9592 28.5543 64.5459 27.1345C65.1326 25.7673 65.7727 24.4526 66.4128 22.9802C66.5195 23.7164 66.7328 24.4526 66.6795 25.1362C66.4661 27.5026 66.0394 29.8164 64.9193 31.9199C63.9592 33.7078 62.8924 35.3905 61.8256 37.1259Z" fill="#27306C"/>
<path d="M0.166393 23.0327C1.17985 25.2414 2.24665 27.3974 3.15343 29.5534C3.58015 30.5 3.74017 31.5517 4.00687 32.5509C4.06021 32.8138 4.16689 33.0767 4.22023 33.3396C4.32691 33.3396 4.38025 33.3396 4.48693 33.3396C4.59361 32.6034 4.75363 31.9198 4.86031 31.1836C5.18035 29.0802 6.24715 27.3974 7.90069 25.8198C7.90069 26.819 8.00737 27.6603 7.90069 28.5017C7.63399 30.3948 6.78055 32.0776 6.08713 33.7603C5.66041 34.8121 5.28703 35.8638 4.86031 37.0207C1.87327 32.8138 -0.687047 28.4491 0.166393 23.0327Z" fill="#27306C"/>
<path d="M59.7996 41.6483C60.2797 41.0699 60.7064 40.4389 61.1865 39.8604C61.9332 38.9138 62.7333 38.0199 63.5334 37.1259C64.0668 36.4423 64.6536 35.7587 65.0803 35.0751C65.507 34.3388 65.827 33.5501 66.2538 32.8138C66.9472 35.7587 61.3998 43.3837 57.6127 45.3294C57.2926 43.1207 57.7727 40.5966 57.6127 38.3354C57.506 36.3897 57.7194 34.444 58.4661 32.3932C59.7463 35.4957 59.9596 38.5457 59.5329 41.6483C59.5863 41.6483 59.6929 41.6483 59.7996 41.6483Z" fill="#27306C"/>
<path d="M0.380835 32.7086C0.700875 33.3397 0.860895 33.8655 1.18093 34.3388C1.98103 35.4431 2.78113 36.6 3.63457 37.6517C4.70137 39.019 5.82151 40.281 6.94165 41.7009C6.94165 41.0173 6.99499 40.4388 6.94165 39.8604C6.67495 37.5991 7.20835 35.4431 7.84843 33.3397C7.95511 33.0767 8.00845 32.8138 8.11513 32.5509C8.16847 32.5509 8.22181 32.5509 8.32849 32.5509C8.48851 33.3397 8.70187 34.1285 8.80855 34.9698C8.91523 35.8112 8.96857 36.6526 9.02191 37.494C9.02191 38.3354 8.96857 39.2293 8.86189 40.0707C8.75521 40.9121 8.59519 41.7535 8.48851 42.5423C8.38183 43.3836 8.32849 44.225 8.22181 45.0138C4.43467 43.0155 -0.0992245 36.0742 0.380835 32.7086Z" fill="#27306C"/>
<path d="M10.195 19.3517C8.86153 22.9802 6.19453 25.7147 4.22095 29.1328C3.68755 27.45 3.15415 25.925 2.72743 24.4C2.30071 22.7698 2.78077 21.1397 3.04747 19.5095C3.31417 17.9319 3.63421 16.3543 4.86103 14.9345C4.86103 18.3526 4.86103 21.6129 4.86103 24.9259C4.91437 24.9784 4.96771 25.031 5.02105 25.031C6.40789 22.875 7.90141 20.7716 10.195 19.3517Z" fill="#27306C"/>
<path d="M61.7203 14.8819C63.0538 16.5647 63.3205 18.4052 63.7473 20.2457C64.494 23.3483 63.6406 26.188 62.3071 29.0276C60.3335 25.7673 57.7198 22.9802 56.333 19.2992C56.9197 19.7199 57.3998 20.088 57.8799 20.5087C58.3599 20.9293 58.8933 21.4026 59.32 21.9285C59.7468 22.4018 60.1201 22.9802 60.4935 23.5061C60.8669 24.0319 61.2403 24.5578 61.7203 25.0311C61.7203 23.4009 61.7203 21.7181 61.7203 20.088C61.7203 18.4052 61.7203 16.7224 61.7203 14.8819Z" fill="#27306C"/>
<path d="M60.2809 21.0871C59.4808 20.3509 58.6807 19.6147 57.8273 18.931C56.9739 18.2474 56.1204 17.669 55.267 16.9854C54.2002 16.144 53.08 14.4086 52.6533 13.094C54.6802 14.5664 56.6538 16.0388 58.6274 17.4586C58.7874 16.9328 57.6673 11.6216 56.9739 10.0966C59.6942 12.2 61.0277 16.3543 60.2809 21.0871Z" fill="#27306C"/>
<path d="M7.7406 17.669C9.8742 16.0914 11.9011 14.619 13.8747 13.1466C13.928 13.1466 13.9814 13.1992 14.0347 13.1992C13.608 13.9354 13.2346 14.7768 12.7012 15.4078C12.0611 16.1966 11.3144 16.9328 10.5143 17.5638C9.12744 18.7207 7.68726 19.825 6.30042 20.8768C5.55366 17.7216 6.30042 12.8311 9.6075 9.88623C8.38068 12.463 8.43402 15.0923 7.7406 17.669Z" fill="#27306C"/>
<path d="M51.1055 8.20346C53.7725 9.30777 55.9594 10.8854 56.7595 13.8302C55.426 13.725 52.9724 11.4112 51.1055 8.20346Z" fill="#27306C"/>
<path d="M9.82227 13.8828C10.6757 10.8853 12.8626 9.30775 15.5296 8.09827C14.3562 10.4646 11.7958 13.4095 9.82227 13.8828Z" fill="#27306C"/>
<path d="M33.6617 55.3733C56.5446 44.8035 53.1842 20.088 53.1842 20.088C43.7963 18.7207 43.0496 11.0432 43.0496 11.0432H33.6617H24.3272C24.3272 11.0432 23.5271 18.7207 14.1927 20.088C14.1393 20.088 10.8322 44.8035 33.6617 55.3733ZM15.1528 21.0345C19.8467 20.1406 22.3537 17.6164 23.6338 15.6707C24.5406 14.3035 24.9673 12.9888 25.1807 12.1475H42.1428C42.3561 12.9888 42.7829 14.3035 43.6896 15.6707C44.9698 17.669 47.4768 20.1406 52.1707 21.0345C52.3307 22.9276 52.4374 27.8707 50.8905 33.6026C48.3302 43.0156 42.5162 49.957 33.6617 54.2165C24.754 49.957 18.9399 43.0156 16.3796 33.5501C14.8861 27.8182 15.0461 22.8751 15.1528 21.0345Z" fill="#27306C"/>
<path d="M33.6646 53.4276C42.199 49.2733 47.7464 42.4897 50.2533 33.3922C51.6402 28.2388 51.6402 23.6638 51.5335 21.5603C46.8929 20.5086 44.3859 17.9845 43.1058 15.9862C42.3057 14.7767 41.879 13.6724 41.6123 12.7784H25.717C25.4503 13.6724 25.0235 14.7767 24.2234 15.9862C22.9433 17.9845 20.4363 20.5086 15.7957 21.5603C15.6891 23.6638 15.6357 28.1862 17.0759 33.3397C19.5295 42.4897 25.1302 49.2733 33.6646 53.4276Z" fill="#27306C"/>
<path d="M31.426 4.10172C30.4658 4.575 29.3457 4.41724 29.3457 4.41724C29.3457 4.41724 29.8258 3.47069 30.7859 2.94482C31.746 2.47155 32.8661 2.62931 32.8661 2.62931C32.8661 2.62931 32.3861 3.62844 31.426 4.10172Z" fill="#27306C"/>
<path d="M36.4919 4.10172C37.4521 4.575 38.5722 4.41724 38.5722 4.41724C38.5722 4.41724 38.0921 3.47069 37.132 2.94482C36.1719 2.47155 35.0518 2.62931 35.0518 2.62931C35.0518 2.62931 35.5318 3.62844 36.4919 4.10172Z" fill="#27306C"/>
<path d="M40.9714 1.8931C40.598 2.31379 39.9579 2.31379 39.9579 2.31379C40.3313 2.6819 40.1713 3.05 40.1179 3.20776C39.9046 3.94397 38.9444 5.99483 36.0107 4.31207C33.1837 2.73448 34.5706 0.946552 34.8373 0.736207C34.8373 0.736207 34.2505 0.578449 33.9838 0C33.7171 0.631035 33.077 0.788794 33.077 0.788794C33.2904 0.999138 34.7306 2.78707 31.9036 4.36466C28.9165 6.04742 27.9564 3.94397 27.7964 3.26035C27.743 3.10259 27.6364 2.78707 27.9564 2.36638C27.9564 2.36638 27.3163 2.36638 26.943 1.94569C26.943 1.94569 26.943 2.57673 26.4629 2.94483C26.4629 2.94483 26.943 3.05 27.0496 3.31293C28.1698 5.31121 27.6897 8.15087 27.6897 8.15087H33.9305H40.1713C40.1713 8.15087 39.7445 5.31121 40.8113 3.31293C40.9714 3.05 41.3981 2.94483 41.3981 2.94483C40.9714 2.57673 40.9714 1.8931 40.9714 1.8931ZM29.6633 7.30949C29.6633 7.30949 29.3432 6.8888 29.3432 6.41552C29.3432 5.94224 29.6633 5.52155 29.6633 5.52155C29.6633 5.52155 29.9833 5.94224 29.9833 6.41552C29.9833 6.8888 29.6633 7.30949 29.6633 7.30949ZM31.6369 7.30949C31.6369 7.30949 31.2635 6.83621 31.2635 6.20518C31.2635 5.62673 31.6369 5.10087 31.6369 5.10087C31.6369 5.10087 32.0102 5.57414 32.0102 6.20518C32.0102 6.83621 31.6369 7.30949 31.6369 7.30949ZM33.9838 7.30949C33.9838 7.30949 33.4504 6.62587 33.4504 5.7319C33.4504 4.89052 33.9838 4.15431 33.9838 4.15431C33.9838 4.15431 34.5172 4.83793 34.5172 5.7319C34.5172 6.62587 33.9838 7.30949 33.9838 7.30949ZM36.2774 7.30949C36.2774 7.30949 35.9041 6.83621 35.9041 6.20518C35.9041 5.62673 36.2774 5.10087 36.2774 5.10087C36.2774 5.10087 36.6508 5.57414 36.6508 6.20518C36.6508 6.83621 36.2774 7.30949 36.2774 7.30949ZM38.251 7.30949C38.251 7.30949 37.931 6.8888 37.931 6.41552C37.931 5.94224 38.251 5.52155 38.251 5.52155C38.251 5.52155 38.5711 5.94224 38.5711 6.41552C38.5711 6.8888 38.251 7.30949 38.251 7.30949Z" fill="#27306C"/>
<path d="M40.1714 8.36121H27.7432V8.93965H40.1714V8.36121Z" fill="#27306C"/>
<path d="M33.4501 12.4103V30.5526L19.9551 41.4379" stroke="white" stroke-miterlimit="10"/>
<path d="M33.4502 30.5526L47.1052 41.5431" stroke="white" stroke-miterlimit="10"/>
<path d="M25.1286 25.4517C25.1286 25.3992 25.1286 25.3466 25.1286 25.294C25.1286 24.8733 25.1286 24.4526 25.1286 24.0319C25.1286 23.9267 25.0753 23.8742 25.022 23.769C24.8086 23.4535 24.5419 23.138 24.3819 22.7699C23.9552 21.9811 24.1152 21.2449 24.5419 20.5086C24.6486 20.3509 24.7553 20.1931 24.9153 19.9828C24.9686 19.9302 25.0753 19.4043 25.0753 19.0362C25.0753 18.9836 25.1286 17.9319 25.1286 17.8793C25.1286 17.9319 25.182 17.9319 25.182 17.9845V19.0362C25.182 19.5095 25.2353 19.825 25.5554 20.1405C25.9287 20.5612 26.1421 21.0345 26.1954 21.613C26.2488 22.1388 26.0888 22.6647 25.7687 23.0854C25.6087 23.2957 25.4487 23.5061 25.2887 23.7164C25.2353 23.769 25.182 23.8742 25.182 23.9793C25.182 24.4 25.182 24.8207 25.182 25.2414C25.182 25.294 25.182 25.3466 25.182 25.3992C25.1286 25.4518 25.1286 25.4517 25.1286 25.4517Z" fill="white"/>
<path d="M22.4602 20.3509C22.4602 20.4035 22.4602 20.4561 22.4602 20.5087C22.4602 21.1397 22.4602 21.8233 22.4602 22.4544C22.4602 22.5595 22.5135 22.6121 22.6202 22.6121C23.0469 22.6647 23.4203 22.7173 23.7937 22.9277C24.4338 23.2432 24.7538 23.8216 24.9138 24.5052C24.9672 24.7682 24.9672 25.0837 25.0205 25.3466C24.8605 25.3466 24.7005 25.294 24.5938 25.294C24.1671 25.2414 23.7937 25.1363 23.4737 24.9259C22.8336 24.5578 22.5135 23.9268 22.4069 23.2432C22.3535 22.9802 22.3535 22.7173 22.3535 22.4544C22.3535 21.7708 22.3535 21.1397 22.3535 20.4561C22.3535 20.4035 22.3535 20.3509 22.3535 20.2983C22.4069 20.3509 22.4069 20.3509 22.4602 20.3509Z" fill="white"/>
<path d="M27.8483 20.351C27.8483 20.4035 27.8483 20.4561 27.8483 20.5087C27.8483 21.3501 27.8483 22.1389 27.8483 22.9803C27.8483 23.6639 27.6349 24.2949 27.1015 24.7682C26.6748 25.1363 26.1947 25.2941 25.6613 25.3466C25.5013 25.3466 25.3413 25.3992 25.1813 25.3992C25.1279 25.0837 25.1813 24.7682 25.2346 24.4527C25.448 23.4535 26.0881 22.8751 27.1015 22.7173C27.2615 22.6647 27.3682 22.6647 27.5282 22.6647C27.6349 22.6647 27.6883 22.6122 27.6883 22.507C27.6883 21.876 27.6883 21.1923 27.6883 20.5613C27.6883 20.5087 27.6883 20.4561 27.6883 20.4035C27.8483 20.351 27.8483 20.351 27.8483 20.351Z" fill="white"/>
<path d="M25.0205 30.0794C24.0604 30.0268 23.207 29.8164 22.7269 28.9225C22.4602 28.4492 22.3535 27.9233 22.3535 27.3975C22.3535 27.3449 22.4069 27.2923 22.4602 27.2923C23.207 27.3449 23.9537 27.5026 24.4871 28.1337C24.9138 28.7121 25.0205 29.3432 25.0205 30.0794Z" fill="white"/>
<path d="M25.2334 27.713C25.2334 27.0294 25.3401 26.3984 25.7668 25.8199C26.1402 25.3466 26.7269 25.1363 27.3137 25.0311C27.4737 24.9785 27.6337 24.9785 27.7937 24.9785C27.8471 24.9785 27.9004 25.0311 27.9004 25.0837C27.9004 25.8199 27.7404 26.5561 27.1536 27.082C26.7269 27.5027 26.1402 27.6079 25.5534 27.6604C25.4468 27.713 25.3401 27.713 25.2334 27.713Z" fill="white"/>
<path d="M25.0205 32.3932C23.367 32.3932 22.5669 31.5518 22.4069 30.2898C22.4069 30.132 22.3535 29.9217 22.3535 29.7639C22.3535 29.7113 22.3535 29.6587 22.4602 29.6587C23.2603 29.7113 23.9537 29.8691 24.4871 30.5527C24.9138 31.0786 25.0205 31.7096 25.0205 32.3932Z" fill="white"/>
<path d="M25.0205 27.713C23.527 27.713 22.6202 27.0294 22.4069 25.6621C22.4069 25.5044 22.3535 25.294 22.3535 25.1363C22.3535 25.0837 22.4069 25.0311 22.4602 25.0311C23.2603 25.0837 24.0071 25.2414 24.4871 25.9251C24.9138 26.3983 25.0205 27.0294 25.0205 27.713Z" fill="white"/>
<path d="M25.2852 32.4458C25.2319 31.2363 25.7119 30.132 27.0988 29.8165C27.3121 29.7639 27.5788 29.7639 27.7922 29.7113C27.8455 29.7113 27.8989 29.7113 27.8989 29.8165C27.8989 30.5527 27.7388 31.2889 27.1521 31.8148C26.7254 32.1829 26.2453 32.3406 25.6586 32.4458C25.5519 32.3932 25.3919 32.3932 25.2852 32.4458Z" fill="white"/>
<path d="M27.527 28.9751C27.527 28.9751 27.527 29.0802 27.367 29.238C26.8336 29.869 26.0868 30.0268 25.2334 30.0794C25.2334 29.869 25.2334 29.6587 25.2867 29.4483C25.3934 28.6595 25.7135 28.0285 26.4602 27.6604C26.8869 27.4501 27.3137 27.3449 27.7404 27.3449C27.8471 27.3449 27.9004 27.3975 27.9004 27.5026C27.8471 27.8707 27.7937 28.2388 27.7404 28.6069C27.687 28.6595 27.5804 28.8173 27.527 28.9751Z" fill="white"/>
<path d="M25.1267 34.6544C25.0736 34.4966 25.0736 24.8734 25.1267 24.7682C25.2329 24.8734 25.2329 34.4966 25.1267 34.6544Z" fill="white"/>
<path d="M25.181 17.5639C25.181 17.8268 25.181 18.1423 25.181 18.4053H25.1279C25.1279 18.1423 25.1279 17.8268 25.1279 17.5639C25.1279 17.5639 25.1279 17.5639 25.181 17.5639Z" fill="white"/>
<path d="M48.0124 22.9276C47.9591 22.8224 47.8524 22.7699 47.7457 22.7173C47.5857 22.6647 47.4257 22.6647 47.2123 22.7173C47.159 22.7173 47.1057 22.7173 47.1057 22.7173C46.5723 22.875 46.1989 23.0328 46.0389 23.138C45.8255 23.2957 45.5588 23.4535 45.3454 23.6112C45.2388 23.6638 45.1854 23.7164 45.0787 23.769C45.0787 23.6638 45.0787 23.5586 45.0787 23.4535C45.0787 23.4009 45.0787 23.4009 45.1321 23.3483C45.1854 23.2957 45.2388 23.2957 45.2921 23.2431C45.7188 22.9276 46.0922 22.5595 46.1455 21.9811C46.1989 21.4552 45.9855 20.9819 45.3988 20.8242C45.1321 20.7716 44.8654 20.7716 44.5453 20.7716C43.2652 20.7716 41.985 20.7716 40.7582 20.7716C40.4382 20.7716 40.1715 20.7716 39.8514 20.7716C39.5314 20.7716 39.2647 20.7716 38.9446 20.7716C38.7846 20.7716 38.6779 20.7716 38.5179 20.8242C38.1979 20.9293 37.9312 21.1397 37.8778 21.4552C37.8245 21.7707 37.8778 22.0862 38.0379 22.3492C38.1979 22.7173 38.5179 22.9802 38.7846 23.2431C38.838 23.2957 38.838 23.3483 38.838 23.4009C38.838 24.1371 38.838 24.8733 38.838 25.6095C38.838 25.7673 38.838 25.9776 38.838 26.1354C38.838 26.6612 38.8913 27.2397 38.8913 27.7655C38.8913 27.8181 38.838 27.8707 38.838 27.8707C38.4112 28.1862 38.0379 28.4492 37.6111 28.7647C37.3444 28.975 36.5977 29.5535 36.331 29.7638C36.2243 29.869 36.2243 29.9742 36.331 30.0268C36.3843 30.0268 36.9711 29.7112 37.0244 29.6586C37.3978 29.4483 37.8245 29.238 38.1979 29.0276C38.4112 28.9224 38.6246 28.7647 38.8913 28.6595C38.8913 28.8173 38.8913 28.9224 38.8913 29.0802C38.8913 29.0802 38.8913 29.1328 38.838 29.1328C38.5179 29.3431 38.3046 29.6586 38.0912 29.9216C37.9845 30.2371 37.8778 30.5526 37.8778 30.8681C37.8778 31.2362 38.0379 31.5518 38.4112 31.7095C38.6779 31.8147 38.8913 31.8147 39.158 31.8147C39.9581 31.8147 40.7049 31.8147 41.505 31.8147C42.7318 31.8147 43.9586 31.8147 45.1854 31.8147C45.5588 31.8147 45.8788 31.6043 46.0389 31.2888C46.1989 30.9207 46.1455 30.5526 45.9855 30.1845C45.7722 29.8164 45.4521 29.5009 45.0787 29.2905C45.0254 29.238 44.9721 29.1854 44.9721 29.0802C44.9721 28.7647 44.9721 28.4492 45.0254 28.1336C45.0254 27.3449 45.0254 26.5561 45.0254 25.7673C45.0254 25.7147 45.0254 25.6621 45.1321 25.6095C45.5055 25.3992 45.9322 25.1888 46.3056 24.9785L47.159 24.4526C47.2657 24.3474 47.3724 24.2949 47.479 24.1897C47.7457 23.9793 47.9591 23.769 48.1191 23.4535C48.1191 23.2431 48.1191 23.0854 48.0124 22.9276ZM46.3056 23.7164C46.7856 23.2431 46.8923 23.5061 46.8923 23.5061C46.8923 23.6638 45.8788 24.1897 46.3056 23.7164ZM38.9446 22.9276C38.838 22.7699 38.7313 22.6647 38.6246 22.5069C40.9182 22.5595 43.1585 22.5595 45.3988 22.5069C45.1321 22.8224 44.9187 23.0854 44.5453 23.0854C44.0119 23.0854 43.5319 23.138 42.9985 23.138C42.145 23.138 41.2916 23.138 40.4915 23.138C40.1181 23.138 39.7981 23.138 39.4247 23.138C39.2647 23.138 39.1047 23.0854 38.9446 22.9276ZM44.5453 27.1345C44.5987 27.1345 44.5987 27.1871 44.5987 27.2397C44.5987 27.45 44.5987 27.6078 44.5987 27.8181L39.2647 24.6104C39.2647 24.4 39.2647 24.1897 39.2647 23.9793C39.5314 24.1897 39.8514 24.4 40.1181 24.6104C40.9182 25.0836 41.7717 25.5569 42.5718 26.0828C43.2652 26.3983 43.9053 26.7664 44.5453 27.1345ZM43.7452 26.188C44.0653 26.0302 44.332 25.8724 44.5987 25.7673C44.5987 26.0828 44.5987 26.3983 44.5987 26.6612C44.332 26.5561 44.0653 26.3983 43.7452 26.188ZM44.5453 29.1328C44.0653 29.238 43.6386 29.1854 43.2118 28.9224C42.1984 28.2388 41.1316 27.6078 40.1181 26.9768C39.9048 26.819 39.6381 26.7138 39.3714 26.6086C39.318 26.6086 39.318 26.5561 39.318 26.5035C39.318 26.2405 39.318 25.9776 39.318 25.7147L44.5987 28.9224C44.5987 28.975 44.5987 29.0276 44.5453 29.1328ZM39.318 27.6604C39.318 27.3974 39.318 27.1871 39.318 26.9768C39.478 27.0819 39.6914 27.1871 39.8514 27.2923C39.6914 27.3974 39.5314 27.5552 39.318 27.6604ZM40.2781 27.6078C40.1181 27.713 39.9048 27.8181 39.7447 27.8707C40.0114 27.6604 40.1715 27.5552 40.2781 27.6078ZM39.5314 28.5018C39.478 28.5018 39.478 28.5018 39.5314 28.5018C39.7981 28.2914 40.1181 28.1862 40.3848 27.9759C40.5982 27.8181 40.7582 27.8181 40.9716 27.9759C41.505 28.344 42.0917 28.7121 42.6784 29.0276C42.6784 29.0276 42.6784 29.0276 42.7318 29.0802C42.5184 29.0802 42.3584 29.0802 42.145 29.0802C41.6116 29.0802 41.0782 29.0802 40.5448 29.0802C40.4915 29.0802 40.3848 29.0802 40.3315 29.0276C40.1181 28.8173 39.7981 28.6595 39.5314 28.5018ZM39.6914 29.0802C39.4247 29.1854 39.318 29.1328 39.3714 28.8699C39.478 28.9224 39.5847 29.0276 39.6914 29.0802ZM42.3584 25.3992C41.6116 24.9259 40.8649 24.5052 40.1181 24.0319C39.8514 23.8742 39.6381 23.7164 39.3714 23.5586C39.318 23.5586 39.318 23.5061 39.2647 23.5061C39.9048 23.6112 40.5448 23.5586 41.1849 23.5586C41.2916 23.5586 41.3449 23.6112 41.4516 23.6638C42.0917 24.0845 42.6784 24.5052 43.3185 24.9259C43.3185 24.9259 43.3719 24.9785 43.4252 24.9785C43.2118 25.1362 42.9451 25.2414 42.7851 25.3992C42.5718 25.5569 42.5184 25.5043 42.3584 25.3992ZM42.145 23.6638C42.0917 23.6112 42.0384 23.6112 42.0384 23.5586C42.8918 23.5586 43.7986 23.5586 44.7054 23.5061C44.7054 23.6638 44.7054 23.8742 44.652 24.0845C44.652 24.1371 44.652 24.1371 44.5987 24.1371C44.3853 24.2949 44.1186 24.4526 43.9053 24.663C43.8519 24.7155 43.7986 24.7155 43.7452 24.663C43.1585 24.3474 42.6784 24.0319 42.145 23.6638ZM45.0254 29.6586C45.2921 29.869 45.5055 30.0793 45.5588 30.2897C43.2118 30.2897 40.8649 30.2371 38.4646 30.2371C38.5713 30.0793 38.6779 29.9216 38.838 29.7638C38.9446 29.6586 39.0513 29.5535 39.1047 29.4483C39.158 29.3957 39.2113 29.3957 39.2647 29.3957C39.478 29.5009 39.6381 29.5009 39.7981 29.5009C40.3315 29.5009 40.8115 29.5535 41.3449 29.5535C41.7183 29.5535 42.0917 29.5535 42.4651 29.5535C43.0518 29.5535 43.5852 29.6061 44.1186 29.6061C44.2786 29.6061 44.4387 29.6061 44.5453 29.5535C44.7587 29.5009 44.8654 29.5009 45.0254 29.6586ZM47.6391 23.2957C47.5324 23.4535 47.4257 23.6112 47.2657 23.7164C46.9456 23.9793 46.5723 24.2423 46.2522 24.4526C45.4521 24.8733 44.652 25.294 43.9053 25.7147C43.7452 25.7673 43.6386 25.8724 43.4785 25.925C43.4252 25.925 43.3719 25.9776 43.3719 25.925C43.2652 25.8724 43.1052 25.7673 42.9985 25.7147C44.0653 24.9785 45.0787 24.2949 46.1455 23.5586C46.1455 23.5586 45.9855 23.769 45.9322 23.9267C45.8788 24.0319 45.8255 24.1897 45.9322 24.2423C45.9855 24.3474 46.2522 24.2949 46.3589 24.2423C46.5723 24.1371 46.6256 24.0845 46.8923 23.9267C46.999 23.8742 47.159 23.7164 47.2123 23.6638C47.4257 23.4535 47.3724 23.1905 47.1057 23.138C47.2657 23.138 47.4257 23.0854 47.5857 23.0854C47.6924 23.0854 47.7457 23.1905 47.6391 23.2957Z" fill="white"/>
<path d="M30.8347 45.4345C29.9813 45.4345 29.3412 45.3819 28.7545 45.119C28.5411 45.0138 28.3277 44.9086 28.1677 44.8035C27.7944 44.5405 27.7944 44.1724 28.1677 43.9095C28.4878 43.6991 28.8078 43.5414 29.1812 43.4888C30.3013 43.2259 31.4215 43.2259 32.5416 43.594C32.755 43.6466 32.9683 43.8043 33.1817 43.9095C33.5551 44.1724 33.5017 44.4879 33.1817 44.7509C32.8083 45.0138 32.3816 45.1716 31.9549 45.2767C31.4748 45.3819 31.0481 45.3819 30.8347 45.4345Z" fill="white"/>
<path d="M33.5549 38.125C32.8082 38.125 32.1147 38.0199 31.4213 37.7043C31.2613 37.5992 31.1013 37.494 30.9413 37.3362C30.7279 37.1259 30.7279 36.9156 30.9413 36.7052C31.1013 36.5475 31.3146 36.3897 31.528 36.2845C32.3281 35.969 33.1282 35.8638 33.9816 35.9164C34.6217 35.969 35.2085 36.0742 35.7419 36.3371C35.9019 36.4423 36.0619 36.5475 36.1686 36.6526C36.3819 36.863 36.3819 37.0733 36.1686 37.2837C36.0086 37.4414 35.8485 37.5466 35.6352 37.6518C35.0484 38.0725 34.3017 38.125 33.5549 38.125Z" fill="white"/>
<path d="M36.9163 43.1733C36.1695 43.1733 35.4761 43.0681 34.836 42.8052C34.6226 42.7 34.4626 42.5948 34.3026 42.4371C34.0892 42.2267 34.0892 42.069 34.3026 41.8586C34.5693 41.5957 34.8893 41.4379 35.2627 41.3328C36.4362 41.0173 37.663 41.0173 38.8365 41.3854C39.1032 41.4905 39.4232 41.5957 39.6366 41.8586C39.85 42.1216 39.8499 42.3319 39.5833 42.5423C39.2632 42.8052 38.8898 42.9629 38.4631 43.0681C37.8764 43.0681 37.3963 43.1207 36.9163 43.1733Z" fill="white"/>
<path d="M33.3959 45.0664C33.5026 45.5923 33.3959 45.8026 32.9692 46.0656C32.5424 46.3285 32.0624 46.4337 31.5823 46.4863C30.8356 46.5914 30.0888 46.5914 29.342 46.4337C28.9687 46.3811 28.5953 46.2233 28.2753 46.0656C27.7952 45.8026 27.7952 45.5923 27.8485 45.119C28.702 45.6975 29.6088 45.8026 30.6222 45.8026C31.5823 45.8026 32.5424 45.6449 33.3959 45.0664Z" fill="white"/>
<path d="M39.637 45.0664C39.6904 45.5923 39.6904 45.7501 39.2637 46.013C38.8369 46.2759 38.3569 46.3811 37.8768 46.4863C36.97 46.644 36.0633 46.5914 35.1565 46.3285C34.9431 46.2759 34.7298 46.1707 34.5164 46.013C34.2497 45.8552 34.0897 45.6449 34.143 45.3294C34.143 45.2768 34.143 45.1716 34.143 45.0664C34.9965 45.6449 35.9566 45.8026 36.9167 45.8026C37.8768 45.8026 38.8369 45.6449 39.637 45.0664Z" fill="white"/>
<path d="M34.1429 43.9621C34.9963 44.5405 35.9031 44.6457 36.9165 44.6457C37.8767 44.6457 38.8368 44.488 39.6369 43.9621C39.7436 44.3302 39.6369 44.5931 39.3702 44.8561C38.9435 45.1716 38.4634 45.2768 37.9833 45.3819C37.2366 45.4871 36.5432 45.4871 35.7964 45.3819C35.423 45.3293 34.9963 45.1716 34.6763 45.0138C34.0895 44.6457 34.1429 44.488 34.1429 43.9621Z" fill="white"/>
<path d="M34.143 42.8052C35.3699 43.7518 38.3569 43.8043 39.637 42.8052C39.7437 43.1207 39.6904 43.4362 39.4237 43.6466C39.0503 43.9095 38.6236 44.0673 38.1969 44.1724C37.1834 44.3828 36.17 44.3828 35.2098 44.0673C34.9431 44.0147 34.7298 43.8569 34.5164 43.7518C34.2497 43.594 34.0897 43.3837 34.143 43.0681C34.143 42.963 34.143 42.9104 34.143 42.8052Z" fill="white"/>
<path d="M33.3956 46.2233C33.3956 46.3811 33.3956 46.5388 33.3956 46.6966C33.3956 46.9069 33.2356 47.0121 33.0756 47.1173C32.7022 47.3802 32.2755 47.538 31.7955 47.5905C30.782 47.8009 29.7685 47.7483 28.7551 47.4328C28.5417 47.3802 28.3284 47.275 28.1683 47.1173C27.9016 46.9595 27.795 46.6966 27.8483 46.2233C28.7017 46.8017 29.6085 46.9069 30.622 46.9069C31.5821 46.9069 32.5422 46.8017 33.3956 46.2233Z" fill="white"/>
<path d="M30.8365 37.8095C31.6899 38.388 32.6501 38.5457 33.6102 38.5457C34.5703 38.5457 35.5304 38.388 36.3305 37.8621C36.3839 38.388 36.3839 38.5457 35.8505 38.8612C35.3704 39.1242 34.8903 39.2293 34.3569 39.2819C33.4502 39.3871 32.5434 39.3345 31.69 39.019C31.4766 38.9664 31.3166 38.8612 31.1566 38.7561C30.9432 38.5983 30.7832 38.4405 30.8365 38.125C30.8365 37.9673 30.8365 37.9147 30.8365 37.8095Z" fill="white"/>
<path d="M34.143 46.2233C34.9965 46.8017 35.9566 46.9595 36.9167 46.9595C37.8768 46.9595 38.837 46.8017 39.637 46.2759C39.7437 46.644 39.5837 47.0121 39.2637 47.1698C38.2502 47.7483 37.1834 47.8009 36.0633 47.6957C35.5832 47.6431 35.1565 47.538 34.7298 47.3276C34.6764 47.275 34.6231 47.275 34.5164 47.2224C34.2497 47.0647 34.0897 46.8543 34.143 46.4862C34.143 46.3811 34.143 46.3285 34.143 46.2233Z" fill="white"/>
<path d="M30.835 38.9138C31.6884 39.4922 32.6485 39.65 33.6086 39.65C34.5688 39.65 35.5289 39.4922 36.329 38.9664C36.4357 39.3345 36.329 39.5974 36.0623 39.8603C35.6889 40.1233 35.2088 40.281 34.7821 40.3336C33.8753 40.4914 32.9686 40.4914 32.0618 40.2284C31.6884 40.1233 31.315 40.0181 31.0483 39.7026C30.8883 39.5974 30.835 39.4396 30.835 39.2293C30.835 39.1767 30.835 39.0715 30.835 38.9138Z" fill="white"/>
<path d="M30.835 40.0707C31.6884 40.6492 32.6485 40.8069 33.6086 40.8069C34.5688 40.8069 35.5289 40.6492 36.3823 40.0707C36.3823 40.2811 36.3823 40.4388 36.3823 40.6492C36.3823 40.6492 36.329 40.7018 36.2756 40.7018C35.6889 40.7544 35.1022 40.8595 34.5688 41.175C34.4087 41.2276 34.3021 41.3328 34.1954 41.438C34.0887 41.5432 33.982 41.5432 33.822 41.5432C33.1286 41.5432 32.3818 41.4906 31.7417 41.2276C31.5284 41.1751 31.3684 41.0699 31.2083 40.9647C30.995 40.8069 30.8883 40.6492 30.8883 40.3863C30.835 40.2811 30.835 40.1759 30.835 40.0707Z" fill="white"/>
<path d="M30.8359 41.2277C31.7427 41.8587 32.7562 41.9113 33.7696 41.9639C33.7696 42.2268 33.7696 42.4371 33.7696 42.7001C33.5563 42.7001 33.3429 42.7001 33.1829 42.7001C32.5961 42.6475 32.0094 42.5423 31.476 42.2794C31.4227 42.2794 31.3693 42.2268 31.316 42.2268C30.8893 41.9639 30.7826 41.7535 30.8359 41.2277Z" fill="white"/>
<path d="M33.7687 43.0681C33.7687 43.4362 33.7687 43.8043 33.7687 44.1724C33.3953 43.4362 32.6485 43.2258 31.9018 43.0681C31.5817 43.0155 31.2083 42.9629 30.835 42.9103C30.835 42.7526 30.835 42.5422 30.835 42.3319C31.6884 42.9629 32.7019 43.0681 33.7687 43.0681Z" fill="white"/>
<g clip-path="url(#clip0)">
<path d="M83.4727 29.5115L88.9455 21V32.4689H87.4529V26.0492L83.4727 32.2525L79.4926 26.0492V32.541H78V21L83.4727 29.5115Z" fill="#27306C"/>
<path d="M100.459 32.4689H98.8244L97.9715 30.5934H95.555H93.2095L92.3566 32.4689H90.793L95.626 21L100.459 32.4689ZM95.626 29.3672H97.474C97.1897 28.6459 96.8343 27.8525 96.55 27.059C96.2657 26.2656 95.9103 25.4721 95.626 24.7508C95.3417 25.4721 94.9864 26.2656 94.7021 27.059C94.4178 27.8525 94.0624 28.6459 93.7781 29.3672H95.626V29.3672Z" fill="#27306C"/>
<path d="M100.957 21.1443L103.018 25.1836L103.445 25.977L103.871 25.1836L105.932 21.1443H107.638L104.297 27.4918L104.226 27.7082V32.541H102.734V27.7082L102.663 27.4918L99.3223 21.1443H100.957Z" fill="#27306C"/>
<path d="M116.167 32.4689H114.532L113.679 30.5934H111.263H108.917L108.064 32.4689H106.43L111.334 21L116.167 32.4689ZM111.334 29.3672H113.182C112.897 28.6459 112.542 27.8525 112.258 27.059C111.973 26.2656 111.618 25.4721 111.334 24.7508C111.05 25.4721 110.694 26.2656 110.41 27.059C110.126 27.8525 109.77 28.6459 109.486 29.3672H111.334V29.3672Z" fill="#27306C"/>
<path d="M129.671 21.0721V22.5869H125.264H124.767V23.0918V25.5443V26.0492H125.264H128.463V27.5639H125.264H124.767V28.0689V30.5213V31.0262H125.264H129.671V32.541H125.264H123.274V21.0721H129.671Z" fill="#27306C"/>
<path d="M134.576 21.1443C135.286 21.2164 135.926 21.3607 136.495 21.577C137.205 21.8656 137.774 22.2984 138.342 22.8033C138.911 23.3082 139.266 23.8852 139.48 24.6066C139.693 25.3279 139.835 26.0492 139.835 26.7705C139.835 27.4918 139.693 28.2852 139.48 28.9344C139.266 29.6557 138.84 30.2328 138.342 30.7377C137.774 31.2426 137.205 31.6754 136.495 31.9639C135.784 32.2525 135.073 32.3967 134.22 32.3967H131.448V21.1443H134.22H134.576ZM134.291 30.9541C134.86 30.9541 135.428 30.882 135.926 30.6656C136.423 30.4492 136.85 30.1607 137.276 29.8C137.632 29.4393 137.916 28.9344 138.129 28.4295C138.342 27.9246 138.414 27.3475 138.414 26.7705C138.414 26.1934 138.342 25.6164 138.129 25.1115C137.916 24.6066 137.632 24.1738 137.276 23.741C136.921 23.3803 136.423 23.0918 135.926 22.8754C135.428 22.659 134.86 22.5869 134.291 22.5869H133.509H133.012V23.0918V30.5213V31.0262H133.509H134.291V30.9541Z" fill="#27306C"/>
<path d="M150.567 21.1443V25.6164V28.141C150.567 28.7902 150.496 29.3672 150.283 29.8721C150.07 30.377 149.714 30.882 149.288 31.3147C148.861 31.7475 148.364 32.1082 147.866 32.3246C147.369 32.541 146.8 32.6852 146.161 32.6852C145.521 32.6852 144.952 32.6131 144.455 32.3967C143.886 32.1803 143.46 31.8197 143.033 31.3869C142.607 30.9541 142.251 30.4492 142.038 29.9443C141.825 29.4393 141.754 28.8623 141.754 28.2131V25.6164V21.1443H143.246V25.6164V27.8525V28.141C143.246 28.5738 143.318 28.9344 143.46 29.2951C143.602 29.6557 143.815 29.9443 144.099 30.2328C144.384 30.5213 144.668 30.7377 145.023 30.882C145.379 31.0262 145.734 31.0984 146.161 31.0984C146.516 31.0984 146.942 31.0262 147.298 30.882C147.653 30.7377 147.937 30.5213 148.222 30.2328C148.506 29.9443 148.719 29.6557 148.861 29.2951C149.003 28.9344 149.075 28.5738 149.075 28.141V27.8525V25.6164V21.1443H150.567Z" fill="#27306C"/>
<path d="M158.101 21.0721C158.456 21.0721 158.883 21.0721 159.238 21.1443C159.594 21.2164 159.949 21.3607 160.304 21.5049C160.66 21.6492 161.015 21.8656 161.299 22.082C161.513 22.2262 161.655 22.2984 161.797 22.4426L160.731 23.5246C160.446 23.2361 160.091 23.0918 159.736 22.8754C159.238 22.659 158.741 22.5869 158.172 22.5869C157.603 22.5869 157.106 22.659 156.608 22.8754C156.111 23.0918 155.684 23.3803 155.258 23.8131C154.832 24.2459 154.547 24.6787 154.334 25.1836C154.121 25.6885 154.05 26.1935 154.05 26.7705C154.05 27.3476 154.121 27.9246 154.334 28.4295C154.547 28.9344 154.832 29.3672 155.258 29.8C155.613 30.2328 156.111 30.5213 156.608 30.7377C157.106 30.9541 157.675 31.0262 158.172 31.0262C158.67 31.0262 159.238 30.9541 159.807 30.7377C160.162 30.5935 160.518 30.3771 160.802 30.1607L161.868 31.2426C161.726 31.3869 161.584 31.5312 161.37 31.6033C161.086 31.8197 160.731 32.0361 160.375 32.1803C160.02 32.3246 159.665 32.4689 159.309 32.541C158.954 32.6131 158.599 32.6853 158.172 32.6853C157.39 32.6853 156.68 32.541 155.969 32.2525C155.258 31.9639 154.689 31.5312 154.121 30.9541C153.552 30.3771 153.126 29.7279 152.841 29.0787C152.557 28.4295 152.415 27.7082 152.415 26.8426C152.415 26.0492 152.557 25.3279 152.841 24.6066C153.126 23.9574 153.552 23.3082 154.121 22.7312C154.689 22.1541 155.329 21.7213 155.969 21.4328C156.466 21.2164 156.964 21.0721 157.532 21.0721H158.101V21.0721Z" fill="#27306C"/>
<path d="M172.813 32.4689H171.179L170.326 30.5934H167.909H165.564L164.711 32.4689H163.076L167.98 21L172.813 32.4689ZM167.98 29.3672H169.828C169.544 28.6459 169.189 27.8525 168.904 27.059C168.62 26.2656 168.265 25.4721 167.98 24.7508C167.696 25.4721 167.341 26.2656 167.056 27.059C166.772 27.8525 166.417 28.6459 166.132 29.3672H167.98V29.3672Z" fill="#27306C"/>
<path d="M177.291 21.1443H179.778V22.659H177.291H176.793V23.1639V32.541H175.301V23.1639V22.659H174.803H172.315V21.1443H174.803H177.291Z" fill="#27306C"/>
<path d="M181.627 21.1443H183.119V32.541H181.627V21.1443Z" fill="#27306C"/>
<path d="M192.786 21.4328C193.425 21.7213 194.065 22.1541 194.633 22.7311C195.202 23.3082 195.628 23.9574 195.913 24.6066C196.197 25.3279 196.339 26.0492 196.339 26.8426C196.339 27.6361 196.197 28.3574 195.913 29.0787C195.628 29.7279 195.202 30.377 194.633 30.9541C194.065 31.5311 193.496 31.9639 192.786 32.2525C192.075 32.541 191.364 32.6852 190.582 32.6852C189.8 32.6852 189.09 32.541 188.379 32.2525C187.668 31.9639 187.1 31.5311 186.531 30.9541C185.962 30.377 185.536 29.7279 185.252 29.0787C184.967 28.4295 184.825 27.7082 184.825 26.8426C184.825 26.0492 184.967 25.3279 185.252 24.6066C185.536 23.9574 185.962 23.3082 186.531 22.7311C187.1 22.1541 187.739 21.7213 188.379 21.4328C189.019 21.1443 189.729 21 190.582 21C191.435 21 192.146 21.1443 192.786 21.4328ZM189.019 22.8754C188.521 23.0918 188.095 23.3803 187.668 23.8131C187.242 24.2459 186.957 24.6787 186.744 25.1836C186.531 25.6885 186.46 26.1934 186.46 26.7705C186.46 27.3475 186.531 27.9246 186.744 28.3574C186.957 28.8623 187.242 29.2951 187.668 29.7279C188.024 30.1607 188.521 30.4492 189.019 30.6656C189.516 30.882 190.085 30.9541 190.653 30.9541C191.222 30.9541 191.719 30.882 192.217 30.6656C192.714 30.4492 193.141 30.1607 193.567 29.7279C193.994 29.2951 194.278 28.8623 194.491 28.3574C194.705 27.8525 194.776 27.3475 194.776 26.7705C194.776 26.1934 194.705 25.6885 194.491 25.1836C194.278 24.6787 193.994 24.2459 193.567 23.8131C193.141 23.3803 192.714 23.0918 192.217 22.8754C191.719 22.659 191.222 22.5869 190.653 22.5869C190.085 22.5869 189.516 22.659 189.019 22.8754Z" fill="#27306C"/>
<path d="M205.507 28.7902V27.4918V21.0721H207V32.6852L199.679 24.7508V25.6164V32.541H198.187V21L205.507 28.7902Z" fill="#27306C"/>
<path d="M78 36.8689H81.5537V37.3017H78.4975V39.682H81.0562V40.1148H78.4975V42.423H81.7669V42.8558H78V36.8689Z" fill="#27306C"/>
<path d="M86.4577 36.6525V42.9279H86.0313V42.1344C85.747 42.6393 85.1784 43 84.4676 43C83.4015 43 82.4775 42.2066 82.4775 40.9082C82.4775 39.682 83.3304 38.7443 84.4676 38.7443C85.1073 38.7443 85.6759 39.0328 86.0313 39.6098V36.6525H86.4577V36.6525ZM86.0313 40.9082C86.0313 39.9705 85.3916 39.1771 84.4676 39.1771C83.6147 39.1771 82.904 39.8262 82.904 40.9082C82.904 41.8459 83.5437 42.5672 84.4676 42.5672C85.3205 42.5672 86.0313 41.918 86.0313 40.9082Z" fill="#27306C"/>
<path d="M91.0778 38.8164V43H90.6514V42.2066C90.296 42.7115 89.7985 43 89.2299 43C88.3059 43 87.7373 42.423 87.7373 41.2689V38.8164H88.1638V41.1967C88.1638 42.2787 88.5902 42.6394 89.3009 42.6394C90.0117 42.6394 90.6514 41.9902 90.6514 40.9082V38.8885H91.0778V38.8164Z" fill="#27306C"/>
<path d="M92.1436 40.9082C92.1436 39.682 92.9964 38.8164 94.1336 38.8164C94.7022 38.8164 95.3419 39.0328 95.6973 39.5377L95.413 39.7541C95.1287 39.3935 94.7022 39.1771 94.1336 39.1771C93.2097 39.1771 92.57 39.8984 92.57 40.8361C92.57 41.8459 93.2097 42.4951 94.1336 42.4951C94.6312 42.4951 95.1287 42.2787 95.413 41.918L95.6973 42.2066C95.3419 42.5672 94.7733 42.8558 94.0626 42.8558C92.9964 43 92.1436 42.1344 92.1436 40.9082Z" fill="#27306C"/>
<path d="M100.46 38.8164V43H100.033V42.2066C99.6778 42.7115 99.1803 43.0721 98.4696 43.0721C97.4035 43.0721 96.4795 42.2787 96.4795 40.9803C96.4795 39.7541 97.3324 38.8164 98.4696 38.8164C99.1092 38.8164 99.6778 39.1049 100.033 39.682V38.8885H100.46V38.8164ZM100.033 40.9082C100.033 39.9705 99.3935 39.1771 98.4696 39.1771C97.6167 39.1771 96.9059 39.8262 96.9059 40.9082C96.9059 41.8459 97.5456 42.5672 98.4696 42.5672C99.3225 42.5672 100.033 41.918 100.033 40.9082Z" fill="#27306C"/>
<path d="M101.952 41.7738V39.1771H101.384V38.7443H101.952V37.3017L102.379 37.2295V38.7443H103.871V39.1771H102.379V41.6295C102.379 42.2066 102.521 42.4951 102.947 42.4951C103.232 42.4951 103.516 42.3508 103.729 42.2787L103.871 42.7115C103.658 42.8558 103.374 43 102.947 43C102.166 43 101.952 42.5672 101.952 41.7738Z" fill="#27306C"/>
<path d="M104.724 37.518C104.724 37.3016 104.866 37.1574 105.079 37.1574C105.292 37.1574 105.434 37.3016 105.434 37.518C105.434 37.7344 105.292 37.8787 105.079 37.8787C104.937 37.9508 104.724 37.7344 104.724 37.518ZM104.866 38.8164H105.292V43H104.866V38.8164Z" fill="#27306C"/>
<path d="M106.501 40.9082C106.501 39.7541 107.354 38.8164 108.562 38.8164C109.77 38.8164 110.623 39.682 110.623 40.9082C110.623 42.1344 109.699 43 108.562 43C107.283 43 106.501 42.0623 106.501 40.9082ZM108.562 42.5672C109.486 42.5672 110.197 41.918 110.197 40.9082C110.197 39.8984 109.486 39.1771 108.562 39.1771C107.567 39.1771 106.927 39.9705 106.927 40.9082C106.927 41.7738 107.567 42.5672 108.562 42.5672Z" fill="#27306C"/>
<path d="M115.172 40.4754V42.9279H114.746V40.5475C114.746 39.4656 114.248 39.177 113.68 39.177C112.756 39.177 112.187 39.8262 112.187 40.9082V43H111.761V38.8164H112.187V39.6098C112.543 39.0328 113.111 38.7443 113.751 38.7443C114.604 38.7443 115.172 39.2492 115.172 40.4754Z" fill="#27306C"/>
<path d="M118.939 36.8689H122.635V37.3017H119.366V39.7541H122.138V40.1869H119.366V42.9279H118.868V36.8689H118.939Z" fill="#27306C"/>
<path d="M123.062 40.9082C123.062 39.7541 123.914 38.8164 125.123 38.8164C126.331 38.8164 127.184 39.682 127.184 40.9082C127.184 42.1344 126.26 43 125.123 43C123.914 43 123.062 42.0623 123.062 40.9082ZM125.123 42.5672C126.047 42.5672 126.757 41.918 126.757 40.9082C126.757 39.8984 126.047 39.1771 125.123 39.1771C124.128 39.1771 123.488 39.9705 123.488 40.9082C123.488 41.7738 124.199 42.5672 125.123 42.5672Z" fill="#27306C"/>
<path d="M130.381 38.7443V39.2492C130.31 39.2492 130.168 39.2492 130.097 39.2492C129.244 39.2492 128.747 39.9705 128.747 40.9082V42.9279H128.32V38.7443H128.747V39.5377C129.031 39.0328 129.529 38.6721 130.168 38.6721C130.239 38.7443 130.31 38.7443 130.381 38.7443Z" fill="#27306C"/>
<path d="M133.651 36.8689H135.713C137.063 36.8689 137.632 37.6623 137.632 38.6721C137.632 39.9705 136.779 40.4754 135.57 40.4754H134.149V42.9279H133.651V36.8689ZM135.57 40.0426C136.708 40.0426 137.134 39.4656 137.134 38.6721C137.134 37.8066 136.565 37.3017 135.713 37.3017H134.149V39.9705H135.57V40.0426Z" fill="#27306C"/>
<path d="M142.109 40.9803H138.839C138.91 41.918 139.479 42.5672 140.403 42.5672C140.972 42.5672 141.398 42.2787 141.682 41.918L141.967 42.2066C141.611 42.6394 141.114 43 140.332 43C139.195 43 138.342 42.1344 138.342 40.9082C138.342 39.682 139.195 38.8164 140.261 38.8164C141.398 38.8164 142.109 39.682 142.109 40.8361C142.109 40.8361 142.109 40.9803 142.109 40.9803ZM138.768 40.5476H141.611C141.54 39.7541 141.043 39.1771 140.261 39.1771C139.55 39.1771 138.91 39.7541 138.768 40.5476Z" fill="#27306C"/>
<path d="M146.871 38.8164V43H146.444V42.2066C146.089 42.7115 145.591 43.0721 144.881 43.0721C143.815 43.0721 142.891 42.2787 142.891 40.9803C142.891 39.7541 143.744 38.8164 144.881 38.8164C145.52 38.8164 146.089 39.1049 146.444 39.682V38.8885H146.871V38.8164ZM146.444 40.9082C146.444 39.9705 145.805 39.1771 144.881 39.1771C144.028 39.1771 143.317 39.8262 143.317 40.9082C143.317 41.8459 143.957 42.5672 144.881 42.5672C145.734 42.5672 146.444 41.918 146.444 40.9082Z" fill="#27306C"/>
<path d="M147.938 40.9082C147.938 39.682 148.79 38.8164 149.928 38.8164C150.496 38.8164 151.136 39.0328 151.491 39.5377L151.207 39.7541C150.923 39.3935 150.496 39.1771 149.928 39.1771C149.004 39.1771 148.364 39.8984 148.364 40.8361C148.364 41.8459 149.004 42.4951 149.928 42.4951C150.425 42.4951 150.923 42.2787 151.207 41.918L151.491 42.2066C151.136 42.5672 150.567 42.8558 149.857 42.8558C148.719 43 147.938 42.1344 147.938 40.9082Z" fill="#27306C"/>
<path d="M156.039 40.9803H152.77C152.841 41.918 153.41 42.5672 154.334 42.5672C154.902 42.5672 155.329 42.2787 155.613 41.918L155.897 42.2066C155.542 42.6394 155.044 43 154.263 43C153.125 43 152.272 42.1344 152.272 40.9082C152.272 39.682 153.125 38.8164 154.191 38.8164C155.329 38.8164 156.039 39.682 156.039 40.8361C156.039 40.8361 156.039 40.9803 156.039 40.9803ZM152.77 40.5476H155.613C155.542 39.7541 155.044 39.1771 154.263 39.1771C153.481 39.1771 152.912 39.7541 152.77 40.5476Z" fill="#27306C"/>
</g>
<defs>
<clipPath id="clip0">
<rect width="129" height="22" fill="white" transform="translate(78 21)"/>
</clipPath>
</defs>
</svg>
