<svg width="21" height="22" viewBox="0 0 21 22" fill="none" xmlns="http://www.w3.org/2000/svg">
<path fill-rule="evenodd" clip-rule="evenodd" d="M15.86 22L15.7684 21.999C14.0728 21.9116 12.3719 21.3393 10.5553 20.2479C7.30131 18.2943 4.50275 15.4952 2.23702 11.9295C1.00808 9.99525 0.290345 8.09883 0.0424273 6.13239C-0.120553 4.84082 0.183468 3.87798 0.998681 3.10186C1.54748 2.57886 2.0803 2.00786 2.59589 1.45494C2.85321 1.17914 3.11053 0.90334 3.37161 0.631483C3.77373 0.212357 4.18181 0 4.58518 0C4.95345 0 5.48377 0.180142 5.91942 1.03976C6.61742 2.41548 7.31071 3.79449 8.00087 5.17481C8.42994 6.03311 8.32839 6.79346 7.69089 7.49792C7.41947 7.79804 7.15149 8.09028 6.86032 8.36477C6.73777 8.48048 6.75313 8.51236 6.78416 8.57581C6.86157 8.73491 6.93617 8.89665 7.01076 9.05805C7.21856 9.50873 7.41508 9.93443 7.6724 10.3016C8.96276 12.1448 10.3531 13.5152 11.923 14.4916C12.2782 14.7118 12.6088 14.91 12.7574 14.91C12.889 14.91 13.1576 14.6346 13.4952 14.2739C14.1067 13.6208 14.5896 13.1583 15.2381 13.1583C15.6945 13.1583 16.1496 13.3867 16.8297 13.8085L20.0216 15.7858C20.1128 15.8416 20.2037 15.8982 20.2902 15.9613C20.8252 16.3558 20.9687 16.8042 20.9951 17.1109C21.0208 17.4126 20.9581 17.8719 20.5133 18.3442C19.4856 19.4369 18.4554 20.4967 17.6731 21.2985C17.2061 21.7771 16.6297 22 15.86 22ZM4.62244 1C4.48134 1 4.28699 1.12212 4.07519 1.34403C3.81886 1.61256 3.56626 1.88502 3.31335 2.15716C2.79165 2.71916 2.25219 3.3002 1.68626 3.84185C1.10819 4.39499 0.913209 5.04366 1.03437 6.01009C1.26174 7.82117 1.9264 9.57842 3.06636 11.3819C5.23696 14.815 7.91274 17.5062 11.0193 19.3806C12.694 20.3911 14.2473 20.9206 15.7685 20.9997L15.8267 21C16.3459 21 16.6895 20.8743 16.9757 20.5795C17.7503 19.7821 18.7698 18.7277 19.7861 17.6424C19.8913 17.5302 20.0134 17.3604 19.9988 17.1907C19.987 17.0509 19.8783 16.8982 19.6926 16.761C19.6285 16.7137 19.5596 16.6721 19.4908 16.6297L16.3151 14.6522C15.8074 14.3364 15.4452 14.1401 15.2088 14.1401C14.9802 14.1401 14.7214 14.339 14.1433 14.9595C13.6403 15.4991 13.2771 15.8895 12.7436 15.8895C12.3555 15.8895 11.9914 15.6794 11.4379 15.3337C9.76751 14.2898 8.29553 12.8349 6.93724 10.8856C6.63107 10.4464 6.40775 9.95987 6.1919 9.48978C6.12058 9.33484 6.04957 9.17956 5.97544 9.02757C5.73872 8.53845 5.84182 8.0316 6.25856 7.63603C6.52268 7.38588 6.77465 7.10981 7.03099 6.82519C7.39104 6.42503 7.43091 6.12597 7.18921 5.6398C6.5043 4.26336 5.81628 2.88822 5.12358 1.51572C5.02609 1.32302 4.83174 1 4.62244 1Z" fill="#A1BF46"/>
</svg>
