<svg width="77" height="77" viewBox="0 0 77 77" fill="none" xmlns="http://www.w3.org/2000/svg">
<path d="M28.1421 52C24.9154 52 22.4954 51.7779 20.2771 50.6677C19.4704 50.2236 18.6638 49.7795 18.0588 49.3354C16.6471 48.2251 16.6471 46.6708 18.0588 45.5605C19.2688 44.6723 20.4788 44.0062 21.8904 43.7841C26.1254 42.6739 30.3604 42.6739 34.5954 44.2283C35.4021 44.4503 36.2088 45.1164 37.0154 45.5605C38.4271 46.6708 38.2254 48.0031 37.0154 49.1133C35.6038 50.2236 33.9904 50.8897 32.3771 51.3338C30.5621 51.7779 28.9488 51.778 28.1421 52Z" fill="#A1BF46"/>
<path d="M38.5 23C35.6731 23 33.0481 22.6686 30.4231 21.6744C29.8173 21.343 29.2115 21.0116 28.6058 20.5145C27.7981 19.8517 27.7981 19.1889 28.6058 18.5262C29.2115 18.0291 30.0192 17.532 30.8269 17.2006C33.8558 16.2064 36.8846 15.875 40.1154 16.0407C42.5385 16.2064 44.7596 16.5378 46.7788 17.3663C47.3846 17.6977 47.9904 18.0291 48.3942 18.3605C49.2019 19.0232 49.2019 19.686 48.3942 20.3488C47.7885 20.8459 47.1827 21.1773 46.375 21.5087C44.1538 22.8343 41.3269 23 38.5 23Z" fill="#A1BF46"/>
<path d="M50.313 43C47.5364 43 44.9582 42.6445 42.5783 41.7558C41.7849 41.4003 41.19 41.0448 40.595 40.5116C39.8017 39.8006 39.8017 39.2674 40.595 38.5564C41.5866 37.6676 42.7766 37.1344 44.1649 36.7789C48.5281 35.7124 53.0896 35.7124 57.4528 36.9567C58.4445 37.3122 59.6344 37.6676 60.4277 38.5564C61.2211 39.4451 61.221 40.1561 60.2294 40.8671C59.0394 41.7558 57.6511 42.289 56.0645 42.6445C53.8829 42.6445 52.098 42.8223 50.313 43Z" fill="#A1BF46"/>
<path d="M37.8559 49C38.2553 51.1131 37.8559 51.9584 36.2584 53.015C34.6608 54.0715 32.8635 54.4941 31.0662 54.7055C28.2705 55.1281 25.4747 55.1281 22.6789 54.4941C21.281 54.2828 19.8831 53.6489 18.6849 53.015C16.8877 51.9584 16.8877 51.1131 17.0874 49.2113C20.2825 51.5358 23.6774 51.9584 27.4717 51.9584C31.0662 51.9584 34.6608 51.3244 37.8559 49Z" fill="#A1BF46"/>
<path d="M60.908 49C61.1106 51.0915 61.1106 51.719 59.4897 52.7647C57.8688 53.8105 56.0453 54.2288 54.2217 54.6471C50.7773 55.2745 47.3329 55.0654 43.8885 54.0196C43.078 53.8105 42.2676 53.3922 41.4571 52.7647C40.444 52.1373 39.8362 51.3007 40.0388 50.0458C40.0388 49.8366 40.0388 49.4183 40.0388 49C43.2806 51.3007 46.9277 51.9281 50.5747 51.9281C54.2217 51.9281 57.8688 51.3007 60.908 49Z" fill="#A1BF46"/>
<path d="M40.0048 45C43.2421 47.7018 46.6817 48.193 50.526 48.193C54.168 48.193 57.81 47.4561 60.8449 45C61.2496 46.7193 60.8449 47.9474 59.8333 49.1754C58.2146 50.6491 56.3936 51.1403 54.5726 51.6316C51.74 52.1228 49.1097 52.1228 46.2771 51.6316C44.8607 51.386 43.2421 50.6491 42.0281 49.9123C39.8025 48.193 40.0048 47.4561 40.0048 45Z" fill="#A1BF46"/>
<path d="M40.0386 40C44.6758 43.1263 55.9665 43.3 60.8053 40C61.2085 41.0421 61.0069 42.0842 59.9988 42.779C58.5875 43.6474 56.9745 44.1684 55.3616 44.5158C51.5309 45.2106 47.7001 45.2105 44.071 44.1684C43.0629 43.9947 42.2564 43.4737 41.45 43.1263C40.4419 42.6053 39.837 41.9105 40.0386 40.8684C40.0386 40.5211 40.0386 40.3474 40.0386 40Z" fill="#A1BF46"/>
<path d="M38 53C38 53.7394 38 54.4789 38 55.2183C38 56.2042 37.3957 56.6972 36.7914 57.1901C35.3813 58.4225 33.7698 59.162 31.9568 59.4085C28.1295 60.3944 24.3022 60.1479 20.4748 58.669C19.6691 58.4225 18.8633 57.9296 18.259 57.1901C17.2518 56.4507 16.8489 55.2183 17.0504 53C20.2734 55.7113 23.6978 56.2042 27.5252 56.2042C31.1511 56.2042 34.777 55.7113 38 53Z" fill="#A1BF46"/>
<path d="M28.0393 23C31.282 24.9007 34.9301 25.4191 38.5781 25.4191C42.2262 25.4191 45.8743 24.9007 48.9143 23.1728C49.117 24.9007 49.117 25.4191 47.0903 26.4559C45.2662 27.3199 43.4422 27.6655 41.4155 27.8382C37.9701 28.1838 34.5247 28.011 31.282 26.9743C30.4713 26.8015 29.8633 26.4559 29.2553 26.1103C28.4446 25.5919 27.8366 25.0735 28.0393 24.0368C28.0393 23.5184 28.0393 23.3456 28.0393 23Z" fill="#A1BF46"/>
<path d="M40.0388 53C43.2755 55.6709 46.9168 56.3994 50.5581 56.3994C54.1994 56.3994 57.8407 55.6709 60.8752 53.2428C61.2798 54.9425 60.6729 56.6422 59.4591 57.3706C55.6155 60.0416 51.5696 60.2844 47.3214 59.7988C45.5007 59.556 43.8824 59.0703 42.264 58.0991C42.0617 57.8563 41.8594 57.8563 41.4548 57.6134C40.4433 56.885 39.8365 55.9138 40.0388 54.2141C40.0388 53.7284 40.0388 53.4856 40.0388 53Z" fill="#A1BF46"/>
<path d="M28 27C31.238 28.5148 34.8808 28.9279 38.5236 28.9279C42.1664 28.9279 45.8092 28.5148 48.8449 27.1377C49.2497 28.1016 48.8449 28.7902 47.833 29.4787C46.4164 30.1672 44.595 30.5804 42.9759 30.7181C39.5355 31.1312 36.0951 31.1312 32.6547 30.4427C31.238 30.1672 29.8214 29.8918 28.8095 29.0656C28.2024 28.7902 28 28.3771 28 27.8262C28 27.6885 28 27.4131 28 27Z" fill="#A1BF46"/>
<path d="M28 31C31.2308 33.3571 34.8654 34 38.5 34C42.1346 34 45.7692 33.3571 49 31C49 31.8571 49 32.5 49 33.3571C49 33.3571 48.7981 33.5714 48.5962 33.5714C46.375 33.7857 44.1539 34.2143 42.1346 35.5C41.5289 35.7143 41.125 36.1428 40.7212 36.5714C40.3173 37 39.9135 37 39.3077 37C36.6827 37 33.8558 36.7857 31.4327 35.7143C30.625 35.5 30.0192 35.0714 29.4135 34.6429C28.6058 34 28.2019 33.3571 28.2019 32.2857C28 31.8571 28 31.4286 28 31Z" fill="#A1BF46"/>
<path d="M28.043 36C31.1206 37.7143 34.5603 37.8571 38 38C38 38.7143 38 39.2857 38 40C37.2759 40 36.5517 40 36.0086 40C34.0172 39.8571 32.0258 39.5714 30.2154 38.8571C30.0344 38.8571 29.8534 38.7143 29.6723 38.7143C28.2241 38 27.862 37.4286 28.043 36Z" fill="#A1BF46"/>
<path d="M38 41.4C38 42.6 38 43.8 38 45C36.7273 42.6 34.1818 41.9143 31.6364 41.4C30.5455 41.2286 29.2727 41.0571 28 40.8857C28 40.3714 28 39.6857 28 39C30.9091 41.0571 34.3636 41.4 38 41.4Z" fill="#A1BF46"/>
<circle cx="38.5" cy="38.5" r="38" stroke="#A1BF46"/>
</svg>
