<svg width="126" height="124" viewBox="0 0 126 124" fill="none" xmlns="http://www.w3.org/2000/svg">
<path d="M0 105.458V4C0 1.79086 1.79086 0 4 0H122C124.209 0 126 1.79086 126 4V105.458C126 107.667 124.209 109.458 122 109.458H73.794C72.399 109.458 71.1047 110.185 70.3786 111.376L65.9822 118.588C64.4516 121.099 60.8258 121.156 59.2178 118.694L54.3698 111.271C53.6312 110.14 52.3716 109.458 51.0208 109.458H4C1.79086 109.458 0 107.667 0 105.458Z" fill="#A1BF46"/>
<g clip-path="url(#clip0)">
<path d="M30.9624 70.5303C30.9182 70.5303 30.9182 70.5303 30.9624 70.5303C30.6534 70.4865 30.3886 70.4426 30.1237 70.4426C29.8589 70.4426 29.55 70.4865 29.3293 70.5742C28.7114 70.6619 28.1376 70.9252 27.6521 71.32C27.1665 71.7587 26.7693 72.329 26.4162 73.031C26.1073 73.7329 25.8866 74.4787 25.7983 75.1368L25.7542 75.4H26.2838H26.4604L26.5045 75.2245C26.6369 74.6981 26.8134 74.3032 27.0341 73.9523C27.299 73.6452 27.6079 73.3819 27.961 73.2503C28.3141 73.1187 28.6231 73.0749 28.932 73.0749C28.9762 73.0749 29.0203 73.0749 29.1086 73.0749C29.6382 73.1187 30.0355 73.2942 30.3003 73.5136C30.6093 73.7329 30.8299 74.0839 30.9624 74.5226C31.0506 74.8297 31.0948 75.0929 31.0948 75.3561C31.0948 75.5316 31.0948 75.7071 31.0506 75.8387C30.8741 76.8916 30.4768 77.8129 29.9913 78.471C29.4617 79.1729 28.7996 79.6994 27.9169 80.0065C27.2548 80.2697 26.5928 80.4013 25.9748 80.4013C25.7983 80.4013 25.6217 80.4013 25.4893 80.3574H22.2673V58.5536C22.2673 57.5007 22.0908 56.5794 21.7818 55.8336C21.4728 55.0878 20.9873 54.5174 20.3253 54.0787L20.237 54.0349L20.1487 54.0787C19.9722 54.1665 19.7515 54.2542 19.3984 54.4736C19.0894 54.6929 18.648 54.9561 18.1625 55.3071C17.4122 55.8336 16.7501 56.1407 16.2646 56.1407H16.0439V56.36V56.6671V56.8865L16.2646 56.8426C16.397 56.8426 16.5295 56.8426 16.6619 56.8426C17.1474 56.8426 17.5446 56.9303 17.8536 57.1058C18.1625 57.2813 18.4274 57.5007 18.648 57.8516C18.9129 58.2465 19.0011 58.6413 19.0453 59.0361L18.8687 77.5936C18.8687 78.2516 18.7805 78.8219 18.648 79.2607C18.5156 79.6994 18.2949 80.0065 17.986 80.2258C17.7212 80.4013 17.5005 80.489 17.2357 80.489H17.1474H16.1764V81.3665H28.8879H28.9762C29.1969 81.3665 29.3293 81.4103 29.3734 81.4542C29.4176 81.4981 29.4617 81.542 29.4617 81.6736C29.4176 81.8052 29.3734 81.9368 29.3734 81.9807C29.3293 82.0245 29.3293 82.0245 29.2851 82.0245H29.1969L29.0203 82.4194C29.3293 82.5949 29.5941 82.7265 29.9031 82.7265C30.1679 82.7265 30.4327 82.6387 30.6534 82.4632C30.8741 82.2878 31.0506 82.0684 31.1389 81.8052C31.2272 81.542 31.2713 81.3226 31.2713 81.1032C31.2713 80.7084 31.0948 80.3574 30.7858 80.1381C30.6975 80.0942 30.6093 80.0503 30.4768 80.0065C32.5513 78.6903 33.7871 77.0671 34.052 75.2245C34.0961 74.9174 34.0961 74.6542 34.0961 74.391C34.0961 73.7768 33.9637 73.2065 33.6989 72.7239C33.1251 71.4955 32.1982 70.7497 30.9624 70.5303Z" fill="white"/>
<path d="M46.1458 56.5794C46.543 56.1845 46.852 55.7897 47.0727 55.351C47.1168 55.2194 47.2051 55.0878 47.2051 55.0439C47.2051 55 47.2492 54.9561 47.2492 54.9561C47.2492 54.9123 47.2492 54.9123 47.2934 54.8245C47.2934 54.7807 47.2934 54.7807 47.2492 54.6929L47.161 54.6052L47.0727 54.5613C47.0727 54.5613 47.0286 54.5174 46.9844 54.5174C46.7637 54.3858 46.3665 54.0349 45.7486 53.5961C45.3072 53.2891 44.9982 53.0258 44.7776 52.8503C44.6451 52.7626 44.5569 52.7187 44.5127 52.6749L44.4245 52.5871L44.3803 52.5432C44.3803 52.5432 44.3362 52.5432 44.292 52.5432C44.2479 52.5432 44.2038 52.5432 44.1596 52.5871C44.1155 52.631 44.0714 52.6749 44.0714 52.7187C43.8948 54.2542 43.2327 55.702 42.0852 57.1058C41.7321 57.5007 41.3348 57.9394 40.8935 58.2903L39.79 59.2555L40.5845 59.08C43.0121 58.6852 44.91 57.8078 46.1458 56.5794Z" fill="white"/>
<path d="M49.2349 80.4013C49.1025 80.3135 49.0142 80.2258 48.926 80.0064C48.8377 79.7871 48.7936 79.48 48.7936 79.129V63.511C48.7936 63.4671 48.7936 63.4232 48.7936 63.3355C48.7936 62.809 48.6611 62.3264 48.4405 61.8C48.1756 61.1858 47.7343 60.7032 47.2046 60.3522C46.675 60.0013 46.0129 59.7819 45.2184 59.6503C44.8212 59.6064 44.424 59.6064 44.0709 59.6064C42.7026 59.6064 41.4226 59.9135 40.2309 60.4839C39.7013 60.8787 39.2158 61.0981 38.9068 61.0981C38.6861 61.0981 38.5537 61.0542 38.3772 60.8787H38.333C38.2006 60.791 38.1565 60.7471 38.0682 60.6593C38.0241 60.5716 37.9799 60.5277 37.9799 60.44C37.9799 60.3084 38.0682 60.1329 38.2447 59.9135L38.3772 59.7819L38.1565 59.5187L38.0682 59.3871L37.9358 59.431C37.5385 59.5187 37.2296 59.7381 37.0089 60.0451C36.7882 60.3522 36.6558 60.7032 36.6558 61.1858C36.6558 61.2297 36.6558 61.2735 36.6558 61.3174C36.6558 61.5368 36.6999 61.7561 36.8323 61.9316C36.9206 62.151 37.0972 62.3264 37.3179 62.4142C37.4503 62.5019 37.6268 62.5019 37.8034 62.5458C36.6117 63.6864 35.9937 64.9587 35.8613 66.3187C35.8613 66.4503 35.8613 66.5819 35.8613 66.6697C35.8613 67.0645 35.9055 67.4155 36.0379 67.8103C36.2144 68.3368 36.4793 68.8193 36.8323 69.1264C37.1854 69.4774 37.671 69.6968 38.2006 69.8284C38.3772 69.8722 38.5537 69.8722 38.7303 69.8722C39.0834 69.8722 39.4806 69.7845 39.8778 69.6529C40.4957 69.3897 41.0254 68.951 41.4226 68.3806C41.8199 67.7664 42.1288 67.0206 42.3054 66.0993V66.0555V66.0116C42.3054 65.9677 42.3054 65.9239 42.3054 65.88C42.3054 65.8361 42.2171 65.7484 42.173 65.7045C42.1288 65.6606 42.0406 65.6606 41.9964 65.6606C41.9523 65.6606 41.864 65.6606 41.7757 65.7045C41.6875 65.7484 41.6875 65.7922 41.6433 65.8361C41.5109 66.2748 41.2902 66.6258 41.0254 66.8013C40.7606 67.0206 40.4075 67.1084 39.9661 67.1084C39.8778 67.1084 39.8337 67.1084 39.7454 67.1084C39.4806 67.0645 39.1716 66.9768 38.9068 66.7574C38.5978 66.5381 38.4213 66.2748 38.2447 65.9239C38.1123 65.5729 38.0241 65.1781 38.0241 64.6955C38.0682 64.0813 38.2447 63.4671 38.642 62.809C39.4365 61.449 40.7606 60.6155 42.6585 60.3084C42.7467 60.3084 42.835 60.3084 42.9233 60.3084C43.3647 60.3084 43.806 60.3961 44.2474 60.6155C44.7771 60.8787 45.1743 61.2735 45.4391 61.7561C45.7039 62.2826 45.8364 62.9406 45.8364 63.7303V73.2503C45.3508 72.9871 44.7771 72.7677 44.1591 72.5484C43.4088 72.329 42.6585 72.1974 41.9523 72.1974C41.1137 72.1974 40.2751 72.3729 39.5247 72.68C38.9951 72.8555 38.4213 73.1626 37.8916 73.6451C36.9206 74.5226 36.4351 75.751 36.4351 77.2426C36.4351 77.3742 36.4351 77.4619 36.4351 77.5935C36.4793 78.2955 36.6999 78.9097 37.0972 79.6116C37.4944 80.2258 38.0241 80.7084 38.6861 81.0593C39.3482 81.3664 40.1426 81.5419 41.0254 81.5419C41.1137 81.5419 41.1578 81.5419 41.2461 81.5419C41.3785 81.5419 41.555 81.5858 41.6875 81.5858C42.7026 81.5858 43.806 81.191 44.9095 80.4451C45.3067 80.1381 45.6157 79.8748 45.8805 79.6993V81.1471H50.6915V81.1032V80.6645V80.4451H49.5439C49.4115 80.489 49.3232 80.4451 49.2349 80.4013ZM43.6295 80.3135C43.3205 80.4451 43.0557 80.489 42.7026 80.489C42.4819 80.489 42.3054 80.489 42.0847 80.4451C41.5109 80.3574 41.0695 80.0942 40.6723 79.6993C40.2751 79.3045 39.9661 78.7781 39.7454 78.0761C39.613 77.7252 39.5247 77.2864 39.5247 76.8477C39.5247 76.6722 39.5247 76.4968 39.5689 76.3651C39.613 75.7071 39.8337 75.1806 40.1426 74.6981C40.4516 74.2155 40.9371 73.8206 41.555 73.5135C41.9964 73.3381 42.4378 73.2503 42.8792 73.2503C43.806 73.2503 44.7771 73.6013 45.7922 74.3471V78.9535C45.2184 79.6116 44.5122 80.0942 43.6295 80.3135Z" fill="white"/>
<path d="M81.4114 59.1239C81.4114 58.3342 81.4556 57.72 81.5439 57.2374C81.6321 56.7548 81.7204 56.4039 81.8528 56.1845C82.0294 55.9652 82.2501 55.7897 82.559 55.6581C82.868 55.5265 83.2652 55.4826 83.7949 55.4826C83.9714 55.4826 84.148 55.4826 84.3245 55.5265H84.5452V54.6052H78.4984L72.2309 68.3368L67.2875 53.5084H67.111C66.2723 53.5523 65.4779 53.8594 64.6834 54.4736C63.8889 55.0877 63.0945 55.4826 62.3441 55.5703L62.1676 55.6142V56.0968V56.3161H63.6241H63.6682C63.7124 56.3161 63.8007 56.3161 63.8448 56.3161C64.0655 56.3161 64.1979 56.4039 64.3744 56.6232C64.5069 56.7987 64.5951 57.0181 64.7275 57.3252C64.6834 57.3252 64.6393 57.3252 64.5951 57.3252C64.3303 57.369 64.1096 57.4568 63.8889 57.6761C63.6682 57.8516 63.4476 58.1587 63.1827 58.5097C61.1083 61.7123 59.7842 66.7574 59.2104 73.6452C59.2104 74.04 59.1662 74.391 59.0338 74.7858C58.9455 75.1368 58.8131 75.3561 58.6366 75.4877C58.5042 75.6194 58.3276 75.7071 58.1069 75.7071C58.0628 75.7071 58.0187 75.7071 57.9745 75.7071C57.8421 75.6632 57.7538 75.6194 57.7097 75.6194C57.6656 75.5755 57.6656 75.5316 57.6656 75.4439C57.6656 75.3561 57.7097 75.1807 57.798 75.0052C57.798 74.9613 57.8421 74.9174 57.8421 74.8297C57.8421 74.7858 57.8421 74.6981 57.798 74.6542C57.7538 74.6103 57.6656 74.5665 57.6214 74.5665C57.489 74.5665 57.4449 74.6103 57.4007 74.6542C57.0476 74.9613 56.8711 75.4 56.8711 75.9265C56.8711 76.1897 56.9152 76.4968 57.0035 76.8039C57.1359 77.1987 57.4449 77.5058 57.7538 77.769C58.0628 78.0323 58.4159 78.12 58.769 78.12C59.078 78.12 59.4311 78.0323 59.7842 77.8129C59.8724 78.5148 60.0931 79.1729 60.4021 79.8748C60.7552 80.7084 61.2407 81.3226 61.8145 81.7613C62.3883 82.2 63.0503 82.4194 63.8007 82.4194C63.8889 82.4194 63.9772 82.4194 64.1096 82.4194C64.6393 82.4194 65.1689 82.2439 65.6544 81.9368C66.2723 81.5419 66.7137 80.9278 67.0668 80.1381C67.3316 79.4361 67.5082 78.5587 67.5523 77.5936C67.5965 77.5058 67.5965 77.4181 67.5965 77.3303C67.5965 77.2865 67.5965 77.2426 67.5965 77.1987C67.5965 77.1549 67.5523 77.111 67.5082 77.0671L67.1551 76.8039V77.2426C67.1551 77.3303 67.1551 77.4181 67.1551 77.5058C67.1551 77.5497 67.111 77.5936 67.111 77.6374C67.0227 77.8129 66.9344 78.0323 66.7579 78.2955C66.6254 78.5149 66.4489 78.6903 66.2282 78.7781C66.0075 78.8658 65.7868 78.9536 65.4779 78.9536C65.1689 78.9536 64.8158 78.9097 64.4186 78.7342C63.5358 78.2955 62.8296 77.4619 62.3441 76.1019C61.8586 74.7419 61.5497 72.8994 61.5055 70.5303C61.5055 70.2232 61.5055 69.9161 61.5055 69.609C61.5055 65.3536 62.3883 61.8 64.0655 58.9923C64.242 58.6852 64.4186 58.5097 64.551 58.3781C64.6834 58.2465 64.8158 58.2026 64.9041 58.2026C64.9924 58.2026 65.0806 58.2465 65.213 58.3781C65.2572 58.4219 65.3013 58.5536 65.3455 58.729C65.9192 60.1768 67.6406 65.2219 70.4654 73.8645L70.6419 74.391L77.748 58.8168L77.7039 77.9445C77.7039 77.9884 77.7039 78.0323 77.7039 78.0761C77.7039 78.4271 77.6156 78.7342 77.5274 79.0852C77.3949 79.48 77.2184 79.7432 76.9977 79.9626C76.777 80.1381 76.5122 80.2697 76.2032 80.3136C75.7619 80.3574 75.3646 80.3574 75.1439 80.3574H74.9233V81.2348H75.1439H83.7507L83.839 80.3136H81.4556L81.4114 59.1239Z" fill="white"/>
<path d="M90.4159 57.5884C90.8131 57.369 91.1221 57.2374 91.2986 57.1058C91.3869 57.0619 91.4752 57.018 91.5193 56.9742C91.6517 57.0619 91.8283 57.1497 92.1814 57.369C92.5345 57.5445 93.02 57.8077 93.5938 58.1148C94.3441 58.5097 94.8737 58.7729 95.2268 58.9922C95.4034 59.08 95.5358 59.1677 95.6241 59.2555C95.6682 59.2993 95.7124 59.2993 95.7124 59.2993L96.5068 60.3084L96.1096 59.1238C96.1096 59.08 96.0655 59.0361 96.0655 59.0361L91.5634 53.1135L85.958 60.0013L86.929 59.4309C88.518 58.6413 89.6655 58.0271 90.4159 57.5884Z" fill="white"/>
<path d="M96.8154 80.4013C96.683 80.3135 96.5947 80.2258 96.5064 80.0064C96.4182 79.7871 96.374 79.48 96.374 79.129V63.511C96.374 63.4232 96.374 63.3355 96.374 63.2477C96.374 62.6336 96.2416 62.0632 95.9327 61.5806C95.6237 61.0981 95.2265 60.7032 94.6527 60.3523C93.7699 59.8258 92.7989 59.6065 91.6955 59.6065C91.4748 59.6065 91.2541 59.6065 91.0334 59.6503C89.8858 59.7381 88.4734 60.1768 86.7962 61.0103C86.6638 61.0542 86.5314 61.0981 86.399 61.0981C86.2224 61.0981 86.0459 61.0103 85.8693 60.8348C85.6928 60.6594 85.6487 60.5277 85.6487 60.3523C85.6487 60.2206 85.6928 60.0452 85.8252 59.8697L85.9135 59.7381L85.6928 59.4748L85.6045 59.3432L85.4721 59.3871C85.0749 59.4748 84.7659 59.6942 84.5452 60.0013C84.3245 60.3084 84.1921 60.6594 84.1921 61.1419C84.1921 61.1858 84.1921 61.2297 84.1921 61.2736C84.1921 61.4929 84.2804 61.7123 84.3687 61.9316C84.5011 62.1071 84.6335 62.2826 84.81 62.3703C84.9425 62.4581 85.119 62.4581 85.2514 62.5019C84.1038 63.6426 83.4418 64.9148 83.3535 66.2748C83.3535 66.4065 83.3535 66.5381 83.3535 66.6258C83.3535 67.0206 83.3977 67.3716 83.5301 67.7665C83.7066 68.2929 83.9714 68.7755 84.3245 69.0826C84.6776 69.4335 85.1631 69.6529 85.6928 69.7845C85.8693 69.8284 86.0459 69.8284 86.2224 69.8284C86.5755 69.8284 86.9728 69.7406 87.37 69.609C87.9879 69.3458 88.5176 68.9071 88.9148 68.3368C89.312 67.7226 89.621 66.9768 89.7976 66.0555L89.8417 65.7923H89.5769H89.3562H89.2679L89.2238 65.9677C89.0914 66.4065 88.8707 66.7574 88.6059 66.9329C88.341 67.1523 87.9879 67.24 87.5466 67.24C87.4583 67.24 87.4141 67.24 87.3259 67.24C87.0611 67.1961 86.7962 67.1084 86.4873 66.889C86.1783 66.6697 86.0018 66.4065 85.8252 66.0555C85.6928 65.7045 85.6045 65.3097 85.6045 64.8271C85.6045 63.5987 86.2224 62.5019 87.5024 61.5368C88.4734 60.791 89.4003 60.44 90.3272 60.44C90.592 60.44 90.901 60.4839 91.1658 60.5277C91.9162 60.7032 92.4458 61.0542 92.7989 61.5806C93.152 62.1071 93.3285 62.8968 93.3285 63.8619V73.3381C92.181 72.6361 90.9893 72.2413 89.7534 72.2413C89.0031 72.2413 88.2969 72.3729 87.5466 72.6361C86.399 72.9871 85.4721 73.6013 84.8542 74.4787C84.2363 75.3123 83.9273 76.409 83.9273 77.7252C83.9273 77.769 83.9273 77.8129 83.9273 77.8568C83.9273 78.471 84.148 79.0852 84.5011 79.6994C84.8983 80.3574 85.4721 80.84 86.1783 81.191C86.8845 81.4981 87.7231 81.6735 88.7383 81.6735C90.5038 81.6735 92.0486 81.0594 93.3285 79.831V81.2348H98.2278V80.3574H97.0802C96.9919 80.489 96.9037 80.4452 96.8154 80.4013ZM91.21 80.3135C90.901 80.4452 90.6362 80.489 90.2831 80.489C90.0624 80.489 89.8858 80.489 89.6651 80.4452C89.0914 80.3574 88.65 80.0942 88.2528 79.6994C87.8555 79.3045 87.5466 78.7781 87.3259 78.0761C87.1935 77.8129 87.1493 77.4619 87.1493 77.0232C87.1493 76.9355 87.1493 76.8916 87.1493 76.8039C87.1493 75.8826 87.4583 75.049 88.0321 74.391C88.6941 73.689 89.4886 73.3381 90.4155 73.3381H90.5038C91.5189 73.3819 92.4899 73.7329 93.4168 74.391V78.9974C92.7989 79.6116 92.0927 80.0942 91.21 80.3135Z" fill="white"/>
<path d="M113.102 60.7032H114.956V59.7381H109.218V60.7032L109.483 60.6594C109.571 60.6594 109.659 60.6594 109.747 60.6594C110.101 60.6594 110.409 60.791 110.718 61.0981C111.16 61.4929 111.38 62.151 111.38 63.1161C111.38 63.8181 111.248 64.6516 111.027 65.6168L108.423 76.0142L104.76 64.6516C104.495 63.9497 104.319 63.2477 104.23 62.5458C104.23 62.3703 104.186 62.2387 104.186 62.1071C104.186 61.5806 104.274 61.2297 104.451 61.0103C104.627 60.791 104.892 60.6594 105.29 60.6594H106.216V60.44V60.0013V59.7819H98.6689V60.7032H100.302L107.187 81.7613C106.878 83.1213 106.481 84.2619 106.128 85.0955C105.731 85.9729 105.334 86.5432 104.892 86.8942C104.672 87.0697 104.407 87.2013 104.142 87.289C104.01 87.3329 103.877 87.3329 103.789 87.3329C103.568 87.3329 103.392 87.289 103.259 87.2013C103.083 87.1135 102.95 86.9819 102.818 86.7626C102.685 86.4993 102.641 86.28 102.641 86.0168C102.641 85.7535 102.73 85.5342 102.862 85.4026C102.994 85.2271 103.215 85.1393 103.524 85.0516L103.877 84.9639L103.612 84.7006C103.303 84.3497 102.906 84.1303 102.465 84.0426C102.332 83.9987 102.156 83.9987 102.023 83.9987C101.67 83.9987 101.317 84.1303 100.964 84.3497C100.655 84.569 100.346 84.8761 100.081 85.3148C99.9048 85.6658 99.8165 86.1045 99.8165 86.5432C99.8606 87.4645 100.346 88.2981 101.273 88.8245C101.582 89 101.979 89.0439 102.376 89.0439C102.641 89.0439 102.95 89 103.259 88.9122C104.01 88.7368 104.672 88.3858 105.245 87.7716C105.731 87.289 106.216 86.631 106.614 85.8851C106.702 86.0168 106.79 86.1922 106.878 86.28C107.099 86.4993 107.364 86.631 107.629 86.6748C107.761 86.7187 107.894 86.7187 108.026 86.7187C108.379 86.7187 108.732 86.631 108.997 86.4555C109.262 86.28 109.527 86.0168 109.703 85.6658L110.145 84.8322L109.35 85.3587C109.218 85.4464 109.129 85.4903 109.085 85.4464C109.041 85.4464 108.953 85.4464 108.909 85.3587C108.821 85.3148 108.776 85.2271 108.688 85.0516C108.158 84.2619 107.85 83.5161 107.85 82.6826C107.85 82.3755 107.894 82.0684 107.982 81.7613C108.335 80.489 110.012 73.4697 113.102 60.7032Z" fill="white"/>
<path d="M55.6792 28.1948C55.7675 28.1948 55.8117 28.2387 55.8117 28.4142C55.8117 29.3794 55.1055 29.8619 53.7372 29.8619C53.4282 29.8619 53.0751 29.8619 52.6779 29.8181C51.7952 31.0026 51.3538 32.5381 51.3538 34.5123C51.3538 35.2581 51.5303 35.8723 51.9276 36.3548C52.3248 36.8374 52.8986 37.1006 53.6931 37.1006C54.1786 37.1006 54.7082 36.9252 55.282 36.6619C55.3261 36.6181 55.3703 36.6619 55.3703 36.7497C55.3703 37.1445 55.1496 37.5394 54.6641 37.8465C54.1786 38.1974 53.6048 38.3729 52.9427 38.3729C51.8393 38.3729 50.9566 38.0658 50.4269 37.4077C49.8973 36.8374 49.6324 36.0477 49.6324 35.0826C49.6324 33.9419 49.9855 32.6258 50.6035 31.1781C50.6035 31.1342 50.6035 31.0903 50.6035 31.0903C50.6035 31.0903 50.5593 31.0903 50.5152 31.0903C49.5442 32.5381 48.3525 33.7226 46.8518 34.5561C45.3511 35.4335 43.8504 35.8723 42.3056 35.8723C41.467 35.8723 40.7608 35.6968 40.2312 35.3019C39.6574 34.9071 39.3926 34.3368 39.3926 33.6787C39.3926 33.1523 39.5691 32.7135 39.8781 32.3626C40.187 32.0555 40.5843 31.9239 41.0698 31.9239C41.2463 31.9239 41.3788 31.9677 41.5112 32.0994C41.7319 32.231 41.8201 32.4065 41.8201 32.6697C41.8201 32.8013 41.776 32.9768 41.6436 33.1961C41.5112 33.4155 41.467 33.5032 41.467 33.5032C41.467 33.3716 41.2905 33.2839 40.9815 33.2839C40.6726 33.2839 40.5401 33.4594 40.5401 33.8103C40.5401 34.5561 41.1581 34.951 42.4381 34.951C45.4835 34.951 48.0435 33.1523 50.1179 29.5987L49.2352 29.5548C48.529 29.5548 47.9994 29.7303 47.6904 30.0374C47.6021 30.1252 47.558 29.9497 47.558 29.5548C47.558 29.0723 47.7787 28.7652 48.22 28.5897C48.5731 28.4581 49.1469 28.3703 49.9855 28.3703H50.6035C51.0007 27.1419 51.2214 26.0452 51.2214 25.1677C51.2214 24.3342 51.0007 23.5884 50.5152 23.0181C50.0297 22.4039 49.4117 22.1406 48.6173 22.1406C47.2049 22.1406 46.0573 22.6671 45.0422 23.72C44.1594 24.6413 43.718 25.6065 43.718 26.5716C43.718 27.7561 44.2035 28.3703 45.1304 28.3703C45.4394 28.3703 45.5718 28.2826 45.5718 28.1071C45.5718 28.0632 45.5277 28.0194 45.4835 27.9755C45.2628 27.8 45.1304 27.6245 45.1304 27.3613C45.1304 27.0981 45.2187 26.8348 45.4394 26.6594C45.6159 26.4839 45.8808 26.3961 46.1456 26.3961C46.8518 26.3961 47.2049 26.791 47.2049 27.5806C47.2049 27.9755 46.9842 28.3265 46.587 28.6774C46.1456 29.0284 45.6159 29.2477 45.0422 29.2477C44.4242 29.2477 43.8946 29.0284 43.4532 28.5897C42.9677 28.1071 42.747 27.4929 42.747 26.6594C42.747 25.2555 43.3208 23.9394 44.4242 22.7548C45.6601 21.6142 47.1166 21 48.8821 21C50.1179 21 51.1772 21.351 51.9276 22.0529C52.7662 22.7987 53.1634 23.8516 53.1634 25.1239C53.1634 26.0013 52.9427 26.9226 52.5455 27.8439V27.8877C52.5455 27.8877 52.5455 27.8877 52.5896 27.8877C53.6048 26.2206 54.9289 24.8168 56.4737 23.72C58.1068 22.6232 59.6516 22.0529 61.1081 22.0529C61.5936 22.0529 61.9909 22.1845 62.2998 22.4039C62.5647 22.5794 62.6971 22.7987 62.6971 23.0619C62.6971 23.369 62.6088 23.5884 62.3881 23.8077C62.1674 23.9832 62.035 24.0271 62.035 23.9394C61.8143 23.4129 61.4171 23.1935 60.8433 23.1935C59.784 23.1935 58.5923 23.6761 57.2682 24.5974C55.7234 25.6503 54.4434 27.0542 53.4282 28.7652C54.4875 28.7652 55.2379 28.6335 55.6792 28.1948Z" fill="white"/>
<path d="M60.2701 33.1523C60.2259 33.2839 60.1818 33.3716 60.1818 33.5032C60.1818 33.7665 60.3583 33.8542 60.6232 33.8542C61.6825 33.8542 63.0507 32.6697 64.7279 30.3445L65.081 29.9058C65.1693 29.9058 65.2576 30.0813 65.2576 30.4323C65.2576 30.6955 65.0369 31.0903 64.6397 31.6607C62.9183 33.8542 61.3294 34.9949 59.7846 34.9949C58.9018 34.9949 58.4604 34.6 58.4604 33.8542C57.4894 34.6439 56.6067 35.0387 55.8563 35.0387C54.9736 35.0387 54.5322 34.6878 54.5322 33.8981C54.5322 33.591 54.6205 33.2839 54.8412 32.9768L57.0481 29.1161C57.1363 28.9407 57.1805 28.7652 57.1805 28.6774C57.1805 28.5897 57.1363 28.4581 57.0481 28.3265C56.9598 28.2387 56.9156 28.1949 56.9156 28.1949C56.9156 28.151 56.9598 28.1071 57.0039 28.0632C57.2687 27.8878 57.5336 27.8439 57.8867 27.8439C58.5487 27.8439 58.8577 28.0632 58.8577 28.5458C58.8577 28.7213 58.7694 28.9845 58.637 29.2478C57.666 30.8271 56.9156 32.0994 56.386 33.1961C56.3419 33.3278 56.2977 33.4155 56.2977 33.5471C56.2977 33.8103 56.4743 33.8981 56.7391 33.8981C57.7101 33.8981 58.8577 32.7574 60.1377 30.4761C60.7556 29.4232 61.0645 28.8091 61.0645 28.6774C61.0645 28.5458 61.0204 28.4581 60.9321 28.3703C60.8439 28.2826 60.7997 28.2387 60.7997 28.2387C60.7997 28.1949 60.8439 28.151 60.888 28.1071C61.1528 27.9316 61.4176 27.8878 61.7707 27.8878C62.3004 27.8878 62.6535 28.0632 62.7418 28.3703C62.83 28.3703 62.9183 28.3703 63.0066 28.3703C63.3597 28.2826 63.448 28.0194 63.3597 27.6684C63.2273 27.1858 62.83 27.0103 62.2121 27.142C62.2563 26.7032 62.3887 26.4839 62.6535 26.4839C63.3597 26.44 63.8011 26.7471 64.0217 27.4929C64.1542 27.8439 64.1542 28.1949 64.0217 28.5897C63.8893 29.0723 63.6686 29.3794 63.2714 29.4671C63.0507 29.511 62.7859 29.4671 62.5211 29.3355C61.5501 30.8271 60.7997 32.1432 60.2701 33.1523Z" fill="white"/>
<path d="M68.7004 32.1871C69.4066 32.3626 70.2893 31.6606 71.4369 30.1252C71.481 30.0813 71.5252 30.0374 71.5693 30.0374C71.6576 30.0374 71.7458 30.2129 71.7458 30.5639C71.7458 30.7832 71.6576 30.9587 71.5252 31.1781C70.4659 32.5819 69.2742 33.1961 67.9942 33.1523C66.9349 34.3806 65.8756 34.951 64.8604 34.951C63.8011 34.951 63.2715 34.4245 63.2715 33.3716C63.2715 32.2748 63.8453 31.0464 64.9928 29.7742C66.1845 28.4142 67.4204 27.7561 68.6121 27.7561C68.9652 27.7561 69.3183 27.8 69.4948 27.9316C69.6273 27.9316 69.8038 27.9755 69.9804 28.1071C70.2893 28.2826 70.51 28.3264 70.6866 28.2826C71.0397 28.1948 71.1279 27.9316 71.0396 27.5806C70.9072 27.0981 70.51 26.9226 69.8921 27.0542C69.9362 26.6155 70.0686 26.3961 70.3335 26.3961C71.0396 26.3523 71.481 26.6593 71.7017 27.4052C71.8341 27.7561 71.8341 28.1071 71.7017 28.5019C71.5693 28.9845 71.3486 29.2916 70.9514 29.3793C70.6866 29.4671 70.4217 29.3793 70.1128 29.16C70.1128 29.16 70.1128 29.16 70.0686 29.16C69.9362 29.9497 69.4948 30.9587 68.7004 32.1871ZM66.979 31.3535C67.1556 31.1781 67.4204 31.0464 67.6852 31.0464C67.9942 31.0464 68.2149 31.1342 68.3914 31.2658C68.9652 30.52 69.2742 29.7742 69.2742 29.1161C69.2742 28.6335 69.0535 28.4142 68.568 28.4142C67.9059 28.4142 67.1556 28.9845 66.2287 30.1252C65.3459 31.2219 64.9046 32.231 64.9046 33.1084C64.9046 33.6348 65.1694 33.9419 65.699 33.9419C66.1404 33.9419 66.6701 33.591 67.288 32.9329C66.9349 32.7135 66.7142 32.4064 66.7142 32.0555C66.6701 31.8361 66.7583 31.5729 66.979 31.3535ZM68.9211 23.9832C69.0093 23.9393 69.23 23.8955 69.4948 23.8955C70.0686 23.8955 70.3776 24.1148 70.3776 24.5974C70.3776 24.9484 70.1128 25.3432 69.539 25.7819C69.0093 26.1329 68.568 26.3084 68.1266 26.3084C67.8176 26.3084 67.6411 26.2206 67.5528 26.0013C67.5528 25.9574 67.5528 25.9135 67.5528 25.8697C67.5528 25.7819 67.5969 25.7381 67.7294 25.7819H67.9059C68.2149 25.7819 68.5238 25.6942 68.8769 25.4748C69.23 25.2993 69.3624 25.0361 69.3624 24.7729C69.3624 24.5535 69.23 24.4658 69.0093 24.4658C68.9211 24.4658 68.8328 24.5097 68.6562 24.5535C68.4797 24.6413 68.3914 24.6852 68.3031 24.6852C68.1266 24.6852 68.0383 24.6413 68.0383 24.5097V24.4658C68.3031 24.2464 68.4797 24.1148 68.6562 24.071C68.8328 24.0271 68.9211 23.9832 68.9211 23.9832Z" fill="white"/>
<path d="M75.0552 29.2916C74.3049 29.2916 73.4663 29.8619 72.4953 31.0903C71.6125 32.1432 71.0829 33.1522 70.8622 34.1174C70.818 34.2929 70.8622 34.4684 71.0387 34.6C71.0829 34.6 71.0829 34.6439 71.0829 34.6877C71.0829 34.7316 71.0387 34.8193 70.9946 34.8632C70.7298 35.0387 70.3767 35.1264 69.8911 35.1264C69.3615 35.1264 69.0967 34.8632 69.0967 34.3806C69.0967 34.0297 69.2732 33.5032 69.6705 32.8451L70.6856 31.2219C71.5242 29.9497 71.9656 29.0722 72.0539 28.7213C72.0539 28.5458 72.0539 28.4142 71.9656 28.3264L71.7891 28.151C71.7891 27.9755 72.0097 27.8877 72.4953 27.8877C73.2014 27.8877 73.5104 28.0632 73.5104 28.458C73.5104 28.7651 73.3339 29.16 72.9808 29.5987C73.0249 29.5548 73.0249 29.5548 73.0249 29.5987L73.069 29.5548C74.2166 28.458 75.1876 27.8877 75.9821 27.8877C76.7766 27.8877 77.2179 28.2387 77.2179 28.8529C77.2179 29.4232 76.9531 30.1251 76.4676 31.0026L75.2318 33.1961C75.1876 33.2839 75.1435 33.3716 75.1435 33.5032C75.1435 33.8103 75.32 33.9858 75.7173 33.9858C76.3793 33.9858 77.6593 32.6697 79.5131 30.0374C79.6896 30.0374 79.7779 30.2129 79.7779 30.5639C79.7779 30.7832 79.7338 30.9587 79.6014 31.1342C78.7628 32.2748 78.1448 33.0645 77.7917 33.4593C76.7324 34.5561 75.8056 35.0826 74.9228 35.0826C73.9959 35.0826 73.5104 34.6877 73.5104 33.898C73.5104 33.3716 73.8635 32.5819 74.5256 31.5729C75.1876 30.5639 75.5407 29.9497 75.5407 29.7303C75.4966 29.4232 75.3642 29.2916 75.0552 29.2916Z" fill="white"/>
<path d="M82.0739 35.5213C82.5152 35.5213 82.8683 35.6529 83.1332 35.8723C83.4421 36.0916 83.5745 36.3987 83.5745 36.7497C83.5745 37.0568 83.4863 37.2761 83.2656 37.4955C83.0449 37.7148 82.7801 37.8026 82.4711 37.8026C82.0739 37.8026 81.8532 37.7148 81.8532 37.4955C82.0297 37.3639 82.1621 37.1445 82.1621 36.8374C82.1621 36.4865 81.9856 36.311 81.6325 36.311C79.9111 39.1187 78.0574 40.5226 76.0712 40.5226C75.1884 40.5226 74.7471 40.1277 74.7471 39.3381C74.7471 38.2852 75.4533 37.4077 76.8215 36.6181C78.0132 35.9161 79.2049 35.5652 80.4408 35.4774L81.1028 34.3368C80.4849 34.7755 79.867 35.0387 79.2932 35.0387C78.7636 35.0387 78.4105 34.8632 78.1015 34.5561C77.8367 34.249 77.7484 33.8981 77.7484 33.4594C77.7484 32.3187 78.3222 31.1342 79.4698 29.8619C80.6615 28.5019 81.8973 27.8439 83.1332 27.8439C83.7511 27.8439 84.1925 28.0632 84.4131 28.5458C84.7662 28.0632 85.2076 27.8439 85.6931 27.8439C86.3552 27.8439 86.6642 28.0194 86.6642 28.2826C86.6642 28.2826 86.5759 28.2826 86.3993 28.4142C86.1345 28.5897 85.8697 28.8968 85.6048 29.3355C85.0752 30.1252 84.4573 31.2658 83.6187 32.6697L82.0739 35.5213ZM77.1746 37.2323C76.0271 37.9342 75.4533 38.5923 75.4533 39.2503C75.4533 39.6013 75.674 39.8206 76.0712 39.8206C76.7774 39.8206 77.5277 39.4258 78.3663 38.5923C79.0725 37.8903 79.6022 37.1445 79.9994 36.2671C79.2049 36.311 78.2339 36.6181 77.1746 37.2323ZM80.1318 33.8103C80.3966 33.8103 80.7056 33.6787 81.0587 33.4594C81.5442 33.1523 81.9415 32.7136 82.2504 32.1871L83.7069 29.6426C83.7511 29.511 83.7952 29.3794 83.7952 29.2916C83.7952 28.7652 83.5304 28.5458 83.0007 28.5458C82.3387 28.5458 81.5884 29.1161 80.7056 30.2129C79.8229 31.3097 79.4256 32.1871 79.4256 32.889C79.4256 33.4594 79.6905 33.8103 80.1318 33.8103Z" fill="white"/>
<path d="M39.8342 41.9703C39.7459 42.4529 39.4369 42.7161 38.9514 42.7161H37.9363C37.6273 43.2426 37.0535 44.2077 36.2149 45.6994C35.9942 46.0503 35.9059 46.3135 35.9059 46.489C35.9059 46.7084 35.9942 46.84 36.1708 46.84C36.7446 46.84 37.4066 46.4013 38.2452 45.5677C38.7307 45.0413 39.2162 44.471 39.6135 43.8568L39.6576 43.8129C39.7459 43.8129 39.79 43.9884 39.79 44.3832C39.79 44.471 39.6135 44.7342 39.2604 45.1729C37.9804 46.84 36.7004 47.6735 35.4204 47.6735C34.7584 47.6735 34.4053 47.3664 34.4053 46.7961C34.4053 46.3135 35.1556 44.9097 36.6121 42.6723H35.8177C35.6853 42.6723 35.597 42.6723 35.5087 42.7161C35.4646 42.76 35.4204 42.76 35.3763 42.7161C35.3763 42.6723 35.3763 42.6723 35.3763 42.6284C35.4204 42.5406 35.4646 42.4529 35.5087 42.3652C35.597 42.1897 35.7735 42.1019 35.9501 42.0581C36.0825 42.0142 36.4356 42.0142 37.0094 42.0142C37.4066 41.3561 37.6273 40.9174 37.7156 40.6542C37.7597 40.5226 37.7597 40.391 37.6714 40.3032C37.6273 40.2155 37.5832 40.1716 37.6273 40.1716C37.8038 40.04 37.9804 39.9961 38.2452 39.9961C38.7749 39.9961 39.0397 40.1716 39.0397 40.5226C39.0397 40.6542 38.9956 40.8735 38.8631 41.0929C38.7749 41.2684 38.5983 41.5755 38.3335 42.0142H38.3776C38.5542 42.0142 38.7749 42.0142 39.0397 42.0142C39.4369 42.0142 39.7018 41.9703 39.7459 41.8826C39.8342 41.8826 39.8342 41.9264 39.8342 41.9703Z" fill="white"/>
<path d="M40.4521 43.4181C40.4962 43.3742 40.4962 43.3742 40.4962 43.4181L40.5404 43.3742C41.4231 42.4968 42.1735 42.0581 42.7914 42.0581C43.4093 42.0581 43.7624 42.3213 43.7624 42.8039C43.7624 43.2426 43.5417 43.8129 43.1886 44.471L42.2176 46.1819C42.1735 46.2697 42.1735 46.3574 42.1735 46.4013C42.1735 46.6645 42.3059 46.7523 42.5707 46.7523C42.9679 46.7523 43.939 45.7432 45.4838 43.8129C45.5279 43.8129 45.5279 43.8129 45.572 43.8129C45.6603 43.8129 45.7486 43.9007 45.7486 44.12C45.7486 44.2955 45.6603 44.5149 45.3955 44.8658C44.0714 46.7523 42.9238 47.6736 41.9086 47.6736C41.2024 47.6736 40.8052 47.3665 40.8052 46.7523C40.8052 46.3136 41.07 45.6994 41.5997 44.9097C42.1293 44.12 42.3942 43.6374 42.3942 43.4619C42.3942 43.2426 42.3059 43.1549 42.0411 43.1549C41.4231 43.1549 40.8052 43.5936 40.0549 44.5587C39.3928 45.3923 38.9514 46.1819 38.7749 46.9278C38.7308 47.0594 38.7749 47.191 38.9073 47.2787C38.9514 47.2787 38.9514 47.3226 38.9514 47.3665C38.9514 47.4103 38.9073 47.4542 38.8632 47.4981C38.6425 47.6297 38.3777 47.7174 37.9804 47.7174C37.5832 47.7174 37.3625 47.5419 37.3184 47.1471C37.3184 46.7961 37.8039 45.831 38.7308 44.2516C39.6576 42.6723 40.1431 41.8826 40.1431 41.9265C39.8342 41.8826 39.6135 41.7949 39.3928 41.5755C39.1721 41.3561 39.0839 41.1807 39.0839 40.9174C39.0839 40.4349 39.3487 40.2155 39.8783 40.2155C40.2314 40.2155 40.408 40.3032 40.408 40.4348C40.408 40.4348 40.3638 40.5226 40.3197 40.5665C40.2314 40.6542 40.1873 40.7419 40.1873 40.8297C40.1873 41.049 40.3197 41.1807 40.5404 41.2684C42.4824 38.3729 43.8948 36.9252 44.8217 36.9252C45.3072 36.9252 45.572 37.1884 45.572 37.6271C45.572 38.2413 45.1307 39.031 44.2479 39.9084C43.3652 40.8736 42.3942 41.4439 41.379 41.7071L40.4521 43.4181ZM41.9528 41.049C42.7473 40.6981 43.4976 40.1716 44.1596 39.3819C44.7776 38.68 45.0865 38.1097 45.0865 37.671C45.0865 37.5394 45.0424 37.4516 44.91 37.4516C44.3803 37.4955 43.4093 38.68 41.9528 41.049Z" fill="white"/>
<path d="M51.8838 43.8568C51.972 43.8568 52.0162 44.0323 52.0162 44.3832C52.0162 44.5149 51.8396 44.8219 51.5307 45.2168C50.2507 46.8839 49.0148 47.7174 47.7349 47.7174C47.0728 47.7174 46.7638 47.4542 46.7638 46.9278C46.1901 47.4542 45.6163 47.7174 45.0425 47.7174C44.6453 47.7174 44.3363 47.5858 44.1156 47.3226C43.8949 47.1032 43.8066 46.84 43.8066 46.489C43.8066 45.6116 44.248 44.6465 45.1308 43.6813C46.0576 42.6284 47.0287 42.1019 47.9997 42.1019C48.4852 42.1019 48.7942 42.2774 49.0148 42.6723C49.3238 42.2774 49.6328 42.1019 50.03 42.1019C50.5155 42.1019 50.7803 42.2336 50.7803 42.4529C50.7803 42.4529 50.6921 42.4529 50.5597 42.5407C50.339 42.6723 50.1624 42.8916 49.9417 43.2426C49.5445 43.8568 49.0148 44.7342 48.3969 45.831C48.2204 46.1381 48.1321 46.3574 48.1321 46.489C48.1321 46.7084 48.2204 46.7961 48.4411 46.7961C49.2797 46.7961 50.4272 45.7871 51.8396 43.8129C51.8396 43.8568 51.8838 43.8568 51.8838 43.8568ZM45.6604 46.7523C45.8811 46.7523 46.1018 46.6645 46.4107 46.489C46.808 46.2258 47.1169 45.9187 47.3376 45.48L48.4852 43.5058C48.5293 43.4181 48.5735 43.2865 48.5735 43.2426C48.5735 42.8478 48.3528 42.6284 47.9556 42.6284C47.47 42.6284 46.8521 43.0671 46.1459 43.9445C45.4397 44.7781 45.1308 45.48 45.1308 46.0065C45.1308 46.489 45.3073 46.7523 45.6604 46.7523ZM49.5886 39.3819C49.6769 39.3381 49.8093 39.3381 50.03 39.3381C50.4714 39.3381 50.6921 39.5136 50.6921 39.9084C50.6921 40.2155 50.4714 40.5226 50.03 40.8297C49.6328 41.1368 49.2797 41.2684 48.9266 41.2684C48.7059 41.2684 48.5293 41.1807 48.4852 41.049C48.4852 41.0052 48.4852 41.0052 48.4852 40.9613C48.4852 40.8736 48.5293 40.8736 48.6176 40.8736H48.75C49.0148 40.8736 49.2355 40.7858 49.5004 40.6542C49.7652 40.5226 49.8976 40.3032 49.8976 40.0839C49.8976 39.9084 49.8093 39.8207 49.6328 39.8207C49.5886 39.8207 49.5004 39.8645 49.3679 39.9084C49.2355 39.9523 49.1473 39.9961 49.1031 39.9961C48.9707 39.9961 48.8824 39.9523 48.8824 39.8645V39.8207C49.1031 39.6452 49.2355 39.5574 49.3679 39.5136C49.5445 39.4258 49.5886 39.3819 49.5886 39.3819Z" fill="white"/>
<path d="M55.4594 45.3923C56.0773 45.0852 56.5628 44.6026 56.9159 43.9884C56.96 43.9007 57.0042 43.8129 57.0483 43.6813C57.0483 43.6374 57.0924 43.5936 57.1366 43.6374C57.1807 43.6374 57.2248 43.6813 57.269 43.769C57.3573 43.8568 57.3573 43.9884 57.3573 44.0761C57.3573 44.471 57.0483 44.9536 56.3862 45.48C55.5918 46.1381 54.709 46.4013 53.738 46.2697C52.8553 47.2787 52.0166 47.7613 51.2222 47.7613C50.8249 47.7613 50.516 47.6297 50.2953 47.3665C50.0746 47.1471 49.9863 46.8839 49.9863 46.5329C49.9863 45.6555 50.4277 44.7342 51.3546 43.7252C52.2815 42.6723 53.2525 42.1458 54.1794 42.1458C54.9297 42.1458 55.2828 42.4529 55.2828 43.111C55.2828 43.769 54.9297 44.6465 54.1794 45.6994C54.5325 45.7871 54.9297 45.6555 55.4594 45.3923ZM52.6787 45.48C52.6787 45.2607 52.767 45.0852 52.8994 44.9097C53.0318 44.7781 53.2525 44.6903 53.429 44.6903C53.6939 44.6903 53.8704 44.7342 54.0028 44.8658C54.4442 44.2516 54.6649 43.7252 54.6649 43.1987C54.6649 42.8477 54.4883 42.6284 54.0911 42.6284C53.5615 42.6284 52.9877 43.0671 52.2815 43.9445C51.5753 44.8219 51.2222 45.6116 51.2222 46.2697C51.2222 46.7084 51.4429 46.9277 51.8401 46.9277C52.1932 46.9277 52.5904 46.6645 53.0759 46.1381C52.8553 46.0065 52.6787 45.7871 52.6787 45.48Z" fill="white"/>
<path d="M62.83 44.9097C62.168 45.9187 61.859 46.6645 61.859 47.0594C61.859 47.1471 61.9032 47.2348 61.9914 47.2787C62.0356 47.2787 62.0356 47.3226 62.0356 47.3665C62.0356 47.4103 62.0356 47.4103 61.9914 47.4542C61.7708 47.6736 61.4618 47.7613 61.0646 47.7613C60.6232 47.7613 60.4025 47.5419 60.4025 47.1032C60.4025 46.8839 60.6673 46.3136 61.2411 45.3923C61.859 44.3832 62.168 43.8568 62.2121 43.7252C62.2121 43.6813 62.2563 43.6374 62.2563 43.5936C62.2563 43.3742 62.168 43.2426 61.9032 43.2426C61.2852 43.2426 60.6673 43.6813 59.917 44.6465C59.2549 45.48 58.8136 46.2697 58.637 47.0155C58.5929 47.1471 58.637 47.2787 58.7694 47.3665C58.8136 47.3665 58.8136 47.4103 58.8136 47.4542C58.8136 47.4981 58.7694 47.5419 58.7253 47.5858C58.5046 47.7174 58.2398 47.8052 57.8425 47.8052C57.4453 47.8052 57.2246 47.5858 57.2246 47.2348C57.2246 46.9277 57.357 46.5329 57.666 46.0503L58.4605 44.7781C58.9901 43.9884 59.2991 43.3742 59.4315 43.0671C59.4756 42.9355 59.5197 42.8039 59.5197 42.7161C59.5197 42.6284 59.4756 42.5407 59.4315 42.4529L59.3432 42.3652C59.3432 42.2336 59.5639 42.1458 59.917 42.1458C60.4025 42.1458 60.6673 42.3213 60.6673 42.6284C60.6673 42.8477 60.5349 43.1548 60.2701 43.5058C60.3142 43.4619 60.3142 43.4619 60.3142 43.5058L60.3584 43.4619C61.2411 42.5845 61.9914 42.1458 62.6094 42.1458C63.2714 42.1458 63.5804 42.409 63.5804 42.8916C63.5804 42.9794 63.5804 43.0232 63.5362 43.111V43.1548L63.5804 43.111C64.419 42.4529 65.1252 42.1458 65.6548 42.1458C66.2728 42.1458 66.5817 42.4529 66.5817 43.0671C66.5817 42.9794 66.0521 44.0323 65.0369 46.2258C64.9928 46.3136 64.9928 46.3574 64.9928 46.4452C64.9928 46.7084 65.1252 46.84 65.39 46.84C65.699 46.84 66.1403 46.489 66.7583 45.7871C67.2438 45.2168 67.7293 44.6465 68.0824 44.0323C68.2148 43.8129 68.3031 43.7252 68.3472 43.7252C68.4355 43.7252 68.5238 43.8129 68.5238 44.0323C68.5238 44.2077 68.5238 44.3394 68.4796 44.3832C68.4796 44.6026 68.0824 45.1729 67.2438 46.0942C66.3169 47.1471 65.5224 47.6736 64.8604 47.6736C64.0659 47.6736 63.6687 47.3665 63.6687 46.7523C63.6687 46.3136 63.9335 45.6994 64.4631 44.9097C64.9928 44.12 65.2576 43.6374 65.2576 43.4619C65.2576 43.1987 65.1252 43.111 64.9045 43.111C64.2866 43.1987 63.5804 43.769 62.83 44.9097Z" fill="white"/>
<path d="M67.2439 49.6039C67.0673 49.8232 66.8466 49.911 66.6259 49.911C66.317 49.911 66.1846 49.7794 66.1846 49.5162C66.1846 49.2529 66.2728 49.0774 66.4494 48.8581C66.6701 48.6387 66.8466 48.551 67.1115 48.551C67.3763 48.551 67.5087 48.6826 67.5087 48.9458C67.5087 49.2091 67.4204 49.4284 67.2439 49.6039ZM67.8618 47.6736C67.0232 47.6736 66.6259 47.2787 66.6259 46.4452C66.6259 45.5678 67.0673 44.6465 67.9942 43.6374C68.9211 42.5845 69.8921 42.0581 70.819 42.0581C71.5693 42.0581 71.9224 42.3652 71.9224 43.0232C71.9224 43.6374 71.5693 44.4271 70.9073 45.5239C71.4811 45.6555 72.1431 45.1291 73.0259 43.9007C73.07 43.8568 73.07 43.8568 73.1141 43.8568C73.2024 43.8568 73.2465 43.9884 73.2465 44.2516C73.2465 44.4271 73.2024 44.5587 73.07 44.7342C72.2314 45.831 71.3045 46.3136 70.3335 46.2697C69.4949 47.2349 68.6563 47.6736 67.8618 47.6736ZM69.3183 45.4362C69.3183 45.2168 69.4066 45.0413 69.539 44.8658C69.6714 44.7342 69.8921 44.6465 70.0687 44.6465C70.3335 44.6465 70.51 44.6903 70.6424 44.822C71.0838 44.2078 71.3045 43.6813 71.3045 43.1549C71.3045 42.8039 71.128 42.5845 70.7307 42.5845C70.2011 42.5845 69.6273 43.0232 68.9211 43.9007C68.2149 44.7781 67.8618 45.5678 67.8618 46.2258C67.8618 46.6645 68.0825 46.8839 68.4797 46.8839C68.8328 46.8839 69.23 46.6207 69.7156 46.0942C69.4507 45.9626 69.3183 45.7432 69.3183 45.4362ZM69.4066 41.7071C69.3183 41.7071 69.2742 41.6632 69.2742 41.5755C69.2742 41.6632 69.7597 41.3562 70.7749 40.6981C71.7017 40.0839 72.099 39.7768 72.0107 39.7768C71.8783 39.7768 72.099 40.2155 72.6728 41.1807C72.9376 41.5755 73.07 41.7949 73.07 41.7949C73.07 41.8387 73.07 41.8387 73.0259 41.8387C72.2755 41.8387 71.79 41.4878 71.5693 40.8297C70.6866 41.4 69.9362 41.7071 69.4066 41.7071Z" fill="white"/>
<path d="M74.1291 43.9884C73.5112 44.7781 73.1581 45.48 73.1581 46.1381C73.1581 46.6207 73.4229 46.8839 73.9967 46.8839C75.1884 46.8839 76.5125 45.8748 77.9249 43.9007C77.9691 43.8568 78.0132 43.8129 78.0132 43.8129C78.0573 43.8129 78.1015 43.9007 78.1015 44.0761C78.1015 44.3394 78.0573 44.471 78.0132 44.5587C76.6008 46.6645 75.0119 47.6736 73.2022 47.6736C72.2754 47.6736 71.834 47.2787 71.834 46.4452C71.834 45.5678 72.2754 44.6465 73.2022 43.6374C74.1291 42.5845 75.1001 42.0581 76.027 42.0581C76.336 42.0581 76.6008 42.1458 76.7774 42.3213C76.9539 42.4529 77.0422 42.6723 77.0422 42.9355C77.0422 43.1987 76.9539 43.4181 76.7774 43.6374C76.6008 43.8568 76.3801 43.9445 76.1153 43.9445C75.7622 43.9445 75.5415 43.8129 75.5415 43.5058C75.5415 43.3742 75.5857 43.2426 75.7181 43.111C75.8505 43.0232 75.9829 42.9355 76.0712 42.9355C76.0712 42.8478 75.9829 42.8039 75.8063 42.8039C75.365 42.76 74.747 43.1987 74.1291 43.9884Z" fill="white"/>
<path d="M83.6629 43.2864C85.0753 42.3213 86.6642 41.2245 86.9732 41.049L87.1056 40.9613L87.0615 41.0929C87.0173 41.1806 87.0173 41.2684 86.9732 41.4C86.9291 41.5755 86.8849 41.751 86.8408 41.8387C86.7084 43.1987 87.6353 44.9974 88.827 45.8748C89.3566 46.2258 89.7097 46.2697 89.9304 46.0503C90.4159 45.5239 90.2394 43.9445 90.0187 43.2426C89.8863 42.8039 89.4449 41.7071 88.6504 41.1368C88.5621 41.049 88.4297 41.0052 88.2091 40.9613C88.0766 40.9174 87.9442 40.9174 87.8118 40.8735C87.7235 40.8735 87.6353 40.8297 87.547 40.8297L87.4146 40.7858L87.547 40.6981C88.3856 40.2155 89.2683 39.7329 90.2394 39.2503L90.3276 39.2064V39.2942C90.3276 39.4697 90.2835 39.6452 90.2394 39.8206C90.1952 40.0839 90.1511 40.391 90.1952 40.6103C90.5925 42.1019 91.2987 43.3303 92.4904 44.471C92.7111 44.6464 93.0642 44.9974 93.4614 45.0852C93.8586 45.1729 94.0793 44.9974 94.2117 44.5148C94.4324 43.769 94.1676 42.9794 93.9028 42.2774C93.8586 42.1897 93.8586 42.1019 93.8145 42.0581C93.5055 41.0929 92.8876 40.1716 92.1373 39.5135C91.9607 39.3819 91.7842 39.2942 91.5194 39.2503C91.3869 39.2064 91.2545 39.2064 91.1221 39.1626C90.9897 39.1626 90.8573 39.1187 90.7249 39.0748L90.5483 39.031L90.6807 38.9432C91.4311 38.5484 92.2255 38.1535 92.9317 37.8026H92.9759L93.2848 38.1535C93.2848 38.2413 93.2848 38.2852 93.2848 38.3729C93.2848 38.4606 93.2848 38.5045 93.2848 38.5484C93.329 38.9871 93.5055 39.3819 93.7262 39.8206C94.1676 40.6542 94.6972 41.6194 95.4476 42.3652C95.6683 42.5845 96.4627 43.2864 97.1248 43.4181C97.4338 43.5058 97.6986 43.4181 97.831 43.2426C98.1841 42.76 97.831 41.6632 96.8158 40.1277C96.3303 39.4258 95.7565 38.5923 95.0503 38.1535C95.0062 38.1097 94.8738 38.0658 94.6972 38.0219C94.4765 37.9781 94.2117 37.9342 93.9469 37.8903C93.8586 37.8903 93.7262 37.8464 93.6379 37.8464L93.4172 37.5832L93.5055 37.5393C93.7262 37.4516 93.9028 37.3639 94.0793 37.2761C94.2559 37.1884 94.6972 37.0129 95.1827 36.8374C95.4476 36.7497 95.7124 36.6181 96.0214 36.5303H96.0655L96.3303 36.8813C96.3745 37.0129 96.3745 37.1006 96.3745 37.2323C96.3745 37.4077 96.4186 37.5832 96.4627 37.671C96.5951 37.9781 96.7717 38.2852 96.9924 38.6361C98.1399 40.3471 99.1992 41.3123 100.214 41.5755C100.479 41.6193 100.7 41.6632 100.965 41.6193C101.141 41.5755 101.274 41.4877 101.318 41.3561C101.583 40.5664 99.8172 38.3729 99.3758 37.9342L99.2875 37.8464C98.7579 37.3639 98.2282 36.8374 97.5662 36.5742C97.4338 36.5303 97.0807 36.5303 96.7717 36.5303H96.5951L96.4627 36.3548L96.551 36.311C97.522 35.9161 98.3606 35.5652 99.0668 35.2581H99.111L99.1551 35.3019C99.2434 35.4335 99.2875 35.6529 99.3317 35.8723C99.3758 36.0477 99.4199 36.2232 99.4641 36.3548C99.773 37.0568 100.347 37.7587 101.185 38.4606C101.803 38.9871 102.598 39.5574 103.392 39.7768C103.613 39.8206 103.834 39.8645 104.054 39.8645C104.231 39.8645 104.319 39.7768 104.363 39.689C104.496 39.4258 104.275 38.8116 103.657 37.9342L103.613 37.8903C102.907 36.8374 102.201 36.1793 101.45 35.7845C101.009 35.5652 100.612 35.3897 100.259 35.3019H100.214C100.126 35.2581 99.9496 35.2581 99.8172 35.3019H99.773L99.5965 35.1264L99.6848 35.0826C100.391 34.7316 101.097 34.3806 101.759 33.9858L101.803 33.9419L101.847 33.9858C101.98 34.1613 102.112 34.4245 102.245 34.6877C102.421 34.9948 102.598 35.3019 102.73 35.4774C104.098 36.7497 104.937 37.1884 105.423 37.32C105.82 37.4077 106.129 37.3639 106.349 37.1445C106.658 36.1355 104.761 34.8193 104.054 34.3368L103.966 34.2929C103.481 33.9419 102.995 33.7664 102.554 33.6787H102.377L102.51 33.591C102.774 33.4155 103.039 33.24 103.304 33.0645H103.348H103.392C103.481 33.1084 103.569 33.1523 103.657 33.24C103.922 33.4155 104.231 33.591 104.54 33.6787C105.378 33.9419 106.394 33.8103 107.144 33.3716C107.188 33.3716 107.232 33.3277 107.276 33.2839C107.629 33.0645 108.424 32.6258 108.512 32.231C108.556 32.1432 108.512 32.0116 108.468 31.9239C108.247 31.6168 107.85 31.4852 107.541 31.3974C107.409 31.3535 107.232 31.3097 107.056 31.3097C106.482 31.2219 105.776 31.3097 105.114 31.4413C104.187 31.6606 103.348 32.2748 102.554 32.8013C102.289 32.9768 101.98 33.1961 101.715 33.3716L101.583 33.4593L101.627 33.1084C101.715 33.0206 101.803 32.9768 101.892 32.889C102.201 32.6258 102.554 32.2748 102.642 32.0993C102.686 31.9677 102.73 31.88 102.774 31.7484C102.995 31.2219 103.216 30.6516 103.348 30.0813C103.481 29.4232 103.348 27.8439 102.863 27.7123C102.686 27.6684 102.421 27.8439 102.156 28.1948C101.318 29.2916 100.876 30.9587 101.097 32.1871C101.141 32.3626 101.185 32.5381 101.23 32.6697L101.053 33.6787C101.053 33.7664 100.876 33.8542 100.568 34.0297C100.523 34.0297 100.523 34.0735 100.479 34.0735C100.038 34.2929 99.6406 34.5123 99.2434 34.6877L99.1551 34.7316L99.1992 34.2929H99.2434C99.2875 34.249 99.3758 34.2052 99.4199 34.1613C99.5523 34.0735 99.6848 34.0297 99.7289 33.9419C99.9937 33.591 100.17 33.1961 100.347 32.6697C100.612 31.7484 100.744 30.7832 100.7 29.9058V29.8181C100.7 29.3355 100.612 28.0632 100.038 27.9316C99.9496 27.9316 99.8613 27.9316 99.773 27.9316C99.111 28.2826 98.8903 28.9845 98.7137 29.6426C98.4048 30.6516 98.1399 31.8361 98.3165 33.0206C98.3606 33.24 98.4489 33.4593 98.5813 33.7226C98.6255 33.8542 98.7137 33.9858 98.7579 34.0735L98.6696 34.951H98.6255C97.9193 35.2581 97.1248 35.609 96.1538 35.96L96.0655 36.0039L96.1538 35.6529C96.242 35.609 96.2862 35.5652 96.3745 35.5213C96.5951 35.3897 96.8158 35.2581 96.9041 35.1264C97.1248 34.7755 97.3013 34.3806 97.4779 33.8542C97.7427 32.9329 97.8751 32.0116 97.7868 31.2219C97.7427 30.6955 97.4337 29.6864 96.9924 29.5548C96.8158 29.511 96.6393 29.5987 96.4627 29.8181C95.9772 30.3884 95.8007 31.1342 95.58 31.88C95.5358 32.0116 95.4917 32.1432 95.4917 32.2748C95.2269 33.1084 95.0945 34.7316 95.6241 35.5213V35.5652V35.609L95.4917 36.2671L95.0062 36.4426C94.4765 36.6619 94.0793 36.7935 93.8586 36.8813C93.8145 36.8813 93.4614 37.0568 92.8876 37.32L92.7552 37.3639L92.7993 37.1445H92.8435C92.9759 37.0568 93.1083 37.0129 93.2407 36.969C93.5497 36.8374 93.8145 36.7058 93.9469 36.5303C94.3441 35.9161 94.5648 35.0387 94.7414 34.249C94.9179 33.5032 94.8738 31.529 94.2559 31.3535C94.0352 31.3097 93.7704 31.4413 93.4614 31.7484C93.4614 31.7484 91.6518 33.6787 92.1814 36.1793C92.1814 36.2671 92.2255 36.3548 92.2255 36.3987C92.2697 36.5742 92.3138 36.7058 92.3138 36.8374L92.1373 37.671H92.0931C91.5635 37.9342 90.9897 38.1974 90.46 38.5045C90.2394 38.5923 90.0628 38.6361 89.8421 38.7239L89.7097 38.7677L89.7539 38.6361C89.798 38.5045 89.8421 38.4168 89.8863 38.2852V38.2413C89.9745 38.1974 90.107 38.1097 90.2394 38.0658C90.6807 37.8464 91.2987 37.5832 91.3869 37.1006C91.5635 36.2232 91.74 35.3019 91.74 34.3806C91.74 33.9419 91.74 33.4593 91.5194 33.0645C91.3869 32.8013 91.2545 32.6258 91.078 32.5819C90.9456 32.5381 90.7249 32.6258 90.4159 32.8013C90.1511 32.9768 89.9304 33.24 89.798 33.4155C89.2683 34.1613 88.9594 35.609 88.8711 36.2232C88.7828 36.8374 88.827 37.2761 89.0035 37.671C89.0477 37.8026 89.1359 37.8903 89.2242 38.0219C89.2683 38.0658 89.3125 38.1097 89.3125 38.1535V38.1974V38.2413C89.2242 38.5484 89.0918 38.8555 88.9594 39.1626C88.6504 39.3819 88.2532 39.5574 87.9001 39.689C87.7235 39.7768 87.547 39.8206 87.4587 39.9084L87.238 40.04L87.4146 39.8206C87.9884 39.031 88.6063 37.1445 88.2973 35.8723C88.1649 35.3458 87.9001 34.951 87.4587 34.7755C87.1939 34.6439 86.9291 34.6877 86.6642 34.8632C85.8256 35.5652 85.4284 37.8903 85.4725 38.5045C85.4725 38.8555 85.6932 39.2064 85.9139 39.5135C86.1346 39.8645 86.3111 40.1716 86.267 40.4787C86.2229 40.6542 86.0463 40.8297 85.7815 41.0929C85.6491 41.1806 84.325 42.1019 83.1774 42.8916C82.2946 43.5058 81.456 44.0761 81.2354 44.2516L81.5443 44.6903C81.8974 44.5148 82.6919 43.9445 83.6629 43.2864Z" fill="white"/>
</g>
<defs>
<clipPath id="clip0">
<rect width="99" height="68" fill="white" transform="translate(16 21)"/>
</clipPath>
</defs>
</svg>
