<svg width="126" height="124" viewBox="0 0 126 124" fill="none" xmlns="http://www.w3.org/2000/svg">
<path d="M0 105.458V4C0 1.79086 1.79086 0 4 0H122C124.209 0 126 1.79086 126 4V105.458C126 107.667 124.209 109.458 122 109.458H73.794C72.399 109.458 71.1047 110.185 70.3786 111.376L65.9822 118.588C64.4516 121.099 60.8258 121.156 59.2178 118.694L54.3698 111.271C53.6312 110.14 52.3716 109.458 51.0208 109.458H4C1.79086 109.458 0 107.667 0 105.458Z" fill="#A1BF46"/>
<g clip-path="url(#clip0)">
<path d="M103.563 78.7497C103.275 78.6525 103.036 78.604 102.844 78.6525C102.653 78.7011 102.461 78.7982 102.317 78.9439C102.126 79.0411 101.982 79.2354 101.886 79.4782C101.695 79.8182 101.455 80.2067 101.168 80.5953C100.88 81.0324 100.641 81.4209 100.401 81.858C100.162 82.2951 99.9222 82.6837 99.6826 83.0236C99.4431 83.3636 99.2515 83.655 99.0599 83.8979C98.8683 84.0921 98.7246 84.2378 98.6287 84.2864C98.5329 84.335 98.3892 84.3835 98.2934 84.3835C98.1976 84.3835 98.1018 84.335 98.0539 84.2378C97.9581 84.1407 97.8623 83.9464 97.9102 83.6065C97.9102 83.2665 98.006 82.8779 98.1018 82.3923C98.1976 81.9066 98.3892 81.4209 98.5808 80.8381C98.7725 80.2553 99.012 79.6725 99.2515 79.0896C99.7785 77.6812 100.401 76.1756 101.168 74.4757C100.593 74.1843 100.018 74.0386 99.4431 73.9415C98.9162 73.8443 98.3892 73.8443 98.006 73.9415C97.479 73.99 97.0479 74.0872 96.6168 74.2814L96.2814 75.1071C96.0898 74.8642 95.7545 74.67 95.3713 74.4757C94.988 74.2814 94.3653 74.1843 93.5988 74.1843C92.9282 74.1843 92.2096 74.2814 91.4431 74.4757C90.6766 74.67 89.9581 75.0099 89.2874 75.5442C88.5689 76.0784 87.9461 76.7584 87.3234 77.6812C87.0359 78.1183 86.7485 78.6525 86.4611 79.1868C86.4132 79.2839 86.3174 79.3811 86.2695 79.4782C86.0779 79.8182 85.8383 80.2067 85.5509 80.5953C85.2635 81.0324 85.024 81.4209 84.7844 81.858C84.5449 82.2951 84.3054 82.6837 84.0659 83.0236C83.8264 83.3636 83.6347 83.655 83.4431 83.8979C83.2515 84.0921 83.1078 84.2378 83.012 84.2864C82.9162 84.335 82.7725 84.3835 82.6767 84.3835C82.5808 84.3835 82.485 84.335 82.4371 84.2378C82.2455 84.0921 82.2455 83.7036 82.3413 83.0722C82.4371 82.4408 82.6767 81.7609 82.9162 80.9352C82.9641 80.8381 83.012 80.6924 83.012 80.5953L83.2036 80.2067L84.5449 76.807C84.6407 76.3698 84.5928 76.0299 84.3533 75.7385C84.1617 75.4471 83.8743 75.2528 83.5389 75.1071C83.2036 74.9614 82.8683 74.8642 82.485 74.7671C82.1018 74.67 81.7665 74.6214 81.5269 74.6214C81.2395 74.5728 81 74.6214 80.9042 74.7671C80.8084 74.8642 80.7126 74.9614 80.6647 75.0099C80.6168 75.1071 80.521 75.2528 80.4251 75.3499C80.3293 75.4471 80.1856 75.5442 80.0898 75.5442C79.994 75.5442 79.8982 75.4956 79.7545 75.4471C79.7066 75.3985 79.6587 75.3014 79.6587 75.1071C79.6587 74.9614 79.6587 74.8642 79.6587 74.7671C79.6587 74.6214 79.6587 74.4271 79.6587 74.1357C79.6587 73.8929 79.6587 73.6015 79.6587 73.3586C79.6108 72.7758 79.515 72.193 79.3234 71.6588C79.1317 71.1245 78.7006 70.8331 78.0778 70.8331C77.5509 70.8331 77.1198 71.0274 76.7365 71.3674C76.4012 71.7073 76.1138 72.1444 75.9701 72.6787C75.8263 73.2129 75.7784 73.7472 75.8264 74.33C75.8743 74.9128 76.0659 75.4471 76.3533 75.9327C76.2575 76.2241 76.0659 76.5156 75.8743 76.9041C75.6826 77.2926 75.491 77.6812 75.2994 78.1183C75.1078 78.5068 74.9162 78.9439 74.6767 79.3325C74.6287 79.4296 74.5808 79.5268 74.5329 79.6239C74.3413 79.9153 74.1018 80.2553 73.9102 80.5953C73.6707 81.0324 73.3832 81.4209 73.1437 81.858C72.8563 82.2951 72.6168 82.6837 72.3772 83.0236C72.1377 83.3636 71.9461 83.655 71.7545 83.8979C71.5629 84.0921 71.4192 84.2378 71.3234 84.2864C71.2275 84.335 71.0838 84.3835 70.988 84.3835C70.8922 84.3835 70.7964 84.335 70.7485 84.2378C70.6527 84.1407 70.6048 83.9464 70.6048 83.6065C70.6527 83.2665 70.7006 82.8779 70.8443 82.3923C70.9401 81.9066 71.1317 81.4209 71.3234 80.8381C71.515 80.2553 71.7545 79.6725 71.994 79.0896C72.521 77.6812 73.1437 76.1756 73.9102 74.4757C73.3353 74.1843 72.7605 74.0386 72.1856 73.9415C71.994 73.8929 71.8503 73.8929 71.6587 73.8929C71.7066 73.8443 71.7545 73.7472 71.8024 73.6986C71.9461 73.4558 72.0898 73.2615 72.1856 73.0187C72.2335 73.0187 72.2814 73.0187 72.3293 73.0187C72.9042 73.1158 73.3832 73.0672 73.7665 72.8244C74.1018 72.6301 74.3892 72.3873 74.5808 72.193C74.6766 72.0959 74.8204 71.9016 74.9162 71.7559C74.9641 71.6588 75.012 71.5131 75.0599 71.4159L75.7305 69.8618C75.8263 69.5218 75.8264 69.2789 75.6347 69.0847C75.5389 68.9875 75.4431 68.939 75.2994 68.8418C74.6287 68.599 73.9581 68.5019 73.3832 68.5504C72.7605 68.599 72.2814 68.6476 71.9461 68.6961C71.8024 68.7447 71.6587 68.7933 71.515 68.9875C71.4671 69.0361 71.4192 69.0847 71.3713 69.1818C71.2275 69.5218 71.0838 69.8132 70.988 70.1046C70.8922 70.396 70.7964 70.6388 70.7006 70.9302L70.6048 71.2702C70.5569 71.4645 70.5569 71.6588 70.6527 71.853C70.7485 72.0959 70.9401 72.3387 71.1796 72.533C71.2755 72.6301 71.3713 72.6787 71.4671 72.7273C71.2754 72.9215 71.1317 73.0672 70.9401 73.2615C70.6527 73.5043 70.3653 73.7472 70.0778 73.99C69.7425 74.2329 69.4072 74.5243 69.1677 74.67C69.0719 74.7671 68.9281 74.8157 68.8323 74.9128C68.018 75.3985 67.2036 75.787 66.2934 76.0299C65.8144 76.1756 65.3353 76.2727 64.8563 76.3213C64.2814 76.3698 63.7545 76.3213 63.1796 76.2727C63.0359 76.2727 62.9401 76.2727 62.7964 76.2241C62.5569 76.1756 62.3174 76.2241 62.1737 76.3213C62.1258 76.3698 62.0778 76.4184 61.982 76.5155C61.9341 76.6127 61.9341 76.6613 61.9341 76.7584C61.9341 77.0012 62.0299 77.1955 62.1737 77.3898C62.2216 77.4383 62.2695 77.5355 62.3174 77.584C62.5569 77.924 62.8922 78.1669 63.2275 78.4583C63.5629 78.7497 63.994 78.9439 64.3772 79.1382C64.4731 79.1868 64.4731 79.1868 64.4252 79.2839C63.7545 80.1581 63.2275 81.1295 62.3653 81.858C62.0299 82.1494 62.0299 82.1494 61.7425 81.858C61.6467 81.7609 61.5509 81.6637 61.4072 81.5666C61.2635 81.4209 61.1198 81.3238 60.976 81.1781C60.8323 81.0324 60.7365 80.9352 60.5928 80.7895L60.5449 80.741C60.4491 80.6438 60.3054 80.4981 60.2096 80.3524C60.1617 80.3038 60.1617 80.3038 60.1138 80.2553C60.018 80.1581 59.9222 80.0124 59.8263 79.9153C59.7784 79.8667 59.7784 79.8182 59.7305 79.7696C59.6347 79.6725 59.5868 79.5753 59.491 79.4296C59.4431 79.3811 59.3952 79.2839 59.3473 79.2354C59.2994 79.1382 59.2036 79.0411 59.1557 78.9439C59.1078 78.8468 59.0599 78.7497 59.012 78.7011C58.9641 78.604 58.9162 78.5554 58.8683 78.4583C58.7725 78.3126 58.7246 78.1669 58.6287 78.0212C58.6287 77.9726 58.5808 77.9726 58.5808 77.924C58.5329 77.8269 58.5329 77.7783 58.485 77.6812C58.2934 77.1955 58.1018 76.6613 58.006 76.1756C57.9581 75.9327 58.0539 75.7385 58.1497 75.5928C58.3892 74.9614 58.6766 74.33 59.1557 73.8443C59.3952 73.6015 59.6347 73.3586 59.9222 73.1644C60.018 73.1158 60.0659 73.0672 60.1617 73.0187L60.2096 72.9701C60.2575 72.9215 60.3533 72.873 60.4012 72.8244C60.4491 72.8244 60.4491 72.7758 60.497 72.7758C60.5449 72.7273 60.5928 72.7273 60.6886 72.6787C60.7365 72.6787 60.7844 72.6301 60.8323 72.6301C60.8802 72.5816 60.9281 72.5816 60.976 72.533C61.024 72.533 61.0719 72.4844 61.1198 72.4844C61.4551 72.3387 61.7904 72.1444 62.1737 71.9987C62.4611 71.9016 62.7006 71.853 62.988 71.8045C63.1796 71.7559 63.3713 71.7073 63.515 71.5616C63.6108 71.4645 63.6587 71.4159 63.6587 71.2702C63.6587 71.2217 63.6587 71.2217 63.6587 71.1731C63.515 70.5903 63.3713 70.0075 63.2754 69.4246C63.2275 69.1818 63.2275 68.8904 63.2275 68.6476C63.2275 67.8705 63.2755 67.0934 63.3713 66.3163C63.4192 65.8792 63.515 65.4421 63.6108 65.005C63.6587 64.7621 63.8024 64.5193 63.8982 64.325C64.1856 63.8393 64.2335 63.3537 64.0898 62.7708C63.8982 62.1395 63.8024 61.5081 63.7066 60.8767C63.5629 60.051 63.4671 59.2254 63.3713 58.3997C63.3234 57.8169 63.2754 57.2341 63.2754 56.6513C63.2754 55.6799 63.3713 54.7086 63.6587 53.7372C63.8503 53.1544 64.1377 52.6202 64.4252 52.0859C64.7605 51.5031 65.1437 50.9203 65.5749 50.386C65.8623 50.0461 66.2455 49.7547 66.5329 49.4147C66.5808 49.3175 66.6767 49.2204 66.7246 49.1233C66.7725 49.0261 66.7725 48.929 66.7246 48.8319C66.1976 47.9091 65.5269 47.0834 64.8084 46.2578C64.6168 46.0635 64.4252 45.8207 64.2335 45.5778C64.6647 45.6264 65 45.7235 65.3832 45.8207C66.1018 46.0635 66.7246 46.452 67.3473 46.9377L67.3952 46.9863C67.5389 47.0349 67.6347 47.1806 67.7784 47.2777C67.8263 47.3263 67.8263 47.3748 67.8263 47.4234C67.7784 48.3462 67.8743 49.3175 68.018 50.2403C68.3054 52.1345 69.024 53.8344 70.3174 55.2914C70.988 56.0199 71.7545 56.6513 72.6168 57.0884C73.5269 57.5255 74.485 57.7684 75.5389 57.8169C76.497 57.8655 77.3593 57.6226 78.2216 57.2827C78.4611 57.1855 78.4611 57.1855 78.509 57.4284C78.6527 58.0598 78.6527 58.6911 78.5569 59.3225C78.3653 60.4882 77.8862 61.4595 76.9281 62.1395C76.018 62.8194 75.012 62.9165 73.9581 62.5766C73.1437 62.2852 72.4731 61.7509 71.8982 61.1681C71.6108 60.8767 71.3713 60.9253 71.0838 61.0224C70.5569 61.2167 70.0778 61.5081 69.5988 61.7509C68.6886 62.188 67.7305 62.3337 66.7246 62.2366C66.6287 62.2366 66.5329 62.2366 66.4371 62.2366C66.3413 62.2366 66.2455 62.2852 66.1976 62.3823C66.1497 62.4794 66.1976 62.5766 66.2934 62.6737C66.485 62.9165 66.8204 63.0137 67.1078 63.0623C67.5868 63.1594 68.018 63.1108 68.497 63.0137C69.3114 62.8194 70.0778 62.4794 70.8443 62.1395C70.9401 62.0909 71.0359 61.9452 71.1796 61.9938C71.2755 62.0423 71.3713 62.1395 71.4671 62.2366C71.9461 62.6737 72.4731 63.0623 73 63.3537C73.3353 63.4994 73.6707 63.6451 74.006 63.7422C74.1497 63.7908 74.2934 63.8393 74.3892 63.985C74.6287 64.2279 74.8204 64.5193 75.0599 64.8107C75.2515 65.005 75.3473 65.1021 75.5868 65.3935C76.2575 65.7335 76.9281 66.0735 77.6467 66.3163C78.9401 66.7048 80.2335 66.9477 81.5749 66.9477C82.7725 66.9477 83.9701 66.7534 85.0719 66.2677C85.4551 66.0735 85.8383 65.8792 86.2216 65.6849C86.4132 65.5878 87.515 65.1021 88.8084 65.6363C90.3892 66.2677 91.2036 67.4819 91.2036 67.4819C91.2036 67.4819 90.9641 66.6077 90.3892 65.8306C90.2455 65.6849 90.1018 65.5392 89.9581 65.3935C89.0958 64.325 87.8982 64.0336 86.6048 64.1307C86.1737 64.1793 85.7904 64.2279 85.4072 64.3736C85.4072 64.325 85.4551 64.2764 85.4551 64.2764C85.6946 63.985 85.9341 63.6936 86.1737 63.4022C86.7006 62.7223 87.1317 61.9938 87.515 61.2652C87.7545 60.7796 87.994 60.2939 88.1377 59.8082C88.3293 59.2254 88.521 58.6911 88.7126 58.1083C88.8563 57.6226 89 57.137 88.9042 56.6027C88.8563 56.3599 88.8084 56.3113 88.6168 56.457C88.3293 56.6027 88.1377 56.8456 87.8982 57.0884C87.6108 57.4284 87.3713 57.7684 87.0359 58.0598C86.988 58.1083 86.9401 58.1569 86.8922 58.1569C85.5509 59.1768 84.0659 59.5654 82.4371 59.4197C81.9102 59.3711 81.3832 59.2254 80.8563 58.9825C80.4731 58.7883 80.0898 58.5454 79.7545 58.3026C79.6108 58.2055 79.515 58.1083 79.515 57.9141C79.515 57.5741 79.4192 57.2827 79.3234 56.9913C79.2755 56.8941 79.2755 56.8456 79.4192 56.797C79.8503 56.6027 80.2335 56.3113 80.6647 56.117C81.0479 55.9228 81.3353 55.6314 81.7665 55.5828C82.3892 55.4857 82.9162 55.1457 83.4431 54.7571C84.4491 54.0286 85.2635 53.0573 85.7425 51.8916C85.8383 51.6002 85.982 51.3088 85.8862 50.9689C85.8383 50.7746 85.7425 50.726 85.5509 50.7746C85.4072 50.8231 85.3114 50.9689 85.1677 51.066C84.5449 51.7459 83.7784 52.1345 82.8204 51.8916C82.3413 51.7945 81.9102 51.6488 81.5269 51.406C81.0479 51.1631 80.5689 50.8717 80.0419 50.6289C79.9461 50.5803 79.8982 50.5803 80.0419 50.4832C81.0479 49.609 81.7186 49.1233 82.6767 48.1519C83.4431 47.3748 84.4491 46.1121 84.7844 45.5292C84.9761 45.0921 85.024 44.6065 84.8802 44.5579C84.4491 44.3636 84.1138 44.7036 83.9222 44.8007C83.0599 45.2864 82.2455 45.7721 81.4311 46.2578C80.4252 46.8406 79.4192 47.4234 78.3653 47.9576C78.2695 48.0062 78.2216 47.9576 78.1737 47.9091C77.9341 47.4234 77.5988 46.9863 77.3114 46.5006C76.6407 45.5292 75.9222 44.655 74.9162 44.0722C74.1976 43.6351 73.479 43.2951 72.6647 43.1009C72.5689 43.1009 72.521 43.1009 72.4252 43.0523C72.3772 43.0523 72.3293 43.0523 72.2335 43.0037C71.8982 42.9552 71.6108 42.9066 71.2755 42.9066C71.2275 42.9066 71.1796 42.9066 71.0838 42.9066C70.988 42.9552 70.8922 42.9552 70.7964 42.9066C69.1198 43.0037 67.6347 43.5865 66.5329 44.8979C66.4371 45.0436 66.3413 45.0436 66.1976 44.9464C65.4311 44.5579 64.6647 44.3636 63.8024 44.3636C63.6587 44.3636 63.515 44.3636 63.3713 44.3636C62.988 44.4122 62.8443 44.5579 62.7485 44.9464C62.4611 46.2092 62.3174 47.472 62.3653 48.7833C62.3653 49.1718 62.4132 49.5118 62.4611 49.9004C62.4611 49.9489 62.4611 49.9975 62.4132 50.0461C61.982 50.2889 61.7425 50.7746 61.4551 51.1631C61.1677 51.6002 60.9281 52.0859 60.6886 52.5716C60.2096 53.5429 59.7784 54.5143 59.491 55.5828C59.4431 55.8256 59.3473 56.117 59.2994 56.3599C59.2994 56.5056 59.2515 56.6999 59.2036 56.8456C59.2036 56.9427 59.1557 57.0398 59.1557 57.137C59.1557 57.4769 59.1078 57.8169 59.012 58.1569C59.012 58.254 59.012 58.3512 59.012 58.4483C59.0599 58.594 59.012 58.7397 59.012 58.8854C59.012 59.7596 59.1078 60.5853 59.3473 61.4109C59.5868 62.4794 60.0659 63.4022 60.6407 64.2764C60.497 64.3736 60.3533 64.4222 60.2575 64.5193C59.4431 65.1021 58.6766 65.8306 57.8623 66.7534C57.0479 67.6762 56.2335 68.7447 55.4671 69.9589C54.6527 71.1731 53.8862 72.3873 53.1198 73.6986C53.1677 73.65 53.1677 73.6015 53.2156 73.5043C53.2635 73.4558 53.2635 73.3586 53.3114 73.2615C53.3114 73.2129 53.3114 73.2129 53.3593 73.2129C53.4551 72.9215 53.503 72.6787 53.5509 72.4844C53.5988 72.2901 53.6467 72.1444 53.6946 71.9987C53.7904 71.5131 53.8383 71.0274 53.8383 70.4931C53.8383 69.9589 53.7904 69.4732 53.6467 68.9875C53.503 68.5019 53.3114 68.1133 53.024 67.7248C52.7365 67.3362 52.3533 67.0934 51.8743 66.8991C51.7305 66.8505 51.5868 66.802 51.491 66.802C51.3473 66.802 51.2036 66.7534 51.1078 66.7534C50.1976 66.6563 49.2874 66.9477 48.2814 67.6762C47.2754 68.4047 46.3174 69.3761 45.3114 70.5903C45.5509 69.8132 45.6467 69.0847 45.6467 68.3076C45.6467 67.5305 45.4072 66.802 44.9281 66.0249C44.5928 65.4421 44.1138 65.005 43.5389 64.7621C42.9641 64.4707 42.4371 64.325 41.8623 64.2764C41.2874 64.2279 40.7605 64.2279 40.2335 64.2764C39.7066 64.325 39.3234 64.4222 39.1317 64.4707C38.4132 64.665 37.6946 64.8593 36.9281 65.1507C36.1617 65.4421 35.3952 65.7821 34.7245 66.1706C34.006 66.6077 33.3832 67.0448 32.8563 67.5791C32.3293 68.1133 31.8982 68.6961 31.6108 69.3761C31.2754 70.2017 31.1796 70.8817 31.2754 71.4159C31.3713 71.9502 31.5629 72.3873 31.8024 72.7273C32.0898 73.1158 32.4731 73.4558 32.9042 73.6986C33.0479 73.4072 33.3353 73.0672 33.6707 72.5816C34.0539 72.0959 34.5329 71.6102 35.1557 71.076C35.7784 70.5417 36.497 70.0075 37.3114 69.4732C38.1257 68.939 39.0359 68.5019 40.0898 68.0647C40.2814 67.9676 40.521 67.919 40.7605 67.8219C41.0479 67.7248 41.2874 67.6762 41.5269 67.5791C41.7665 67.5305 42.006 67.4334 42.1976 67.4334C42.3892 67.3848 42.5329 67.4334 42.5808 67.4819C42.6287 67.5791 42.6287 67.7248 42.5329 68.0647C42.4371 68.3561 42.2934 68.6961 42.1497 69.0847C41.9581 69.4732 41.7665 69.8618 41.5749 70.2503C41.3832 70.6388 41.1916 71.0274 41.0479 71.3674C40.521 72.3873 39.9461 73.6015 39.1796 74.9128C38.4611 76.2727 37.7425 77.6326 37.0719 79.0896C36.4012 80.5467 35.8263 82.0037 35.3473 83.4608C34.8683 84.9178 34.6766 86.3263 34.7725 87.6376C34.8683 88.8032 35.1557 89.6289 35.6826 90.1146C36.2096 90.6002 36.7844 90.9402 37.4072 91.0859C38.1257 91.2802 38.9401 91.2316 39.8982 91.0859C39.2754 90.066 38.988 88.9489 39.0359 87.7347C39.0838 86.5205 39.3234 85.2092 39.7545 83.8493C40.6168 81.4209 41.7665 79.2354 43.2036 77.2926C44.6407 75.3499 46.2695 73.5529 48.0419 71.9502C48.1856 71.8045 48.3772 71.6588 48.5689 71.5616C48.7126 71.4645 48.8563 71.4159 49 71.3674C49.1916 71.3188 49.3353 71.3674 49.479 71.4645C49.6228 71.6588 49.7186 71.9016 49.6707 72.193C49.6228 72.4844 49.5269 72.873 49.3832 73.3586C48.6647 75.3499 48.0419 77.1955 47.4671 78.9439C46.8922 80.6924 46.509 82.4408 46.3174 84.1407C46.2695 84.6264 46.2216 85.0635 46.2216 85.4035V85.792C46.2216 87.1519 46.4132 88.1718 46.8443 88.8518C47.2754 89.5317 47.7066 89.9689 48.2335 90.2117C48.6168 90.406 49.0958 90.5517 49.7186 90.6488C50.3413 90.7459 50.9641 90.6002 51.6826 90.2117C51.8743 90.1146 52.0659 89.9689 52.2096 89.8231C52.3533 89.6774 52.4491 89.5317 52.5449 89.386C52.6407 89.2403 52.6407 89.0461 52.5928 88.8518C52.4012 88.9489 52.2096 88.9489 52.018 88.9489C51.8263 88.9489 51.6347 88.8518 51.3952 88.7547C51.1557 88.6575 50.9162 88.4147 50.7246 88.0747L50.5329 87.6862C50.4371 87.4433 50.3413 87.1033 50.2934 86.7634C50.2455 86.2777 50.1976 85.792 50.2455 85.3549C50.2934 84.9178 50.3413 84.4807 50.4371 84.0436C50.5329 83.655 50.6287 83.2665 50.7246 82.9751C50.8204 82.6351 50.9162 82.3923 50.9641 82.2466L51.0599 81.9552C51.5389 80.7895 52.1617 79.5753 52.8323 78.3611C53.503 77.0984 54.2695 75.9327 55.0359 74.7671C55.8024 73.6015 56.6168 72.533 57.479 71.5131C58.2934 70.4931 59.1078 69.6675 59.8743 68.939C60.0659 68.7933 60.2575 68.6476 60.4012 68.5019C60.7844 68.3076 61.0719 68.3076 61.2635 68.4533C61.4551 68.6476 61.503 68.939 61.4551 69.2304C61.4072 69.5218 61.3114 69.9103 61.1198 70.3474C60.8802 71.0274 60.8802 70.9788 60.7365 71.3188C60.6886 71.3188 60.6407 71.3674 60.6407 71.3674C59.7784 71.7559 58.9641 72.2901 58.3413 73.0187C58.006 73.3586 57.7665 73.7958 57.5749 74.2329C57.479 74.4271 57.1916 75.2042 57.2395 75.787C57.2874 76.6613 57.479 77.4869 57.8623 78.264C58.006 78.604 58.1976 78.9439 58.3892 79.2839C58.2934 79.721 58.1497 80.1581 58.0539 80.5953C57.7186 82.0037 57.5269 83.2179 57.4311 84.2378L57.3353 85.5006V85.8406C57.3353 87.0548 57.479 88.5604 57.8144 89.2403C58.6766 92.7372 63.1796 93.8057 65.6707 93.7086C66.1976 93.7086 66.7725 93.66 67.3473 93.5629C70.4611 93.0286 73.7665 91.3773 74.1976 90.2117C74.8683 88.3175 73.8623 88.9489 73.8623 88.9489C71.3234 90.9402 69.503 91.6687 68.2096 91.7659C67.9701 91.7659 67.2515 91.7659 67.012 91.7659C65 91.6687 63.515 91.0859 62.5569 90.2117L62.509 90.1631C62.0778 89.726 61.7425 89.2403 61.4551 88.7547C60.6886 87.5405 60.976 84.8207 61.3593 82.9265C61.8862 83.3636 62.4132 83.7036 62.988 83.995C63.4671 84.2378 64.4252 84.6264 65.0958 84.6749L65.1437 84.6264C65.5749 84.2864 66.0539 83.995 66.5329 83.655C66.3413 84.675 66.2934 85.5006 66.4371 86.132C66.6287 86.8605 66.8683 87.4433 67.2036 87.8319C67.5868 88.269 68.0659 88.5604 68.6886 88.7061C69.6946 88.8518 70.6527 88.609 71.515 88.0261C72.3773 87.4433 73.1437 86.7148 73.8144 85.8406C74.485 85.0149 75.0599 84.1407 75.491 83.3151C75.9701 82.4894 76.2575 81.9066 76.4491 81.5666C76.497 81.4695 76.5449 81.3723 76.5928 81.2752C76.7844 81.0324 76.9761 80.6924 77.1677 80.3524C77.3114 80.1096 77.5509 79.7696 77.7904 79.2839C78.0778 78.7982 78.3653 78.2154 78.7006 77.584C78.988 77.7783 79.3234 77.924 79.6587 77.9726C79.3713 78.8468 79.1317 79.5753 78.9401 80.2553C78.7485 80.8867 78.6048 81.4209 78.509 81.858C78.4132 82.3923 78.3174 82.7808 78.2216 83.1208C77.8862 84.4321 77.7904 85.5006 77.982 86.2291C78.1258 86.9576 78.4132 87.5405 78.7006 87.929C79.0359 88.3661 79.5629 88.6575 80.1856 88.8032C81.1916 88.9489 82.1497 88.7061 83.012 88.1233C83.8743 87.5405 84.6407 86.8119 85.3114 85.9377C85.3593 85.8891 85.4072 85.792 85.4551 85.7435C85.503 85.8892 85.503 86.0349 85.5509 86.1806C85.6467 86.6662 85.8862 87.1033 86.1737 87.4919C86.4611 87.8804 86.8443 88.1718 87.3234 88.4632C87.8024 88.7061 88.4252 88.9004 89.1437 88.9489C90.2934 89.0461 91.2036 88.8518 91.9701 88.3175C92.7365 87.8319 93.3114 87.2491 93.6946 86.5205C93.7904 87.0548 93.982 87.4433 94.2695 87.7833C94.509 88.1233 94.7485 88.3175 94.988 88.4632C95.2755 88.6575 95.5629 88.7547 95.8982 88.8032C96.9042 88.9489 97.8623 88.7061 98.7246 88.1233C99.5868 87.5405 100.353 86.8119 101.024 85.9377C101.695 85.1121 102.269 84.2378 102.701 83.4122C103.18 82.5865 103.467 82.0037 103.659 81.6637C104.042 80.9838 104.281 80.3524 104.329 79.7696C104.138 79.3325 103.994 78.9925 103.563 78.7497ZM67.8263 78.264C67.6826 78.6525 67.5868 79.0411 67.4431 79.3811C67.012 79.1868 66.6287 79.0411 66.1976 78.8468C66.1497 78.8954 64.8084 78.3611 64.3293 77.924C64.1856 77.8269 64.0898 77.6326 64.1377 77.6326C64.1377 77.3412 65.3832 77.4383 66.1976 77.3412C66.7725 77.1955 67.3473 77.0012 67.9222 76.7584C68.1138 76.6613 68.3054 76.6127 68.497 76.5155C68.2575 77.0984 68.018 77.6812 67.8263 78.264ZM94.7485 78.3126C94.7485 78.604 94.7006 78.9439 94.6527 79.2354C94.6048 79.5753 94.509 79.8667 94.4132 80.1096L94.1737 80.8867C94.1258 80.9352 94.1258 80.9838 94.1258 81.0324V81.0809C93.7904 82.0523 93.4551 82.8294 93.1198 83.4122C92.7844 83.995 92.4012 84.4321 92.0659 84.7721C91.7305 85.1121 91.3952 85.3063 91.1078 85.4035C90.7725 85.5006 90.485 85.5006 90.2455 85.452C89.8144 85.4035 89.5749 85.1606 89.479 84.7721C89.3832 84.3835 89.3353 83.995 89.4311 83.5579C89.479 83.0236 89.6228 82.4894 89.8144 81.858C90.1018 81.0324 90.4371 80.2553 90.8683 79.5753C91.2515 78.8954 91.6826 78.3611 92.1138 77.9726C92.5449 77.584 92.9282 77.2926 93.3114 77.1469C93.6946 77.0012 94.0779 77.0012 94.3653 77.1469C94.5569 77.2441 94.6527 77.3898 94.7006 77.584C94.7485 77.7297 94.7964 78.0212 94.7485 78.3126Z" fill="white"/>
<path d="M67.4431 56.3113C67.6826 56.6513 68.2575 56.9913 68.5928 57.0399C69.024 57.0884 69.024 57.1856 69.1677 57.2827C69.503 55.8257 68.2096 54.3686 66.7725 54.2715C67.1078 54.6115 67.0599 54.8057 67.1078 55.1943C67.1557 55.8742 67.2515 56.0199 67.4431 56.3113Z" fill="white"/>
<path d="M55.9464 26.2964C55.9943 26.2478 55.9943 26.2478 55.9943 26.2478C56.0901 26.2478 56.138 26.345 56.138 26.5878C56.138 27.9963 55.0362 28.6762 52.8805 28.6762C52.4015 28.6762 51.8745 28.6276 51.2518 28.5791C49.8626 30.2304 49.144 32.4645 49.144 35.2814C49.144 36.3499 49.4314 37.2242 50.0542 37.9041C50.7248 38.5841 51.5871 38.9726 52.8326 38.9726C53.5991 38.9726 54.4614 38.7298 55.3236 38.3412C55.4194 38.2926 55.4674 38.2926 55.4674 38.4384C55.4674 39.0212 55.0841 39.5554 54.3656 40.0411C53.5991 40.5753 52.6889 40.8182 51.635 40.8182C49.8626 40.8182 48.5212 40.3811 47.6111 39.4583C46.7488 38.6326 46.3656 37.5156 46.3656 36.1557C46.3656 34.5044 46.8925 32.6588 47.8985 30.5704C47.9464 30.4732 47.8985 30.4732 47.8506 30.4247C47.8027 30.3761 47.7548 30.4247 47.7069 30.4732C46.2218 32.6102 44.3057 34.2615 41.9584 35.4757C39.6111 36.7385 37.2158 37.3699 34.7248 37.3699C33.3835 37.3699 32.2817 37.0784 31.4194 36.5442C30.5093 35.9614 30.0781 35.1843 30.0781 34.2129C30.0781 33.4359 30.3176 32.8045 30.8446 32.3674C31.3236 31.9303 31.9464 31.736 32.7129 31.736C32.9524 31.736 33.1919 31.8331 33.4314 31.9788C33.7667 32.1731 33.9105 32.4159 33.9105 32.8045C33.9105 32.9987 33.8147 33.2416 33.623 33.5816C33.4314 33.873 33.3356 34.0187 33.3356 34.0187C33.3356 33.8244 33.0961 33.7273 32.5691 33.7273C32.0901 33.7273 31.8985 33.9701 31.8985 34.4558C31.8985 35.5243 32.9045 36.1071 34.9164 36.1071C39.7548 36.1071 43.8266 33.5816 47.0841 28.4819L45.7428 28.2877C44.641 28.2877 43.8266 28.5305 43.2997 28.9676C43.156 29.0648 43.1081 28.8705 43.1081 28.2877C43.1081 27.6077 43.4434 27.122 44.162 26.8792C44.7368 26.6849 45.647 26.5878 46.9404 26.5878L47.9464 26.6364C48.617 24.8879 48.9045 23.3337 48.9045 22.071C48.9045 20.8568 48.5212 19.8369 47.8027 19.0112C47.0362 18.137 46.0302 17.7484 44.8326 17.7484C42.629 17.7484 40.7608 18.5255 39.1799 20.0311C37.7907 21.391 37.12 22.7509 37.12 24.1108C37.12 25.8107 37.8865 26.6849 39.3236 26.6849C39.8027 26.6849 40.0422 26.5392 40.0422 26.2964C40.0422 26.1992 39.9943 26.1507 39.8985 26.1507C39.5153 25.9078 39.3236 25.6164 39.3236 25.2765C39.3236 24.8879 39.4673 24.5479 39.8027 24.3051C40.0901 24.0623 40.4733 23.9651 40.9524 23.9651C42.0542 23.9651 42.629 24.4994 42.629 25.665C42.629 26.1992 42.2937 26.7335 41.623 27.2677C40.9045 27.802 40.0901 28.0934 39.1799 28.0934C38.1739 28.0934 37.3596 27.802 36.641 27.122C35.8745 26.4421 35.4913 25.5193 35.4913 24.4022C35.4913 22.3624 36.4015 20.5168 38.1739 18.8655C40.0901 17.0685 42.4374 16.1457 45.2159 16.1457C47.1799 16 48.8087 16.4857 50.0542 17.5056C51.3476 18.5741 52.0182 20.0311 52.0182 21.8767C52.0182 23.1395 51.6829 24.4508 51.0123 25.7621L50.9644 25.8107C51.0123 25.8593 51.0123 25.8107 51.0123 25.7621C52.641 23.3823 54.7009 21.391 57.1919 19.8369C59.7787 18.2827 62.2218 17.457 64.5212 17.457C65.2877 17.457 65.9105 17.6027 66.3895 17.9427C66.7727 18.2341 67.0123 18.5255 67.0123 18.8655C67.0123 19.3026 66.8685 19.6426 66.5332 19.934C66.1979 20.2254 66.0063 20.274 65.9584 20.0797C65.623 19.3512 65.0003 19.0112 64.0901 19.0112C62.4614 19.0112 60.5452 19.6912 58.3895 21.0025C55.9464 22.5567 53.9344 24.4994 52.3057 26.9763C54.0781 27.122 55.3236 26.8792 55.9464 26.2964Z" fill="white"/>
<path d="M63.2278 33.3873C63.132 33.533 63.0841 33.7273 63.0841 33.873C63.0841 34.2129 63.3236 34.4072 63.8026 34.4072C65.4314 34.4072 67.635 32.7559 70.3176 29.4047L70.8445 28.7733C70.9883 28.7733 71.0841 29.0162 71.0841 29.5504C71.0841 29.8904 70.7487 30.5218 70.0781 31.2989C67.3954 34.4558 64.8086 36.0585 62.3655 36.0585C60.9763 36.0585 60.2577 35.5243 60.2577 34.4072C58.7727 35.4757 57.4314 36.0585 56.2338 36.0585C54.8445 36.0585 54.126 35.5243 54.126 34.4558C54.126 34.0187 54.2697 33.5816 54.605 33.0959L58.102 27.6077C58.2457 27.3649 58.3415 27.122 58.3415 26.9763C58.3415 26.8306 58.2936 26.6849 58.102 26.5392C57.9583 26.4421 57.8625 26.3935 57.8625 26.345C57.8625 26.2478 57.9104 26.1992 58.0062 26.1507C58.3894 25.9078 58.8685 25.8107 59.4433 25.8107C60.4493 25.8107 60.9763 26.1507 60.9763 26.7821C60.9763 27.0735 60.8326 27.4134 60.593 27.802C59.0601 30.0361 57.9104 31.8817 57.0002 33.4359C56.9044 33.5816 56.8565 33.7758 56.8565 33.9215C56.8565 34.2615 57.096 34.4558 57.5751 34.4558C59.108 34.4558 60.8805 32.8045 62.9403 29.5504C63.8984 27.9963 64.4254 27.1706 64.4254 26.9763C64.4254 26.8306 64.3775 26.6849 64.1859 26.5392C64.0421 26.4421 63.9463 26.3935 63.9463 26.345C63.9463 26.2478 63.9942 26.1992 64.09 26.1507C64.4733 25.9078 64.9523 25.8107 65.5272 25.8107C66.3895 25.8107 66.9164 26.0535 67.0601 26.4907C67.2038 26.5392 67.3475 26.5392 67.4433 26.4907C67.9703 26.345 68.1619 26.005 67.9703 25.4707C67.7308 24.7908 67.108 24.5479 66.1499 24.6936C66.1978 24.0623 66.4374 23.7709 66.8206 23.7223C67.9224 23.6252 68.6409 24.1108 68.9763 25.1793C69.1679 25.665 69.1679 26.1992 69.0242 26.7821C68.8326 27.462 68.4493 27.8991 67.8266 28.0448C67.4433 28.142 67.0601 28.0934 66.629 27.8506C65.2397 30.0361 64.09 31.8817 63.2278 33.3873Z" fill="white"/>
<path d="M76.5935 31.9788C77.6953 32.2217 79.1324 31.2503 80.9049 29.0162C80.9528 28.9191 81.0486 28.9191 81.1444 28.9191C81.2881 28.9191 81.3839 29.1619 81.3839 29.6961C81.3839 29.9875 81.2402 30.279 81.0007 30.5704C79.2762 32.5616 77.4558 33.4844 75.4438 33.3873C73.7193 35.1357 72.0905 35.9614 70.4618 35.9614C68.7851 35.9614 67.9229 35.1843 67.9229 33.6787C67.9229 32.076 68.833 30.3761 70.6534 28.5305C72.5696 26.5878 74.4857 25.665 76.4019 25.665C76.9767 25.665 77.5037 25.7621 77.839 25.9564C78.0785 26.005 78.3181 26.0535 78.6055 26.1993C79.0845 26.4421 79.4678 26.5392 79.7073 26.4421C80.2342 26.2964 80.4259 25.9564 80.2342 25.4222C79.9947 24.7422 79.372 24.4994 78.4139 24.6451C78.4618 24.0137 78.7013 23.7223 79.0845 23.6737C80.1863 23.5766 80.9049 24.0623 81.2402 25.1308C81.4318 25.6164 81.4318 26.1507 81.2881 26.7335C81.0965 27.4134 80.7133 27.8506 80.0905 27.9963C79.7073 28.0934 79.2282 27.9963 78.7492 27.7049C78.7013 27.6563 78.7013 27.6563 78.7013 27.6563C78.5576 28.7733 77.839 30.1818 76.5935 31.9788ZM73.863 30.8132C74.1504 30.5218 74.5336 30.3761 74.9648 30.3761C75.4438 30.3761 75.827 30.4732 76.1145 30.7161C77.0247 29.6476 77.5037 28.5791 77.5037 27.6563C77.5037 26.9763 77.1205 26.6364 76.354 26.6364C75.3001 26.6364 74.1025 27.462 72.6654 29.0648C71.2761 30.6675 70.5576 32.076 70.5576 33.3387C70.5576 34.1158 70.9887 34.5044 71.851 34.5044C72.5696 34.5044 73.3839 34.0187 74.342 33.0473C73.7672 32.7559 73.4318 32.3188 73.4318 31.7846C73.3839 31.4446 73.5276 31.1046 73.863 30.8132ZM76.9288 20.2254C77.0726 20.1283 77.4079 20.1283 77.839 20.1283C78.7492 20.1283 79.2282 20.4682 79.2282 21.1482C79.2282 21.6824 78.7971 22.2167 77.9348 22.7995C77.1205 23.3337 76.4019 23.5766 75.6833 23.5766C75.2043 23.5766 74.9169 23.4309 74.7732 23.1395C74.7252 23.0909 74.7252 23.0423 74.7252 22.9938C74.7252 22.8481 74.8211 22.7995 75.0127 22.8481H75.2522C75.7312 22.8481 76.2582 22.7024 76.7851 22.411C77.3121 22.1195 77.5516 21.7796 77.5516 21.391C77.5516 21.0996 77.36 20.9539 77.0247 20.9539C76.8809 20.9539 76.7372 21.0025 76.4977 21.0996C76.2103 21.1968 76.0666 21.2453 75.9708 21.2453C75.6833 21.2453 75.5875 21.1482 75.5875 21.0025C75.5875 20.9539 75.5875 20.9539 75.6354 20.9054C76.0187 20.6139 76.354 20.4197 76.5935 20.3225C76.7851 20.274 76.9288 20.2254 76.9288 20.2254Z" fill="white"/>
<path d="M86.653 27.8506C85.4554 27.8506 84.1141 28.6762 82.6291 30.3761C81.2398 31.9303 80.3776 33.3387 79.9943 34.6501C79.8985 34.9415 80.0422 35.1357 80.2817 35.33C80.3297 35.3786 80.3776 35.3786 80.3776 35.4757C80.3776 35.5729 80.3296 35.6214 80.2338 35.7186C79.8506 35.9614 79.2279 36.0585 78.4614 36.0585C77.5991 36.0585 77.168 35.7186 77.168 34.99C77.168 34.4558 77.4554 33.7273 78.0781 32.8045L79.659 30.4732C81.0003 28.6277 81.7189 27.4135 81.8147 26.9278C81.8626 26.6849 81.8147 26.4907 81.671 26.345L81.4314 26.1021C81.4314 25.8593 81.8147 25.7621 82.5332 25.7621C83.635 25.7621 84.162 26.0536 84.162 26.5878C84.162 27.0249 83.8746 27.5592 83.2997 28.2391C83.3476 28.142 83.3955 28.142 83.3955 28.2391L83.4434 28.1905C85.2638 26.5878 86.7488 25.8107 88.0422 25.8107C89.3356 25.8107 89.9584 26.2964 89.9584 27.2192C89.9584 28.0448 89.5752 29.0162 88.7608 30.279L86.7488 33.3873C86.653 33.533 86.6051 33.6787 86.6051 33.8244C86.6051 34.2615 86.8925 34.5044 87.5153 34.5044C88.5213 34.5044 90.5812 32.6102 93.5033 28.8219C93.7907 28.8219 93.9345 29.0648 93.9345 29.5504C93.9345 29.8418 93.8386 30.1333 93.647 30.3761C92.3057 32.0274 91.3476 33.1445 90.7728 33.6787C89.144 35.2329 87.6111 36.01 86.2219 36.01C84.7368 36.01 84.0183 35.4757 84.0183 34.3587C84.0183 33.5816 84.5452 32.4645 85.647 31.0075C86.7009 29.5504 87.2279 28.6762 87.2279 28.3848C87.3237 27.9963 87.132 27.8506 86.653 27.8506Z" fill="white"/>
<path d="M97.7187 36.7385C98.4373 36.7385 99.0122 36.8842 99.4433 37.2242C99.9223 37.5156 100.114 37.9527 100.114 38.4869C100.114 38.924 99.9702 39.264 99.6349 39.5554C99.2996 39.8468 98.8684 39.9925 98.3415 39.9925C97.6708 39.9925 97.3834 39.8468 97.3834 39.5554C97.6708 39.3611 97.8625 39.0697 97.8625 38.6326C97.8625 38.1469 97.575 37.9041 97.0481 37.8555C94.3655 41.8867 91.4433 43.878 88.2816 43.878C86.8924 43.878 86.1738 43.3437 86.1738 42.2267C86.1738 40.7696 87.2756 39.4583 89.4313 38.3412C91.2996 37.3699 93.2157 36.787 95.1798 36.6899L96.1858 35.0386C95.1798 35.67 94.2696 36.01 93.3595 36.01C92.5451 36.01 91.9223 35.7671 91.4912 35.33C91.108 34.8929 90.9163 34.4072 90.9163 33.7758C90.9163 32.1731 91.8265 30.4247 93.599 28.6276C95.5151 26.6849 97.4313 25.7621 99.3954 25.7621C100.353 25.7621 101.024 26.1021 101.407 26.7821C101.982 26.1021 102.701 25.7621 103.467 25.7621C104.473 25.7621 105 26.005 105 26.3935C105 26.345 104.856 26.4421 104.569 26.5878C104.186 26.8306 103.755 27.2677 103.324 27.8991C102.509 29.0648 101.503 30.6189 100.21 32.6588L97.7187 36.7385ZM90.0062 39.2154C88.1858 40.1868 87.3235 41.1582 87.3235 42.1295C87.3235 42.6638 87.6589 42.9552 88.3295 42.9552C89.4313 42.9552 90.6289 42.3724 91.9223 41.1582C93.0241 40.1382 93.9343 39.0697 94.5092 37.8555C93.1678 37.8555 91.6828 38.2927 90.0062 39.2154ZM94.7008 34.2615C95.084 34.2615 95.611 34.1158 96.1858 33.7758C96.9523 33.3387 97.575 32.7074 98.0541 31.9788L100.353 28.3362C100.449 28.142 100.497 27.9963 100.497 27.8506C100.497 27.122 100.114 26.7821 99.2517 26.7821C98.2457 26.7821 97.0002 27.6077 95.611 29.1619C94.2217 30.7161 93.5511 31.9788 93.5511 32.9502C93.599 33.8244 93.9822 34.2615 94.7008 34.2615Z" fill="white"/>
<path d="M26.9641 52.9601C25.7665 54.8057 25.1916 56.117 25.1916 56.8941C25.1916 57.0398 25.2874 57.1855 25.4311 57.2827C25.5269 57.3312 25.5269 57.3798 25.5269 57.4284C25.5269 57.4769 25.479 57.5255 25.4311 57.5741C25 57.914 24.4731 58.1083 23.8024 58.1083C23.0359 58.1083 22.6527 57.7198 22.6527 56.8941C22.6527 56.457 23.1317 55.4371 24.1377 53.7858C25.1916 51.9888 25.7665 50.9688 25.8623 50.7746C25.9102 50.6774 25.9102 50.5803 25.9102 50.4832C25.9102 50.0461 25.7186 49.8518 25.2874 49.8518C24.2335 49.8518 23.0359 50.6774 21.6946 52.3773C20.497 53.9315 19.7305 55.34 19.3952 56.6513C19.2994 56.9427 19.4431 57.137 19.6826 57.3312C19.7305 57.3798 19.7784 57.3798 19.7784 57.4769C19.7784 57.5741 19.7305 57.6226 19.6347 57.7198C19.2994 57.9626 18.7725 58.0598 18.0539 58.0598C17.3832 58.1569 17 57.7683 17 57.0884C17 56.5541 17.2874 55.8256 17.8144 54.9028L19.2036 52.5716C20.1138 51.1146 20.7365 50.0461 20.976 49.4632C21.0719 49.1718 21.1198 48.9776 21.1198 48.8319C21.1198 48.6376 21.0719 48.4919 20.976 48.3947L20.7844 48.2005C20.7844 47.9576 21.1198 47.8605 21.8383 47.8605C22.7485 47.8605 23.2275 48.1519 23.2275 48.7347C23.2275 49.1718 22.988 49.6575 22.509 50.3375C22.5569 50.2403 22.6048 50.2403 22.6048 50.3375L22.6527 50.2889C24.2335 48.6862 25.5749 47.9091 26.7246 47.9091C27.9222 47.9091 28.497 48.3948 28.497 49.3175C28.497 49.4632 28.4491 49.6089 28.4012 49.7547L28.3533 49.8518L28.4491 49.8032C29.982 48.6376 31.2275 48.0548 32.1856 48.0548C33.3353 48.0548 33.8623 48.589 33.8623 49.7061C33.8623 49.5118 32.9521 51.4545 31.0838 55.4857C30.988 55.6314 30.988 55.7771 30.988 55.9228C30.988 56.4084 31.2275 56.6513 31.7066 56.6513C32.2335 56.6513 33.0479 56.0199 34.1976 54.7086C35.1078 53.6401 35.9222 52.5716 36.5449 51.5517C36.7844 51.1631 36.976 50.9688 37.024 50.9688C37.2156 50.9688 37.3114 51.1631 37.3114 51.5517C37.3114 51.8431 37.2635 52.0859 37.2156 52.183C37.2156 52.5716 36.497 53.5915 35.012 55.2914C33.3353 57.2341 31.8982 58.2055 30.7485 58.2055C29.3593 58.2055 28.6407 57.6712 28.6407 56.5056C28.6407 55.7285 29.1198 54.6114 30.0778 53.1544C30.988 51.6974 31.4671 50.8231 31.4671 50.5317C31.4671 50.0946 31.2275 49.8518 30.7964 49.8518C29.5988 49.8032 28.3054 50.8231 26.9641 52.9601Z" fill="white"/>
<path d="M34.9162 61.5566C34.5808 61.9452 34.2455 62.1394 33.8144 62.1394C33.2874 62.1394 33 61.8966 33 61.4109C33 60.9738 33.1437 60.5853 33.479 60.1967C33.8144 59.8568 34.1976 59.6625 34.6766 59.6625C35.1557 59.6625 35.3473 59.9053 35.3473 60.391C35.3952 60.8281 35.2515 61.2167 34.9162 61.5566ZM36.018 58.0112C34.5329 58.0112 33.8144 57.2827 33.8144 55.7771C33.8144 54.1743 34.6287 52.4744 36.2096 50.6774C37.8862 48.7347 39.6108 47.8119 41.2874 47.8119C42.6287 47.8119 43.2515 48.3947 43.2515 49.5604C43.2515 50.6289 42.6287 52.1345 41.4311 54.0772C42.4371 54.32 43.6826 53.3487 45.2635 51.1145C45.3114 51.0174 45.3593 51.0174 45.4551 51.0174C45.5988 51.0174 45.6946 51.2603 45.6946 51.7459C45.6946 52.0373 45.5988 52.3287 45.3593 52.6202C43.8264 54.6114 42.2455 55.5342 40.4252 55.4371C38.8922 57.1855 37.4551 58.0112 36.018 58.0112ZM38.6048 53.8829C38.6048 53.4944 38.7485 53.1544 39.0359 52.863C39.3234 52.5716 39.6587 52.4259 39.994 52.4259C40.4252 52.4259 40.7605 52.523 41 52.7659C41.8144 51.6974 42.1976 50.6289 42.1976 49.7546C42.1976 49.0747 41.8623 48.7347 41.1916 48.7347C40.2814 48.7347 39.1796 49.5604 37.9341 51.1631C36.6886 52.7659 36.0659 54.1743 36.0659 55.4371C36.0659 56.2142 36.4491 56.6027 37.2156 56.6027C37.8383 56.6027 38.5569 56.117 39.4192 55.1457C38.8922 54.8543 38.6048 54.4172 38.6048 53.8829ZM38.7485 47.0834C38.5569 47.0834 38.4611 46.9863 38.4611 46.8406C38.4611 46.9863 39.3713 46.452 41.1916 45.2378C42.8204 44.0722 43.5868 43.538 43.3952 43.538C43.1557 43.538 43.5868 44.3636 44.5928 46.0635C45.0719 46.792 45.3114 47.1806 45.3114 47.132C45.3114 47.1806 45.2635 47.2291 45.2156 47.2291C43.8743 47.1806 43.012 46.5977 42.6287 45.3835C41.0479 46.5492 39.7545 47.0834 38.7485 47.0834Z" fill="white"/>
<path d="M47.2282 51.2117C46.0785 52.6687 45.5036 53.9801 45.5036 55.1457C45.5036 56.0685 45.9826 56.5056 47.0365 56.5056C49.1922 56.5056 51.4916 54.7086 54.0785 51.066C54.1743 50.9689 54.2222 50.9203 54.2701 50.9203C54.3659 50.9203 54.4138 51.066 54.4138 51.406C54.4138 51.8431 54.3659 52.1345 54.2701 52.2802C51.7312 56.117 48.8569 58.0112 45.5994 58.0112C43.9707 58.0112 43.1084 57.2827 43.1084 55.7771C43.1084 54.1743 43.9228 52.4745 45.5515 50.6289C47.2282 48.6862 48.9527 47.7148 50.5814 47.7148C51.1084 47.7148 51.5874 47.8605 51.9228 48.1519C52.2581 48.4433 52.4018 48.7833 52.4018 49.2204C52.4018 49.7061 52.2581 50.1432 51.9707 50.4832C51.6832 50.8232 51.3 51.0174 50.7731 51.0174C50.1024 51.0174 49.7671 50.726 49.7671 50.1918C49.7671 49.9489 49.8629 49.7061 50.1024 49.4633C50.3419 49.269 50.5335 49.1718 50.7731 49.1718C50.7731 49.0261 50.6294 48.929 50.294 48.929C49.3838 49.0747 48.3779 49.8032 47.2282 51.2117Z" fill="white"/>
</g>
<defs>
<clipPath id="clip0">
<rect width="88" height="78" fill="white" transform="translate(17 16)"/>
</clipPath>
</defs>
</svg>
