<svg width="126" height="124" viewBox="0 0 126 124" fill="none" xmlns="http://www.w3.org/2000/svg">
<path d="M0 105.458V4C0 1.79086 1.79086 0 4 0H122C124.209 0 126 1.79086 126 4V105.458C126 107.667 124.209 109.458 122 109.458H73.794C72.399 109.458 71.1047 110.185 70.3786 111.376L65.9822 118.588C64.4516 121.099 60.8258 121.156 59.2178 118.694L54.3698 111.271C53.6312 110.14 52.3716 109.458 51.0208 109.458H4C1.79086 109.458 0 107.667 0 105.458Z" fill="#A1BF46"/>
<path d="M52.6594 24.5047C52.7061 24.4581 52.7061 24.4581 52.6594 24.5047C52.7528 24.5047 52.7995 24.5513 52.7995 24.7377C52.7995 25.7632 52.0993 26.276 50.6523 26.276C50.3255 26.276 49.9988 26.276 49.5787 26.2294C48.6451 27.4413 48.1784 29.0727 48.1784 31.1237C48.1784 31.9161 48.3651 32.5221 48.7852 33.0348C49.2053 33.501 49.8121 33.7806 50.6056 33.7806C51.1191 33.7806 51.6792 33.6408 52.2393 33.3145C52.286 33.2679 52.3327 33.3145 52.3327 33.4077C52.3327 33.8272 52.0993 34.2001 51.6325 34.573C51.1191 34.9459 50.5122 35.1324 49.8588 35.1324C48.6918 35.1324 47.8049 34.8061 47.2448 34.1535C46.6847 33.5476 46.4513 32.7551 46.4513 31.7763C46.4513 30.5643 46.778 29.2126 47.4782 27.6743C47.4782 27.6277 47.4782 27.5811 47.4782 27.5811C47.4782 27.5811 47.4315 27.5811 47.3848 27.5811C46.4046 29.1193 45.1443 30.2847 43.604 31.2169C42.0636 32.1492 40.4766 32.6153 38.8895 32.6153C38.0026 32.6153 37.3025 32.4289 36.7423 32.0093C36.1355 31.5898 35.8555 31.0305 35.8555 30.2847C35.8555 29.7253 35.9955 29.2592 36.3222 28.9329C36.649 28.6066 37.0224 28.4668 37.5359 28.4668C37.6759 28.4668 37.8626 28.5134 38.0026 28.6066C38.236 28.7464 38.3294 28.9329 38.3294 29.2126C38.3294 29.3524 38.2827 29.5389 38.1427 29.7719C38.0026 30.005 37.956 30.0982 37.956 30.0982C37.956 29.9584 37.8159 29.8652 37.4892 29.8652C37.1624 29.8652 37.0224 30.0516 37.0224 30.3779C37.0224 31.1703 37.6759 31.5898 38.9829 31.5898C42.1569 31.5898 44.8176 29.7253 46.9181 26.0429L45.9845 25.9963C45.2377 25.9963 44.7242 26.1361 44.3975 26.4624C44.3041 26.5556 44.2574 26.3692 44.2574 25.9963C44.2574 25.4835 44.4908 25.1573 44.9576 24.9708C45.331 24.831 45.9378 24.7377 46.778 24.7377H47.4315C47.8516 23.4792 48.085 22.3605 48.085 21.4282C48.085 20.5426 47.8516 19.7968 47.3382 19.2374C46.8247 18.6315 46.1712 18.3052 45.3777 18.3052C43.9307 18.3052 42.7171 18.8645 41.6902 19.9366C40.7566 20.9155 40.3365 21.8944 40.3365 22.9198C40.3365 24.1784 40.8033 24.7844 41.7835 24.7844C42.1103 24.7844 42.2503 24.6911 42.2503 24.5047C42.2503 24.4581 42.2036 24.4115 42.157 24.3648C41.9236 24.1784 41.7835 23.9919 41.7835 23.7123C41.7835 23.4326 41.8769 23.1995 42.1103 23.0131C42.297 22.8266 42.5771 22.7334 42.8571 22.7334C43.604 22.7334 43.9774 23.1529 43.9774 23.9919C43.9774 24.4115 43.744 24.7844 43.3239 25.1573C42.8571 25.5302 42.3437 25.7632 41.7369 25.7632C41.0834 25.7632 40.5232 25.5302 40.1031 25.064C39.5897 24.5513 39.3563 23.8987 39.3563 23.0597C39.3563 21.5681 39.9631 20.2163 41.0834 19.0044C42.3437 17.6992 43.884 17.0466 45.6578 17.0466C46.9647 17.0466 48.0383 17.4195 48.8319 18.1653C49.6721 18.9578 50.0922 20.0299 50.0922 21.335C50.0922 22.2673 49.8588 23.1995 49.4387 24.1784V24.225C49.4387 24.225 49.4387 24.225 49.4853 24.225C50.5589 22.5003 51.8659 21.0553 53.4996 19.89C55.18 18.7247 56.7671 18.1653 58.3074 18.1653C58.8209 18.1653 59.241 18.3052 59.521 18.4916C59.8011 18.6781 59.9411 18.9111 59.9411 19.1442C59.9411 19.4705 59.8478 19.7036 59.6144 19.9366C59.381 20.1231 59.2876 20.1697 59.241 20.0765C59.0076 19.5637 58.5875 19.284 58.0273 19.284C56.9538 19.284 55.6935 19.7502 54.2931 20.729C52.7061 21.8477 51.3524 23.2927 50.3255 25.064C51.4458 25.064 52.2393 24.9242 52.6594 24.5047Z" fill="white"/>
<path d="M57.4206 29.6321C57.374 29.7719 57.3273 29.8651 57.3273 30.005C57.3273 30.2846 57.4673 30.3779 57.7941 30.3779C58.8676 30.3779 60.3146 29.1659 62.0417 26.7421L62.3685 26.2759C62.4618 26.2759 62.5085 26.4624 62.5085 26.8353C62.5085 27.115 62.2751 27.5345 61.855 28.0938C60.0813 30.3779 58.4009 31.5432 56.8138 31.5432C55.8803 31.5432 55.4135 31.1237 55.4135 30.3312C54.4799 31.1237 53.5464 31.5432 52.7529 31.5432C51.8193 31.5432 51.3525 31.1703 51.3525 30.3779C51.3525 30.0516 51.4459 29.7253 51.6793 29.399L53.9665 25.3903C54.0598 25.2038 54.1065 25.064 54.1065 24.9242C54.1065 24.7843 54.0598 24.6911 53.9665 24.5979C53.8731 24.5046 53.8265 24.458 53.8265 24.458C53.8265 24.4114 53.8731 24.3648 53.9198 24.3182C54.1999 24.1784 54.4799 24.0851 54.8534 24.0851C55.5068 24.0851 55.8803 24.3182 55.8803 24.7843C55.8803 24.9708 55.7869 25.2504 55.6469 25.5301C54.6667 27.1616 53.8731 28.5133 53.313 29.6321C53.2663 29.7719 53.2196 29.8651 53.2196 30.005C53.2196 30.2846 53.3597 30.3779 53.6864 30.3779C54.6667 30.3779 55.8803 29.1659 57.1872 26.7887C57.7941 25.67 58.1208 25.064 58.1208 24.9242C58.1208 24.7843 58.0741 24.6911 57.9808 24.5979C57.8874 24.5046 57.8407 24.458 57.8407 24.458C57.8407 24.4114 57.8874 24.3648 57.9341 24.3182C58.2142 24.1784 58.4942 24.0851 58.8676 24.0851C59.4278 24.0851 59.7545 24.225 59.8479 24.5979C59.9412 24.5979 60.0346 24.5979 60.1279 24.5979C60.4547 24.5046 60.5947 24.2716 60.4547 23.8521C60.3146 23.3859 59.8945 23.1995 59.2411 23.2927C59.2877 22.8266 59.4278 22.6401 59.7078 22.5935C60.408 22.5469 60.8748 22.8732 61.1082 23.6656C61.2482 24.0385 61.2482 24.4114 61.1082 24.8309C60.9681 25.3437 60.7347 25.6234 60.3146 25.7632C60.0813 25.8098 59.8012 25.7632 59.5211 25.6234C58.7276 27.2082 57.9808 28.56 57.4206 29.6321Z" fill="white"/>
<path d="M66.149 28.6532C66.8958 28.8397 67.8294 28.1405 68.9963 26.509C69.043 26.4624 69.0897 26.4158 69.1363 26.4158C69.2297 26.4158 69.2764 26.6022 69.2764 26.9751C69.2764 27.2082 69.183 27.3947 69.043 27.6277C67.9227 29.0727 66.7091 29.7253 65.4021 29.6787C64.2819 30.9372 63.2083 31.5898 62.1347 31.5898C61.0144 31.5898 60.501 31.0305 60.501 29.9584C60.501 28.793 61.1078 27.5345 62.2747 26.2293C63.535 24.8309 64.7953 24.1318 66.0556 24.1318C66.429 24.1318 66.7558 24.1784 66.9892 24.3182C67.1292 24.3182 67.3159 24.3648 67.4559 24.458C67.7827 24.6445 68.0161 24.6911 68.1561 24.6445C68.4829 24.5513 68.6229 24.3182 68.4829 23.8987C68.3428 23.4326 67.9227 23.2461 67.2692 23.3393C67.3159 22.8732 67.4559 22.6868 67.736 22.6401C68.4362 22.5935 68.903 22.9198 69.1363 23.7122C69.2764 24.0851 69.2764 24.458 69.1363 24.8776C68.9963 25.3903 68.7629 25.67 68.3428 25.8098C68.0628 25.903 67.7827 25.8098 67.4559 25.5768C67.4559 25.5768 67.4559 25.5768 67.4093 25.5768C67.4093 26.2759 66.9892 27.348 66.149 28.6532ZM64.3752 27.7676C64.5619 27.5811 64.842 27.4413 65.0754 27.4413C65.4021 27.4413 65.6355 27.5345 65.8222 27.6743C66.429 26.8819 66.7091 26.1361 66.7091 25.4835C66.7091 25.0174 66.4757 24.7377 65.9623 24.7377C65.2621 24.7377 64.4686 25.3437 63.5817 26.509C62.6482 27.6743 62.1814 28.6998 62.1814 29.6321C62.1814 30.1914 62.4614 30.4711 63.0216 30.4711C63.4883 30.4711 64.0018 30.1448 64.6553 29.399C64.2819 29.1659 64.0485 28.8863 64.0485 28.4667C64.0485 28.2337 64.1418 28.0006 64.3752 27.7676ZM66.3824 20.0764C66.4757 20.0298 66.6624 19.9832 66.9425 19.9832C67.5493 19.9832 67.876 20.2629 67.876 20.729C67.876 21.1019 67.596 21.5214 67.0358 21.941C66.5224 22.3139 66.0089 22.5003 65.5422 22.5003C65.2154 22.5003 65.0287 22.4071 64.9354 22.174C64.9354 22.1274 64.9354 22.0808 64.9354 22.0342C64.9354 21.941 64.982 21.8943 65.1221 21.941H65.2621C65.5888 21.941 65.9156 21.8477 66.2423 21.6147C66.5691 21.3816 66.7558 21.1485 66.7558 20.8689C66.7558 20.6358 66.6157 20.5426 66.429 20.5426C66.3357 20.5426 66.2423 20.5892 66.1023 20.6358C65.9156 20.729 65.8222 20.7756 65.7756 20.7756C65.5888 20.7756 65.4955 20.729 65.4955 20.5892V20.5426C65.7756 20.3095 65.9623 20.1697 66.149 20.1231C66.289 20.1231 66.3824 20.0764 66.3824 20.0764Z" fill="white"/>
<path d="M72.7314 25.6234C71.9379 25.6234 71.051 26.2294 70.0707 27.4879C69.1839 28.6066 68.6237 29.6321 68.3437 30.611C68.297 30.7974 68.3437 30.9839 68.5304 31.0771C68.5771 31.0771 68.5771 31.1237 68.5771 31.1703C68.5771 31.2169 68.5304 31.3102 68.4837 31.3102C68.2036 31.4966 67.8302 31.5898 67.3168 31.5898C66.7566 31.5898 66.4766 31.3102 66.4766 30.7974C66.4766 30.4245 66.6633 29.8652 67.0834 29.2126L68.1103 27.4879C68.9972 26.1362 69.4639 25.2971 69.5106 24.8776C69.5106 24.6912 69.5106 24.5513 69.4173 24.4581L69.2772 24.3183C69.2772 24.1318 69.5106 24.0386 70.0241 24.0386C70.7242 24.0386 71.0977 24.225 71.0977 24.6445C71.0977 24.9708 70.9109 25.3437 70.5375 25.8565C70.5842 25.8099 70.5842 25.8099 70.5842 25.8565H70.6776C71.8445 24.6912 72.8714 24.1318 73.6649 24.1318C74.5051 24.1318 74.9252 24.4581 74.9252 25.1573C74.9252 25.7632 74.6452 26.4624 74.1317 27.3947L72.8247 29.6787C72.7781 29.7719 72.7314 29.8652 72.7314 30.005C72.7314 30.3313 72.9181 30.4711 73.3382 30.4711C73.9917 30.4711 75.3453 29.0728 77.2591 26.3692C77.4458 26.3692 77.5392 26.5557 77.5392 26.882C77.5392 27.115 77.4925 27.3015 77.3525 27.4879C76.4656 28.6999 75.8588 29.4923 75.4387 29.9118C74.3651 31.0305 73.3849 31.6365 72.4513 31.6365C71.5178 31.6365 71.0043 31.2169 71.0043 30.4245C71.0043 29.8652 71.331 29.0261 72.0779 28.0007C72.7781 26.9286 73.1048 26.3226 73.1048 26.0895C73.1982 25.7632 73.0581 25.6234 72.7314 25.6234Z" fill="white"/>
<path d="M79.9661 32.1026C80.4329 32.1026 80.8063 32.2424 81.0863 32.4289C81.4131 32.6619 81.5531 32.9416 81.5531 33.3611C81.5531 33.6874 81.4598 33.9205 81.2264 34.1536C80.993 34.3866 80.7129 34.4798 80.3862 34.4798C79.9661 34.4798 79.7327 34.3866 79.7327 34.1536C79.9194 34.0137 80.0594 33.7807 80.0594 33.501C80.0594 33.1747 79.8727 32.9882 79.546 32.9416C77.7722 35.8782 75.8584 37.3232 73.8046 37.3232C72.8711 37.3232 72.4043 36.9037 72.4043 36.1113C72.4043 35.0392 73.1045 34.1069 74.5515 33.2679C75.7651 32.5687 77.0254 32.1492 78.3324 32.056L78.9858 30.844C78.3324 31.3102 77.7256 31.5432 77.1187 31.5432C76.6053 31.5432 76.1852 31.4034 75.9051 31.0305C75.6251 30.7042 75.5317 30.3779 75.5317 29.9118C75.5317 28.7465 76.1385 27.4879 77.3054 26.1362C78.5657 24.7378 79.826 24.0386 81.0863 24.0386C81.7398 24.0386 82.1599 24.2716 82.3933 24.7844C82.7667 24.2716 83.2335 24.0386 83.747 24.0386C84.4005 24.0386 84.7272 24.1784 84.7272 24.5047C84.7272 24.5047 84.6338 24.5047 84.4471 24.6445C84.1671 24.831 83.9337 25.1107 83.6536 25.5768C83.1402 26.4158 82.44 27.5811 81.5998 29.0261L79.9661 32.1026ZM74.9249 33.8739C73.7579 34.5731 73.1511 35.2723 73.1511 35.9715C73.1511 36.3444 73.3845 36.5774 73.8046 36.5774C74.5048 36.5774 75.2983 36.1579 76.1852 35.2723C76.932 34.5265 77.4922 33.734 77.8656 32.895C77.0254 32.895 76.0452 33.2213 74.9249 33.8739ZM78.0056 30.2847C78.2857 30.2847 78.6124 30.1449 78.9858 29.9118C79.4993 29.5855 79.9194 29.1194 80.1995 28.6066L81.6931 25.9497C81.7398 25.8099 81.7865 25.67 81.7865 25.5768C81.7865 25.0641 81.5064 24.7844 80.993 24.7844C80.3395 24.7844 79.546 25.3903 78.6124 26.5091C77.7256 27.6278 77.2588 28.56 77.2588 29.2592C77.2588 29.9584 77.4922 30.2847 78.0056 30.2847Z" fill="white"/>
<path d="M60.6886 38.7216C60.5953 39.1877 60.3152 39.4208 59.8018 39.4208H58.8215C58.5415 39.9335 57.9347 40.9124 57.1411 42.3574C56.9544 42.6837 56.8611 42.9633 56.8611 43.1498C56.8611 43.3829 56.9544 43.4761 57.1411 43.4761C57.7013 43.4761 58.3548 43.0566 59.1483 42.2175C59.6617 41.7048 60.0818 41.1454 60.4552 40.5395L60.5019 40.4929C60.5953 40.4929 60.642 40.6793 60.642 41.0522C60.642 41.1454 60.4552 41.4251 60.1285 41.8446C58.8682 43.4761 57.6546 44.2685 56.3943 44.2685C55.7408 44.2685 55.4141 43.9888 55.4141 43.3829C55.4141 42.8701 56.1142 41.565 57.5612 39.3742H56.8144C56.6744 39.3742 56.581 39.3742 56.5343 39.4208C56.4876 39.4674 56.441 39.4674 56.3943 39.4208C56.3943 39.3742 56.3943 39.3742 56.3943 39.3275C56.441 39.2343 56.4876 39.1411 56.5343 39.0479C56.6277 38.8614 56.7677 38.7682 56.9544 38.7216C57.0945 38.675 57.4212 38.675 57.9813 38.675C58.3548 38.069 58.5881 37.6029 58.6348 37.3698C58.6815 37.23 58.6815 37.1367 58.5881 37.0435C58.5415 36.9503 58.4948 36.9037 58.5415 36.9037C58.7282 36.7638 58.9149 36.7172 59.1016 36.7172C59.615 36.7172 59.8951 36.9037 59.8951 37.23C59.8951 37.3698 59.8484 37.5563 59.7084 37.7893C59.615 37.9758 59.4283 38.2554 59.1949 38.675H59.2416C59.4283 38.675 59.615 38.675 59.8484 38.675C60.2685 38.675 60.4552 38.6283 60.5486 38.5351C60.6886 38.6283 60.6886 38.6283 60.6886 38.7216Z" fill="white"/>
<path d="M61.2954 40.12C61.3421 40.0733 61.3421 40.0733 61.2954 40.12L61.3887 40.0733C62.2756 39.2343 62.9758 38.7682 63.5826 38.7682C64.1894 38.7682 64.5161 39.0012 64.5161 39.514C64.5161 39.9335 64.3294 40.4929 63.956 41.1454L63.0225 42.8235C62.9758 42.9167 62.9758 43.0099 62.9758 43.0566C62.9758 43.2896 63.1158 43.4295 63.3959 43.4295C63.816 43.4295 64.7495 42.4506 66.2432 40.5395C66.2899 40.4929 66.2899 40.4929 66.3366 40.4929C66.4299 40.4929 66.5233 40.5861 66.5233 40.8191C66.5233 41.0056 66.4299 41.2387 66.1965 41.5183C64.9362 43.3362 63.816 44.2685 62.8357 44.2685C62.1356 44.2685 61.7622 43.9888 61.7622 43.3828C61.7622 42.9633 61.9955 42.3574 62.5557 41.6116C63.0691 40.8191 63.3025 40.353 63.3025 40.2132C63.3025 40.0267 63.2092 39.9335 62.9758 39.9335C62.4156 39.9335 61.7622 40.3996 61.0153 41.2853C60.3618 42.1243 59.9417 42.8701 59.755 43.5693C59.7083 43.7091 59.755 43.849 59.8951 43.9422C59.9417 43.9422 59.9417 43.9888 59.9417 44.0354C59.9417 44.082 59.8951 44.1287 59.8484 44.1753C59.6617 44.3151 59.3816 44.3617 59.0082 44.3617C58.5881 44.3617 58.4014 44.1753 58.4014 43.8024C58.4014 43.4761 58.8681 42.4972 59.755 40.959C60.6886 39.3742 61.1087 38.6283 61.1087 38.675C60.8286 38.6283 60.5952 38.5351 60.4085 38.3487C60.2218 38.1622 60.1284 37.9292 60.1284 37.7427C60.1284 37.2766 60.3618 37.0435 60.8753 37.0435C61.202 37.0435 61.3887 37.1367 61.3887 37.2766C61.3887 37.2766 61.3421 37.3698 61.2954 37.4164C61.202 37.5096 61.1554 37.6029 61.1554 37.6961C61.1554 37.8825 61.2954 38.0224 61.4821 38.1156C63.3959 35.2722 64.7495 33.8738 65.6831 33.8738C66.1965 33.8738 66.4299 34.1069 66.4299 34.573C66.4299 35.179 66.0098 35.9248 65.1696 36.8104C64.2828 37.7427 63.3492 38.3487 62.4157 38.5817L61.2954 40.12ZM62.7424 37.7893C63.5359 37.463 64.2361 36.9037 64.8896 36.1579C65.4964 35.4587 65.7764 34.8993 65.7764 34.4798C65.7764 34.34 65.7298 34.2934 65.5897 34.2934C65.123 34.2934 64.1894 35.4587 62.7424 37.7893Z" fill="white"/>
<path d="M72.3118 40.4463C72.4051 40.4463 72.4518 40.5861 72.4518 40.8658C72.4518 41.0522 72.2651 41.3785 71.985 41.798C70.678 43.4761 69.4644 44.3151 68.2975 44.3151C67.644 44.3151 67.2706 44.0354 67.2706 43.4295C66.5704 43.9888 65.9169 44.3151 65.3101 44.3151C64.6566 44.3151 64.2832 44.0354 64.2832 43.4295C64.2832 43.1964 64.3766 42.9634 64.5166 42.7303L66.197 39.7937C66.2903 39.6538 66.2903 39.5606 66.2903 39.4674C66.2903 39.3742 66.2437 39.2809 66.197 39.2343C66.1036 39.1877 66.1036 39.1411 66.1036 39.1411C66.1036 39.0945 66.1503 39.0479 66.197 39.0479C66.3837 38.908 66.6171 38.8614 66.8972 38.8614C67.4106 38.8614 67.644 39.0479 67.644 39.3742C67.644 39.514 67.5973 39.7005 67.4573 39.9335C66.7104 41.1455 66.1503 42.1243 65.7302 42.9634C65.6835 43.0566 65.6369 43.1498 65.6369 43.243C65.6369 43.4295 65.7769 43.5227 65.9636 43.5227C66.7104 43.5227 67.5506 42.6371 68.5309 40.9124C68.9976 40.0734 69.231 39.6072 69.231 39.5606C69.231 39.514 69.1844 39.3742 69.1377 39.3276C69.0443 39.2809 69.0443 39.2343 69.0443 39.2343C69.0443 39.1877 69.091 39.1411 69.1377 39.1411C69.3244 39.0013 69.5578 38.9547 69.8378 38.9547C70.3513 38.9547 70.5847 39.1411 70.5847 39.4674C70.5847 39.6072 70.538 39.7937 70.398 40.0267C69.6511 41.2387 69.091 42.2176 68.6709 43.0566C68.6242 43.1498 68.5775 43.243 68.5775 43.3363C68.5775 43.5227 68.7176 43.6159 68.9043 43.6159C69.6978 43.6159 70.7247 42.7303 72.0317 40.9124L72.3118 40.4463ZM69.231 36.018C69.3244 35.9714 69.4644 35.9714 69.6511 35.9714C70.0712 35.9714 70.3046 36.1579 70.3046 36.5308C70.3046 36.8105 70.1179 37.0901 69.6978 37.4164C69.3244 37.6961 68.951 37.8359 68.6242 37.8359C68.3908 37.8359 68.2508 37.7427 68.2041 37.6029C68.2041 37.5563 68.2041 37.5563 68.2041 37.5097C68.2041 37.4164 68.2508 37.4164 68.3442 37.4164H68.4842C68.7176 37.4164 68.951 37.3232 69.231 37.1834C69.4644 37.0435 69.6045 36.8571 69.6045 36.624C69.6045 36.4376 69.5111 36.3909 69.3711 36.3909C69.3244 36.3909 69.231 36.4376 69.1377 36.4842C68.8576 36.5308 68.8109 36.5774 68.7643 36.5774C68.6242 36.5774 68.5775 36.5308 68.5775 36.4376V36.3909C68.7643 36.2045 68.9043 36.1113 69.0443 36.0647C69.1377 36.018 69.231 36.018 69.231 36.018Z" fill="white"/>
<path d="M75.2991 40.6793C74.6923 41.4717 74.3656 42.1709 74.3656 42.7769C74.3656 43.2896 74.6456 43.5227 75.2058 43.5227C76.3727 43.5227 77.633 42.5438 79.0333 40.6327C79.08 40.5861 79.1267 40.5395 79.1267 40.5395C79.1734 40.5395 79.2201 40.6327 79.2201 40.8191C79.2201 41.0522 79.1734 41.2386 79.1267 41.2853C77.773 43.3362 76.186 44.3617 74.4122 44.3617C73.5254 44.3617 73.0586 43.9422 73.0586 43.1498C73.0586 42.3107 73.5254 41.3785 74.3656 40.3996C75.2991 39.3741 76.186 38.8614 77.1196 38.8614C77.3996 38.8614 77.6797 38.9546 77.8197 39.0945C78.0064 39.2343 78.0998 39.4207 78.0998 39.6538C78.0998 39.9335 78.0064 40.1665 77.8664 40.353C77.6797 40.5394 77.493 40.6327 77.2129 40.6327C76.8395 40.6327 76.6528 40.4928 76.6528 40.1665C76.6528 40.0267 76.6995 39.8869 76.8395 39.7936C76.9795 39.7004 77.0729 39.6072 77.2129 39.6072C77.2129 39.514 77.1196 39.4674 76.9328 39.4674C76.5127 39.514 75.9526 39.8869 75.2991 40.6793Z" fill="white"/>
<path d="M78.7527 44.3617C78.3793 44.3617 78.0525 44.2219 77.8191 43.9888C77.6324 43.7558 77.5391 43.4761 77.5391 43.1498C77.5391 42.3108 77.9592 41.3785 78.846 40.3996C79.7796 39.3742 80.6665 38.8614 81.6 38.8614C82.3002 38.8614 82.6736 39.1877 82.6736 39.7937C82.6736 40.353 82.3469 41.1454 81.6934 42.1709C82.2068 42.1709 82.8603 41.7048 83.6538 40.7259C83.7005 40.6793 83.7472 40.6793 83.7472 40.6793C83.8872 40.6793 83.9339 40.8192 83.9339 41.0522C83.9339 41.1921 83.8872 41.2853 83.8405 41.3319C83.047 42.3574 82.1602 42.8701 81.1799 42.8701C80.3397 43.849 79.5462 44.3617 78.7527 44.3617ZM80.153 42.1243C80.153 41.9379 80.2464 41.7514 80.3864 41.565C80.5264 41.4251 80.7131 41.3319 80.8999 41.3319C81.1332 41.3319 81.32 41.3785 81.46 41.5183C81.8801 40.959 82.1135 40.3996 82.1135 39.8869C82.1135 39.514 81.9268 39.3275 81.5533 39.3275C81.0399 39.3275 80.4798 39.7471 79.7796 40.6327C79.1261 41.4717 78.7527 42.2641 78.7527 42.9167C78.7527 43.3362 78.9394 43.5227 79.3595 43.5227C79.6862 43.5227 80.1063 43.2896 80.5731 42.7303C80.293 42.6371 80.153 42.404 80.153 42.1243ZM80.3397 38.2088C80.2464 38.2088 80.1997 38.1622 80.1997 38.069C80.1997 38.1622 80.7131 37.8825 81.6934 37.1834C82.5802 36.5774 83.0003 36.2511 82.907 36.2511C82.767 36.2511 83.0003 36.7172 83.5605 37.6029C83.7939 38.0224 83.9339 38.2088 83.9339 38.1622C83.9339 38.2088 83.9339 38.2088 83.8872 38.2088C83.1404 38.2088 82.6736 37.8825 82.4869 37.23C81.5533 37.9292 80.8532 38.2088 80.3397 38.2088Z" fill="white"/>
<path d="M86.548 39.9801C85.9879 39.9801 85.3344 40.4462 84.5876 41.3319C83.9341 42.1709 83.514 42.9167 83.3273 43.6159C83.2806 43.7557 83.3273 43.8956 83.4673 43.9888C83.514 43.9888 83.514 44.0354 83.514 44.082C83.514 44.1286 83.4673 44.1752 83.4206 44.2219C83.2339 44.3617 82.9539 44.4083 82.5804 44.4083C82.1603 44.4083 81.9736 44.2219 81.9736 43.849C81.9736 43.5693 82.1137 43.1964 82.3937 42.6836L83.1406 41.4251C83.7941 40.4462 84.1208 39.7936 84.1675 39.514C84.1675 39.3741 84.1675 39.2809 84.1208 39.1877L83.9808 39.0478C83.9808 38.908 84.1675 38.8614 84.5409 38.8614C85.0544 38.8614 85.3344 39.0012 85.3344 39.3275C85.3344 39.5606 85.1944 39.8403 84.9143 40.2132C84.961 40.1665 84.961 40.1665 84.961 40.2132L85.0077 40.1665C85.8946 39.3275 86.5947 38.8614 87.2015 38.8614C87.8083 38.8614 88.1351 39.0945 88.1351 39.6072C88.1351 40.0267 87.9484 40.5861 87.575 41.2386L86.6414 42.9167C86.5947 43.0099 86.5947 43.0565 86.5947 43.1498C86.5947 43.3828 86.7348 43.5227 87.0615 43.5227C87.575 43.5227 88.5085 42.4972 89.9555 40.4928C90.0956 40.4928 90.1422 40.6327 90.1422 40.8657C90.1422 41.0522 90.0956 41.192 90.0022 41.3319C89.3487 42.2175 88.8819 42.8235 88.6019 43.1032C87.8083 43.9422 87.0615 44.3617 86.408 44.3617C85.7078 44.3617 85.3344 44.082 85.3344 43.4761C85.3344 43.0565 85.5678 42.4506 86.128 41.7048C86.6414 40.9124 86.8748 40.4462 86.8748 40.3064C86.8748 40.0267 86.7348 39.9801 86.548 39.9801Z" fill="white"/>
<path d="M91.8224 44.7346C92.1492 44.7346 92.4292 44.8278 92.6626 44.9677C92.896 45.1541 92.9894 45.3406 92.9894 45.6203C92.9894 45.8533 92.896 46.0398 92.756 46.1796C92.5693 46.3661 92.3825 46.4127 92.1492 46.4127C91.8224 46.4127 91.6824 46.3194 91.6824 46.1796C91.8224 46.0864 91.9158 45.8999 91.9158 45.6669C91.9158 45.4338 91.7757 45.294 91.5423 45.2474C90.2354 47.3915 88.835 48.4636 87.3414 48.4636C86.6879 48.4636 86.3145 48.184 86.3145 47.578C86.3145 46.7856 86.8279 46.0864 87.9015 45.4804C88.7884 44.9677 89.7219 44.6414 90.6555 44.5948L91.1689 43.7091C90.7021 44.0354 90.2354 44.2219 89.8153 44.2219C89.4419 44.2219 89.1151 44.082 88.9284 43.849C88.7417 43.6159 88.6483 43.3362 88.6483 43.0099C88.6483 42.1243 89.0684 41.2387 89.9553 40.2598C90.8889 39.2343 91.7757 38.7216 92.7093 38.7216C93.1761 38.7216 93.5028 38.908 93.6895 39.2809C93.9696 38.908 94.2963 38.7216 94.6697 38.7216C95.1832 38.7216 95.4166 38.8614 95.4166 39.0478C95.4166 39.0478 95.3232 39.0478 95.2299 39.1411C95.0432 39.2809 94.8565 39.514 94.6231 39.8403C94.2497 40.4462 93.7362 41.2853 93.1294 42.404L91.8224 44.7346ZM88.1349 46.0398C87.248 46.5525 86.8279 47.0652 86.8279 47.578C86.8279 47.8577 87.0146 47.9975 87.2947 47.9975C87.8081 47.9975 88.4149 47.6712 89.0218 47.0653C89.5819 46.5059 89.9553 45.9465 90.2821 45.294C89.6752 45.294 88.9284 45.527 88.1349 46.0398ZM90.3754 43.3828C90.5621 43.3828 90.7955 43.2896 91.0756 43.1032C91.449 42.8701 91.7291 42.5438 91.9624 42.1243L93.0827 40.1666C93.1294 40.0733 93.1761 39.9801 93.1761 39.8869C93.1761 39.514 92.9894 39.3275 92.5693 39.3275C92.0558 39.3275 91.4957 39.747 90.8422 40.6327C90.1887 41.4717 89.862 42.1243 89.862 42.637C89.862 43.1498 90.0487 43.3828 90.3754 43.3828Z" fill="white"/>
<path d="M62.1823 54.4301C62.3223 53.6843 62.5091 53.1249 62.6958 52.7986C62.9292 52.4257 63.3026 52.146 63.816 51.9596C64.3295 51.7731 64.983 51.6799 65.7765 51.6799C66.0566 51.6799 66.3366 51.6799 66.6167 51.7265H66.8501V50.5612H57.6546L47.8523 71.2107L40.1038 48.9297H39.9171C38.6568 48.9764 37.4432 49.4425 36.2295 50.3281C34.9692 51.2604 33.7556 51.8197 32.5887 51.9596L32.402 52.0062V53.0317H34.5491C34.6425 53.0317 34.7359 52.9851 34.8292 52.9851C35.2026 52.9851 35.4827 53.1249 35.7628 53.4512C35.9962 53.7309 36.1829 54.1038 36.3229 54.6165C36.2762 54.6165 36.2295 54.6165 36.2295 54.6165C36.1829 54.6165 36.0895 54.6165 36.0428 54.6165C35.6694 54.6631 35.3427 54.803 34.9692 55.0826C34.6425 55.3623 34.2691 55.7818 33.9423 56.248C30.6749 61.0957 28.6678 68.5537 27.7809 78.8552C27.7809 79.4611 27.6875 80.0205 27.5008 80.5798C27.3608 81.0926 27.1274 81.4189 26.894 81.6519C26.6606 81.885 26.3806 81.9782 26.0071 81.9782C25.9138 81.9782 25.8671 81.9782 25.7738 81.9782C25.5404 81.9316 25.4003 81.885 25.307 81.7918C25.2136 81.6986 25.1669 81.6053 25.1669 81.4655C25.1669 81.279 25.2136 81.0926 25.3537 80.8129C25.4003 80.7663 25.4003 80.6731 25.4003 80.5798C25.4003 80.5332 25.4003 80.44 25.307 80.3934C25.2603 80.3002 25.1669 80.3002 25.0736 80.3002C24.9336 80.3002 24.8869 80.3468 24.7935 80.3934C24.2801 80.8129 24 81.4655 24 82.2579C24 82.6308 24.0467 83.0969 24.1867 83.5631C24.4201 84.169 24.8402 84.5885 25.307 84.9614C25.7738 85.2877 26.2405 85.4742 26.8007 85.4742C27.3141 85.4742 27.8742 85.2877 28.4344 84.9614C28.5744 86.0335 28.9012 87.1056 29.4613 88.1777C30.0214 89.3897 30.7683 90.3219 31.6551 90.9279C32.542 91.5339 33.5689 91.8601 34.7359 91.9068C34.8759 91.9068 35.0159 91.9534 35.2026 91.9534C35.9962 91.9534 36.7897 91.6737 37.5365 91.2076C38.4701 90.6016 39.1702 89.716 39.637 88.5506C40.0571 87.5252 40.3372 86.22 40.4305 84.775C40.4772 84.6352 40.5239 84.4953 40.5239 84.4021C40.5239 84.3555 40.5239 84.3089 40.4772 84.2623C40.4772 84.2156 40.4305 84.169 40.3839 84.1224L40.0104 83.8427V84.2623C40.0104 84.4021 40.0104 84.5419 40.0104 84.6352C39.9638 84.6818 39.9638 84.775 39.9171 84.8682C39.777 85.1013 39.5903 85.4276 39.3569 85.8471C39.1236 86.22 38.8435 86.4531 38.5167 86.6395C38.19 86.826 37.7699 86.9192 37.3031 86.9192C36.8364 86.9192 36.2295 86.826 35.6227 86.5929C34.2224 85.9403 33.1021 84.6352 32.3086 82.5842C31.5151 80.5332 31.095 77.7831 31.0016 74.2871C31.0016 73.821 31.0016 73.3549 31.0016 72.9353C31.0016 66.596 32.3553 61.2821 35.0159 57.087C35.296 56.6675 35.5761 56.3412 35.8094 56.1547C36.0428 55.9683 36.2762 55.8751 36.4629 55.8751C36.6496 55.8751 36.8364 55.9683 37.0697 56.1547C37.1164 56.248 37.2098 56.4344 37.3031 56.6675C38.19 58.8117 40.8506 66.3163 45.285 79.1815L45.4717 79.7408L56.581 56.3878L56.5343 85.3344C56.5343 85.4276 56.5343 85.4742 56.5343 85.5674C56.5343 86.0802 56.441 86.5929 56.2543 87.1056C56.0209 87.7116 55.7408 88.1311 55.3674 88.4574C54.994 88.7837 54.5739 88.9235 54.0604 89.0168C53.3602 89.0634 52.8001 89.11 52.38 89.11H52.0066V90.2287H52.24H65.5431L65.6831 89.0634H61.9489L61.9956 57.2268C61.9956 56.1081 62.0423 55.1759 62.1823 54.4301Z" fill="white"/>
<path d="M72.2652 86.5929C72.2652 85.8005 72.1251 85.1479 71.8917 84.5885C71.6583 84.0292 71.2849 83.5631 70.8182 83.2368C70.3981 82.9571 69.978 82.8173 69.5579 82.8173C69.5112 82.8173 69.4645 82.8173 69.3711 82.8173C69.3245 82.8173 69.2778 82.8173 69.2778 82.8173C68.6243 82.8173 68.0175 83.0037 67.5507 83.3766C67.0839 83.7495 66.7105 84.2623 66.4771 84.9614C66.2904 85.5674 66.1504 86.1734 66.1504 86.7793C66.1504 86.8726 66.1504 86.9658 66.1504 87.059C66.1504 87.1056 66.1504 87.1989 66.1504 87.2455C66.1504 87.9913 66.2904 88.5972 66.5238 89.11C66.8039 89.6227 67.1773 89.9956 67.6907 90.2753C68.1108 90.5084 68.5776 90.6016 68.9977 90.6016C69.0911 90.6016 69.1844 90.6016 69.2778 90.6016C69.9313 90.6016 70.5381 90.4151 71.0049 90.0888C71.4716 89.7626 71.7984 89.2498 72.0318 88.5972C72.2185 88.0845 72.2652 87.6184 72.2652 87.1056C72.2652 86.8726 72.2652 86.7327 72.2652 86.5929Z" fill="white"/>
<path d="M108.999 68.2741C108.999 67.202 108.953 66.0833 108.813 64.9645C108.393 61.3754 107.319 58.3455 105.545 55.8751C103.772 53.4046 101.251 51.5401 98.0769 50.1883C96.2565 49.5823 94.4361 49.1628 92.5223 49.1162C92.1488 49.1162 91.7754 49.0696 91.402 49.0696C89.0681 49.0696 86.8743 49.3959 84.9138 50.0951C84.2136 50.3281 83.4668 50.6544 82.72 51.0273C82.3932 51.2138 82.1131 51.3536 81.9264 51.4468C81.8331 51.4934 81.7864 51.5401 81.7397 51.5401H81.693H81.6464C81.1796 51.7265 80.8062 51.8197 80.5261 51.8197C80.2927 51.8197 80.106 51.7731 80.0127 51.6799C79.8726 51.5867 79.8259 51.4468 79.7326 51.2604C79.7326 51.2138 79.7326 51.1672 79.7326 51.0739C79.7326 50.8875 79.7793 50.6544 79.8726 50.5146C79.9193 50.4214 80.0127 50.3747 80.0593 50.3281C80.106 50.2815 80.1527 50.2815 80.1994 50.2815C80.246 50.2815 80.2927 50.2815 80.3861 50.3281L80.7128 50.468V49.6289L80.6195 49.5823C80.106 49.256 79.5926 49.0696 79.0791 49.0696C78.4723 49.0696 77.8655 49.3026 77.2587 49.7688C76.4185 50.3747 75.9517 51.1672 75.9517 52.0528C75.9517 52.3325 75.9984 52.6588 76.0917 52.9851C76.2318 53.5444 76.6052 53.9639 77.1186 54.2902C77.4454 54.4767 77.7721 54.5699 78.1455 54.5699C78.2389 54.5699 78.3323 54.5699 78.4256 54.5699C77.4454 55.5021 76.7452 56.481 76.2784 57.5065C74.5514 59.1379 73.0577 61.2355 71.9374 63.7992C70.6771 66.596 70.0703 69.4394 70.0703 72.4226C70.0703 74.2871 70.3037 76.1982 70.8172 78.156C71.5173 80.3934 72.8243 82.5842 74.7848 84.775C78.3323 88.6905 82.9067 90.6482 88.4613 90.6482C89.0681 90.6482 89.6282 90.6482 90.2351 90.6016C92.6156 90.555 95.1829 89.9024 97.8435 88.5972C103.211 85.9869 106.666 81.4189 108.113 74.9863C108.719 72.8421 108.999 70.6513 108.999 68.2741ZM104.612 78.4823C101.391 82.8639 97.05 85.0547 91.6354 85.0547C88.368 84.9614 85.3806 84.1224 82.6733 82.491C81.2729 81.6985 79.8259 80.44 78.3789 78.7619C75.4849 75.4058 73.9446 71.5836 73.8512 67.2486C73.8045 66.8291 73.8045 66.4095 73.8045 66.0366C73.8045 63.1933 74.5047 60.9558 75.8117 59.3244C75.8117 59.5109 75.765 59.6973 75.765 59.8371C75.765 60.816 76.0451 61.7017 76.6052 62.4941C77.4454 63.706 78.7057 64.312 80.2927 64.312C81.273 64.312 82.1131 64.0789 82.7666 63.6594C83.4201 63.2399 83.9336 62.6339 84.2136 61.8415C84.4004 61.3287 84.5404 60.7694 84.5404 60.21C84.5404 59.2312 84.2136 58.2057 83.6068 57.2268L83.5135 57.0404L82.72 57.4133L82.86 57.6463C83 57.8328 83.0467 58.0192 83.0467 58.1125C83.0467 58.2523 83 58.3921 82.8133 58.5786C82.5332 58.9049 82.2065 59.0447 81.693 59.0447C81.1329 59.0447 80.7128 58.8583 80.3394 58.4854C79.966 58.1125 79.7326 57.6929 79.6859 57.087C79.6859 56.9938 79.6859 56.9471 79.6859 56.8539C79.6859 55.4089 80.4328 54.1038 81.9264 52.9384C83.4668 51.7731 85.614 51.1672 88.4613 51.1672C88.8814 51.1672 89.3482 51.1672 89.7683 51.2138C92.8023 51.4002 95.463 52.0994 97.7035 53.2647C102.838 56.0615 105.965 59.6041 107.179 63.9391C107.646 65.6171 107.879 67.2486 107.879 68.8334C107.879 72.2828 106.759 75.499 104.612 78.4823Z" fill="white"/>
</svg>
