<svg width="126" height="124" viewBox="0 0 126 124" fill="none" xmlns="http://www.w3.org/2000/svg">
<path d="M0 105.458V4C0 1.79086 1.79086 0 4 0H122C124.209 0 126 1.79086 126 4V105.458C126 107.667 124.209 109.458 122 109.458H73.794C72.399 109.458 71.1047 110.185 70.3786 111.376L65.9822 118.588C64.4516 121.099 60.8258 121.156 59.2178 118.694L54.3698 111.271C53.6312 110.14 52.3716 109.458 51.0208 109.458H4C1.79086 109.458 0 107.667 0 105.458Z" fill="#A1BF46"/>
<g clip-path="url(#clip0)">
<path d="M54.1953 22.7304C54.2392 22.6863 54.2392 22.6863 54.2392 22.6863C54.327 22.6863 54.327 22.7744 54.327 22.9949C54.327 24.1854 53.4927 24.7586 51.8679 24.7586C51.5166 24.7586 51.0775 24.7145 50.6384 24.6704C49.5845 26.0814 49.0576 27.9774 49.0576 30.3584C49.0576 31.2843 49.2771 32.0339 49.7601 32.563C50.2432 33.1362 50.9458 33.4449 51.8679 33.4449C52.4388 33.4449 53.0975 33.2685 53.7562 32.9158C53.844 32.8717 53.8879 32.8717 53.8879 33.004C53.8879 33.489 53.6244 33.9299 53.0536 34.3708C52.4827 34.8118 51.7801 35.0322 50.9897 35.0322C49.6284 35.0322 48.6184 34.6354 47.9598 33.8858C47.345 33.1803 47.0376 32.2544 47.0376 31.108C47.0376 29.697 47.4328 28.1097 48.2232 26.346C48.2671 26.2578 48.2232 26.2578 48.1793 26.2137C48.1354 26.1696 48.0915 26.2137 48.0915 26.2578C46.9498 28.0215 45.4568 29.4324 43.7003 30.4466C41.8999 31.5048 40.0995 32.0339 38.2552 32.0339C37.2452 32.0339 36.4109 31.8135 35.7522 31.3284C35.0496 30.8434 34.7422 30.182 34.7422 29.3443C34.7422 28.6829 34.9178 28.1538 35.313 27.7569C35.6643 27.4042 36.1474 27.2278 36.7182 27.2278C36.8939 27.2278 37.1134 27.316 37.2452 27.4042C37.5087 27.5806 37.6404 27.801 37.6404 28.1097C37.6404 28.286 37.5526 28.5065 37.4208 28.727C37.2891 28.9915 37.2013 29.1238 37.2013 29.0797C37.2013 28.9033 37.0256 28.8151 36.6304 28.8151C36.2791 28.8151 36.1035 29.0356 36.1035 29.4324C36.1035 30.3584 36.85 30.8434 38.3869 30.8434C42.0316 30.8434 45.1055 28.6829 47.6085 24.4059L46.5546 24.3618C45.7202 24.3618 45.1055 24.5382 44.7102 24.935C44.6224 25.0232 44.5785 24.8468 44.5785 24.3618C44.5785 23.7886 44.842 23.3917 45.3689 23.1713C45.8081 22.9949 46.5106 22.9067 47.4767 22.9067L48.2232 22.9508C48.6184 21.4958 48.8819 20.173 48.8819 19.1148C48.8819 18.1006 48.6184 17.2188 48.0476 16.5574C47.4767 15.8078 46.6863 15.4551 45.8081 15.4551C44.1394 15.4551 42.7342 16.0724 41.5047 17.351C40.4508 18.4975 39.9238 19.6439 39.9238 20.8344C39.9238 22.2894 40.4947 22.9949 41.5925 22.9949C41.9438 22.9949 42.1194 22.8626 42.1194 22.6863C42.1194 22.5981 42.0755 22.554 41.9877 22.554C41.7242 22.3335 41.5486 22.1131 41.5486 21.8044C41.5486 21.4517 41.6803 21.1871 41.9438 20.9666C42.1633 20.7462 42.4707 20.658 42.822 20.658C43.6564 20.658 44.0955 21.143 44.0955 22.1131C44.0955 22.5981 43.832 23.039 43.349 23.4799C42.822 23.9209 42.2073 24.1854 41.5047 24.1854C40.7582 24.1854 40.0995 23.9209 39.6164 23.3917C39.0456 22.8185 38.7382 22.0249 38.7382 21.0548C38.7382 19.3352 39.4408 17.7479 40.7582 16.3369C42.2073 14.7496 43.9637 14 46.0715 14C47.5645 14 48.7941 14.4409 49.7601 15.2787C50.7701 16.2046 51.2532 17.4392 51.2532 18.9825C51.2532 20.0407 50.9897 21.143 50.5067 22.2894L50.4627 22.3335C50.5067 22.3776 50.5067 22.3335 50.5067 22.2894C51.7362 20.2612 53.2731 18.5856 55.1613 17.2629C57.0935 15.896 58.9378 15.2346 60.7382 15.2346C61.309 15.2346 61.7921 15.3669 62.1434 15.6314C62.4508 15.8519 62.6264 16.1165 62.6264 16.4251C62.6264 16.7778 62.4947 17.0424 62.2312 17.307C61.9677 17.5274 61.836 17.5715 61.7921 17.4392C61.5286 16.8219 61.0456 16.5133 60.3869 16.5133C59.1574 16.5133 57.7083 17.0865 56.0835 18.2329C54.2392 19.5116 52.7023 21.2312 51.4727 23.3036C52.7901 23.3917 53.7122 23.2154 54.1953 22.7304Z" fill="white"/>
<path d="M59.7282 28.7269C59.6404 28.8592 59.5965 28.9915 59.5965 29.1679C59.5965 29.4765 59.7721 29.6088 60.1234 29.6088C61.3529 29.6088 63.0216 28.1978 65.0855 25.3759L65.4807 24.8468C65.6124 24.8468 65.6563 25.0672 65.6563 25.5082C65.6563 25.8168 65.3929 26.3018 64.9098 26.9632C62.846 29.6529 60.9138 30.9757 59.0695 30.9757C58.0156 30.9757 57.4887 30.4907 57.4887 29.5647C56.3909 30.4907 55.337 30.9757 54.4148 30.9757C53.3609 30.9757 52.834 30.5347 52.834 29.6088C52.834 29.2561 52.9657 28.8592 53.1853 28.4624L55.8639 23.7886C55.9957 23.5681 56.0396 23.3917 56.0396 23.2594C56.0396 23.1272 55.9957 22.9949 55.8639 22.8626C55.7322 22.7744 55.6883 22.7303 55.6883 22.6862C55.6883 22.5981 55.7322 22.554 55.82 22.5099C56.1274 22.3335 56.4787 22.2453 56.9178 22.2453C57.7082 22.2453 58.1034 22.5099 58.1034 23.0831C58.1034 23.3035 58.0156 23.6122 57.84 23.9208C56.6983 25.8168 55.7761 27.4042 55.1174 28.6829C55.0296 28.8151 54.9857 28.9474 54.9857 29.1238C54.9857 29.4324 55.1613 29.5647 55.5126 29.5647C56.6543 29.5647 58.0156 28.1537 59.5965 25.42C60.343 24.1413 60.6943 23.3917 60.6943 23.2594C60.6943 23.1272 60.6504 22.9949 60.5186 22.8626C60.3869 22.7744 60.343 22.7303 60.343 22.6862C60.343 22.5981 60.3869 22.554 60.4747 22.5099C60.7821 22.3335 61.1334 22.2453 61.5725 22.2453C62.2312 22.2453 62.6264 22.4217 62.7142 22.8185C62.846 22.8626 62.9338 22.8626 63.0216 22.8185C63.4168 22.6862 63.5486 22.4217 63.4168 21.9808C63.2412 21.4076 62.802 21.1871 62.0116 21.3635C62.0555 20.8343 62.2312 20.5698 62.5386 20.5698C63.3729 20.4816 63.8999 20.8784 64.1633 21.8044C64.2951 22.2453 64.2951 22.6862 64.2072 23.1713C64.0755 23.7445 63.7681 24.0972 63.2851 24.2736C63.0216 24.3618 62.7142 24.3177 62.4068 24.0972C61.2651 25.905 60.343 27.4923 59.7282 28.7269Z" fill="white"/>
<path d="M69.8281 27.5365C70.6624 27.7569 71.7602 26.9192 73.1215 25.0232C73.1654 24.935 73.2093 24.935 73.2972 24.935C73.4289 24.935 73.4728 25.1555 73.4728 25.5523C73.4728 25.8169 73.385 26.0373 73.2093 26.3019C71.9359 27.9774 70.5307 28.7711 68.9938 28.6829C67.7203 30.1379 66.4469 30.8875 65.2173 30.8875C63.9439 30.8875 63.3291 30.2702 63.3291 28.9915C63.3291 27.6247 64.0317 26.1696 65.393 24.6264C66.8421 22.9949 68.2912 22.2013 69.7403 22.2013C70.1794 22.2013 70.5746 22.2894 70.8381 22.4217C71.0137 22.4658 71.1894 22.5099 71.4089 22.5981C71.8042 22.8186 72.0676 22.8626 72.2433 22.8186C72.6385 22.6863 72.7702 22.4217 72.6385 21.9808C72.4628 21.4076 72.0237 21.1871 71.2333 21.3635C71.2772 20.8344 71.4529 20.5698 71.7602 20.5698C72.5946 20.4816 73.1215 20.8785 73.385 21.8044C73.5167 22.2454 73.5167 22.6863 73.4289 23.1713C73.2972 23.7445 72.9898 24.0972 72.5067 24.2736C72.1994 24.3618 71.8481 24.2736 71.4968 24.0091C71.4529 23.965 71.4529 23.965 71.4529 23.965C71.2772 24.8468 70.7942 26.0373 69.8281 27.5365ZM67.7642 26.5664C67.9838 26.346 68.2912 26.2137 68.5986 26.2137C68.9938 26.2137 69.2572 26.3019 69.4768 26.4783C70.1794 25.5523 70.5307 24.6704 70.5307 23.9209C70.5307 23.3477 70.2672 23.0831 69.6525 23.0831C68.862 23.0831 67.9399 23.7886 66.886 25.1555C65.8321 26.5223 65.3051 27.7128 65.3051 28.7711C65.3051 29.4325 65.6564 29.7852 66.2712 29.7852C66.7982 29.7852 67.4129 29.3884 68.1594 28.5506C67.7203 28.2861 67.4568 27.9333 67.4568 27.4924C67.369 27.0955 67.5008 26.831 67.7642 26.5664ZM70.0916 17.5715C70.2233 17.4833 70.4429 17.4833 70.7942 17.4833C71.4968 17.4833 71.8481 17.7479 71.8481 18.3211C71.8481 18.762 71.4968 19.247 70.8381 19.7321C70.2233 20.173 69.6525 20.3935 69.1255 20.3935C68.7742 20.3935 68.5547 20.2612 68.4229 20.0407C68.379 19.9966 68.379 19.9525 68.379 19.9084C68.379 19.7762 68.4668 19.7321 68.5986 19.7762H68.7742C69.1694 19.7762 69.5207 19.6439 69.9159 19.4234C70.3111 19.203 70.4868 18.8943 70.4868 18.5857C70.4868 18.3211 70.3551 18.1888 70.0916 18.1888C70.0038 18.1888 69.872 18.2329 69.6964 18.3211C69.4768 18.4093 69.3451 18.4534 69.3012 18.4534C69.0816 18.4534 68.9938 18.3652 68.9938 18.2329C68.9938 18.1888 68.9938 18.1888 69.0377 18.1447C69.3451 17.8802 69.5646 17.7038 69.7842 17.6597C69.9598 17.6597 70.0916 17.5715 70.0916 17.5715Z" fill="white"/>
<path d="M77.4252 24.0531C76.5031 24.0531 75.4931 24.7586 74.3514 26.2137C73.2975 27.4923 72.6388 28.7269 72.3753 29.8734C72.2875 30.0938 72.4192 30.3143 72.5949 30.4466C72.6388 30.4907 72.6827 30.4906 72.6827 30.5788C72.6827 30.667 72.6388 30.7111 72.551 30.7552C72.2436 30.9757 71.8045 31.0639 71.1897 31.0639C70.5749 31.0639 70.2236 30.7552 70.2236 30.182C70.2236 29.7411 70.4432 29.1238 70.9262 28.3301L72.1119 26.3459C73.1218 24.8027 73.6488 23.7886 73.7366 23.3035C73.7805 23.0831 73.7366 22.9067 73.6488 22.8185L73.4731 22.6421C73.4731 22.4217 73.7366 22.3335 74.3075 22.3335C75.1418 22.3335 75.537 22.554 75.537 23.039C75.537 23.3917 75.3174 23.8767 74.9222 24.4499C74.9661 24.3618 75.0101 24.3618 75.0101 24.4499L75.054 24.4059C76.4152 23.039 77.557 22.3776 78.523 22.3776C79.4891 22.3776 79.9721 22.7744 79.9721 23.5681C79.9721 24.2736 79.6648 25.1113 79.0939 26.1696L77.6009 28.8151C77.5131 28.9474 77.5131 29.0356 77.5131 29.1679C77.5131 29.5647 77.7326 29.7411 78.2157 29.7411C79.0061 29.7411 80.543 28.1537 82.7386 24.935C82.9582 24.935 83.0899 25.1554 83.0899 25.5523C83.0899 25.8168 83.0021 26.0373 82.8703 26.2577C81.8604 27.6687 81.1139 28.5947 80.6747 29.0797C79.4452 30.4025 78.2596 31.0639 77.2057 31.0639C76.1079 31.0639 75.537 30.5788 75.537 29.6529C75.537 28.9915 75.9322 28.0656 76.7665 26.831C77.557 25.5964 77.9522 24.8909 77.9522 24.6263C77.9522 24.1854 77.7765 24.0531 77.4252 24.0531Z" fill="white"/>
<path d="M85.8117 31.593C86.3387 31.593 86.7778 31.7253 87.0852 31.9898C87.4365 32.2544 87.6121 32.6071 87.6121 33.0481C87.6121 33.4008 87.4804 33.7094 87.2169 33.974C86.9534 34.2386 86.6461 34.3708 86.2509 34.3708C85.7678 34.3708 85.5043 34.2386 85.5043 33.974C85.7239 33.7976 85.8556 33.5331 85.8556 33.1803C85.8556 32.7835 85.6361 32.563 85.2409 32.563C83.177 35.9582 80.9814 37.6778 78.6101 37.6778C77.5562 37.6778 77.0293 37.1928 77.0293 36.2668C77.0293 35.0322 77.8636 33.9299 79.4884 32.9599C80.8936 32.1221 82.3427 31.6812 83.8357 31.5489L84.6261 30.1379C83.8796 30.667 83.177 30.9757 82.4744 30.9757C81.8596 30.9757 81.3766 30.7993 81.0692 30.4025C80.7618 30.0497 80.6301 29.6088 80.6301 29.0797C80.6301 27.7128 81.3327 26.2578 82.694 24.7145C84.1431 23.0831 85.5922 22.2894 87.0852 22.2894C87.8317 22.2894 88.3147 22.554 88.6221 23.1713C89.0612 22.5981 89.5882 22.2894 90.159 22.2894C90.9495 22.2894 91.3008 22.4658 91.3008 22.8185C91.3008 22.7744 91.169 22.8626 90.9495 22.9949C90.6421 23.2154 90.3347 23.5681 90.0273 24.0972C89.4125 25.0673 88.6221 26.4341 87.656 28.1538L85.8117 31.593ZM79.9714 33.6653C78.6101 34.5031 77.9075 35.2968 77.9075 36.1345C77.9075 36.5755 78.171 36.84 78.654 36.84C79.4884 36.84 80.4105 36.355 81.3766 35.3409C82.2109 34.5031 82.8696 33.5772 83.3087 32.563C82.3866 32.5189 81.2449 32.8717 79.9714 33.6653ZM83.5283 29.4765C83.8357 29.4765 84.2309 29.3443 84.67 29.0356C85.2409 28.6388 85.7239 28.1538 86.0752 27.4924L87.8317 24.4059C87.9195 24.2295 87.9634 24.0972 87.9634 23.965C87.9634 23.3477 87.656 23.039 87.0413 23.039C86.2508 23.039 85.3287 23.7445 84.2748 25.0673C83.2209 26.3901 82.7379 27.4483 82.7379 28.286C82.694 29.1238 82.9574 29.4765 83.5283 29.4765Z" fill="white"/>
<path d="M35.9281 45.6145C35.1816 45.6145 34.3473 46.1877 33.3812 47.3782C32.503 48.4364 31.976 49.4506 31.7565 50.3765C31.7126 50.5529 31.7565 50.7293 31.9321 50.8615C31.976 50.8615 31.976 50.9056 31.976 50.9497C31.976 50.9938 31.9321 51.082 31.8882 51.1261C31.6248 51.3025 31.2735 51.3907 30.7904 51.3907C30.2635 51.3907 30 51.1261 30 50.6411C30 50.2883 30.1756 49.7592 30.5709 49.0978L31.5808 47.4664C32.4152 46.1877 32.8543 45.3499 32.9421 44.9531C32.9421 44.7767 32.9421 44.6445 32.8543 44.5563L32.6786 44.3799C32.6786 44.2035 32.8982 44.1154 33.3812 44.1154C34.0838 44.1154 34.3912 44.2917 34.3912 44.6886C34.3912 44.9972 34.2156 45.394 33.8643 45.835C33.9082 45.7909 33.9082 45.7909 33.9082 45.835H33.9521C35.0938 44.7327 36.0599 44.1594 36.8503 44.1594C37.6407 44.1594 38.0798 44.5122 38.0798 45.1295C38.0798 45.7027 37.8164 46.4082 37.3333 47.29L36.1038 49.4947C36.0599 49.5829 36.016 49.671 36.016 49.8033C36.016 50.112 36.1916 50.2883 36.5868 50.2883C37.2455 50.2883 38.519 48.9656 40.3633 46.32C40.5389 46.32 40.6267 46.4964 40.6267 46.8491C40.6267 47.0696 40.5828 47.2459 40.4511 47.4223C39.6168 48.5687 39.002 49.3624 38.6507 49.7592C37.5968 50.8615 36.6747 51.3907 35.7964 51.3907C34.8743 51.3907 34.3912 50.9938 34.3912 50.2001C34.3912 49.671 34.7425 48.8774 35.4012 47.8632C36.0599 46.8491 36.4112 46.2318 36.4112 46.0113C36.3673 45.7468 36.2355 45.6145 35.9281 45.6145Z" fill="white"/>
<path d="M42.8666 51.8756C43.3057 51.8756 43.657 52.0079 43.9205 52.2284C44.2279 52.4488 44.3596 52.7575 44.3596 53.1102C44.3596 53.4189 44.2718 53.6394 44.0522 53.8598C43.8327 54.0803 43.5692 54.1685 43.2618 54.1685C42.8666 54.1685 42.647 54.0803 42.647 53.8598C42.8227 53.7275 42.9544 53.5071 42.9544 53.1984C42.9544 52.8457 42.7788 52.6693 42.4275 52.6693C40.7149 55.4912 38.9145 56.9022 36.9385 56.9022C36.0602 56.9022 35.6211 56.5054 35.6211 55.7117C35.6211 54.6535 36.3237 53.7716 37.685 52.978C38.8706 52.2725 40.0562 51.9197 41.2858 51.8316L41.9444 50.6851C41.3297 51.1261 40.7149 51.3906 40.188 51.3906C39.661 51.3906 39.3097 51.2143 39.0023 50.9056C38.7389 50.597 38.651 50.2442 38.651 49.8033C38.651 48.6569 39.2219 47.4664 40.3636 46.1877C41.5492 44.8208 42.7788 44.1594 44.0083 44.1594C44.6231 44.1594 45.0622 44.3799 45.2818 44.8649C45.6331 44.3799 46.0722 44.1594 46.5552 44.1594C47.2139 44.1594 47.5213 44.3358 47.5213 44.6004C47.5213 44.6004 47.4335 44.6003 47.2578 44.7326C46.9943 44.909 46.7309 45.2176 46.4674 45.6586C45.9405 46.4522 45.3257 47.5987 44.5353 49.0096L42.8666 51.8756ZM38.0363 53.5953C36.8945 54.3007 36.3237 54.9621 36.3237 55.6235C36.3237 55.9763 36.5432 56.1967 36.9385 56.1967C37.6411 56.1967 38.3876 55.7999 39.2219 54.9621C39.9245 54.2567 40.4514 53.5071 40.8466 52.6693C40.0562 52.6252 39.0902 52.9339 38.0363 53.5953ZM40.9784 50.1119C41.2419 50.1119 41.5492 49.9797 41.9005 49.7592C42.3836 49.4505 42.7788 49.0096 43.0862 48.4805L44.5353 45.9231C44.5792 45.7909 44.6231 45.6586 44.6231 45.5704C44.6231 45.0413 44.3596 44.8208 43.8327 44.8208C43.174 44.8208 42.4275 45.394 41.5492 46.4963C40.671 47.5987 40.2758 48.4805 40.2758 49.1419C40.2758 49.8033 40.5393 50.1119 40.9784 50.1119Z" fill="white"/>
<path d="M49.0137 45.835C49.0576 45.7909 49.0576 45.7909 49.0576 45.835L49.1015 45.7909C50.2432 44.6885 51.2093 44.1153 51.9997 44.1153C52.7901 44.1153 53.2293 44.4681 53.2293 45.0854C53.2293 45.6586 52.9658 46.3641 52.4827 47.2459L51.2532 49.4506C51.2093 49.5828 51.1654 49.671 51.1654 49.7592C51.1654 50.0679 51.341 50.2442 51.6923 50.2442C52.2193 50.2442 53.4488 48.9655 55.4249 46.4522C55.4688 46.4082 55.5127 46.3641 55.5566 46.3641C55.6883 46.3641 55.7762 46.4963 55.7762 46.7609C55.7762 46.9814 55.6444 47.29 55.337 47.6868C53.6684 50.1119 52.2193 51.3024 50.9458 51.3024C50.0237 51.3024 49.5406 50.9056 49.5406 50.1119C49.5406 49.5828 49.8919 48.7892 50.5506 47.775C51.2093 46.7609 51.5606 46.1436 51.5606 45.9231C51.5606 45.6586 51.4289 45.5704 51.1215 45.5704C50.375 45.5704 49.5406 46.1436 48.5746 47.3341C47.6963 48.3923 47.1694 49.4065 46.9498 50.3324C46.9059 50.5088 46.9498 50.6852 47.1255 50.8174C47.1694 50.8174 47.1694 50.8615 47.1694 50.9056C47.1694 50.9497 47.1255 51.0379 47.0816 51.082C46.8181 51.2584 46.4668 51.3465 45.9837 51.3465C45.4568 51.3465 45.1933 51.1261 45.1494 50.6411C45.1494 50.2001 45.7642 48.9655 46.9498 46.8932C48.1354 44.8208 48.7063 43.8508 48.7063 43.8949C48.355 43.8508 48.0037 43.7185 47.7841 43.4539C47.5207 43.1894 47.3889 42.9248 47.3889 42.6162C47.3889 41.9989 47.7402 41.6902 48.3989 41.6902C48.838 41.6902 49.1015 41.7784 49.1015 41.9989C49.1015 41.9989 49.0576 42.0871 48.9698 42.1753C48.8819 42.3075 48.7941 42.3957 48.7941 42.528C48.7941 42.7926 48.9698 42.9689 49.2332 43.0571C51.6923 39.3533 53.5366 37.4573 54.6784 37.4573C55.337 37.4573 55.6444 37.766 55.6444 38.3833C55.6444 39.177 55.1175 40.1911 53.9758 41.3375C52.834 42.5721 51.6045 43.3217 50.3311 43.6744L49.0137 45.835ZM50.9019 42.7485C51.9558 42.3075 52.878 41.6021 53.7123 40.632C54.5027 39.7502 54.8979 39.0006 54.8979 38.4715C54.8979 38.2951 54.8101 38.2069 54.6784 38.2069C53.9758 38.1628 52.7462 39.7061 50.9019 42.7485Z" fill="white"/>
<path d="M54.1083 53.8157C53.8888 54.0803 53.6253 54.2125 53.3179 54.2125C52.9666 54.2125 52.7471 54.0362 52.7471 53.6834C52.7471 53.3748 52.8788 53.1102 53.0984 52.8457C53.3618 52.5811 53.6253 52.4929 53.9327 52.4929C54.284 52.4929 54.4157 52.6693 54.4157 53.022C54.4596 53.2866 54.3279 53.5512 54.1083 53.8157ZM55.9087 50.2883C56.9626 50.2883 58.1044 49.6269 59.3778 48.3041C60.0365 47.6427 60.5634 46.9813 60.9587 46.364C61.0026 46.32 61.0465 46.32 61.1343 46.4081C61.2221 46.5404 61.266 46.6727 61.266 46.805C61.266 46.9813 61.1782 47.1577 61.0465 47.4223C59.2461 50.0678 57.1822 51.3906 54.8549 51.3906C53.6692 51.3906 53.0984 50.8615 53.0984 49.8033C53.0984 48.701 53.6692 47.4664 54.8549 46.1877C56.0405 44.8208 57.27 44.1594 58.4557 44.1594C59.1583 44.1594 59.5535 44.5122 59.5535 45.2617C59.5535 45.9672 59.1143 46.6286 58.2361 47.2018C57.3139 47.8191 56.304 48.1278 55.1622 48.0837C54.9427 48.5687 54.8109 48.9655 54.8109 49.3183C54.8109 49.9356 55.1622 50.2883 55.9087 50.2883ZM57.797 46.5404C58.4996 46.0995 58.807 45.6586 58.807 45.3058C58.807 44.9972 58.6313 44.8208 58.3239 44.8208C57.9287 44.8208 57.4018 45.1295 56.787 45.7027C56.26 46.2318 55.8648 46.7609 55.5135 47.29C56.304 47.29 57.0944 47.0254 57.797 46.5404ZM56.1283 43.7185C55.9966 43.7185 55.9527 43.6744 55.9527 43.5421C55.9527 43.6303 56.6113 43.2776 57.8848 42.3957C59.0704 41.602 59.5974 41.2052 59.4656 41.2052C59.29 41.2052 59.5974 41.7784 60.3439 42.9689C60.6952 43.498 60.8708 43.7626 60.8708 43.7185C60.8708 43.7626 60.8708 43.7626 60.783 43.7626C59.8169 43.7626 59.2022 43.3216 58.9387 42.4839C57.7531 43.3216 56.8309 43.7185 56.1283 43.7185Z" fill="white"/>
<path d="M67.8522 43.983C67.7205 44.6003 67.3253 44.909 66.7105 44.909H65.437C65.0418 45.5704 64.2953 46.8491 63.2414 48.7451C62.978 49.186 62.8462 49.5387 62.8462 49.8033C62.8462 50.1119 62.978 50.2442 63.1975 50.2442C63.9001 50.2442 64.7784 49.7151 65.8323 48.6128C66.4909 47.9073 67.0618 47.2018 67.5448 46.4081L67.5887 46.3641C67.7205 46.3641 67.7644 46.5845 67.7644 47.0695C67.7644 47.2018 67.5448 47.5546 67.1057 48.1278C65.481 50.2442 63.8562 51.3465 62.2315 51.3465C61.3971 51.3465 60.958 50.9497 60.958 50.2001C60.958 49.5387 61.8802 47.775 63.7684 44.909H62.7584C62.5828 44.909 62.451 44.909 62.3632 44.9972C62.2754 45.0413 62.2315 45.0413 62.1875 44.9972C62.1875 44.9531 62.1875 44.909 62.1875 44.8649C62.2315 44.7767 62.2754 44.6444 62.3632 44.5122C62.4949 44.2917 62.7145 44.1594 62.8901 44.1153C63.0658 44.0712 63.5049 44.0712 64.2514 44.0712C64.7345 43.2335 65.0418 42.6603 65.1297 42.3516C65.1736 42.1752 65.1736 41.9989 65.0858 41.9107C64.9979 41.8225 64.9979 41.7343 65.0418 41.7343C65.2614 41.5579 65.5249 41.5139 65.7883 41.5139C66.4909 41.5139 66.7983 41.7343 66.7983 42.2193C66.7983 42.3957 66.7105 42.6603 66.5788 42.9248C66.447 43.1453 66.2275 43.5421 65.8762 44.1153H65.9201C66.1396 44.1153 66.4031 44.1153 66.7544 44.1153C67.2814 44.1153 67.5887 44.0712 67.6766 43.939C67.8522 43.8508 67.8522 43.8949 67.8522 43.983Z" fill="white"/>
<path d="M68.6426 45.835C68.6865 45.7909 68.6865 45.7909 68.6865 45.835L68.7304 45.7909C69.8721 44.6885 70.8382 44.1153 71.6286 44.1153C72.419 44.1153 72.8582 44.4681 72.8582 45.0854C72.8582 45.6586 72.5947 46.3641 72.1117 47.2459L70.8821 49.4506C70.8382 49.5828 70.7943 49.671 70.7943 49.7592C70.7943 50.0679 70.9699 50.2442 71.3212 50.2442C71.8482 50.2442 73.0777 48.9655 75.0538 46.4522C75.0977 46.4082 75.1416 46.3641 75.1855 46.3641C75.3172 46.3641 75.4051 46.4963 75.4051 46.7609C75.4051 46.9814 75.2733 47.29 74.9659 47.6868C73.2973 50.1119 71.8482 51.3024 70.5747 51.3024C69.6526 51.3024 69.1695 50.9056 69.1695 50.1119C69.1695 49.5828 69.5208 48.7892 70.1795 47.775C70.8382 46.7609 71.1895 46.1436 71.1895 45.9231C71.1895 45.6586 71.0578 45.5704 70.7504 45.5704C70.0039 45.5704 69.1695 46.1436 68.2035 47.3341C67.3252 48.3923 66.7983 49.4065 66.5787 50.3324C66.5348 50.5088 66.5787 50.6852 66.7544 50.8174C66.7983 50.8174 66.7983 50.8615 66.7983 50.9056C66.7983 50.9497 66.7544 51.0379 66.7105 51.082C66.447 51.2584 66.0957 51.3465 65.6127 51.3465C65.0857 51.3465 64.8222 51.1261 64.7783 50.6411C64.7783 50.2001 65.3931 48.9655 66.5787 46.8932C67.7644 44.8208 68.3352 43.8508 68.3352 43.8949C67.9839 43.8508 67.6326 43.7185 67.4131 43.4539C67.1496 43.1894 67.0178 42.9248 67.0178 42.6162C67.0178 41.9989 67.3691 41.6902 68.0278 41.6902C68.4669 41.6902 68.7304 41.7784 68.7304 41.9989C68.7304 41.9989 68.6865 42.0871 68.5987 42.1753C68.5109 42.3075 68.423 42.3957 68.423 42.528C68.423 42.7926 68.5987 42.9689 68.8622 43.0571C71.3212 39.3533 73.1655 37.4573 74.3073 37.4573C74.9659 37.4573 75.2733 37.766 75.2733 38.3833C75.2733 39.177 74.7464 40.1911 73.6047 41.3375C72.463 42.5721 71.2334 43.3217 69.96 43.6744L68.6426 45.835ZM70.5308 42.7485C71.5847 42.3075 72.5069 41.6021 73.3412 40.632C74.1316 39.7502 74.5268 39.0006 74.5268 38.4715C74.5268 38.2951 74.439 38.2069 74.3073 38.2069C73.6486 38.1628 72.419 39.7061 70.5308 42.7485Z" fill="white"/>
<path d="M83.4853 46.2759C83.5731 46.2759 83.6609 46.4523 83.6609 46.805C83.6609 47.0696 83.4414 47.4664 83.0462 48.0396C81.3336 50.2443 79.7527 51.3907 78.2158 51.3907C77.3376 51.3907 76.8985 50.9938 76.8985 50.2443C75.9763 50.9938 75.142 51.3907 74.3515 51.3907C73.4733 51.3907 73.0342 51.0379 73.0342 50.2443C73.0342 49.9356 73.122 49.627 73.3416 49.3183L75.5372 45.4381C75.625 45.2618 75.6689 45.0854 75.6689 44.9972C75.6689 44.909 75.625 44.7768 75.5372 44.6886C75.4493 44.6004 75.4054 44.5563 75.4054 44.5563C75.4054 44.5122 75.4493 44.4681 75.4933 44.424C75.7567 44.2476 76.0202 44.2036 76.3715 44.2036C77.0302 44.2036 77.3376 44.424 77.3376 44.909C77.3376 45.0854 77.2497 45.35 77.118 45.6145C76.1519 47.2019 75.4054 48.4805 74.8785 49.5829C74.8346 49.7151 74.7907 49.8033 74.7907 49.9356C74.7907 50.2002 74.9663 50.2883 75.2298 50.2883C76.1959 50.2883 77.3376 49.1419 78.611 46.8491C79.2258 45.7909 79.5332 45.1736 79.5332 45.0413C79.5332 44.909 79.4893 44.8208 79.4014 44.7327C79.3136 44.6445 79.2697 44.6004 79.2697 44.6004C79.2697 44.5563 79.3136 44.5122 79.3575 44.4681C79.621 44.2917 79.8845 44.2476 80.2358 44.2476C80.8945 44.2476 81.2018 44.4681 81.2018 44.9531C81.2018 45.1295 81.114 45.3941 80.9823 45.6586C80.0162 47.2459 79.2697 48.5246 78.7428 49.627C78.6988 49.7592 78.6549 49.8474 78.6549 49.9797C78.6549 50.2443 78.8306 50.3324 79.0941 50.3324C80.148 50.3324 81.5092 49.1419 83.1779 46.805L83.4853 46.2759Z" fill="white"/>
<path d="M91.7843 46.3641C91.8721 46.3641 91.9599 46.5845 91.9599 47.0254C91.9599 47.2018 91.7404 47.5987 91.3452 48.1278C89.7204 50.2442 88.1396 51.3465 86.5148 51.3465C85.6805 51.3465 85.2853 50.9938 85.2853 50.2883C84.5388 50.9938 83.8362 51.3024 83.0897 51.3024C82.5627 51.3024 82.2114 51.1261 81.904 50.8174C81.6406 50.5088 81.5527 50.156 81.5527 49.7151C81.5527 48.5687 82.1236 47.3782 83.2653 46.0995C84.4509 44.7326 85.6805 44.0712 86.91 44.0712C87.5248 44.0712 87.9639 44.2917 88.1835 44.7767C88.5348 44.2917 88.9739 44.0712 89.4569 44.0712C90.1156 44.0712 90.423 44.2476 90.423 44.5122C90.423 44.5122 90.3352 44.5122 90.1595 44.6444C89.8961 44.8208 89.6326 45.1295 89.3691 45.5704C88.8422 46.3641 88.2274 47.5105 87.437 48.9214C87.2174 49.2742 87.1296 49.5828 87.1296 49.8033C87.1296 50.0678 87.2613 50.2001 87.4809 50.2001C88.5348 50.2001 89.9839 48.9214 91.8282 46.3641C91.7404 46.4081 91.7843 46.3641 91.7843 46.3641ZM83.2214 53.8157C83.0018 54.0803 82.7384 54.2126 82.431 54.2126C82.0797 54.2126 81.8601 54.0362 81.8601 53.6834C81.8601 53.3748 81.9919 53.1102 82.2114 52.8457C82.4749 52.5811 82.7384 52.4929 83.0458 52.4929C83.397 52.4929 83.5288 52.6693 83.5288 53.0221C83.5727 53.2866 83.441 53.5512 83.2214 53.8157ZM83.8801 50.1119C84.1436 50.1119 84.4509 49.9797 84.8022 49.7592C85.2853 49.4505 85.6805 49.0096 85.9879 48.4805L87.437 45.9231C87.4809 45.7909 87.5248 45.6586 87.5248 45.5704C87.5248 45.0413 87.2613 44.8208 86.7344 44.8208C86.0757 44.8208 85.3292 45.394 84.4509 46.4963C83.5727 47.5986 83.1775 48.4805 83.1775 49.1419C83.1775 49.8033 83.397 50.1119 83.8801 50.1119ZM85.6366 43.2776C85.5048 43.2776 85.4609 43.2335 85.4609 43.1012C85.4609 43.1894 86.1196 42.8366 87.3931 41.9548C88.5787 41.1611 89.1056 40.7643 88.9739 40.7643C88.7983 40.7643 89.1056 41.3375 89.8521 42.528C90.2034 43.0571 90.3791 43.3217 90.3791 43.2776C90.3791 43.3217 90.3791 43.3217 90.2913 43.3217C89.3252 43.3217 88.7104 42.8807 88.447 42.043C87.2613 42.8807 86.3392 43.2776 85.6366 43.2776Z" fill="white"/>
<path d="M96.0007 43.983C95.8689 44.6003 95.4737 44.909 94.8589 44.909H93.5855C93.1903 45.5704 92.4438 46.8491 91.3899 48.7451C91.1264 49.186 90.9947 49.5387 90.9947 49.8033C90.9947 50.1119 91.1264 50.2442 91.346 50.2442C92.0486 50.2442 92.9268 49.7151 93.9807 48.6128C94.6394 47.9073 95.2102 47.2018 95.6933 46.4081L95.7372 46.3641C95.8689 46.3641 95.9128 46.5845 95.9128 47.0695C95.9128 47.2018 95.6933 47.5546 95.2541 48.1278C93.6294 50.2442 92.0046 51.3465 90.3799 51.3465C89.5456 51.3465 89.1064 50.9497 89.1064 50.2001C89.1064 49.5387 90.0286 47.775 91.9168 44.909H90.9068C90.7312 44.909 90.5995 44.909 90.5116 44.9972C90.4238 45.0413 90.3799 45.0413 90.336 44.9972C90.336 44.9531 90.336 44.909 90.336 44.8649C90.3799 44.7767 90.4238 44.6444 90.5116 44.5122C90.6434 44.2917 90.8629 44.1594 91.0386 44.1153C91.2142 44.0712 91.6534 44.0712 92.3999 44.0712C92.8829 43.2335 93.1903 42.6603 93.2781 42.3516C93.322 42.1752 93.322 41.9989 93.2342 41.9107C93.1464 41.8225 93.1464 41.7343 93.1903 41.7343C93.4098 41.5579 93.6733 41.5139 93.9368 41.5139C94.6394 41.5139 94.9468 41.7343 94.9468 42.2193C94.9468 42.3957 94.8589 42.6603 94.7272 42.9248C94.5955 43.1453 94.3759 43.5421 94.0246 44.1153H94.0685C94.2881 44.1153 94.5516 44.1153 94.9028 44.1153C95.4298 44.1153 95.7372 44.0712 95.825 43.939C95.9567 43.8508 96.0007 43.8949 96.0007 43.983Z" fill="white"/>
<path d="M47.2569 84.9893H42.7339V58.7982H35.6641V91.9118H36.9375H52.9215C50.4186 90.1922 48.4425 87.8112 47.2569 84.9893Z" fill="white"/>
<path d="M67.3246 81.7705L67.2368 81.9028C66.7099 82.5642 66.3586 82.961 66.1829 83.1374C65.5682 83.7547 64.8656 84.1956 64.163 84.5043C63.4165 84.8129 62.626 84.9452 61.7478 84.9452C61.0452 84.9452 60.4304 84.9011 59.9474 84.8129L67.0612 77.6699C67.2807 74.2748 68.5981 71.2324 70.662 68.8073C70.4424 68.5868 70.2229 68.4104 70.0033 68.2341C67.632 66.3381 64.8217 65.368 61.7478 65.368C59.9474 65.368 58.2348 65.6767 56.654 66.3381C55.0732 66.9995 53.6241 67.9695 52.3506 69.2482C51.0771 70.5269 50.0672 71.982 49.4524 73.5693C48.7937 75.1566 48.4863 76.8762 48.4863 78.684C48.4863 80.4918 48.7937 82.2115 49.4524 83.7988C50.1111 85.3861 51.0771 86.8412 52.3506 88.1199C53.6241 89.3986 55.0732 90.4127 56.654 91.03C58.2348 91.6914 59.9474 92 61.7478 92C63.5482 92 65.2608 91.6914 66.8416 91.03C68.2468 90.4568 69.5203 89.619 70.662 88.5167C69.0372 86.6207 67.8516 84.2838 67.3246 81.7705ZM55.4684 79.4777C55.4684 79.2132 55.4684 78.9486 55.4684 78.64C55.4684 77.7581 55.644 76.9644 55.9075 76.2149C56.2149 75.4653 56.654 74.8039 57.3127 74.1866C57.9274 73.5693 58.63 73.0843 59.3326 72.7756C60.0791 72.467 60.8257 72.3347 61.7478 72.3347C62.0552 72.3347 62.3187 72.3347 62.5821 72.3347L55.4684 79.4777Z" fill="white"/>
<path d="M89.1055 67.0877V67.2199C88.5786 66.8672 88.0077 66.5585 87.4368 66.294C86.0317 65.6767 84.5386 65.368 83.0017 65.368C81.2013 65.368 79.4887 65.6767 77.9079 66.3381C76.3271 66.9995 74.878 67.9695 73.6045 69.2482C72.3311 70.5269 71.365 71.982 70.7063 73.5693C70.0476 75.1566 69.7402 76.8762 69.7402 78.684C69.7402 80.4918 70.0476 82.2115 70.7063 83.7988C71.365 85.3861 72.3311 86.8412 73.6045 88.1199C74.878 89.3986 76.3271 90.3686 77.9079 91.03C79.4887 91.6914 81.2013 92 83.0017 92C84.5386 92 86.0756 91.6914 87.4368 91.0741C88.0077 90.8095 88.5786 90.5009 89.1055 90.1481V91.4709H95.9997V67.0877H89.1055ZM87.4368 83.1374C86.8221 83.7547 86.1195 84.1956 85.4169 84.5043C84.6704 84.8129 83.88 84.9452 83.0017 84.9452C82.1235 84.9452 81.333 84.7688 80.5865 84.5043C79.84 84.1956 79.1814 83.7547 78.5666 83.0933C77.9518 82.476 77.4688 81.7705 77.1614 81.0651C76.854 80.3155 76.7223 79.5659 76.7223 78.64C76.7223 77.7581 76.8979 76.9644 77.1614 76.2149C77.4688 75.4653 77.9079 74.8039 78.5227 74.1866C79.1374 73.5693 79.84 73.0843 80.5426 72.8197C81.2891 72.5111 82.0796 72.3788 82.9578 72.3788C83.836 72.3788 84.6265 72.5552 85.373 72.8197C86.1195 73.1284 86.7782 73.5693 87.3929 74.1866C88.3151 75.1125 88.842 76.1267 89.0616 77.1849V80.095C88.8859 81.1973 88.359 82.1674 87.4368 83.1374Z" fill="white"/>
</g>
<defs>
<clipPath id="clip0">
<rect width="66" height="78" fill="white" transform="translate(30 14)"/>
</clipPath>
</defs>
</svg>
